<svg width="16" height="16" viewBox="0 0 16 16" fill="none" xmlns="http://www.w3.org/2000/svg">
<path fill-rule="evenodd" clip-rule="evenodd" d="M3 6.47412C3 6.21227 3.22145 6 3.49461 6H11.213C11.438 6 11.6278 6.14394 11.6879 6.34099C11.6903 6.34096 11.6928 6.34095 11.6954 6.34095H13.2689C14.2249 6.34095 15 7.08389 15 8.00036V10.2656C15 11.182 14.2249 11.925 13.2689 11.925H11.6954H11.6886C11.5368 13.0947 10.496 14 9.23457 14H5.47307C4.10723 14 3 12.9386 3 11.6294V6.47412ZM11.7077 10.5026H13.2689C13.4055 10.5026 13.5162 10.3965 13.5162 10.2656V8.00036C13.5162 7.86944 13.4055 7.7633 13.2689 7.7633H11.7077V10.5026Z" fill="#FFC56D"/>
<path fill-rule="evenodd" clip-rule="evenodd" d="M2.16113 7.65149C1.47423 7.32494 1 6.6298 1 5.825C1 4.70663 1.91578 3.8 3.04545 3.8C3.29342 3.8 3.53107 3.84368 3.751 3.9237C3.91065 2.83569 4.85675 2 6 2C7.14325 2 8.08935 2.83569 8.249 3.9237C8.46893 3.84369 8.70658 3.8 8.95455 3.8C10.0842 3.8 11 4.70663 11 5.825C11 6.94338 10.0842 7.85001 8.95455 7.85001C8.95286 7.85001 8.95119 7.85001 8.94951 7.85H4.63637V9.77476C4.63637 10.4514 4.08227 11 3.39875 11C2.71523 11 2.16113 10.4514 2.16113 9.77476V7.65149Z" fill="#FF840A"/>
</svg>
