<svg width="48" height="48" viewBox="0 0 48 48" fill="none" xmlns="http://www.w3.org/2000/svg">
<path fill-rule="evenodd" clip-rule="evenodd" d="M16.857 5.25711C15.15 5.25711 13.5236 6.12566 12.6422 7.65339C11.5707 9.51209 9.85371 12.691 8.40278 16.3133C9.20733 16.3032 10.1984 16.2913 11.3833 16.2804C12.4503 13.792 13.6641 11.3692 15.0184 9.02479C15.3813 8.39395 16.0725 7.9999 16.8561 7.9999H19.4297C19.7934 7.9999 20.1422 7.85541 20.3994 7.59823C20.6566 7.34104 20.8011 6.99222 20.8011 6.6285C20.8011 6.26479 20.6566 5.91597 20.3994 5.65878C20.1422 5.4016 19.7934 5.25711 19.4297 5.25711H16.857ZM35.358 7.65339C36.4304 9.51209 38.1474 12.691 39.5974 16.3133C38.7929 16.3032 37.8027 16.2913 36.6169 16.2804C35.5502 13.792 34.3367 11.3692 32.9827 9.02479C32.6189 8.39395 31.9277 7.9999 31.1442 7.9999H28.5714C28.2077 7.9999 27.8589 7.85541 27.6017 7.59823C27.3445 7.34104 27.2 6.99222 27.2 6.6285C27.2 6.26479 27.3445 5.91597 27.6017 5.65878C27.8589 5.4016 28.2077 5.25711 28.5714 5.25711H31.1442C32.8511 5.25711 34.4757 6.12566 35.358 7.65339ZM24.0001 24.4575C15.1519 24.4575 9.79246 24.3945 7.32121 24.3561C7.03472 24.3511 6.74912 24.3227 6.46729 24.271C6.55597 25.061 6.66659 25.9862 6.80191 27.0138C7.24349 30.3701 7.94748 34.8372 8.99796 39.2421C9.29617 40.5118 9.98162 41.6574 10.9595 42.5204C11.9373 43.3834 13.1592 43.9212 14.4561 44.0593C17.6265 44.3981 20.8126 44.569 24.001 44.5713C27.8565 44.5713 31.21 44.3098 33.5459 44.0593C34.8429 43.9212 36.0649 43.3832 37.0428 42.52C38.0207 41.6568 38.706 40.511 39.0041 39.2412C40.0536 34.8372 40.7585 30.3701 41.2001 27.0129C41.3345 25.9862 41.4461 25.061 41.5348 24.2701C41.2526 24.3222 40.9667 24.3509 40.6799 24.3561C38.2077 24.3945 32.8483 24.4575 24.0001 24.4575Z" fill="#FFC56D"/>
<path d="M23.9997 24.4576C15.1515 24.4576 9.79206 24.3954 7.32081 24.357C6.09204 24.3378 4.13643 23.8414 3.6217 21.8903C3.49088 21.3852 3.42604 20.8652 3.4288 20.3434C3.4288 19.761 3.50285 19.2463 3.62079 18.7965C4.13643 16.8454 6.09204 16.3499 7.32081 16.3307C9.79206 16.2914 15.1515 16.2292 23.9997 16.2292C32.8479 16.2292 38.2074 16.2914 40.6786 16.3298C41.9074 16.3499 43.863 16.8454 44.3777 18.7965C44.4966 19.2454 44.5706 19.761 44.5706 20.3434C44.5706 20.9258 44.4966 21.4405 44.3786 21.8903C43.863 23.8414 41.9074 24.3378 40.6786 24.357C38.2064 24.3954 32.8479 24.4576 23.9997 24.4576Z" fill="#FF840A"/>
<path d="M24.0008 9.82841C25.4691 9.82841 26.5406 9.8083 27.2638 9.78727C28.4916 9.7507 29.8091 8.90684 29.9188 7.35533C29.953 6.87137 29.953 6.38561 29.9188 5.90165C29.8091 4.35015 28.4916 3.50629 27.2638 3.46972C26.5415 3.44869 25.4691 3.42857 24.0008 3.42857C22.5325 3.42857 21.461 3.44869 20.7378 3.46972C19.5099 3.50629 18.1925 4.35015 18.0828 5.90165C18.0486 6.38561 18.0486 6.87137 18.0828 7.35533C18.1925 8.90684 19.5099 9.7507 20.7378 9.78727C21.46 9.8083 22.5325 9.82841 24.0008 9.82841Z" fill="#FF840A"/>
<path fill-rule="evenodd" clip-rule="evenodd" d="M16.5168 29.0404C16.6956 29.018 16.8769 29.031 17.0506 29.0787C17.2243 29.1264 17.3869 29.2078 17.5291 29.3184C17.6713 29.4289 17.7903 29.5664 17.8794 29.7229C17.9685 29.8795 18.0259 30.052 18.0482 30.2307L18.9625 37.5448C18.9848 37.7236 18.9717 37.9049 18.924 38.0786C18.8762 38.2522 18.7947 38.4148 18.6841 38.5569C18.5736 38.6991 18.4361 38.8181 18.2795 38.9071C18.1229 38.9961 17.9504 39.0534 17.7717 39.0758C17.4107 39.1209 17.0467 39.0208 16.7596 38.7974C16.4725 38.5741 16.2858 38.2459 16.2407 37.885L15.3265 30.5709C15.2815 30.2101 15.3816 29.8462 15.6048 29.5592C15.828 29.2722 16.1561 29.0856 16.5168 29.0404Z" fill="#FF840A"/>
<path fill-rule="evenodd" clip-rule="evenodd" d="M31.4846 29.0404C31.3058 29.018 31.1245 29.031 30.9508 29.0787C30.7771 29.1264 30.6145 29.2078 30.4723 29.3184C30.3301 29.4289 30.2111 29.5664 30.122 29.7229C30.0329 29.8795 29.9755 30.052 29.9532 30.2307L29.0389 37.5448C28.9938 37.9058 29.0939 38.2698 29.3173 38.5569C29.5406 38.844 29.8688 39.0307 30.2297 39.0758C30.5907 39.1209 30.9547 39.0208 31.2418 38.7974C31.5289 38.5741 31.7156 38.2459 31.7607 37.885L32.6749 30.5709C32.7199 30.2101 32.6198 29.8462 32.3966 29.5592C32.1734 29.2722 31.8453 29.0856 31.4846 29.0404Z" fill="#FF840A"/>
<path fill-rule="evenodd" clip-rule="evenodd" d="M24.0003 29.0297C24.364 29.0297 24.7128 29.1742 24.97 29.4314C25.2272 29.6886 25.3717 30.0374 25.3717 30.4011V37.7152C25.3717 38.0789 25.2272 38.4278 24.97 38.6849C24.7128 38.9421 24.364 39.0866 24.0003 39.0866C23.6366 39.0866 23.2878 38.9421 23.0306 38.6849C22.7734 38.4278 22.6289 38.0789 22.6289 37.7152V30.4011C22.6289 30.0374 22.7734 29.6886 23.0306 29.4314C23.2878 29.1742 23.6366 29.0297 24.0003 29.0297Z" fill="#FF840A"/>
</svg>
