<svg width="48" height="48" viewBox="0 0 48 48" fill="none" xmlns="http://www.w3.org/2000/svg">
<path d="M18.5325 24.9037C17.9501 24.3213 16.9842 24.401 16.5053 25.071L10.1623 33.9443C10.0165 34.1481 9.64236 34.236 9.26359 34.0491C8.77673 33.809 8.22887 33.6744 7.65083 33.6744C5.63453 33.6744 4 35.309 4 37.3256C4 38.9616 5.07552 40.3451 6.5569 40.8099C6.85044 40.902 7.0966 41.1483 7.18861 41.4419C7.65304 42.9239 9.03672 44 10.6729 44C12.6892 44 14.3237 42.3652 14.3237 40.3488C14.3237 39.7724 14.1899 39.2261 13.9512 38.7403C13.7654 38.3621 13.8531 37.9889 14.0565 37.8433L22.9288 31.4945C23.5984 31.0153 23.678 30.0496 23.0957 29.4674L18.5325 24.9037Z" fill="#FFC56D"/>
<path fill-rule="evenodd" clip-rule="evenodd" d="M30.2677 4.00855C33.745 4.14176 36.9625 5.82102 39.5711 8.42977C42.1795 11.0385 43.8586 14.2565 43.9918 17.7341C44.1259 21.2361 42.6844 24.8005 39.4336 28.0516C36.2125 31.2732 31.7341 33.6745 27.396 34.6418C23.1075 35.5979 18.5906 35.2155 15.6894 32.3139C12.7881 29.4123 12.4056 24.8949 13.3617 20.606C14.3288 16.2674 16.73 11.7887 19.9511 8.56727C23.202 5.31611 26.7659 3.8744 30.2677 4.00855Z" fill="#FF840A"/>
<path fill-rule="evenodd" clip-rule="evenodd" d="M34.0193 26.7207C34.5399 26.2 34.5399 25.3557 34.0193 24.835C33.4986 24.3144 32.6544 24.3144 32.1338 24.835C30.8461 26.1229 29.122 27.1747 27.3487 27.7965C25.5588 28.4242 23.8557 28.5675 22.5758 28.2176C21.8655 28.0234 21.1324 28.4418 20.9382 29.1521C20.744 29.8624 21.1623 30.5956 21.8726 30.7899C23.8453 31.3292 26.1281 31.0503 28.231 30.313C30.3505 29.5698 32.4262 28.3138 34.0193 26.7207Z" fill="#FFC56D"/>
</svg>
