<svg width="16" height="16" viewBox="0 0 16 16" fill="none" xmlns="http://www.w3.org/2000/svg">
<path d="M1 8C1 11.8659 4.13413 15 8 15C11.8659 15 15 11.8659 15 8C15 4.13382 11.8659 1 8 1C4.13413 1 1 4.13382 1 8Z" fill="#FFC56D"/>
<path fill-rule="evenodd" clip-rule="evenodd" d="M8.00011 13.4444C4.99322 13.4444 2.55566 11.0069 2.55566 8C2.55566 4.99312 4.99322 2.55556 8.00011 2.55556C11.007 2.55556 13.4446 4.99312 13.4446 8C13.4446 11.0069 11.007 13.4444 8.00011 13.4444ZM8.54455 4.56378C8.54455 4.41939 8.48719 4.28091 8.38509 4.1788C8.28299 4.0767 8.1445 4.01934 8.00011 4.01934C7.85571 4.01934 7.71723 4.0767 7.61513 4.1788C7.51302 4.28091 7.45566 4.41939 7.45566 4.56378V5.10076C7.12276 5.16563 6.80559 5.29442 6.52171 5.48C6.11104 5.75378 5.74455 6.20085 5.74455 6.78854C5.74455 7.09872 5.82389 7.37809 5.98442 7.6164C6.14122 7.84974 6.35309 8.00996 6.56744 8.12445C6.96037 8.33383 7.45566 8.43245 7.85233 8.51178L7.8934 8.52018C8.34544 8.6104 8.68486 8.6832 8.92006 8.80889C9.02677 8.86552 9.08215 8.91903 9.11264 8.96414C9.1394 9.00365 9.16677 9.06649 9.16677 9.18409C9.16677 9.28054 9.10549 9.43267 8.87433 9.58667C8.65313 9.73414 8.34015 9.83338 8.02002 9.83712C8.00634 9.83659 7.99264 9.83659 7.97895 9.83712C7.63324 9.83333 7.29171 9.76111 6.97406 9.62463C6.87702 9.58339 6.78285 9.53568 6.6922 9.48183L6.61286 9.4308C6.49691 9.3471 6.35269 9.31237 6.21134 9.33413C6.07 9.35588 5.94289 9.43238 5.85749 9.54709C5.77208 9.66179 5.73523 9.80549 5.75491 9.94714C5.77459 10.0888 5.84921 10.217 5.96264 10.3041L5.96295 10.3044L5.96358 10.305C6.01771 10.3452 6.07433 10.3809 6.13189 10.4155C6.2302 10.4746 6.36989 10.5505 6.54504 10.6255C6.78335 10.7275 7.09197 10.8302 7.45566 10.8852V11.4079C7.45566 11.5523 7.51302 11.6908 7.61513 11.7929C7.71723 11.895 7.85571 11.9524 8.00011 11.9524C8.1445 11.9524 8.28299 11.895 8.38509 11.7929C8.48719 11.6908 8.54455 11.5523 8.54455 11.4079V10.8719C8.87747 10.8069 9.19463 10.678 9.47851 10.4923C9.88917 10.2188 10.2557 9.77178 10.2557 9.18409C10.2557 8.87392 10.1763 8.59423 10.0161 8.35592C9.859 8.12289 9.64713 7.96236 9.43277 7.84818C9.04015 7.63849 8.54486 7.53987 8.14789 7.46054L8.10682 7.45245C7.65478 7.36223 7.31535 7.28912 7.08015 7.16374C6.97344 7.1068 6.91806 7.0536 6.88757 7.00849C6.86113 6.96867 6.83344 6.90583 6.83344 6.78854C6.83344 6.69178 6.89473 6.53996 7.12589 6.38596C7.35175 6.23538 7.67344 6.1352 8.00011 6.1352C8.4226 6.1352 8.77695 6.24098 9.02615 6.34769C9.1506 6.40089 9.24611 6.45347 9.30802 6.4908C9.33479 6.50675 9.36105 6.52356 9.38673 6.5412L9.38735 6.54152C9.50329 6.62466 9.64724 6.65898 9.78822 6.63708C9.92921 6.61518 10.056 6.53881 10.1412 6.42441C10.2265 6.31001 10.2634 6.16671 10.2441 6.02535C10.2248 5.88399 10.1507 5.75586 10.0379 5.66854L10.0373 5.66792L10.0366 5.66729L10.0351 5.66636C9.98126 5.62724 9.92562 5.59069 9.86833 5.55685C9.77002 5.49774 9.63064 5.42214 9.45517 5.34685C9.16386 5.22212 8.85786 5.13493 8.54455 5.08738V4.56378Z" fill="#FF840A"/>
</svg>
