<svg width="48" height="48" viewBox="0 0 48 48" fill="none" xmlns="http://www.w3.org/2000/svg">
<path fill-rule="evenodd" clip-rule="evenodd" d="M28.887 10.6662C28.887 7.01892 26.1474 3.99925 22.2201 3.99925C21.8665 3.99925 21.5273 4.13973 21.2773 4.38979C21.0272 4.63985 20.8867 4.979 20.8867 5.33263C20.8867 5.68627 21.0272 6.02542 21.2773 6.27548C21.5273 6.52554 21.8665 6.66602 22.2201 6.66602C24.6051 6.66602 26.2202 8.42164 26.2202 10.6662C26.2202 11.0198 26.3607 11.359 26.6108 11.609C26.8608 11.8591 27.2 11.9995 27.5536 11.9995C27.9073 11.9995 28.2464 11.8591 28.4965 11.609C28.7465 11.359 28.887 11.0198 28.887 10.6662Z" fill="#FF840A"/>
<path d="M38.4573 12.6795C37.9341 12.1598 37.2945 11.7722 36.5916 11.549C35.8887 11.3257 35.1427 11.2733 34.4154 11.3959C30.9317 11.972 24.9626 13.9089 19.2513 16.3695C16.3828 17.6051 13.5444 18.9891 11.0848 20.4229C8.6438 21.8452 6.49794 23.3626 5.07567 24.8853C4.28275 25.7351 3.99474 26.8241 4.00007 27.8143C4.03118 33.7745 4.30408 37.4796 4.54409 39.6156C4.77699 41.6824 6.40194 43.1838 8.41357 43.3811C11.131 43.646 16.213 44.0007 23.9875 44.0007C31.7655 44.0007 36.8582 43.6451 39.58 43.3802C41.5926 43.1847 43.2184 41.6824 43.4513 39.6139C43.7073 37.3436 43.9989 33.3025 43.9989 26.6667C43.9989 19.2371 40.4876 14.6841 38.4573 12.6795Z" fill="#FFC56D"/>
<path d="M43.9981 26.6668H4.13259C4.03926 27.0517 3.99926 27.4401 4.00103 27.8144C4.03215 33.7746 4.30504 37.4796 4.54505 39.6157C4.77795 41.6824 6.4029 43.1838 8.41453 43.3812C11.132 43.6461 16.2139 44.0008 23.9884 44.0008C31.7665 44.0008 36.8591 43.6452 39.581 43.3803C41.5935 43.1847 43.2194 41.6824 43.4523 39.6139C43.7083 37.3445 43.9998 33.3026 43.9998 26.6668H43.9981Z" fill="#FF840A"/>
<path d="M32.8868 15.1108C32.8868 15.8112 32.7488 16.5047 32.4808 17.1518C32.2128 17.7989 31.8199 18.3869 31.3246 18.8821C30.8294 19.3774 30.2414 19.7703 29.5943 20.0383C28.9472 20.3063 28.2537 20.4443 27.5533 20.4443C26.8528 20.4443 26.1593 20.3063 25.5122 20.0383C24.8651 19.7703 24.2771 19.3774 23.7819 18.8821C23.2866 18.3869 22.8938 17.7989 22.6257 17.1518C22.3577 16.5047 22.2197 15.8112 22.2197 15.1108C22.2197 13.6962 22.7816 12.3396 23.7819 11.3394C24.7821 10.3392 26.1387 9.77724 27.5533 9.77724C28.9678 9.77724 30.3244 10.3392 31.3246 11.3394C32.3249 12.3396 32.8868 13.6962 32.8868 15.1108Z" fill="#FF840A"/>
<path d="M43.8665 33.7781H4.12988C4.17077 34.7693 4.21877 35.6555 4.27033 36.4449H43.726C43.7776 35.6555 43.8256 34.7693 43.8665 33.7781Z" fill="#FFC56D"/>
</svg>
