<svg width="16" height="16" viewBox="0 0 16 16" fill="none" xmlns="http://www.w3.org/2000/svg">
<path fill-rule="evenodd" clip-rule="evenodd" d="M9 2.72569C9 2.53323 8.89464 2.34864 8.70711 2.21255C8.51957 2.07646 8.26522 2 8 2C7.73478 2 7.48043 2.07646 7.29289 2.21255C7.10536 2.34864 7 2.53323 7 2.72569V3.99903C7.66637 3.97817 8.33367 3.97849 9 4V2.72569Z" fill="#FF840A"/>
<path d="M5.00983 4.2781C5.96647 4.09105 6.77374 4 7.98569 4C9.20189 4 9.97419 4.09204 10.9679 4.27711C11.3948 4.35826 11.7879 4.60568 12.004 4.98967C12.3004 5.50856 12.5131 6.06547 12.6354 6.6424C12.6778 6.84924 12.8409 7.01848 13.0592 7.064L13.449 7.14812C14.0455 7.27678 14.4968 7.71124 14.6525 8.2417L14.6663 8.28623L14.6737 8.31197C14.8231 8.82065 15 9.4194 15 10.0439C15.0012 10.5947 14.8883 11.1404 14.6673 11.6511C14.2828 12.5527 13.2393 13 12.2 13H3.81377C2.73954 13 1.66636 12.519 1.29663 11.5759C1.10073 11.0858 1.00027 10.567 1 10.0439C1 9.4194 1.17692 8.82065 1.3263 8.31197L1.33371 8.28623L1.35066 8.22883C1.42569 7.96673 1.57406 7.72801 1.78054 7.53721C1.98702 7.34641 2.24416 7.2104 2.52554 7.14317L2.94612 7.04817C3.05198 7.02325 3.14789 6.9703 3.22231 6.89568C3.29673 6.82107 3.34651 6.72796 3.36564 6.62756C3.48324 6.05355 3.70041 5.49538 4.00128 4.97086C4.21528 4.59776 4.59561 4.35826 5.00983 4.2781Z" fill="#FFC56D"/>
<path d="M4.5 14C5.46016 14 6 13.4602 6 12.5C6 11.5398 5.46016 11 4.5 11C3.53984 11 3 11.5389 3 12.499C3 13.4592 3.53984 14 4.5 14Z" fill="#FF840A"/>
<path d="M11.5 14C12.4602 14 13 13.4602 13 12.5C13 11.5398 12.4602 11 11.5 11C10.5398 11 10 11.5389 10 12.499C10 13.4592 10.5398 14 11.5 14Z" fill="#FF840A"/>
</svg>
