<svg width="24" height="24" viewBox="0 0 24 24" fill="none" xmlns="http://www.w3.org/2000/svg">
<path fill-rule="evenodd" clip-rule="evenodd" d="M16.6919 10.4771V17.6971H20.4976V10.4756L20.4433 10.4771H16.6919Z" fill="#FF840A"/>
<path fill-rule="evenodd" clip-rule="evenodd" d="M10.0972 10.4771V17.6971H13.9029V10.4771H10.0972Z" fill="#FF840A"/>
<path fill-rule="evenodd" clip-rule="evenodd" d="M3.50244 10.4756V17.6971H7.30816V10.4771H3.55673L3.50244 10.4756Z" fill="#FF840A"/>
<path fill-rule="evenodd" clip-rule="evenodd" d="M11.1229 2.33278C11.3937 2.17358 11.7027 2.09119 12.0169 2.09446C12.331 2.09773 12.6383 2.18655 12.9057 2.35135L21.35 7.87992C21.95 8.27564 22.1314 8.95706 21.9 9.53849C21.6771 10.0985 21.1143 10.4771 20.4429 10.4771H3.55714C2.88571 10.4771 2.32286 10.0985 2.1 9.53849C1.86857 8.95706 2.05143 8.27564 2.65 7.88135L2.65143 7.87992L11.0943 2.35135C11.1037 2.34493 11.1132 2.33874 11.1229 2.33278ZM2 18.9671C2 18.1099 2.81714 17.6971 3.42857 17.6971H20.5714C21.1829 17.6971 22 18.1099 22 18.9685V20.6356C22 21.4928 21.1829 21.9056 20.5714 21.9056H3.42857C2.81714 21.9056 2 21.4928 2 20.6342V18.9671Z" fill="#FFC56D"/>
</svg>
