<svg width="24" height="24" viewBox="0 0 24 24" fill="none" xmlns="http://www.w3.org/2000/svg">
<path d="M2 12C2 17.5227 6.47733 22 12 22C17.5227 22 22 17.5227 22 12C22 6.47689 17.5227 2 12 2C6.47733 2 2 6.47689 2 12Z" fill="#FFC56D"/>
<path fill-rule="evenodd" clip-rule="evenodd" d="M11.9999 19.7778C7.70439 19.7778 4.22217 16.2956 4.22217 12C4.22217 7.70444 7.70439 4.22222 11.9999 4.22222C16.2955 4.22222 19.7777 7.70444 19.7777 12C19.7777 16.2956 16.2955 19.7778 11.9999 19.7778ZM12.7777 7.09111C12.7777 6.88483 12.6958 6.687 12.5499 6.54114C12.4041 6.39528 12.2062 6.31333 11.9999 6.31333C11.7937 6.31333 11.5958 6.39528 11.45 6.54114C11.3041 6.687 11.2222 6.88483 11.2222 7.09111V7.85822C10.7466 7.9509 10.2935 8.13488 9.88795 8.4C9.30128 8.79111 8.77772 9.42978 8.77772 10.2693C8.77772 10.7124 8.89106 11.1116 9.12039 11.452C9.34439 11.7853 9.64706 12.0142 9.95328 12.1778C10.5146 12.4769 11.2222 12.6178 11.7888 12.7311L11.8475 12.7431C12.4933 12.872 12.9782 12.976 13.3142 13.1556C13.4666 13.2364 13.5457 13.3129 13.5893 13.3773C13.6275 13.4338 13.6666 13.5236 13.6666 13.6916C13.6666 13.8293 13.5791 14.0467 13.2488 14.2667C12.9328 14.4773 12.4857 14.6191 12.0284 14.6244C12.0088 14.6237 11.9893 14.6237 11.9697 14.6244C11.4759 14.619 10.9879 14.5159 10.5342 14.3209C10.3955 14.262 10.261 14.1938 10.1315 14.1169L10.0182 14.044C9.85253 13.9244 9.64648 13.8748 9.44457 13.9059C9.24265 13.937 9.06106 14.0463 8.93906 14.2101C8.81705 14.374 8.76441 14.5793 8.79252 14.7816C8.82063 14.984 8.92723 15.1671 9.08928 15.2916L9.08972 15.292L9.09061 15.2929C9.16795 15.3502 9.24884 15.4013 9.33106 15.4507C9.4715 15.5351 9.67106 15.6436 9.92128 15.7507C10.2617 15.8964 10.7026 16.0431 11.2222 16.1218V16.8684C11.2222 17.0747 11.3041 17.2726 11.45 17.4184C11.5958 17.5643 11.7937 17.6462 11.9999 17.6462C12.2062 17.6462 12.4041 17.5643 12.5499 17.4184C12.6958 17.2726 12.7777 17.0747 12.7777 16.8684V16.1027C13.2533 16.0098 13.7064 15.8257 14.1119 15.5604C14.6986 15.1698 15.2222 14.5311 15.2222 13.6916C15.2222 13.2484 15.1088 12.8489 14.8799 12.5084C14.6555 12.1756 14.3528 11.9462 14.0466 11.7831C13.4857 11.4836 12.7782 11.3427 12.2111 11.2293L12.1524 11.2178C11.5066 11.0889 11.0217 10.9844 10.6857 10.8053C10.5333 10.724 10.4542 10.648 10.4106 10.5836C10.3728 10.5267 10.3333 10.4369 10.3333 10.2693C10.3333 10.1311 10.4208 9.91422 10.7511 9.69422C11.0737 9.47911 11.5333 9.336 11.9999 9.336C12.6035 9.336 13.1097 9.48711 13.4657 9.63955C13.6435 9.71555 13.7799 9.79067 13.8684 9.844C13.9066 9.86678 13.9441 9.89079 13.9808 9.916L13.9817 9.91644C14.1474 10.0352 14.353 10.0843 14.5544 10.053C14.7558 10.0217 14.9369 9.91258 15.0587 9.74915C15.1805 9.58571 15.2332 9.38101 15.2056 9.17906C15.178 8.97712 15.0722 8.79408 14.9111 8.66933L14.9102 8.66844L14.9093 8.66756L14.9071 8.66622C14.8302 8.61034 14.7507 8.55813 14.6688 8.50978C14.5284 8.42533 14.3293 8.31733 14.0786 8.20978C13.6624 8.03159 13.2253 7.90704 12.7777 7.83911V7.09111Z" fill="#FF840A"/>
</svg>
