<svg width="48" height="48" viewBox="0 0 48 48" fill="none" xmlns="http://www.w3.org/2000/svg">
<path d="M4 24C4 35.0453 12.9547 44 24 44C35.0453 44 44 35.0453 44 24C44 12.9538 35.0453 4 24 4C12.9547 4 4 12.9538 4 24Z" fill="#FFC56D"/>
<path fill-rule="evenodd" clip-rule="evenodd" d="M23.9999 39.5556C15.4088 39.5556 8.44434 32.5911 8.44434 24C8.44434 15.4089 15.4088 8.44446 23.9999 8.44446C32.591 8.44446 39.5554 15.4089 39.5554 24C39.5554 32.5911 32.591 39.5556 23.9999 39.5556ZM25.5554 14.1822C25.5554 13.7697 25.3916 13.374 25.0998 13.0823C24.8081 12.7906 24.4125 12.6267 23.9999 12.6267C23.5873 12.6267 23.1917 12.7906 22.8999 13.0823C22.6082 13.374 22.4443 13.7697 22.4443 14.1822V15.7165C21.4932 15.9018 20.587 16.2698 19.7759 16.8C18.6026 17.5822 17.5554 18.8596 17.5554 20.5387C17.5554 21.4249 17.7821 22.2231 18.2408 22.904C18.6888 23.5707 19.2941 24.0285 19.9066 24.3556C21.0292 24.9538 22.4443 25.2356 23.5777 25.4622L23.695 25.4862C24.9866 25.744 25.9563 25.952 26.6283 26.3111C26.9332 26.4729 27.0914 26.6258 27.1786 26.7547C27.255 26.8676 27.3332 27.0471 27.3332 27.3831C27.3332 27.6587 27.1581 28.0933 26.4977 28.5333C25.8657 28.9547 24.9714 29.2382 24.0568 29.2489C24.0177 29.2474 23.9785 29.2474 23.9394 29.2489C22.9517 29.2381 21.9759 29.0318 21.0683 28.6418C20.7911 28.524 20.522 28.3877 20.263 28.2338L20.0363 28.088C19.7051 27.8488 19.293 27.7496 18.8891 27.8118C18.4853 27.874 18.1221 28.0925 17.8781 28.4202C17.6341 28.748 17.5288 29.1586 17.585 29.5633C17.6413 29.968 17.8545 30.3343 18.1786 30.5831L18.1794 30.584L18.1812 30.5858C18.3359 30.7005 18.4977 30.8027 18.6621 30.9013C18.943 31.0702 19.3421 31.2871 19.8426 31.5013C20.5234 31.7929 21.4052 32.0862 22.4443 32.2436V33.7369C22.4443 34.1495 22.6082 34.5451 22.8999 34.8368C23.1917 35.1286 23.5873 35.2925 23.9999 35.2925C24.4125 35.2925 24.8081 35.1286 25.0998 34.8368C25.3916 34.5451 25.5554 34.1495 25.5554 33.7369V32.2053C26.5066 32.0197 27.4128 31.6514 28.2239 31.1209C29.3972 30.3396 30.4443 29.0622 30.4443 27.3831C30.4443 26.4969 30.2177 25.6978 29.7599 25.0169C29.311 24.3511 28.7057 23.8925 28.0932 23.5662C26.9714 22.9671 25.5563 22.6853 24.4221 22.4587L24.3048 22.4356C23.0132 22.1778 22.0434 21.9689 21.3714 21.6107C21.0666 21.448 20.9083 21.296 20.8212 21.1671C20.7457 21.0533 20.6666 20.8738 20.6666 20.5387C20.6666 20.2622 20.8417 19.8285 21.5021 19.3885C22.1474 18.9582 23.0666 18.672 23.9999 18.672C25.207 18.672 26.2194 18.9742 26.9314 19.2791C27.287 19.4311 27.5599 19.5813 27.7368 19.688C27.8133 19.7336 27.8883 19.7816 27.9617 19.832L27.9634 19.8329C28.2947 20.0705 28.706 20.1685 29.1088 20.1059C29.5116 20.0434 29.8738 19.8252 30.1173 19.4983C30.3609 19.1714 30.4664 18.762 30.4112 18.3581C30.356 17.9543 30.1445 17.5882 29.8221 17.3387L29.8203 17.3369L29.8186 17.3351L29.8141 17.3325C29.6603 17.2207 29.5013 17.1163 29.3377 17.0196C29.0568 16.8507 28.6586 16.6347 28.1572 16.4196C27.3249 16.0632 26.4506 15.8141 25.5554 15.6782V14.1822Z" fill="#FF840A"/>
</svg>
