<svg width="32" height="32" viewBox="0 0 32 32" fill="none" xmlns="http://www.w3.org/2000/svg">
<path fill-rule="evenodd" clip-rule="evenodd" d="M9.83456 3.64901C10.4593 3.02046 11.3069 2.66712 12.1908 2.66667H19.8098C20.6939 2.66667 21.5417 3.01973 22.1668 3.64817C22.7919 4.27662 23.1431 5.12897 23.1431 6.01772V9.84749C23.1431 10.2284 22.9926 10.5937 22.7247 10.863C22.4568 11.1323 22.0934 11.2837 21.7146 11.2837C21.3357 11.2837 20.9723 11.1323 20.7044 10.863C20.4365 10.5937 20.286 10.2284 20.286 9.84749V6.01772C20.286 5.89076 20.2358 5.76899 20.1465 5.67921C20.0572 5.58944 19.9361 5.539 19.8098 5.539H12.1908C12.0645 5.539 11.9433 5.58944 11.854 5.67921C11.7647 5.76899 11.7146 5.89076 11.7146 6.01772V9.84749C11.7146 10.2284 11.5641 10.5937 11.2961 10.863C11.0282 11.1323 10.6649 11.2837 10.286 11.2837C9.90711 11.2837 9.54375 11.1323 9.27584 10.863C9.00793 10.5937 8.85742 10.2284 8.85742 9.84749V6.01772C8.85742 5.12922 9.2079 4.27518 9.83456 3.64901Z" fill="#FF840A"/>
<path d="M5.52365 8.26962C4.76589 8.26962 4.03916 8.57224 3.50334 9.11091C2.96752 9.64957 2.6665 10.3802 2.6665 11.142L2.6665 26.461C2.6665 27.2228 2.96752 27.9534 3.50334 28.4921C4.03916 29.0308 4.76589 29.3334 5.52365 29.3334H26.476C27.2338 29.3334 27.9605 29.0308 28.4963 28.4921C29.0322 27.9534 29.3332 27.2228 29.3332 26.461V11.142C29.3332 10.3802 29.0322 9.64957 28.4963 9.11091C27.9605 8.57224 27.2338 8.26962 26.476 8.26962H5.52365Z" fill="#FFC56D"/>
<path fill-rule="evenodd" clip-rule="evenodd" d="M15.9996 10.1845C16.3785 10.1845 16.7419 10.3358 17.0098 10.6051C17.2777 10.8745 17.4282 11.2398 17.4282 11.6207V12.6317C18.0984 12.7452 18.7262 13.037 19.2463 13.4768C19.7665 13.9165 20.1601 14.4882 20.3863 15.1326C20.5126 15.4919 20.4917 15.8869 20.3283 16.2307C20.1649 16.5746 19.8723 16.8391 19.5148 16.9661C19.1574 17.093 18.7645 17.0721 18.4225 16.9078C18.0804 16.7435 17.8173 16.4493 17.691 16.09C17.6256 15.9032 17.5043 15.7414 17.3436 15.6269C17.1829 15.5123 16.9909 15.4507 16.7939 15.4504H14.9501C14.779 15.4517 14.6144 15.5161 14.4875 15.6315C14.3606 15.7468 14.2803 15.9051 14.262 16.0761C14.2436 16.2471 14.2885 16.4189 14.3879 16.5588C14.4874 16.6987 14.6346 16.797 14.8015 16.8349L17.6072 17.4515C18.4727 17.6404 19.2456 18.1265 19.7931 18.8262C20.3407 19.526 20.6286 20.3957 20.6074 21.2857C20.5862 22.1758 20.2572 23.0306 19.677 23.7032C19.0968 24.3758 18.3016 24.8242 17.4282 24.9712V25.9823C17.4282 26.3632 17.2777 26.7285 17.0098 26.9978C16.7419 27.2672 16.3785 27.4185 15.9996 27.4185C15.6207 27.4185 15.2574 27.2672 14.9895 26.9978C14.7216 26.7285 14.571 26.3632 14.571 25.9823V24.9712C13.9013 24.8571 13.2741 24.5654 12.7541 24.1261C12.234 23.6868 11.8401 23.1159 11.6129 22.4723C11.4867 22.113 11.5075 21.718 11.6709 21.3741C11.8344 21.0303 12.127 20.7658 12.4844 20.6388C12.8418 20.5118 13.2347 20.5328 13.5768 20.6971C13.9188 20.8614 14.1819 21.1556 14.3082 21.5149C14.3739 21.7013 14.4954 21.8627 14.6561 21.9769C14.8167 22.0911 15.0086 22.1524 15.2053 22.1525H16.7939C17.0313 22.1563 17.2615 22.0707 17.4394 21.9126C17.6173 21.7546 17.7301 21.5354 17.7556 21.2981C17.7811 21.0608 17.7176 20.8224 17.5774 20.6298C17.4371 20.4372 17.2304 20.3041 16.9977 20.2568L14.1901 19.644C13.3661 19.4624 12.6332 18.9921 12.1224 18.3171C11.6117 17.6421 11.3564 16.8066 11.4022 15.9597C11.448 15.1129 11.7919 14.3101 12.3725 13.6948C12.953 13.0795 13.7323 12.6918 14.571 12.6011V11.6245C14.5705 11.4356 14.6071 11.2484 14.6787 11.0737C14.7503 10.899 14.8554 10.7403 14.9881 10.6065C15.1208 10.4727 15.2785 10.3666 15.452 10.2942C15.6256 10.2218 15.8117 10.1845 15.9996 10.1845Z" fill="#FF840A"/>
</svg>
