<svg width="24" height="24" viewBox="0 0 24 24" fill="none" xmlns="http://www.w3.org/2000/svg">
<path d="M12.2145 21.2143C9.96749 21.2143 8.29735 21.1749 7.10249 21.1277C5.38907 21.06 3.64307 19.8232 3.64307 17.8929V17.8569C3.65164 17.1184 4.03435 16.5454 4.54564 16.179C5.04535 15.8203 5.68049 15.6429 6.29421 15.6429H18.1348C18.7485 15.6429 19.3832 15.8199 19.8834 16.1786C20.3946 16.5459 20.7774 17.1184 20.7855 17.8569L20.7859 17.8929C20.7859 19.8232 19.0399 21.06 17.3265 21.1277C16.1316 21.1749 14.4615 21.2143 12.2145 21.2143Z" fill="#FFC56D"/>
<path fill-rule="evenodd" clip-rule="evenodd" d="M5.91919 17.6597C5.30847 17.2526 4.33262 17.3623 3.70133 17.4969C3.3109 17.5805 2.87119 17.541 2.65733 17.2037C2.38904 16.7795 2.25576 16.2103 2.19319 15.6725C2.0749 14.6533 2.64319 13.6312 3.64047 13.3899C4.70847 13.1319 5.78633 13.353 6.83762 14.0546C7.79976 14.6962 8.70533 14.6962 9.66704 14.0546C11.2035 13.0295 12.7965 13.0295 14.3333 14.0546C15.295 14.6962 16.2006 14.6962 17.1623 14.0546C18.2136 13.353 19.2915 13.1319 20.3595 13.3903C21.3568 13.6312 21.9255 14.6533 21.8068 15.6725C21.7442 16.2103 21.6109 16.7799 21.3426 17.2033C21.1292 17.541 20.6895 17.5805 20.2986 17.4969C19.6678 17.3623 18.6915 17.2526 18.0812 17.6597C16.5443 18.6849 14.9513 18.6849 13.4145 17.6597C12.4528 17.0182 11.5472 17.0182 10.5859 17.6597C9.04862 18.6849 7.45604 18.6849 5.91919 17.6597Z" fill="#FF840A"/>
<path d="M21.3857 11.7111C21.2815 10.8857 20.5243 10.4546 19.6928 10.4151C18.4328 10.3551 16.0894 10.2857 12 10.2857C7.74554 10.2857 5.38111 10.3607 4.15969 10.422C3.41911 10.4593 2.7424 10.8261 2.63097 11.5594C2.58952 11.8473 2.56961 12.1378 2.5714 12.4286C2.5714 12.7714 2.59497 13.0586 2.6314 13.2977C2.74283 14.0306 3.41911 14.3979 4.15969 14.4351C5.38111 14.4964 7.74554 14.5714 12 14.5714C16.0894 14.5714 18.4328 14.502 19.6928 14.442C20.5243 14.4026 21.2811 13.9714 21.3857 13.146C21.4123 12.9386 21.4285 12.7003 21.4285 12.4286C21.4285 12.1569 21.4123 11.9186 21.3857 11.7111Z" fill="#CC4C02"/>
<path d="M12.2145 2.78572C11.0929 2.78572 10.1136 2.80415 9.26507 2.83415C6.15407 2.94344 3.64307 5.35972 3.64307 8.51786C3.64307 9.25801 3.72621 9.89701 3.81707 10.3761C3.97478 11.2059 4.63564 11.7947 5.44907 11.9019C6.49478 12.0403 8.53907 12.2143 12.2145 12.2143C15.8899 12.2143 17.9342 12.0403 18.9799 11.9023C19.7929 11.7947 20.4542 11.2059 20.6119 10.3761C20.7028 9.89701 20.7859 9.25758 20.7859 8.51786C20.7859 5.35972 18.2745 2.94344 15.1639 2.83415C14.3154 2.80415 13.3361 2.78572 12.2145 2.78572Z" fill="#FFC56D"/>
<path fill-rule="evenodd" clip-rule="evenodd" d="M17.5716 7.50001C17.4011 7.50001 17.2376 7.56774 17.117 7.68829C16.9964 7.80885 16.9287 7.97237 16.9287 8.14286C16.9287 8.31336 16.9964 8.47687 17.117 8.59743C17.2376 8.71799 17.4011 8.78572 17.5716 8.78572H17.7859C17.9564 8.78572 18.1199 8.71799 18.2404 8.59743C18.361 8.47687 18.4287 8.31336 18.4287 8.14286C18.4287 7.97237 18.361 7.80885 18.2404 7.68829C18.1199 7.56774 17.9564 7.50001 17.7859 7.50001H17.5716ZM14.3573 6.42858C14.3573 6.25808 14.425 6.09457 14.5456 5.97401C14.6661 5.85345 14.8296 5.78572 15.0001 5.78572H15.2144C15.3849 5.78572 15.5484 5.85345 15.669 5.97401C15.7896 6.09457 15.8573 6.25808 15.8573 6.42858C15.8573 6.59907 15.7896 6.76259 15.669 6.88315C15.5484 7.00371 15.3849 7.07143 15.2144 7.07143H15.0001C14.8296 7.07143 14.6661 7.00371 14.5456 6.88315C14.425 6.76259 14.3573 6.59907 14.3573 6.42858ZM14.7859 8.78572C14.9564 8.78572 15.1199 8.85345 15.2404 8.97401C15.361 9.09457 15.4287 9.25808 15.4287 9.42858C15.4287 9.59907 15.361 9.76259 15.2404 9.88315C15.1199 10.0037 14.9564 10.0714 14.7859 10.0714H14.5716C14.4011 10.0714 14.2376 10.0037 14.117 9.88315C13.9964 9.76259 13.9287 9.59907 13.9287 9.42858C13.9287 9.25808 13.9964 9.09457 14.117 8.97401C14.2376 8.85345 14.4011 8.78572 14.5716 8.78572H14.7859Z" fill="#FF840A"/>
</svg>
