<svg width="24" height="24" viewBox="0 0 24 24" fill="none" xmlns="http://www.w3.org/2000/svg">
<path d="M3.91318 2.15663C7.7757 2.61489 11.1746 4.13587 12.0001 4.9613C12.8255 4.13587 16.2244 2.6151 20.087 2.15684C21.2957 2.01342 22.2858 3.00954 22.2858 4.22683V15.9819C22.2858 17.1992 21.291 18.1693 20.0933 18.3868C17.3883 18.8778 15.1386 20.175 13.7034 21.2003C12.7129 21.9079 11.2862 21.907 10.2957 21.1995C8.86046 20.1743 6.61116 18.8775 3.90687 18.3865C2.70917 18.169 1.71436 17.1991 1.71436 15.9817V4.22661C1.71436 3.00933 2.70437 2.01322 3.91318 2.15663Z" fill="#FFC56D"/>
<path d="M11.1431 21.7184V4.71426C11.6478 5.0125 12.3527 5.01252 12.8574 4.71429V21.7187C12.3045 21.9034 11.696 21.9032 11.1431 21.7184Z" fill="#FF840A"/>
</svg>
