<svg width="16" height="16" viewBox="0 0 16 16" fill="none" xmlns="http://www.w3.org/2000/svg">
<path fill-rule="evenodd" clip-rule="evenodd" d="M13 2H3V9H13V2Z" fill="#FF840A"/>
<path fill-rule="evenodd" clip-rule="evenodd" d="M3.88673 10L3 13.5881L4.13266 14L5.01939 10.4119L3.88673 10ZM12.1133 10L13 13.5881L11.8673 14L10.9806 10.4119L12.1133 10Z" fill="#FF840A"/>
<path d="M2 10V7.75C2 7.55109 2.14367 7.36032 2.3994 7.21967C2.65513 7.07902 3.00198 7 3.36364 7C3.7253 7 4.07214 7.07902 4.32787 7.21967C4.5836 7.36032 4.72727 7.55109 4.72727 7.75V8.8H11.2727V7.75C11.2727 7.55109 11.4164 7.36032 11.6721 7.21967C11.9279 7.07902 12.2747 7 12.6364 7C12.998 7 13.3449 7.07902 13.6006 7.21967C13.8563 7.36032 14 7.55109 14 7.75V10H2Z" fill="#FFC56D"/>
</svg>
