<svg width="16" height="16" viewBox="0 0 16 16" fill="none" xmlns="http://www.w3.org/2000/svg">
<path fill-rule="evenodd" clip-rule="evenodd" d="M5.4104 2.456C5.67281 2.16423 6.02877 2.00021 6.4 2H9.6C9.9713 2 10.3274 2.16389 10.59 2.45561C10.8525 2.74734 11 3.143 11 3.55556V5.33334C11 5.51015 10.9368 5.67972 10.8243 5.80474C10.7117 5.92976 10.5591 6 10.4 6C10.2409 6 10.0883 5.92976 9.97574 5.80474C9.86321 5.67972 9.8 5.51015 9.8 5.33334V3.55556C9.8 3.49662 9.77893 3.4401 9.74142 3.39842C9.70391 3.35675 9.65304 3.33334 9.6 3.33334H6.4C6.34696 3.33334 6.29609 3.35675 6.25858 3.39842C6.22107 3.4401 6.2 3.49662 6.2 3.55556V5.33334C6.2 5.51015 6.13679 5.67972 6.02426 5.80474C5.91174 5.92976 5.75913 6 5.6 6C5.44087 6 5.28826 5.92976 5.17574 5.80474C5.06321 5.67972 5 5.51015 5 5.33334V3.55556C5 3.14311 5.1472 2.74667 5.4104 2.456Z" fill="#FF840A"/>
<path d="M3.28571 5C2.94472 5 2.6177 5.1293 2.37658 5.35946C2.13546 5.58962 2 5.90178 2 6.22727V12.7727C2 13.0982 2.13546 13.4104 2.37658 13.6405C2.6177 13.8707 2.94472 14 3.28571 14H12.7143C13.0553 14 13.3823 13.8707 13.6234 13.6405C13.8645 13.4104 14 13.0982 14 12.7727V6.22727C14 5.90178 13.8645 5.58962 13.6234 5.35946C13.3823 5.1293 13.0553 5 12.7143 5H3.28571Z" fill="#FFC56D"/>
<path fill-rule="evenodd" clip-rule="evenodd" d="M7.99864 6C8.16317 6 8.32095 6.06146 8.43729 6.17085C8.55362 6.28025 8.61898 6.42862 8.61898 6.58333V6.994C8.91001 7.0401 9.18262 7.15861 9.40849 7.33723C9.63437 7.51585 9.80529 7.74807 9.9035 8.00978C9.95834 8.15572 9.94928 8.31617 9.87832 8.45583C9.80735 8.5955 9.68029 8.70293 9.52509 8.7545C9.36989 8.80607 9.19926 8.79755 9.05074 8.73082C8.90221 8.66409 8.78797 8.54461 8.73312 8.39867C8.70473 8.3228 8.65201 8.25708 8.58224 8.21055C8.51248 8.16403 8.42908 8.13899 8.34355 8.13889H7.5429C7.46861 8.13939 7.39711 8.16556 7.34201 8.21242C7.28691 8.25928 7.25206 8.32356 7.24409 8.39301C7.23612 8.46247 7.25559 8.53226 7.29879 8.58909C7.342 8.64592 7.40592 8.68583 7.47838 8.70122L8.69673 8.95167C9.07254 9.02839 9.40818 9.22584 9.64594 9.51006C9.8837 9.79428 10.0087 10.1475 9.99953 10.509C9.99032 10.8705 9.84747 11.2178 9.59551 11.491C9.34356 11.7642 8.99826 11.9463 8.61898 12.006V12.4167C8.61898 12.5714 8.55362 12.7197 8.43729 12.8291C8.32095 12.9385 8.16317 13 7.99864 13C7.83412 13 7.67633 12.9385 7.55999 12.8291C7.44366 12.7197 7.3783 12.5714 7.3783 12.4167V12.006C7.08749 11.9597 6.81511 11.8411 6.5893 11.6627C6.36348 11.4843 6.19242 11.2524 6.09378 10.991C6.03894 10.8451 6.048 10.6846 6.11897 10.5449C6.18993 10.4053 6.31699 10.2978 6.47219 10.2463C6.62739 10.1947 6.79802 10.2032 6.94655 10.27C7.09507 10.3367 7.20932 10.4562 7.26416 10.6021C7.29269 10.6778 7.34546 10.7434 7.41522 10.7898C7.48498 10.8361 7.5683 10.8611 7.65373 10.8611H8.34355C8.44664 10.8626 8.54661 10.8279 8.62387 10.7637C8.70112 10.6995 8.75009 10.6104 8.76117 10.5141C8.77225 10.4177 8.74464 10.3209 8.68376 10.2426C8.62287 10.1644 8.5331 10.1103 8.43205 10.0911L7.21288 9.84222C6.85506 9.76845 6.53681 9.57741 6.31503 9.30326C6.09324 9.02911 5.98239 8.68971 6.00228 8.34576C6.02217 8.0018 6.17151 7.67571 6.4236 7.42579C6.67569 7.17587 7.01409 7.0184 7.3783 6.98156V6.58489C7.37808 6.50815 7.39397 6.43213 7.42505 6.36118C7.45612 6.29023 7.50178 6.22574 7.55941 6.1714C7.61703 6.11707 7.68549 6.07396 7.76086 6.04455C7.83624 6.01514 7.91704 6 7.99864 6Z" fill="#FF840A"/>
</svg>
