<svg width="16" height="16" viewBox="0 0 16 16" fill="none" xmlns="http://www.w3.org/2000/svg">
<path d="M4.01082 2.43916C3.36703 2.61187 2.84272 2.76786 2.42704 2.90095C1.44341 3.21572 0.882576 4.18697 1.10202 5.19629C1.19456 5.6228 1.32115 6.15454 1.49386 6.79864C1.6352 7.33005 1.78918 7.85802 1.95566 8.38211C2.27012 9.36574 3.24168 9.92657 4.251 9.70744C4.67751 9.61458 5.20925 9.48799 5.85334 9.31528C6.38475 9.17405 6.91273 9.02018 7.43681 8.8538C8.42044 8.53903 8.98128 7.56778 8.76214 6.55846C8.66929 6.13195 8.54239 5.5999 8.36999 4.95611C8.22874 4.4246 8.07487 3.89653 7.90851 3.37234C7.59373 2.38902 6.62217 1.82787 5.61316 2.04732C5.18666 2.14017 4.6546 2.26676 4.01082 2.43916Z" fill="#FFC56D"/>
<path fill-rule="evenodd" clip-rule="evenodd" d="M11.7494 15.9528C11.3229 15.8599 10.7908 15.733 10.147 15.5606C9.61553 15.4193 9.08746 15.2653 8.56327 15.0988C7.57964 14.7844 7.01881 13.8128 7.23825 12.8038C7.3311 12.3773 7.45769 11.8452 7.63009 11.2015C7.8028 10.5577 7.95879 10.0334 8.09189 9.61769C8.40666 8.63406 9.37791 8.07322 10.3872 8.29236C10.8137 8.38521 11.3455 8.51211 11.9896 8.68451C12.6334 8.85691 13.1574 9.01321 13.573 9.1463C14.5567 9.46076 15.1175 10.4323 14.8984 11.4413C14.8055 11.8682 14.6786 12.3999 14.5062 13.044C14.365 13.5754 14.2111 14.1034 14.0447 14.6275C13.73 15.6111 12.7584 16.1719 11.7494 15.9528Z" fill="#FFC56D"/>
<path fill-rule="evenodd" clip-rule="evenodd" d="M5.19019 6.68876C5.29672 6.65489 5.39554 6.60036 5.481 6.52829C5.56646 6.45622 5.63688 6.36803 5.68826 6.26874C5.73963 6.16946 5.77095 6.06102 5.78042 5.94964C5.78989 5.83825 5.77732 5.72609 5.74344 5.61955C5.70957 5.51302 5.65504 5.4142 5.58297 5.32875C5.5109 5.24329 5.42271 5.17286 5.32342 5.12149C5.22414 5.07011 5.1157 5.0388 5.00432 5.02933C4.89293 5.01986 4.78077 5.03242 4.67423 5.0663C4.45908 5.13476 4.27994 5.28589 4.17621 5.48643C4.07248 5.68698 4.05267 5.92051 4.12113 6.13567C4.1896 6.35082 4.34072 6.52996 4.54127 6.63369C4.74181 6.73741 4.97535 6.75723 5.1905 6.68876H5.19019Z" fill="#FF840A"/>
<path fill-rule="evenodd" clip-rule="evenodd" d="M9.61588 13.6553C9.83399 13.7137 10.0664 13.6831 10.2619 13.5702C10.4575 13.4573 10.6002 13.2714 10.6586 13.0533C10.7171 12.8351 10.6865 12.6028 10.5736 12.4072C10.4607 12.2116 10.2747 12.069 10.0566 12.0105C9.83852 11.9521 9.60613 11.9827 9.41058 12.0955C9.21502 12.2084 9.07233 12.3944 9.01388 12.6125C8.95543 12.8306 8.98602 13.063 9.09892 13.2586C9.21182 13.4541 9.39777 13.5968 9.61588 13.6553Z" fill="#FF840A"/>
<path d="M11.4778 11.1903C11.5067 11.0823 11.5566 10.9811 11.6247 10.8924C11.6927 10.8038 11.7776 10.7293 11.8744 10.6735C11.9712 10.6176 12.0781 10.5813 12.1889 10.5667C12.2998 10.5521 12.4124 10.5595 12.5203 10.5885C12.6283 10.6174 12.7295 10.6673 12.8182 10.7354C12.9069 10.8034 12.9813 10.8883 13.0372 10.9851C13.0931 11.0819 13.1294 11.1888 13.1439 11.2996C13.1585 11.4105 13.1511 11.5231 13.1222 11.6311C13.0637 11.8491 12.9211 12.035 12.7255 12.1479C12.53 12.2608 12.2977 12.2914 12.0796 12.2329C11.8615 12.1745 11.6756 12.0318 11.5627 11.8363C11.4499 11.6407 11.4193 11.4084 11.4778 11.1903Z" fill="#FF840A"/>
</svg>
