<svg width="24" height="24" viewBox="0 0 24 24" fill="none" xmlns="http://www.w3.org/2000/svg">
<path fill-rule="evenodd" clip-rule="evenodd" d="M4.02441 10.6232C4.02441 10.2174 4.35336 9.88847 4.75913 9.88847H16.2243C16.5585 9.88847 16.8404 10.1115 16.9296 10.4169C16.9333 10.4169 16.937 10.4168 16.9408 10.4168H19.2781C20.6983 10.4168 21.8496 11.5682 21.8496 12.9885V16.4989C21.8496 17.9192 20.6983 19.0705 19.2781 19.0705H16.9408H16.9307C16.7053 20.8833 15.1592 22.2862 13.2854 22.2862H7.69798C5.66913 22.2862 4.02441 20.6414 4.02441 18.6125V10.6232ZM16.959 16.8663H19.2781C19.481 16.8663 19.6454 16.7018 19.6454 16.4989V12.9885C19.6454 12.7856 19.481 12.6211 19.2781 12.6211H16.959V16.8663Z" fill="#FFC56D"/>
<path fill-rule="evenodd" clip-rule="evenodd" d="M4.0272 10.942C2.91692 10.4088 2.15039 9.27377 2.15039 7.95971C2.15039 6.13365 3.63063 4.65333 5.4566 4.65333C5.8574 4.65333 6.24154 4.72464 6.59702 4.8553C6.85508 3.07882 8.38432 1.71432 10.2322 1.71432C12.0802 1.71432 13.6094 3.07883 13.8675 4.8553C14.2229 4.72466 14.6071 4.65333 15.0079 4.65333C16.8338 4.65333 18.3141 6.13365 18.3141 7.95971C18.3141 9.78578 16.8338 11.2661 15.0079 11.2661C15.0052 11.2661 15.0025 11.2661 14.9997 11.2661H8.02811V14.4088C8.02811 15.5137 7.13248 16.4094 6.02765 16.4094C4.92283 16.4094 4.0272 15.5137 4.0272 14.4088V10.942Z" fill="#FF840A"/>
</svg>
