<svg width="24" height="24" viewBox="0 0 24 24" fill="none" xmlns="http://www.w3.org/2000/svg">
<path fill-rule="evenodd" clip-rule="evenodd" d="M15.7468 2.05068C16.0187 2.13731 16.2451 2.32838 16.3761 2.58187C16.5072 2.83536 16.5322 3.13052 16.4457 3.40245L15.5388 6.25235C15.4959 6.38709 15.4269 6.51207 15.3357 6.62015C15.2446 6.72822 15.133 6.81728 15.0074 6.88224C14.7538 7.01344 14.4584 7.0385 14.1863 6.95192C14.0515 6.90904 13.9266 6.84005 13.8185 6.74888C13.7104 6.65771 13.6214 6.54615 13.5564 6.42056C13.4252 6.16692 13.4001 5.87155 13.4867 5.59943L14.3951 2.74952C14.4817 2.47763 14.6728 2.25127 14.9263 2.12022C15.1798 1.98917 15.4749 1.96416 15.7468 2.05068Z" fill="#FF840A"/>
<path fill-rule="evenodd" clip-rule="evenodd" d="M11.9985 4.41124C10.4106 4.41162 8.88783 5.04269 7.76513 6.16566C6.64242 7.28864 6.01172 8.81156 6.01172 10.3995V11.1012C6.01172 11.1256 6.01172 11.1514 6.01459 11.1773L6.62016 19.6667C6.66517 20.3004 6.94872 20.8935 7.41365 21.3265C7.87858 21.7595 8.49034 22.0002 9.12566 22H14.8728C16.1902 22 17.2836 20.9812 17.3783 19.6667L17.9839 11.1773C17.9858 11.1519 17.9867 11.1266 17.9868 11.1012V10.3981C17.9864 8.81037 17.3555 7.28782 16.2329 6.16516C15.1102 5.04249 13.5862 4.41162 11.9985 4.41124Z" fill="#FFC56D"/>
<path fill-rule="evenodd" clip-rule="evenodd" d="M4.98299 10.025C4.84165 10.025 4.7017 10.0528 4.57112 10.1069C4.44055 10.161 4.3219 10.2403 4.22196 10.3402C4.12203 10.4402 4.04275 10.5588 3.98866 10.6894C3.93458 10.82 3.90674 10.9599 3.90674 11.1012C3.90674 11.2426 3.93458 11.3825 3.98866 11.5131C4.04275 11.6437 4.12203 11.7623 4.22196 11.8623C4.3219 11.9622 4.44055 12.0415 4.57112 12.0956C4.7017 12.1497 4.84165 12.1775 4.98299 12.1775H19.0173C19.3027 12.1775 19.5765 12.0641 19.7783 11.8623C19.9801 11.6604 20.0935 11.3867 20.0935 11.1012C20.0935 10.8158 19.9801 10.5421 19.7783 10.3402C19.5765 10.1384 19.3027 10.025 19.0173 10.025H4.98299ZM8.41694 14.6084H15.5819L15.2303 19.5132C15.2241 19.6038 15.1838 19.6887 15.1175 19.7508C15.0512 19.8128 14.9638 19.8474 14.873 19.8476H9.12582C9.03499 19.8478 8.94745 19.8136 8.88086 19.7518C8.81428 19.69 8.77361 19.6052 8.76708 19.5146L8.41694 14.6084Z" fill="#FF840A"/>
</svg>
