<svg width="24" height="24" viewBox="0 0 24 24" fill="none" xmlns="http://www.w3.org/2000/svg">
<path d="M21.7279 6.7047C21.9074 7.13801 21.9998 7.60243 21.9998 8.07143C22.0009 8.62607 21.8724 9.17328 21.6242 9.66937C21.3762 10.1655 21.0156 10.5967 20.5712 10.9286V18.0714C20.5712 18.4503 20.4206 18.8137 20.1528 19.0816C19.8849 19.3494 19.5215 19.5 19.1426 19.5H9.85693V4.5H18.4284C18.8974 4.5 19.3618 4.59237 19.7951 4.77186C20.2284 4.95134 20.6221 5.21441 20.9538 5.54604C21.2854 5.87769 21.5485 6.2714 21.7279 6.7047Z" fill="#FF840A"/>
<path d="M15.5714 8.07143C15.5714 7.60243 15.4791 7.13801 15.2996 6.7047C15.1201 6.2714 14.857 5.87769 14.5254 5.54604C14.1937 5.21441 13.8 4.95134 13.3667 4.77186C12.9334 4.59237 12.469 4.5 12 4.5H5.57143C4.82184 4.5 4.09127 4.73584 3.48317 5.17413C2.87509 5.61243 2.42031 6.23093 2.18327 6.94204C1.94624 7.65316 1.93895 8.42083 2.16245 9.13631C2.38595 9.8518 2.82891 10.4788 3.42857 10.9286V18.0714C3.42857 18.4503 3.57908 18.8137 3.84698 19.0816C4.1149 19.3494 4.47826 19.5 4.85714 19.5H12.7143C13.0932 19.5 13.4565 19.3494 13.7244 19.0816C13.9923 18.8137 14.1429 18.4503 14.1429 18.0714V10.9286C14.5872 10.5967 14.9479 10.1655 15.1959 9.66937C15.4439 9.17328 15.5725 8.62607 15.5714 8.07143Z" fill="#FFC56D"/>
</svg>
