<svg width="48" height="48" viewBox="0 0 48 48" fill="none" xmlns="http://www.w3.org/2000/svg">
<path fill-rule="evenodd" clip-rule="evenodd" d="M32.8803 3.9414C33.1914 3.62943 33.5881 3.41695 34.0202 3.33095C34.4523 3.24496 34.9002 3.28934 35.307 3.45844L41.6092 6.07177C42.1527 6.29619 42.5851 6.72686 42.8117 7.26944C43.0383 7.81203 43.0406 8.4223 42.8181 8.96659L40.2433 15.2688C40.0769 15.6758 39.7936 16.0242 39.4292 16.2701C39.0647 16.516 38.6355 16.6483 38.1959 16.6502C37.7563 16.6521 37.3259 16.5236 36.9594 16.2808C36.5928 16.0381 36.3065 15.6921 36.1366 15.2866L35.1203 12.857L9.52624 23.7933C9.25776 23.908 8.9693 23.9688 8.67733 23.9721C8.38536 23.9754 8.0956 23.9212 7.82459 23.8125C7.55358 23.7038 7.30663 23.5428 7.09784 23.3387C6.88905 23.1346 6.72251 22.8914 6.60772 22.6229C6.49294 22.3544 6.43216 22.0659 6.42885 21.774C6.42555 21.482 6.47978 21.1922 6.58846 20.9212C6.69714 20.6502 6.85814 20.4033 7.06225 20.1945C7.26637 19.9857 7.50961 19.8192 7.77809 19.7044L33.4048 8.75622L32.4062 6.37103C32.2354 5.9647 32.1892 5.51673 32.2736 5.0841C32.3581 4.65146 32.5692 4.2537 32.8803 3.9414Z" fill="#FF840A"/>
<path fill-rule="evenodd" clip-rule="evenodd" d="M41.037 19.5266C41.8229 19.5266 42.5765 19.8388 43.1322 20.3944C43.6878 20.9501 44 21.7037 44 22.4896V43.2303C44 43.6232 43.8439 44 43.5661 44.2779C43.2883 44.5557 42.9114 44.7118 42.5185 44.7118H35.1111C34.7182 44.7118 34.3414 44.5557 34.0635 44.2779C33.7857 44 33.6296 43.6232 33.6296 43.2303V22.4896C33.6296 21.7037 33.9418 20.9501 34.4975 20.3944C35.0531 19.8388 35.8068 19.5266 36.5926 19.5266H41.037ZM26.2222 23.9711C27.008 23.9711 27.7617 24.2832 28.3174 24.8389C28.873 25.3946 29.1852 26.1482 29.1852 26.934V43.2303C29.1852 43.6232 29.0291 44 28.7513 44.2779C28.4734 44.5557 28.0966 44.7118 27.7037 44.7118H20.2963C19.9034 44.7118 19.5266 44.5557 19.2487 44.2779C18.9709 44 18.8148 43.6232 18.8148 43.2303V26.934C18.8148 26.1482 19.127 25.3946 19.6826 24.8389C20.2383 24.2832 20.992 23.9711 21.7778 23.9711H26.2222ZM13.5022 29.2777C12.9467 28.722 12.1932 28.4097 11.4074 28.4096H6.96296C6.17714 28.4096 5.4235 28.7217 4.86783 29.2774C4.31217 29.8331 4 30.5867 4 31.3725V43.2244C4 43.6173 4.15608 43.9941 4.43392 44.272C4.71175 44.5498 5.08857 44.7059 5.48148 44.7059H12.8889C13.2818 44.7059 13.6586 44.5498 13.9365 44.272C14.2143 43.9941 14.3704 43.6173 14.3704 43.2244V31.3725C14.3702 30.5868 14.0579 29.8333 13.5022 29.2777Z" fill="#FFC56D"/>
</svg>
