<svg width="48" height="48" viewBox="0 0 48 48" fill="none" xmlns="http://www.w3.org/2000/svg">
<path fill-rule="evenodd" clip-rule="evenodd" d="M14.7518 5.4735C15.689 4.53069 16.9603 4.00067 18.2861 4H29.7147C31.0408 4 32.3126 4.52958 33.2502 5.47225C34.1879 6.41492 34.7147 7.69344 34.7147 9.02658V14.7712C34.7147 15.3426 34.4889 15.8905 34.0871 16.2945C33.6852 16.6985 33.1402 16.9255 32.5718 16.9255C32.0035 16.9255 31.4585 16.6985 31.0566 16.2945C30.6548 15.8905 30.429 15.3426 30.429 14.7712V9.02658C30.429 8.83613 30.3537 8.65348 30.2198 8.51881C30.0858 8.38415 29.9041 8.30849 29.7147 8.30849H18.2861C18.0967 8.30849 17.915 8.38415 17.7811 8.51881C17.6471 8.65348 17.5718 8.83613 17.5718 9.02658V14.7712C17.5718 15.3426 17.3461 15.8905 16.9442 16.2945C16.5424 16.6985 15.9973 16.9255 15.429 16.9255C14.8607 16.9255 14.3156 16.6985 13.9138 16.2945C13.5119 15.8905 13.2861 15.3426 13.2861 14.7712V9.02658C13.2861 7.69381 13.8118 6.41276 14.7518 5.4735Z" fill="#FF840A"/>
<path d="M8.28571 12.4044C7.14907 12.4044 6.05898 12.8583 5.25526 13.6663C4.45153 14.4743 4 15.5702 4 16.7129L4 39.6915C4 40.8342 4.45153 41.9301 5.25526 42.7381C6.05898 43.5461 7.14907 44 8.28571 44H39.7143C40.8509 44 41.941 43.5461 42.7447 42.7381C43.5485 41.9301 44 40.8342 44 39.6915V16.7129C44 15.5702 43.5485 14.4743 42.7447 13.6663C41.941 12.8583 40.8509 12.4044 39.7143 12.4044H8.28571Z" fill="#FFC56D"/>
<path fill-rule="evenodd" clip-rule="evenodd" d="M23.9997 15.2767C24.568 15.2767 25.113 15.5037 25.5149 15.9077C25.9168 16.3117 26.1425 16.8596 26.1425 17.431V18.9476C27.1478 19.1178 28.0895 19.5555 28.8697 20.2151C29.65 20.8748 30.2404 21.7323 30.5797 22.6988C30.7691 23.2378 30.7378 23.8303 30.4927 24.3461C30.2475 24.8619 29.8086 25.2586 29.2725 25.4491C28.7364 25.6395 28.147 25.6081 27.6339 25.3616C27.1209 25.1152 26.7262 24.674 26.5368 24.135C26.4387 23.8548 26.2566 23.6121 26.0156 23.4403C25.7746 23.2685 25.4865 23.176 25.1911 23.1756H22.4254C22.1688 23.1775 21.9218 23.2741 21.7314 23.4472C21.5411 23.6202 21.4207 23.8576 21.3932 24.1141C21.3657 24.3706 21.4329 24.6283 21.5822 24.8382C21.7314 25.0481 21.9522 25.1955 22.2025 25.2523L26.4111 26.1772C27.7092 26.4606 28.8687 27.1897 29.69 28.2394C30.5113 29.289 30.9432 30.5935 30.9114 31.9286C30.8796 33.2636 30.3861 34.5459 29.5158 35.5548C28.6455 36.5637 27.4527 37.2363 26.1425 37.4569V38.9734C26.1425 39.5448 25.9168 40.0927 25.5149 40.4967C25.113 40.9007 24.568 41.1277 23.9997 41.1277C23.4313 41.1277 22.8863 40.9007 22.4844 40.4967C22.0826 40.0927 21.8568 39.5448 21.8568 38.9734V37.4569C20.8523 37.2857 19.9114 36.8481 19.1313 36.1891C18.3513 35.5301 17.7604 34.6738 17.4197 33.7085C17.2302 33.1695 17.2615 32.577 17.5066 32.0612C17.7518 31.5454 18.1907 31.1487 18.7268 30.9582C19.2629 30.7678 19.8523 30.7992 20.3654 31.0457C20.8784 31.2921 21.2731 31.7333 21.4625 32.2723C21.5611 32.5519 21.7434 32.794 21.9843 32.9653C22.2253 33.1366 22.5131 33.2286 22.8082 33.2288H25.1911C25.5472 33.2344 25.8925 33.106 26.1594 32.8689C26.4263 32.6318 26.5954 32.3031 26.6337 31.9471C26.6719 31.5912 26.5766 31.2337 26.3663 30.9447C26.156 30.6558 25.8459 30.4562 25.4968 30.3852L21.2854 29.466C20.0494 29.1936 18.95 28.4881 18.1839 27.4757C17.4178 26.4632 17.0349 25.2098 17.1036 23.9396C17.1723 22.6694 17.6881 21.4651 18.5589 20.5422C19.4297 19.6192 20.5987 19.0377 21.8568 18.9016V17.4367C21.8561 17.1533 21.9109 16.8726 22.0183 16.6106C22.1256 16.3485 22.2834 16.1104 22.4824 15.9097C22.6815 15.7091 22.9179 15.5499 23.1783 15.4413C23.4387 15.3326 23.7178 15.2767 23.9997 15.2767Z" fill="#FF840A"/>
</svg>
