<svg width="32" height="32" viewBox="0 0 32 32" fill="none" xmlns="http://www.w3.org/2000/svg">
<path fill-rule="evenodd" clip-rule="evenodd" d="M21.92 2.6276C22.1274 2.41962 22.3919 2.27797 22.68 2.22064C22.968 2.16331 23.2666 2.19289 23.5378 2.30563L27.7393 4.04785C28.1016 4.19746 28.3899 4.48457 28.541 4.8463C28.692 5.20802 28.6936 5.61487 28.5452 5.97773L26.8287 10.1792C26.7178 10.4505 26.5289 10.6828 26.2859 10.8468C26.043 11.0107 25.7569 11.0989 25.4638 11.1001C25.1707 11.1014 24.8838 11.0157 24.6394 10.8539C24.395 10.6921 24.2042 10.4614 24.0909 10.1911L23.4134 8.57131L6.35067 15.8622C6.17168 15.9387 5.97937 15.9792 5.78472 15.9814C5.59008 15.9836 5.3969 15.9475 5.21623 15.875C5.03556 15.8026 4.87092 15.6952 4.73173 15.5591C4.59254 15.4231 4.48151 15.2609 4.40499 15.0819C4.32846 14.9029 4.28794 14.7106 4.28574 14.516C4.28354 14.3213 4.31969 14.1282 4.39215 13.9475C4.4646 13.7668 4.57193 13.6022 4.70801 13.463C4.84408 13.3238 5.00625 13.2128 5.18523 13.1362L22.2697 5.83748L21.604 4.24736C21.4901 3.97647 21.4593 3.67782 21.5156 3.3894C21.5719 3.10097 21.7127 2.8358 21.92 2.6276Z" fill="#FF840A"/>
<path fill-rule="evenodd" clip-rule="evenodd" d="M27.3579 13.0177C27.8817 13.0177 28.3842 13.2259 28.7546 13.5963C29.1251 13.9667 29.3332 14.4692 29.3332 14.993V28.8202C29.3332 29.0821 29.2291 29.3334 29.0439 29.5186C28.8587 29.7038 28.6075 29.8079 28.3455 29.8079H23.4072C23.1453 29.8079 22.8941 29.7038 22.7089 29.5186C22.5236 29.3334 22.4196 29.0821 22.4196 28.8202V14.993C22.4196 14.4692 22.6277 13.9667 22.9981 13.5963C23.3686 13.2259 23.871 13.0177 24.3949 13.0177H27.3579ZM17.4813 15.9807C18.0052 15.9807 18.5076 16.1888 18.8781 16.5593C19.2485 16.9297 19.4566 17.4321 19.4566 17.956V28.8202C19.4566 29.0821 19.3526 29.3334 19.1674 29.5186C18.9821 29.7038 18.7309 29.8079 18.469 29.8079H13.5307C13.2688 29.8079 13.0175 29.7038 12.8323 29.5186C12.6471 29.3334 12.543 29.0821 12.543 28.8202V17.956C12.543 17.4321 12.7512 16.9297 13.1216 16.5593C13.492 16.1888 13.9945 15.9807 14.5184 15.9807H17.4813ZM9.00132 19.5185C8.63096 19.148 8.12862 18.9398 7.60478 18.9397H4.64181C4.11793 18.9397 3.6155 19.1478 3.24506 19.5183C2.87462 19.8887 2.6665 20.3911 2.6665 20.915V28.8163C2.6665 29.0782 2.77056 29.3294 2.95578 29.5146C3.141 29.6999 3.39222 29.8039 3.65416 29.8039H8.59243C8.85437 29.8039 9.10559 29.6999 9.29081 29.5146C9.47603 29.3294 9.58008 29.0782 9.58008 28.8163V20.915C9.57997 20.3912 9.37179 19.8888 9.00132 19.5185Z" fill="#FFC56D"/>
</svg>
