<svg width="32" height="32" viewBox="0 0 32 32" fill="none" xmlns="http://www.w3.org/2000/svg">
<path d="M2.6665 16C2.6665 23.3636 8.63628 29.3333 15.9998 29.3333C23.3634 29.3333 29.3332 23.3636 29.3332 16C29.3332 8.63585 23.3634 2.66666 15.9998 2.66666C8.63628 2.66666 2.6665 8.63585 2.6665 16Z" fill="#FFC56D"/>
<path fill-rule="evenodd" clip-rule="evenodd" d="M15.9998 26.3704C10.2724 26.3704 5.62939 21.7274 5.62939 16C5.62939 10.2726 10.2724 5.62965 15.9998 5.62965C21.7272 5.62965 26.3701 10.2726 26.3701 16C26.3701 21.7274 21.7272 26.3704 15.9998 26.3704ZM17.0368 9.45483C17.0368 9.17979 16.9275 8.91602 16.7331 8.72153C16.5386 8.52705 16.2748 8.41779 15.9998 8.41779C15.7247 8.41779 15.461 8.52705 15.2665 8.72153C15.072 8.91602 14.9627 9.17979 14.9627 9.45483V10.4776C14.3286 10.6012 13.7245 10.8465 13.1838 11.2C12.4015 11.7215 11.7035 12.5731 11.7035 13.6925C11.7035 14.2833 11.8546 14.8154 12.1604 15.2693C12.459 15.7138 12.8626 16.019 13.2709 16.2371C14.0193 16.6359 14.9627 16.8237 15.7183 16.9748L15.7965 16.9908C16.6575 17.1627 17.3041 17.3013 17.7521 17.5408C17.9553 17.6486 18.0608 17.7505 18.1189 17.8365C18.1698 17.9117 18.222 18.0314 18.222 18.2554C18.222 18.4391 18.1052 18.7289 17.6649 19.0222C17.2436 19.3031 16.6475 19.4922 16.0377 19.4993C16.0116 19.4983 15.9855 19.4983 15.9595 19.4993C15.301 19.4921 14.6504 19.3545 14.0454 19.0945C13.8605 19.016 13.6812 18.9251 13.5085 18.8225L13.3574 18.7253C13.1365 18.5659 12.8618 18.4998 12.5926 18.5412C12.3234 18.5826 12.0813 18.7284 11.9186 18.9468C11.7559 19.1653 11.6857 19.439 11.7232 19.7088C11.7607 19.9787 11.9028 20.2229 12.1189 20.3888L12.1195 20.3893L12.1207 20.3905C12.2238 20.467 12.3316 20.5351 12.4412 20.6009C12.6285 20.7135 12.8946 20.8581 13.2282 21.0009C13.6821 21.1953 14.27 21.3908 14.9627 21.4957V22.4913C14.9627 22.7663 15.072 23.0301 15.2665 23.2246C15.461 23.4191 15.7247 23.5283 15.9998 23.5283C16.2748 23.5283 16.5386 23.4191 16.7331 23.2246C16.9275 23.0301 17.0368 22.7663 17.0368 22.4913V21.4702C17.6709 21.3464 18.2751 21.1009 18.8158 20.7473C19.598 20.2264 20.2961 19.3748 20.2961 18.2554C20.2961 17.6646 20.1449 17.1319 19.8398 16.6779C19.5405 16.2341 19.1369 15.9283 18.7287 15.7108C17.9808 15.3114 17.0374 15.1236 16.2812 14.9725L16.203 14.9571C15.342 14.7852 14.6955 14.6459 14.2475 14.4071C14.0442 14.2987 13.9387 14.1973 13.8807 14.1114C13.8303 14.0356 13.7775 13.9159 13.7775 13.6925C13.7775 13.5082 13.8943 13.219 14.3346 12.9256C14.7648 12.6388 15.3775 12.448 15.9998 12.448C16.8045 12.448 17.4795 12.6495 17.9541 12.8528C18.1912 12.9541 18.3731 13.0542 18.491 13.1253C18.542 13.1557 18.592 13.1877 18.6409 13.2213L18.6421 13.2219C18.863 13.3803 19.1372 13.4457 19.4057 13.404C19.6742 13.3623 19.9157 13.2168 20.0781 12.9989C20.2404 12.781 20.3108 12.508 20.274 12.2388C20.2372 11.9695 20.0962 11.7255 19.8812 11.5591L19.8801 11.5579L19.8789 11.5568L19.8759 11.555C19.7734 11.4805 19.6674 11.4109 19.5583 11.3464C19.371 11.2338 19.1055 11.0898 18.7713 10.9464C18.2164 10.7088 17.6336 10.5427 17.0368 10.4522V9.45483Z" fill="#FF840A"/>
</svg>
