<svg width="48" height="48" viewBox="0 0 48 48" fill="none" xmlns="http://www.w3.org/2000/svg">
<path d="M24.4277 42.4277C19.9338 42.4277 16.5935 42.3488 14.2039 42.2546C10.7771 42.1191 7.28516 39.6455 7.28516 35.785V35.713C7.3023 34.2361 8.06771 33.0902 9.09026 32.3573C10.0897 31.6399 11.3599 31.2851 12.5873 31.2851H36.268C37.4954 31.2851 38.7648 31.6391 39.7651 32.3565C40.7876 33.091 41.553 34.2361 41.5693 35.713L41.5702 35.785C41.5702 39.6455 38.0782 42.1191 34.6515 42.2546C32.2618 42.3488 28.9216 42.4277 24.4277 42.4277Z" fill="#FFC56D"/>
<path fill-rule="evenodd" clip-rule="evenodd" d="M11.8377 35.3187C10.6163 34.5045 8.66466 34.7239 7.40211 34.993C6.62127 35.1602 5.74186 35.0813 5.31415 34.4067C4.77759 33.5582 4.51103 32.4199 4.38589 31.3442C4.14932 29.306 5.28587 27.2618 7.2804 26.7792C9.41636 26.2632 11.572 26.7055 13.6746 28.1086C15.5988 29.3917 17.4099 29.3917 19.3333 28.1086C22.4061 26.0584 25.592 26.0584 28.6657 28.1086C30.5891 29.3917 32.4002 29.3917 34.3236 28.1086C36.4261 26.7055 38.5818 26.2632 40.7177 26.78C42.7122 27.2618 43.8497 29.306 43.6122 31.3442C43.4871 32.4199 43.2205 33.5591 42.684 34.4059C42.2571 35.0813 41.3777 35.1602 40.596 34.993C39.3343 34.7239 37.3818 34.5045 36.1612 35.3187C33.0876 37.369 29.9017 37.369 26.828 35.3187C24.9046 34.0356 23.0935 34.0356 21.171 35.3187C18.0965 37.369 14.9114 37.369 11.8377 35.3187Z" fill="#FF840A"/>
<path d="M42.7711 23.4218C42.5628 21.771 41.0483 20.9087 39.3854 20.8299C36.8655 20.7099 32.1787 20.571 24 20.571C15.4914 20.571 10.7626 20.721 8.31979 20.8436C6.83868 20.9182 5.48528 21.6519 5.26243 23.1184C5.17953 23.6941 5.13971 24.2751 5.14329 24.8567C5.14329 25.5424 5.19043 26.1166 5.26329 26.5949C5.48614 28.0606 6.83868 28.7951 8.31979 28.8697C10.7626 28.9923 15.4914 29.1423 24 29.1423C32.1787 29.1423 36.8655 29.0034 39.3854 28.8834C41.0483 28.8046 42.562 27.9423 42.7711 26.2915C42.8242 25.8766 42.8568 25.4001 42.8568 24.8567C42.8568 24.3132 42.8242 23.8367 42.7711 23.4218Z" fill="#CC4C02"/>
<path d="M24.4277 5.57126C22.1846 5.57126 20.226 5.60811 18.5289 5.66811C12.3071 5.88668 7.28516 10.7192 7.28516 17.0353C7.28516 18.5156 7.45144 19.7935 7.63315 20.7518C7.94857 22.4112 9.27026 23.5889 10.8971 23.8032C12.9885 24.08 17.077 24.428 24.4277 24.428C31.7784 24.428 35.8669 24.08 37.9582 23.804C39.5842 23.5889 40.9068 22.4112 41.2222 20.7518C41.4039 19.7935 41.5702 18.5147 41.5702 17.0353C41.5702 10.7192 36.5474 5.88668 30.3264 5.66811C28.6293 5.60811 26.6708 5.57126 24.4277 5.57126Z" fill="#FFC56D"/>
<path fill-rule="evenodd" clip-rule="evenodd" d="M35.142 14.9997C34.801 14.9997 34.474 15.1351 34.2329 15.3762C33.9918 15.6173 33.8563 15.9444 33.8563 16.2853C33.8563 16.6263 33.9918 16.9533 34.2329 17.1945C34.474 17.4356 34.801 17.571 35.142 17.571H35.5706C35.9116 17.571 36.2386 17.4356 36.4797 17.1945C36.7208 16.9533 36.8563 16.6263 36.8563 16.2853C36.8563 15.9444 36.7208 15.6173 36.4797 15.3762C36.2386 15.1351 35.9116 14.9997 35.5706 14.9997H35.142ZM28.7136 12.8568C28.7136 12.5159 28.849 12.1888 29.0901 11.9477C29.3313 11.7066 29.6583 11.5712 29.9993 11.5712H30.4278C30.7688 11.5712 31.0958 11.7066 31.3369 11.9477C31.5781 12.1888 31.7135 12.5159 31.7135 12.8568C31.7135 13.1978 31.5781 13.5248 31.3369 13.766C31.0958 14.0071 30.7688 14.1425 30.4278 14.1425H29.9993C29.6583 14.1425 29.3313 14.0071 29.0901 13.766C28.849 13.5248 28.7136 13.1978 28.7136 12.8568ZM29.5707 17.571C29.9117 17.571 30.2387 17.7065 30.4798 17.9476C30.7209 18.1887 30.8564 18.5157 30.8564 18.8567C30.8564 19.1977 30.7209 19.5247 30.4798 19.7658C30.2387 20.0069 29.9117 20.1424 29.5707 20.1424H29.1421C28.8011 20.1424 28.4741 20.0069 28.233 19.7658C27.9919 19.5247 27.8564 19.1977 27.8564 18.8567C27.8564 18.5157 27.9919 18.1887 28.233 17.9476C28.4741 17.7065 28.8011 17.571 29.1421 17.571H29.5707Z" fill="#FF840A"/>
</svg>
