<svg width="32" height="32" viewBox="0 0 32 32" fill="none" xmlns="http://www.w3.org/2000/svg">
<path d="M15.9999 6.70374C10.8385 6.70374 7.61227 7.02924 5.73433 7.32914C3.99048 7.6071 2.80862 9.01759 2.64039 10.6981C2.47155 12.3847 2.28564 14.9936 2.28564 18.2852C2.28564 21.5774 2.47155 24.1856 2.64039 25.8722C2.80801 27.5522 3.99048 28.9627 5.73433 29.2412C7.61166 29.5411 10.8385 29.8666 15.9999 29.8666C21.1614 29.8666 24.3876 29.5411 26.2655 29.2412C28.0094 28.9633 29.1912 27.5528 29.3595 25.8722C29.5283 24.185 29.7142 21.5774 29.7142 18.2852C29.7142 14.993 29.5283 12.3847 29.3595 10.6981C29.1919 9.0182 28.0094 7.6077 26.2655 7.32914C24.3882 7.02924 21.1614 6.70374 15.9999 6.70374Z" fill="#FFC56D"/>
<path fill-rule="evenodd" clip-rule="evenodd" d="M14.3297 4.69584C14.7454 4.63062 15.3111 4.57149 15.9998 4.57149C16.6892 4.57149 17.2548 4.63001 17.6699 4.69584C17.8461 4.72327 18.0344 4.85006 18.1466 5.10851C18.3477 5.5742 18.5781 6.15205 18.7695 6.73844C19.7045 6.76282 20.5591 6.79757 21.338 6.84084C21.0802 5.83448 20.6798 4.82385 20.3847 4.14176C19.9837 3.21281 19.1505 2.46001 18.049 2.2869C17.371 2.18267 16.6859 2.13131 15.9998 2.13329C15.1721 2.13329 14.4797 2.204 13.9512 2.2869C12.8498 2.46001 12.0166 3.21342 11.6155 4.14176C11.3211 4.82446 10.9201 5.83448 10.6616 6.84084C11.4406 6.79757 12.2951 6.76221 13.2308 6.73844C13.4222 6.15205 13.6526 5.5742 13.8537 5.10851C13.9652 4.85006 14.1542 4.72327 14.3297 4.69584Z" fill="#FF840A"/>
<path fill-rule="evenodd" clip-rule="evenodd" d="M14.5977 24.2963C14.0248 24.2189 13.656 23.7276 13.6347 23.1491C13.6145 22.5975 13.592 21.7929 13.5774 20.7091C12.7639 20.6993 11.9505 20.6802 11.1374 20.6518C10.559 20.6305 10.0677 20.2617 9.99032 19.6887C9.93059 19.2236 9.90208 18.7551 9.90499 18.2862C9.90499 17.7022 9.94217 17.2383 9.99032 16.8836C10.0677 16.3106 10.559 15.9418 11.1374 15.9205C11.6891 15.9004 12.4936 15.8778 13.5774 15.8632C13.592 14.7794 13.6145 13.9748 13.6347 13.4232C13.656 12.8447 14.0248 12.3534 14.5977 12.276C14.9525 12.2278 15.4163 12.1907 16.0002 12.1907C16.5841 12.1907 17.048 12.2278 17.4027 12.276C17.9757 12.3534 18.3445 12.8447 18.3658 13.4232C18.3859 13.9748 18.4085 14.7794 18.4231 15.8632C19.5068 15.8778 20.3114 15.9004 20.863 15.9205C21.4414 15.9418 21.9327 16.3106 22.0101 16.8836C22.0583 17.2383 22.0955 17.7022 22.0955 18.2862C22.0955 18.8701 22.0583 19.334 22.0101 19.6887C21.9327 20.2617 21.4414 20.6305 20.863 20.6518C20.3114 20.6719 19.5068 20.6945 18.4231 20.7091C18.4132 21.5226 18.3941 22.336 18.3658 23.1491C18.3445 23.7276 17.9757 24.2189 17.4027 24.2963C17.048 24.3445 16.5841 24.3816 16.0002 24.3816C15.4163 24.3816 14.9525 24.3445 14.5977 24.2963Z" fill="#FF840A"/>
</svg>
