<svg width="24" height="24" viewBox="0 0 24 24" fill="none" xmlns="http://www.w3.org/2000/svg">
<path fill-rule="evenodd" clip-rule="evenodd" d="M16.4402 1.9707C16.5957 1.81471 16.7941 1.70847 17.0101 1.66547C17.2261 1.62248 17.4501 1.64466 17.6535 1.72922L20.8046 3.03588C21.0763 3.14809 21.2925 3.36342 21.4058 3.63472C21.5191 3.90601 21.5203 4.21115 21.409 4.48329L20.1216 7.6344C20.0385 7.83788 19.8968 8.01212 19.7146 8.13506C19.5324 8.25801 19.3178 8.32414 19.0979 8.32509C18.8781 8.32605 18.663 8.26177 18.4797 8.14041C18.2964 8.01904 18.1532 7.84604 18.0683 7.64329L17.5602 6.42848L4.76312 11.8966C4.62888 11.954 4.48465 11.9844 4.33867 11.9861C4.19268 11.9877 4.0478 11.9606 3.9123 11.9063C3.77679 11.8519 3.65332 11.7714 3.54892 11.6694C3.44453 11.5673 3.36125 11.4457 3.30386 11.3114C3.24647 11.1772 3.21608 11.033 3.21443 10.887C3.21277 10.741 3.23989 10.5961 3.29423 10.4606C3.34857 10.3251 3.42907 10.2016 3.53113 10.0972C3.63319 9.99284 3.75481 9.90957 3.88905 9.85218L16.7024 4.37811L16.2031 3.18551C16.1177 2.98235 16.0946 2.75836 16.1368 2.54204C16.179 2.32573 16.2846 2.12685 16.4402 1.9707Z" fill="#FF840A"/>
<path fill-rule="evenodd" clip-rule="evenodd" d="M20.5185 9.76331C20.9114 9.76331 21.2883 9.9194 21.5661 10.1972C21.8439 10.4751 22 10.8519 22 11.2448V21.6152C22 21.8116 21.922 22 21.783 22.1389C21.6441 22.2779 21.4557 22.3559 21.2593 22.3559H17.5556C17.3591 22.3559 17.1707 22.2779 17.0318 22.1389C16.8929 22 16.8148 21.8116 16.8148 21.6152V11.2448C16.8148 10.8519 16.9709 10.4751 17.2487 10.1972C17.5266 9.9194 17.9034 9.76331 18.2963 9.76331H20.5185ZM13.1111 11.9855C13.504 11.9855 13.8808 12.1416 14.1587 12.4195C14.4365 12.6973 14.5926 13.0741 14.5926 13.467V21.6152C14.5926 21.8116 14.5146 22 14.3756 22.1389C14.2367 22.2779 14.0483 22.3559 13.8519 22.3559H10.1481C9.95169 22.3559 9.76328 22.2779 9.62437 22.1389C9.48545 22 9.40741 21.8116 9.40741 21.6152V13.467C9.40741 13.0741 9.56349 12.6973 9.84132 12.4195C10.1192 12.1416 10.496 11.9855 10.8889 11.9855H13.1111ZM6.75111 14.6389C6.47334 14.361 6.09658 14.2049 5.7037 14.2048H3.48148C3.08857 14.2048 2.71175 14.3609 2.43392 14.6387C2.15608 14.9165 2 15.2934 2 15.6863V21.6122C2 21.8087 2.07804 21.9971 2.21696 22.136C2.35587 22.2749 2.54428 22.3529 2.74074 22.3529H6.44444C6.6409 22.3529 6.82931 22.2749 6.96823 22.136C7.10714 21.9971 7.18518 21.8087 7.18518 21.6122V15.6863C7.1851 15.2934 7.02896 14.9166 6.75111 14.6389Z" fill="#FFC56D"/>
</svg>
