<svg width="16" height="16" viewBox="0 0 16 16" fill="none" xmlns="http://www.w3.org/2000/svg">
<path fill-rule="evenodd" clip-rule="evenodd" d="M7.06143 3.63306C7.29504 3.5915 7.61293 3.55382 8 3.55382C8.38742 3.55382 8.7053 3.59111 8.93857 3.63306C9.03757 3.65054 9.14341 3.73134 9.20644 3.89604C9.31948 4.19281 9.44896 4.56106 9.55652 4.93474C10.082 4.95028 10.5622 4.97242 11 5C10.8551 4.35868 10.6301 3.71463 10.4643 3.27996C10.2389 2.68797 9.77061 2.20824 9.15163 2.09792C8.77057 2.0315 8.38554 1.99877 8 2.00004C7.53483 2.00004 7.1457 2.04509 6.84871 2.09792C6.22973 2.20824 5.76148 2.68836 5.53608 3.27996C5.37063 3.71502 5.14524 4.35868 5 5C5.43777 4.97242 5.91802 4.94989 6.44382 4.93474C6.55138 4.56106 6.68086 4.19281 6.7939 3.89604C6.85659 3.73134 6.96278 3.65054 7.06143 3.63306Z" fill="#FF840A"/>
<path d="M8 4C5.36551 4 3.7188 4.14053 2.76027 4.27C1.87018 4.39 1.26693 4.99895 1.18107 5.72447C1.09489 6.45263 1 7.57895 1 9C1 10.4213 1.09489 11.5474 1.18107 12.2755C1.26662 13.0008 1.87018 13.6097 2.76027 13.73C3.71849 13.8595 5.36551 14 8 14C10.6345 14 12.2812 13.8595 13.2397 13.73C14.1298 13.61 14.7331 13.0011 14.8189 12.2755C14.9051 11.5471 15 10.4213 15 9C15 7.57868 14.9051 6.45263 14.8189 5.72447C14.7334 4.99921 14.1298 4.39026 13.2397 4.27C12.2815 4.14053 10.6345 4 8 4Z" fill="#FFC56D"/>
<path fill-rule="evenodd" clip-rule="evenodd" d="M7.30976 11.958C7.02777 11.9199 6.84627 11.6781 6.83577 11.3934C6.82587 11.1219 6.81477 10.7259 6.80757 10.1925C6.40718 10.1877 6.00686 10.1783 5.60669 10.1643C5.32199 10.1538 5.0802 9.9723 5.0421 9.6903C5.0127 9.4614 4.99867 9.23078 5.0001 9C5.0001 8.7126 5.0184 8.4843 5.0421 8.3097C5.0802 8.0277 5.32199 7.8462 5.60669 7.8357C5.87818 7.8258 6.27418 7.8147 6.80757 7.8075C6.81477 7.2741 6.82587 6.8781 6.83577 6.6066C6.84627 6.3219 7.02777 6.0801 7.30976 6.042C7.48436 6.0183 7.71265 6 8.00005 6C8.28745 6 8.51574 6.0183 8.69034 6.042C8.97233 6.0801 9.15383 6.3219 9.16433 6.6066C9.17423 6.8781 9.18533 7.2741 9.19253 7.8075C9.72592 7.8147 10.1219 7.8258 10.3934 7.8357C10.6781 7.8462 10.9199 8.0277 10.958 8.3097C10.9817 8.4843 11 8.7126 11 9C11 9.2874 10.9817 9.5157 10.958 9.6903C10.9199 9.9723 10.6781 10.1538 10.3934 10.1643C10.1219 10.1742 9.72592 10.1853 9.19253 10.1925C9.18769 10.5929 9.17829 10.9932 9.16433 11.3934C9.15383 11.6781 8.97233 11.9199 8.69034 11.958C8.51574 11.9817 8.28745 12 8.00005 12C7.71265 12 7.48436 11.9817 7.30976 11.958Z" fill="#FF840A"/>
</svg>
