<svg width="16" height="16" viewBox="0 0 16 16" fill="none" xmlns="http://www.w3.org/2000/svg">
<path d="M8.13949 14C6.67633 14 5.5888 13.9743 4.81075 13.9436C3.69503 13.8995 2.55811 13.0941 2.55811 11.8372V11.8138C2.56369 11.3329 2.8129 10.9598 3.14583 10.7212C3.47122 10.4876 3.8848 10.3721 4.28443 10.3721H11.9946C12.3942 10.3721 12.8075 10.4873 13.1332 10.7209C13.4661 10.9601 13.7153 11.3329 13.7206 11.8138L13.7209 11.8372C13.7209 13.0941 12.584 13.8995 11.4682 13.9436C10.6902 13.9743 9.60265 14 8.13949 14Z" fill="#FFC56D"/>
<path fill-rule="evenodd" clip-rule="evenodd" d="M4.0403 11.6854C3.64262 11.4203 3.00718 11.4917 2.59611 11.5794C2.34188 11.6338 2.05555 11.6081 1.9163 11.3885C1.7416 11.1122 1.65481 10.7416 1.61407 10.3914C1.53704 9.72773 1.90709 9.06215 2.55648 8.90503C3.25192 8.73703 3.95378 8.88103 4.63834 9.33787C5.26485 9.75563 5.85453 9.75563 6.48076 9.33787C7.48122 8.67033 8.51852 8.67033 9.51926 9.33787C10.1455 9.75563 10.7352 9.75563 11.3614 9.33787C12.046 8.88103 12.7478 8.73703 13.4433 8.90531C14.0927 9.06215 14.463 9.72773 14.3857 10.3914C14.3449 10.7416 14.2581 11.1125 14.0834 11.3882C13.9445 11.6081 13.6581 11.6338 13.4036 11.5794C12.9928 11.4917 12.3571 11.4203 11.9597 11.6854C10.959 12.3529 9.92168 12.3529 8.92094 11.6854C8.29471 11.2676 7.70503 11.2676 7.07908 11.6854C6.07806 12.3529 5.04104 12.3529 4.0403 11.6854Z" fill="#FF840A"/>
<path d="M14.1116 7.81188C14.0438 7.27439 13.5506 6.99365 13.0092 6.96798C12.1888 6.92891 10.6628 6.8837 7.99995 6.8837C5.22963 6.8837 3.69 6.93253 2.89465 6.97244C2.41242 6.99672 1.97177 7.2356 1.89921 7.71309C1.87223 7.90051 1.85926 8.08969 1.86042 8.27904C1.86042 8.5023 1.87577 8.68927 1.89949 8.845C1.97205 9.3222 2.41242 9.56137 2.89465 9.58565C3.69 9.62555 5.22963 9.67439 7.99995 9.67439C10.6628 9.67439 12.1888 9.62918 13.0092 9.59011C13.5506 9.56444 14.0435 9.28369 14.1116 8.7462C14.1289 8.61114 14.1395 8.45597 14.1395 8.27904C14.1395 8.10211 14.1289 7.94695 14.1116 7.81188Z" fill="#CC4C02"/>
<path d="M8.13949 2C7.40917 2 6.77149 2.012 6.21894 2.03153C4.19317 2.1027 2.55811 3.67609 2.55811 5.73255C2.55811 6.21451 2.61224 6.6306 2.67141 6.9426C2.77411 7.48288 3.20443 7.86632 3.7341 7.93609C4.41503 8.02622 5.74619 8.13953 8.13949 8.13953C10.5328 8.13953 11.864 8.02622 12.5449 7.93636C13.0743 7.86632 13.5049 7.48288 13.6076 6.9426C13.6667 6.6306 13.7209 6.21423 13.7209 5.73255C13.7209 3.67609 12.0855 2.1027 10.06 2.03153C9.50749 2.012 8.86982 2 8.13949 2Z" fill="#FFC56D"/>
<path fill-rule="evenodd" clip-rule="evenodd" d="M11.6279 5.06978C11.5169 5.06978 11.4105 5.11389 11.332 5.19239C11.2534 5.27089 11.2093 5.37737 11.2093 5.48839C11.2093 5.59941 11.2534 5.70588 11.332 5.78439C11.4105 5.86289 11.5169 5.90699 11.6279 5.90699H11.7675C11.8785 5.90699 11.985 5.86289 12.0635 5.78439C12.142 5.70588 12.1861 5.59941 12.1861 5.48839C12.1861 5.37737 12.142 5.27089 12.0635 5.19239C11.985 5.11389 11.8785 5.06978 11.7675 5.06978H11.6279ZM9.53493 4.37211C9.53493 4.26109 9.57903 4.15462 9.65754 4.07611C9.73604 3.99761 9.84251 3.95351 9.95353 3.95351H10.0931C10.2041 3.95351 10.3106 3.99761 10.3891 4.07611C10.4676 4.15462 10.5117 4.26109 10.5117 4.37211C10.5117 4.48313 10.4676 4.5896 10.3891 4.66811C10.3106 4.74661 10.2041 4.79071 10.0931 4.79071H9.95353C9.84251 4.79071 9.73604 4.74661 9.65754 4.66811C9.57903 4.5896 9.53493 4.48313 9.53493 4.37211ZM9.814 5.90699C9.92502 5.90699 10.0315 5.95109 10.11 6.0296C10.1885 6.1081 10.2326 6.21457 10.2326 6.3256C10.2326 6.43662 10.1885 6.54309 10.11 6.62159C10.0315 6.7001 9.92502 6.7442 9.814 6.7442H9.67446C9.56344 6.7442 9.45697 6.7001 9.37847 6.62159C9.29996 6.54309 9.25586 6.43662 9.25586 6.3256C9.25586 6.21457 9.29996 6.1081 9.37847 6.0296C9.45697 5.95109 9.56344 5.90699 9.67446 5.90699H9.814Z" fill="#FF840A"/>
</svg>
