<svg width="16" height="16" viewBox="0 0 16 16" fill="none" xmlns="http://www.w3.org/2000/svg">
<path d="M14.7985 4.11678C14.9315 4.43455 15 4.77512 15 5.11905C15.0008 5.52579 14.9055 5.92708 14.7216 6.29088C14.5378 6.65468 14.2706 6.9709 13.9412 7.21429V12.4524C13.9412 12.7302 13.8296 12.9967 13.631 13.1932C13.4325 13.3896 13.1631 13.5 12.8823 13.5H6V2.5H12.3529C12.7005 2.5 13.0448 2.56774 13.3659 2.69937C13.6871 2.83099 13.9789 3.02391 14.2247 3.2671C14.4705 3.51031 14.6655 3.79903 14.7985 4.11678Z" fill="#FF840A"/>
<path d="M11 5.11905C11 4.77512 10.9319 4.43455 10.7997 4.11678C10.6674 3.79903 10.4736 3.51031 10.2292 3.2671C9.98486 3.02391 9.69475 2.83099 9.37548 2.69937C9.0562 2.56774 8.714 2.5 8.36842 2.5H3.63158C3.07925 2.5 2.54094 2.67296 2.09286 2.99437C1.6448 3.31579 1.3097 3.76935 1.13504 4.29084C0.960384 4.81232 0.955017 5.37528 1.1197 5.89997C1.28439 6.42466 1.61077 6.88448 2.05263 7.21429V12.4524C2.05263 12.7302 2.16354 12.9967 2.36094 13.1932C2.55835 13.3896 2.82608 13.5 3.10526 13.5H8.89473C9.17391 13.5 9.44165 13.3896 9.63906 13.1932C9.83646 12.9967 9.94736 12.7302 9.94736 12.4524V7.21429C10.2748 6.9709 10.5405 6.65468 10.7233 6.29088C10.9061 5.92708 11.0008 5.52579 11 5.11905Z" fill="#FFC56D"/>
</svg>
