<svg width="32" height="32" viewBox="0 0 32 32" fill="none" xmlns="http://www.w3.org/2000/svg">
<path d="M8.29723 3.50316C7.07097 3.83212 6.07228 4.12926 5.28051 4.38276C3.40693 4.98233 2.33867 6.83233 2.75666 8.75485C2.93294 9.56724 3.17406 10.5801 3.50303 11.8069C3.77225 12.8191 4.06553 13.8248 4.38263 14.8231C4.98161 16.6966 6.8322 17.7649 8.75472 17.3475C9.56711 17.1706 10.58 16.9295 11.8068 16.6005C12.819 16.3315 13.8247 16.0384 14.8229 15.7215C16.6965 15.122 17.7648 13.272 17.3474 11.3494C17.1705 10.537 16.9288 9.52362 16.6004 8.29736C16.3314 7.28496 16.0383 6.2791 15.7214 5.28064C15.1218 3.40765 13.2712 2.3388 11.3493 2.75679C10.5369 2.93365 9.52349 3.17478 8.29723 3.50316Z" fill="#FFC56D"/>
<path fill-rule="evenodd" clip-rule="evenodd" d="M23.0378 29.2434C22.2254 29.0665 21.212 28.8248 19.9857 28.4964C18.9733 28.2272 17.9674 27.9339 16.969 27.6168C15.0954 27.0178 14.0271 25.1672 14.4451 23.2453C14.622 22.4329 14.8631 21.4195 15.1915 20.1932C15.5205 18.967 15.8176 17.9683 16.0711 17.1765C16.6707 15.3029 18.5207 14.2347 20.4432 14.6521C21.2556 14.8289 22.2684 15.0707 23.4953 15.399C24.7215 15.7274 25.7196 16.0251 26.5114 16.2786C28.385 16.8776 29.4533 18.7282 29.0359 20.6501C28.859 21.4631 28.6173 22.476 28.2889 23.7028C28.0199 24.715 27.7268 25.7207 27.4099 26.7189C26.8103 28.5925 24.9597 29.6608 23.0378 29.2434Z" fill="#FFC56D"/>
<path fill-rule="evenodd" clip-rule="evenodd" d="M10.5438 11.5977C10.7467 11.5331 10.9349 11.4293 11.0977 11.292C11.2605 11.1547 11.3946 10.9867 11.4925 10.7976C11.5903 10.6085 11.65 10.402 11.668 10.1898C11.6861 9.97763 11.6621 9.76399 11.5976 9.56107C11.5331 9.35815 11.4292 9.16993 11.2919 9.00715C11.1547 8.84437 10.9867 8.71022 10.7976 8.61237C10.6084 8.51451 10.4019 8.45486 10.1897 8.43683C9.97758 8.41879 9.76394 8.44272 9.56102 8.50725C9.1512 8.63765 8.80998 8.92551 8.6124 9.3075C8.41483 9.68949 8.37709 10.1343 8.5075 10.5441C8.6379 10.954 8.92576 11.2952 9.30775 11.4928C9.68974 11.6903 10.1346 11.7281 10.5444 11.5977H10.5438Z" fill="#FF840A"/>
<path fill-rule="evenodd" clip-rule="evenodd" d="M18.9734 24.8672C19.3889 24.9785 19.8315 24.9202 20.204 24.7052C20.5765 24.4901 20.8483 24.1359 20.9596 23.7205C21.0709 23.3051 21.0127 22.8624 20.7976 22.4899C20.5826 22.1174 20.2284 21.8456 19.8129 21.7343C19.3975 21.623 18.9548 21.6813 18.5824 21.8963C18.2099 22.1113 17.9381 22.4655 17.8268 22.881C17.7154 23.2964 17.7737 23.7391 17.9887 24.1116C18.2038 24.484 18.558 24.7558 18.9734 24.8672Z" fill="#FF840A"/>
<path d="M22.5201 20.172C22.5752 19.9664 22.6703 19.7736 22.8 19.6047C22.9296 19.4357 23.0912 19.294 23.2756 19.1876C23.4601 19.0811 23.6636 19.012 23.8747 18.9842C24.0858 18.9565 24.3003 18.9705 24.506 19.0257C24.7117 19.0808 24.9045 19.1759 25.0734 19.3055C25.2423 19.4351 25.384 19.5968 25.4905 19.7812C25.5969 19.9656 25.666 20.1692 25.6938 20.3803C25.7216 20.5914 25.7075 20.8059 25.6524 21.0116C25.5411 21.4269 25.2693 21.781 24.8969 21.996C24.5244 22.211 24.0819 22.2693 23.6665 22.1579C23.2511 22.0466 22.897 21.7748 22.682 21.4024C22.467 21.03 22.4088 20.5874 22.5201 20.172Z" fill="#FF840A"/>
</svg>
