<svg width="24" height="24" viewBox="0 0 24 24" fill="none" xmlns="http://www.w3.org/2000/svg">
<path fill-rule="evenodd" clip-rule="evenodd" d="M8.42835 2.62862C7.57486 2.62862 6.76161 3.06291 6.32093 3.82679C5.78516 4.75616 4.92665 6.34563 4.20117 8.15683C4.60345 8.1518 5.09899 8.14585 5.69144 8.14037C6.22495 6.89616 6.83189 5.68474 7.50904 4.5125C7.69052 4.19707 8.03612 4.00005 8.42789 4.00005H9.71474C9.8966 4.00005 10.071 3.9278 10.1996 3.79921C10.3282 3.67061 10.4005 3.4962 10.4005 3.31433C10.4005 3.13247 10.3282 2.95806 10.1996 2.82946C10.071 2.70087 9.8966 2.62862 9.71474 2.62862H8.42835ZM17.679 3.82679C18.2153 4.75616 19.0738 6.34563 19.7988 8.15683C19.3965 8.1518 18.9014 8.14585 18.3085 8.14037C17.7752 6.89617 17.1684 5.68475 16.4914 4.5125C16.3095 4.19707 15.9639 4.00005 15.5721 4.00005H14.2857C14.1038 4.00005 13.9294 3.9278 13.8008 3.79921C13.6722 3.67061 13.6 3.4962 13.6 3.31433C13.6 3.13247 13.6722 2.95806 13.8008 2.82946C13.9294 2.70087 14.1038 2.62862 14.2857 2.62862H15.5721C16.4256 2.62862 17.2379 3.06291 17.679 3.82679ZM12 12.229C7.57578 12.229 4.89602 12.1975 3.66037 12.1783C3.51712 12.1758 3.37432 12.1616 3.2334 12.1358C3.27774 12.5307 3.33306 12.9934 3.40071 13.5072C3.62151 15.1854 3.97351 17.419 4.49876 19.6215C4.64787 20.2563 4.9906 20.8291 5.47953 21.2606C5.96847 21.6922 6.57943 21.9611 7.22789 22.0301C8.81312 22.1995 10.4062 22.2849 12.0004 22.2861C13.9282 22.2861 15.605 22.1554 16.773 22.0301C17.4215 21.961 18.0325 21.6921 18.5215 21.2605C19.0104 20.8288 19.3531 20.2559 19.5021 19.621C20.0269 17.419 20.3794 15.1854 20.6002 13.5067C20.6674 12.9934 20.7231 12.5307 20.7675 12.1353C20.6264 12.1613 20.4835 12.1757 20.3401 12.1783C19.104 12.1975 16.4242 12.229 12 12.229Z" fill="#FFC56D"/>
<path d="M12.0001 12.229C7.57585 12.229 4.8961 12.1979 3.66045 12.1787C3.04605 12.1691 2.06822 11.9209 1.81085 10.9454C1.74544 10.6928 1.71302 10.4328 1.7144 10.1719C1.7144 9.8807 1.75143 9.62333 1.8104 9.39842C2.06822 8.42288 3.04605 8.17511 3.66045 8.16551C4.8961 8.14585 7.57585 8.11477 12.0001 8.11477C16.4243 8.11477 19.104 8.14585 20.3397 8.16505C20.9541 8.17511 21.9319 8.42288 22.1893 9.39842C22.2487 9.62288 22.2857 9.8807 22.2857 10.1719C22.2857 10.4631 22.2487 10.7205 22.1897 10.9454C21.9319 11.9209 20.9541 12.1691 20.3397 12.1787C19.1036 12.1979 16.4243 12.229 12.0001 12.229Z" fill="#FF840A"/>
<path d="M12.0002 4.91432C12.7344 4.91432 13.2701 4.90426 13.6317 4.89375C14.2457 4.87546 14.9044 4.45352 14.9593 3.67775C14.9764 3.43577 14.9764 3.19288 14.9593 2.9509C14.9044 2.17513 14.2457 1.75319 13.6317 1.73491C13.2706 1.72439 12.7344 1.71434 12.0002 1.71434C11.266 1.71434 10.7303 1.72439 10.3687 1.73491C9.75473 1.75319 9.09599 2.17513 9.04113 2.9509C9.02405 3.19288 9.02405 3.43577 9.04113 3.67775C9.09599 4.45352 9.75473 4.87546 10.3687 4.89375C10.7298 4.90426 11.266 4.91432 12.0002 4.91432Z" fill="#FF840A"/>
<path fill-rule="evenodd" clip-rule="evenodd" d="M8.25819 14.5205C8.34755 14.5093 8.43824 14.5158 8.52508 14.5396C8.61193 14.5635 8.69322 14.6042 8.76433 14.6595C8.83543 14.7147 8.89495 14.7835 8.93949 14.8618C8.98403 14.94 9.01271 15.0263 9.0239 15.1157L9.48104 18.7728C9.4922 18.8622 9.48566 18.9528 9.46178 19.0397C9.4379 19.1265 9.39715 19.2078 9.34186 19.2789C9.28657 19.3499 9.21782 19.4094 9.13954 19.4539C9.06125 19.4985 8.97497 19.5271 8.88561 19.5383C8.70514 19.5608 8.52311 19.5108 8.37955 19.3991C8.236 19.2874 8.14268 19.1233 8.12013 18.9429L7.66299 15.2857C7.64049 15.1053 7.69055 14.9234 7.80216 14.7799C7.91377 14.6364 8.0778 14.5431 8.25819 14.5205Z" fill="#FF840A"/>
<path fill-rule="evenodd" clip-rule="evenodd" d="M15.7423 14.5205C15.6529 14.5093 15.5623 14.5158 15.4754 14.5396C15.3886 14.5635 15.3073 14.6042 15.2362 14.6595C15.1651 14.7147 15.1055 14.7835 15.061 14.8618C15.0165 14.94 14.9878 15.0263 14.9766 15.1157L14.5195 18.7728C14.4969 18.9533 14.547 19.1353 14.6586 19.2789C14.7703 19.4224 14.9344 19.5157 15.1149 19.5383C15.2953 19.5608 15.4774 19.5108 15.6209 19.3991C15.7645 19.2874 15.8578 19.1233 15.8804 18.9429L16.3375 15.2857C16.36 15.1053 16.3099 14.9234 16.1983 14.7799C16.0867 14.6364 15.9227 14.5431 15.7423 14.5205Z" fill="#FF840A"/>
<path fill-rule="evenodd" clip-rule="evenodd" d="M12.0002 14.5151C12.182 14.5151 12.3564 14.5874 12.485 14.716C12.6136 14.8446 12.6859 15.019 12.6859 15.2009V18.858C12.6859 19.0398 12.6136 19.2143 12.485 19.3429C12.3564 19.4715 12.182 19.5437 12.0002 19.5437C11.8183 19.5437 11.6439 19.4715 11.5153 19.3429C11.3867 19.2143 11.3145 19.0398 11.3145 18.858V15.2009C11.3145 15.019 11.3867 14.8446 11.5153 14.716C11.6439 14.5874 11.8183 14.5151 12.0002 14.5151Z" fill="#FF840A"/>
</svg>
