<svg width="48" height="48" viewBox="0 0 48 48" fill="none" xmlns="http://www.w3.org/2000/svg">
<path d="M24.0001 10.0556C16.258 10.0556 11.4187 10.5439 8.60174 10.9937C5.98597 11.4106 4.21317 13.5264 3.96083 16.0472C3.70757 18.5771 3.42871 22.4904 3.42871 27.4278C3.42871 32.366 3.70757 36.2784 3.96083 38.8084C4.21225 41.3282 5.98597 43.444 8.60174 43.8618C11.4177 44.3117 16.258 44.7999 24.0001 44.7999C31.7423 44.7999 36.5816 44.3117 39.3985 43.8618C42.0143 43.4449 43.7871 41.3291 44.0395 38.8084C44.2927 36.2775 44.5716 32.366 44.5716 27.4278C44.5716 22.4895 44.2927 18.5771 44.0395 16.0472C43.788 13.5273 42.0143 11.4116 39.3985 10.9937C36.5825 10.5439 31.7423 10.0556 24.0001 10.0556Z" fill="#FFC56D"/>
<path fill-rule="evenodd" clip-rule="evenodd" d="M21.4953 7.04379C22.1189 6.94596 22.9673 6.85727 24.0005 6.85727C25.0345 6.85727 25.883 6.94504 26.5056 7.04379C26.7699 7.08493 27.0524 7.27511 27.2206 7.66279C27.5223 8.36133 27.8679 9.22811 28.155 10.1077C29.5575 10.1443 30.8393 10.1964 32.0078 10.2613C31.6211 8.75175 31.0204 7.2358 30.5779 6.21267C29.9763 4.81924 28.7264 3.69005 27.0743 3.43038C26.0572 3.27404 25.0295 3.197 24.0005 3.19997C22.7589 3.19997 21.7203 3.30603 20.9276 3.43038C19.2755 3.69005 18.0256 4.82015 17.424 6.21267C16.9824 7.23671 16.3808 8.75175 15.9932 10.2613C17.1616 10.1964 18.4435 10.1433 19.8469 10.1077C20.134 9.22811 20.4796 8.36133 20.7813 7.66279C20.9486 7.27511 21.232 7.08493 21.4953 7.04379Z" fill="#FF840A"/>
<path fill-rule="evenodd" clip-rule="evenodd" d="M21.8973 36.4445C21.0379 36.3284 20.4847 35.5914 20.4527 34.7237C20.4226 33.8963 20.3887 32.6894 20.3668 31.0637C19.1465 31.0489 17.9265 31.0203 16.7069 30.9777C15.8392 30.9457 15.1023 30.3926 14.9862 29.5331C14.8966 28.8355 14.8539 28.1326 14.8582 27.4292C14.8582 26.5533 14.914 25.8575 14.9862 25.3254C15.1023 24.4659 15.8392 23.9128 16.7069 23.8808C17.5343 23.8506 18.7412 23.8168 20.3668 23.7948C20.3887 22.1691 20.4226 20.9622 20.4527 20.1348C20.4847 19.2671 21.0379 18.5301 21.8973 18.414C22.4294 18.3418 23.1252 18.286 24.0011 18.286C24.877 18.286 25.5727 18.3418 26.1048 18.414C26.9643 18.5301 27.5174 19.2671 27.5494 20.1348C27.5796 20.9622 27.6134 22.1691 27.6354 23.7948C29.261 23.8168 30.4678 23.8506 31.2952 23.8808C32.1629 23.9128 32.8998 24.4659 33.0159 25.3254C33.0882 25.8575 33.1439 26.5533 33.1439 27.4292C33.1439 28.3052 33.0882 29.001 33.0159 29.5331C32.8998 30.3926 32.1629 30.9457 31.2952 30.9777C30.4678 31.0079 29.261 31.0417 27.6354 31.0637C27.6206 32.284 27.5919 33.5041 27.5494 34.7237C27.5174 35.5914 26.9643 36.3284 26.1048 36.4445C25.5727 36.5167 24.877 36.5725 24.0011 36.5725C23.1252 36.5725 22.4294 36.5167 21.8973 36.4445Z" fill="#FF840A"/>
</svg>
