<svg width="48" height="48" viewBox="0 0 48 48" fill="none" xmlns="http://www.w3.org/2000/svg">
<path fill-rule="evenodd" clip-rule="evenodd" d="M31.4937 4.1013C32.0375 4.27456 32.4902 4.6567 32.7523 5.16368C33.0144 5.67066 33.0644 6.26098 32.8914 6.80483L31.0775 12.5047C30.9918 12.7741 30.8538 13.0241 30.6715 13.2402C30.4891 13.4564 30.266 13.6345 30.0148 13.7644C29.5075 14.0268 28.9168 14.0769 28.3726 13.9038C28.1031 13.818 27.8531 13.6801 27.637 13.4977C27.4208 13.3154 27.2427 13.0922 27.1128 12.8411C26.8504 12.3338 26.8003 11.743 26.9734 11.1988L28.7901 5.49899C28.9634 4.9552 29.3456 4.50248 29.8525 4.24038C30.3595 3.97828 30.9498 3.92825 31.4937 4.1013Z" fill="#FF840A"/>
<path fill-rule="evenodd" clip-rule="evenodd" d="M23.997 8.82242C20.8212 8.82318 17.7757 10.0853 15.5303 12.3313C13.2848 14.5772 12.0234 17.6231 12.0234 20.7989V22.2024C12.0234 22.2511 12.0234 22.3028 12.0292 22.3545L13.2403 39.3334C13.3303 40.6008 13.8974 41.787 14.8273 42.653C15.7572 43.519 16.9807 44.0003 18.2513 44H29.7456C32.3803 44 34.5672 41.9623 34.7567 39.3334L35.9678 22.3545C35.9715 22.3038 35.9735 22.2531 35.9735 22.2024V20.7961C35.9728 17.6207 34.711 14.5756 32.4657 12.3303C30.2204 10.0849 27.1724 8.82318 23.997 8.82242Z" fill="#FFC56D"/>
<path fill-rule="evenodd" clip-rule="evenodd" d="M9.96597 20.0499C9.6833 20.0499 9.4034 20.1056 9.14225 20.2138C8.88109 20.322 8.64381 20.4805 8.44393 20.6804C8.24405 20.8803 8.0855 21.1176 7.97733 21.3787C7.86915 21.6399 7.81348 21.9198 7.81348 22.2024C7.81348 22.4851 7.86915 22.765 7.97733 23.0262C8.0855 23.2873 8.24405 23.5246 8.44393 23.7245C8.64381 23.9244 8.88109 24.0829 9.14225 24.1911C9.4034 24.2993 9.6833 24.3549 9.96597 24.3549H38.0345C38.6054 24.3549 39.1529 24.1282 39.5565 23.7245C39.9602 23.3208 40.187 22.7733 40.187 22.2024C40.187 21.6316 39.9602 21.0841 39.5565 20.6804C39.1529 20.2767 38.6054 20.0499 38.0345 20.0499H9.96597ZM16.8339 29.2167H31.1637L30.4606 39.0264C30.4482 39.2076 30.3676 39.3774 30.235 39.5015C30.1024 39.6256 29.9276 39.6948 29.746 39.6951H18.2516C18.07 39.6956 17.8949 39.6271 17.7617 39.5035C17.6286 39.3799 17.5472 39.2104 17.5341 39.0292L16.8339 29.2167Z" fill="#FF840A"/>
</svg>
