<svg width="24" height="24" viewBox="0 0 24 24" fill="none" xmlns="http://www.w3.org/2000/svg">
<path d="M6.22304 2.62738C5.30335 2.8741 4.55433 3.09695 3.96051 3.28708C2.55532 3.73676 1.75413 5.12426 2.06762 6.56614C2.19982 7.17544 2.38067 7.93507 2.62739 8.85521C2.82931 9.61437 3.04927 10.3686 3.2871 11.1173C3.73633 12.5225 5.12427 13.3237 6.56616 13.0106C7.17546 12.878 7.93509 12.6971 8.85523 12.4504C9.61438 12.2487 10.3686 12.0288 11.1173 11.7912C12.5225 11.3415 13.3237 9.95398 13.0107 8.51209C12.878 7.9028 12.6967 7.14272 12.4504 6.22303C12.2487 5.46373 12.0288 4.70934 11.7912 3.96049C11.3415 2.55575 9.95355 1.75411 8.51211 2.0676C7.90281 2.20025 7.14274 2.38109 6.22304 2.62738Z" fill="#FFC56D"/>
<path fill-rule="evenodd" clip-rule="evenodd" d="M17.2782 21.9325C16.6689 21.7999 15.9089 21.6186 14.9892 21.3723C14.2298 21.1704 13.4755 20.9505 12.7266 20.7126C11.3214 20.2634 10.5202 18.8755 10.8337 17.434C10.9664 16.8247 11.1472 16.0646 11.3935 15.1449C11.6402 14.2252 11.8631 13.4762 12.0532 12.8824C12.5029 11.4772 13.8904 10.676 15.3323 10.9891C15.9416 11.1217 16.7012 11.303 17.6213 11.5493C18.541 11.7956 19.2896 12.0189 19.8834 12.209C21.2886 12.6582 22.0898 14.0462 21.7768 15.4876C21.6441 16.0974 21.4628 16.857 21.2165 17.7771C21.0148 18.5363 20.795 19.2905 20.5573 20.0392C20.1076 21.4444 18.7197 22.2456 17.2782 21.9325Z" fill="#FFC56D"/>
<path fill-rule="evenodd" clip-rule="evenodd" d="M7.90772 8.69824C8.05991 8.64984 8.20108 8.57194 8.32316 8.46899C8.44525 8.36604 8.54586 8.24004 8.61925 8.09821C8.69264 7.95637 8.73738 7.80147 8.7509 7.64234C8.76443 7.48322 8.74648 7.32299 8.69808 7.1708C8.64969 7.01861 8.57179 6.87744 8.46883 6.75536C8.36588 6.63327 8.23989 6.53266 8.09805 6.45927C7.95622 6.38588 7.80131 6.34114 7.64219 6.32762C7.48306 6.31409 7.32283 6.33204 7.17064 6.38043C6.86328 6.47824 6.60736 6.69413 6.45918 6.98062C6.311 7.26712 6.2827 7.60074 6.3805 7.9081C6.4783 8.21546 6.6942 8.47138 6.98069 8.61956C7.26718 8.76774 7.6008 8.79604 7.90816 8.69824H7.90772Z" fill="#FF840A"/>
<path fill-rule="evenodd" clip-rule="evenodd" d="M14.2301 18.6504C14.5417 18.7339 14.8736 18.6902 15.153 18.5289C15.4324 18.3676 15.6362 18.102 15.7197 17.7904C15.8032 17.4788 15.7595 17.1468 15.5982 16.8675C15.4369 16.5881 15.1713 16.3842 14.8597 16.3008C14.5481 16.2173 14.2161 16.261 13.9368 16.4222C13.6574 16.5835 13.4536 16.8492 13.3701 17.1608C13.2866 17.4723 13.3303 17.8043 13.4916 18.0837C13.6528 18.363 13.9185 18.5669 14.2301 18.6504Z" fill="#FF840A"/>
<path d="M16.8901 15.129C16.9314 14.9748 17.0028 14.8302 17.1 14.7035C17.1972 14.5768 17.3184 14.4705 17.4567 14.3907C17.595 14.3108 17.7477 14.259 17.906 14.2382C18.0644 14.2173 18.2253 14.2279 18.3795 14.2692C18.5338 14.3106 18.6784 14.3819 18.805 14.4791C18.9317 14.5764 19.038 14.6976 19.1179 14.8359C19.1977 14.9742 19.2495 15.1269 19.2704 15.2852C19.2912 15.4435 19.2806 15.6044 19.2393 15.7587C19.1558 16.0702 18.952 16.3358 18.6727 16.497C18.3933 16.6583 18.0614 16.7019 17.7499 16.6184C17.4384 16.5349 17.1728 16.3311 17.0115 16.0518C16.8503 15.7725 16.8066 15.4405 16.8901 15.129Z" fill="#FF840A"/>
</svg>
