<svg width="16" height="16" viewBox="0 0 16 16" fill="none" xmlns="http://www.w3.org/2000/svg">
<g clip-path="url(#clip0_15637_33451)">
<path d="M5.81301 8.36147C5.58004 8.1285 5.1937 8.1604 5.00211 8.42842L2.46492 11.9777C2.40662 12.0593 2.25694 12.0944 2.10544 12.0196C1.91069 11.9236 1.69155 11.8697 1.46033 11.8697C0.653813 11.8697 0 12.5236 0 13.3302C0 13.9846 0.430208 14.5381 1.02276 14.724C1.14018 14.7608 1.23864 14.8593 1.27544 14.9767C1.46121 15.5696 2.01469 16 2.66916 16C3.47568 16 4.12948 15.3461 4.12948 14.5395C4.12948 14.309 4.07594 14.0904 3.98048 13.8961C3.90614 13.7448 3.94123 13.5955 4.02261 13.5373L7.57152 10.9978C7.83937 10.8061 7.87119 10.4199 7.63829 10.187L5.81301 8.36147Z" fill="#FFC56D"/>
<path fill-rule="evenodd" clip-rule="evenodd" d="M10.5073 0.00344415C11.8982 0.0567279 13.1852 0.728431 14.2286 1.77193C15.272 2.81544 15.9436 4.10261 15.9969 5.49366C16.0506 6.89448 15.4739 8.32023 14.1736 9.62068C12.8852 10.9093 11.0938 11.8698 9.35859 12.2567C7.6432 12.6392 5.83645 12.4862 4.67596 11.3256C3.51543 10.1649 3.36245 8.35799 3.74488 6.64243C4.13173 4.90699 5.0922 3.11552 6.38064 1.82693C7.68099 0.526468 9.10656 -0.0502165 10.5073 0.00344415Z" fill="#FF840A"/>
<path fill-rule="evenodd" clip-rule="evenodd" d="M12.0078 9.08832C12.2161 8.88003 12.2161 8.54233 12.0078 8.33404C11.7995 8.12579 11.4619 8.12579 11.2536 8.33404C10.7385 8.84921 10.0489 9.26994 9.33959 9.51865C8.62361 9.76971 7.9424 9.82706 7.43041 9.68708C7.14631 9.60939 6.85305 9.77675 6.77536 10.0609C6.69768 10.345 6.86503 10.6383 7.14912 10.716C7.93824 10.9317 8.85136 10.8202 9.69248 10.5252C10.5403 10.228 11.3706 9.72558 12.0078 9.08832Z" fill="#FFC56D"/>
</g>
<defs>
<clipPath id="clip0_15637_33451">
<rect width="16" height="16" fill="white"/>
</clipPath>
</defs>
</svg>
