<svg width="32" height="32" viewBox="0 0 32 32" fill="none" xmlns="http://www.w3.org/2000/svg">
<path d="M5.21735 2.87545C10.3673 3.48645 14.8991 5.51438 15.9997 6.61493C17.1002 5.51438 21.632 3.48673 26.782 2.87572C28.3936 2.68451 29.7137 4.01263 29.7137 5.63565V21.3088C29.7137 22.9318 28.3873 24.2252 26.7904 24.5152C23.1838 25.1699 20.1843 26.8995 18.2707 28.2665C16.9501 29.2099 15.0479 29.2087 13.7272 28.2654C11.8136 26.8985 8.81459 25.1695 5.20894 24.5148C3.61204 24.2248 2.28564 22.9316 2.28564 21.3085V5.63536C2.28564 4.01235 3.60564 2.68423 5.21735 2.87545Z" fill="#FFC56D"/>
<path d="M14.8574 28.9573V6.28556C15.5303 6.68321 16.4702 6.68323 17.1431 6.2856V28.9577C16.4059 29.2039 15.5947 29.2037 14.8574 28.9573Z" fill="#FF840A"/>
</svg>
