<svg width="16" height="16" viewBox="0 0 16 16" fill="none" xmlns="http://www.w3.org/2000/svg">
<path d="M3.07768 2.00839C5.42879 2.28733 7.49771 3.21315 8.00015 3.71559C8.5026 3.21315 10.5715 2.28746 12.9226 2.00852C13.6584 1.92122 14.261 2.52755 14.261 3.26851V10.4238C14.261 11.1648 13.6555 11.7553 12.9265 11.8876C11.28 12.1866 9.91057 12.9761 9.03695 13.6003C8.43405 14.0309 7.56565 14.0304 6.96272 13.5997C6.08908 12.9757 4.71994 12.1864 3.07384 11.8875C2.3448 11.7551 1.73926 11.1647 1.73926 10.4237V3.26838C1.73926 2.52743 2.34188 1.92109 3.07768 2.00839Z" fill="#FFC56D"/>
<path d="M7 13.9191V4C7.5888 4.17398 8.41118 4.17399 9 4.00002V13.9193C8.35498 14.027 7.6451 14.0269 7 13.9191Z" fill="#FF840A"/>
</svg>
