<svg width="32" height="32" viewBox="0 0 32 32" fill="none" xmlns="http://www.w3.org/2000/svg">
<path fill-rule="evenodd" clip-rule="evenodd" d="M20.9956 2.73422C21.3581 2.84973 21.66 3.10449 21.8347 3.44248C22.0094 3.78047 22.0428 4.17401 21.9274 4.53658L20.7182 8.33646C20.661 8.51611 20.569 8.68275 20.4475 8.82685C20.3259 8.97095 20.1772 9.0897 20.0097 9.17632C19.6715 9.35124 19.2777 9.38466 18.9149 9.26921C18.7352 9.21205 18.5686 9.12006 18.4245 8.9985C18.2804 8.87694 18.1616 8.72819 18.075 8.56073C17.9001 8.22254 17.8667 7.82872 17.9821 7.4659L19.1933 3.66602C19.3088 3.30349 19.5635 3.00168 19.9015 2.82695C20.2395 2.65221 20.6331 2.61886 20.9956 2.73422Z" fill="#FF840A"/>
<path fill-rule="evenodd" clip-rule="evenodd" d="M15.998 5.88165C13.8808 5.88215 11.8504 6.72358 10.3535 8.22088C8.85656 9.71818 8.01562 11.7487 8.01563 13.866V14.8016C8.01563 14.8341 8.01563 14.8686 8.01945 14.903L8.82688 26.2223C8.8869 27.0673 9.26495 27.8581 9.88486 28.4354C10.5048 29.0127 11.3205 29.3336 12.1675 29.3334H19.8304C21.5869 29.3334 23.0448 27.9749 23.1711 26.2223L23.9785 14.903C23.981 14.8693 23.9823 14.8354 23.9824 14.8016V13.8641C23.9818 11.7472 23.1407 9.71709 21.6438 8.2202C20.1469 6.72332 18.1149 5.88215 15.998 5.88165Z" fill="#FFC56D"/>
<path fill-rule="evenodd" clip-rule="evenodd" d="M6.64398 13.3666C6.45553 13.3666 6.26893 13.4037 6.09483 13.4759C5.92073 13.548 5.76254 13.6537 5.62929 13.7869C5.49603 13.9202 5.39033 14.0784 5.31822 14.2525C5.2461 14.4266 5.20898 14.6132 5.20898 14.8016C5.20898 14.9901 5.2461 15.1767 5.31822 15.3508C5.39033 15.5249 5.49603 15.6831 5.62929 15.8163C5.76254 15.9496 5.92073 16.0553 6.09483 16.1274C6.26893 16.1995 6.45553 16.2366 6.64398 16.2366H25.3563C25.7369 16.2366 26.1019 16.0854 26.371 15.8163C26.6401 15.5472 26.7913 15.1822 26.7913 14.8016C26.7913 14.421 26.6401 14.056 26.371 13.7869C26.1019 13.5178 25.7369 13.3666 25.3563 13.3666H6.64398ZM11.2226 19.4778H20.7758L20.3071 26.0176C20.2988 26.1384 20.2451 26.2516 20.1567 26.3343C20.0682 26.4171 19.9517 26.4632 19.8306 26.4634H12.1678C12.0466 26.4637 11.9299 26.4181 11.8411 26.3357C11.7524 26.2533 11.6981 26.1403 11.6894 26.0195L11.2226 19.4778Z" fill="#FF840A"/>
</svg>
