<svg width="16" height="16" viewBox="0 0 16 16" fill="none" xmlns="http://www.w3.org/2000/svg">
<g clip-path="url(#clip0_15637_33463)">
<path fill-rule="evenodd" clip-rule="evenodd" d="M11.7671 6.77731V12.5739H14.8225V6.77617L14.779 6.77731H11.7671Z" fill="#FF840A"/>
<path fill-rule="evenodd" clip-rule="evenodd" d="M6.47217 6.77729V12.5739H9.52761V6.77729H6.47217Z" fill="#FF840A"/>
<path fill-rule="evenodd" clip-rule="evenodd" d="M1.17773 6.77617V12.5739H4.23318V6.77731H1.22132L1.17773 6.77617Z" fill="#FF840A"/>
<path fill-rule="evenodd" clip-rule="evenodd" d="M7.29555 0.238596C7.51297 0.110782 7.76111 0.0446342 8.01331 0.0472612C8.2655 0.0498882 8.51221 0.121191 8.72693 0.253506L15.5065 4.69216C15.9882 5.00986 16.1339 5.55695 15.9481 6.02376C15.7691 6.47336 15.3172 6.7773 14.7782 6.7773H1.22136C0.682294 6.7773 0.2304 6.47336 0.0514772 6.02376C-0.134327 5.55695 0.0124812 5.00986 0.493049 4.69331L0.494196 4.69216L7.27261 0.253506C7.28013 0.248353 7.28778 0.243381 7.29555 0.238596ZM-0.0288086 13.5936C-0.0288086 12.9054 0.627241 12.5739 1.11813 12.5739H14.8814C15.3723 12.5739 16.0283 12.9054 16.0283 13.5947V14.9332C16.0283 15.6213 15.3723 15.9528 14.8814 15.9528H1.11813C0.627241 15.9528 -0.0288086 15.6213 -0.0288086 14.932V13.5936Z" fill="#FFC56D"/>
</g>
<defs>
<clipPath id="clip0_15637_33463">
<rect width="16" height="16" fill="white"/>
</clipPath>
</defs>
</svg>
