<svg width="16" height="16" viewBox="0 0 16 16" fill="none" xmlns="http://www.w3.org/2000/svg">
<path d="M0.333496 5.80952V12.1071C0.333496 12.5429 0.506582 12.9607 0.814678 13.2688C1.12277 13.5769 1.54064 13.75 1.97635 13.75H14.024C14.4597 13.75 14.8776 13.5769 15.1856 13.2688C15.4937 12.9607 15.6668 12.5429 15.6668 12.1071V5.80952H0.333496Z" fill="#FFC56D"/>
<path fill-rule="evenodd" clip-rule="evenodd" d="M1.97635 2.24998C1.54064 2.24998 1.12277 2.42306 0.814678 2.73116C0.506582 3.03925 0.333496 3.45712 0.333496 3.89283L0.333496 5.8095H15.6668V3.89283C15.6668 3.45712 15.4937 3.03925 15.1856 2.73116C14.8776 2.42306 14.4597 2.24998 14.024 2.24998H1.97635ZM10.7383 9.77974C10.5567 9.77974 10.3826 9.85186 10.2542 9.98023C10.1259 10.1086 10.0537 10.2827 10.0537 10.4643C10.0537 10.6458 10.1259 10.8199 10.2542 10.9483C10.3826 11.0767 10.5567 11.1488 10.7383 11.1488H12.3811C12.5627 11.1488 12.7368 11.0767 12.8651 10.9483C12.9935 10.8199 13.0656 10.6458 13.0656 10.4643C13.0656 10.2827 12.9935 10.1086 12.8651 9.98023C12.7368 9.85186 12.5627 9.77974 12.3811 9.77974H10.7383Z" fill="#FF840A"/>
</svg>
