<svg width="16" height="16" viewBox="0 0 16 16" fill="none" xmlns="http://www.w3.org/2000/svg">
<g clip-path="url(#clip0_15637_33473)">
<path fill-rule="evenodd" clip-rule="evenodd" d="M11.4299 0.252299C11.5501 0.131797 11.7033 0.0497262 11.8702 0.016511C12.0371 -0.0167042 12.2101 0.000435637 12.3672 0.0657532L14.8015 1.07516C15.0114 1.16184 15.1784 1.32819 15.2659 1.53777C15.3535 1.74734 15.3543 1.98306 15.2684 2.19329L14.2739 4.62755C14.2096 4.78474 14.1002 4.91934 13.9594 5.01431C13.8187 5.10929 13.6529 5.16038 13.4831 5.16111C13.3133 5.16185 13.147 5.1122 13.0055 5.01844C12.8639 4.92469 12.7533 4.79104 12.6877 4.63442L12.2951 3.69596L2.40932 7.92014C2.30562 7.96448 2.1942 7.98796 2.08143 7.98923C1.96865 7.99051 1.85673 7.96956 1.75205 7.92758C1.64738 7.88561 1.55199 7.82342 1.47134 7.74458C1.3907 7.66574 1.32637 7.57179 1.28203 7.46809C1.2377 7.36438 1.21422 7.25296 1.21295 7.14019C1.21167 7.02742 1.23262 6.91549 1.2746 6.81082C1.31657 6.70614 1.37876 6.61075 1.4576 6.53011C1.53644 6.44946 1.63039 6.38513 1.73409 6.3408L11.6325 2.11204L11.2468 1.19075C11.1808 1.0338 11.163 0.860775 11.1956 0.693668C11.2282 0.526561 11.3098 0.372926 11.4299 0.252299Z" fill="#FF840A"/>
<path fill-rule="evenodd" clip-rule="evenodd" d="M14.5806 6.27214C14.8841 6.27214 15.1752 6.39271 15.3898 6.60734C15.6045 6.82197 15.725 7.11306 15.725 7.41659V15.4278C15.725 15.5795 15.6648 15.7251 15.5574 15.8324C15.4501 15.9397 15.3046 16 15.1528 16H12.2917C12.1399 16 11.9944 15.9397 11.887 15.8324C11.7797 15.7251 11.7194 15.5795 11.7194 15.4278V7.41659C11.7194 7.11306 11.84 6.82197 12.0547 6.60734C12.2693 6.39271 12.5604 6.27214 12.8639 6.27214H14.5806ZM8.85831 7.98882C9.16184 7.98882 9.45294 8.1094 9.66756 8.32402C9.88219 8.53865 10.0028 8.82975 10.0028 9.13327V15.4278C10.0028 15.5795 9.94248 15.7251 9.83516 15.8324C9.72785 15.9397 9.5823 16 9.43054 16H6.5694C6.41764 16 6.27209 15.9397 6.16478 15.8324C6.05746 15.7251 5.99717 15.5795 5.99717 15.4278V9.13327C5.99717 8.82975 6.11775 8.53865 6.33238 8.32402C6.547 8.1094 6.8381 7.98882 7.14163 7.98882H8.85831ZM3.94517 10.0385C3.73059 9.8239 3.43954 9.70328 3.13604 9.70321H1.41936C1.11583 9.70321 0.824732 9.82379 0.610105 10.0384C0.395478 10.253 0.274902 10.5441 0.274902 10.8477V15.4255C0.274902 15.5772 0.33519 15.7228 0.442504 15.8301C0.549817 15.9374 0.695365 15.9977 0.84713 15.9977H3.70827C3.86003 15.9977 4.00558 15.9374 4.11289 15.8301C4.2202 15.7228 4.28049 15.5772 4.28049 15.4255V10.8477C4.28043 10.5442 4.15981 10.2531 3.94517 10.0385Z" fill="#FFC56D"/>
</g>
<defs>
<clipPath id="clip0_15637_33473">
<rect width="16" height="16" fill="white"/>
</clipPath>
</defs>
</svg>
