<svg width="48" height="48" viewBox="0 0 48 48" fill="none" xmlns="http://www.w3.org/2000/svg">
<path d="M43.4559 13.4094C43.8147 14.276 43.9996 15.2049 43.9996 16.1429C44.0019 17.2521 43.7447 18.3466 43.2484 19.3387C42.7524 20.3309 42.0313 21.1933 41.1424 21.8571V36.1428C41.1424 36.9006 40.8413 37.6274 40.3056 38.1631C39.7699 38.6988 39.043 39 38.2853 39H19.7139V9H36.8567C37.7947 9 38.7236 9.18474 39.5901 9.54371C40.4567 9.90269 41.2441 10.4288 41.9076 11.0921C42.5707 11.7554 43.097 12.5428 43.4559 13.4094Z" fill="#FF840A"/>
<path d="M31.1429 16.1429C31.1429 15.2049 30.9581 14.276 30.5991 13.4094C30.2402 12.5428 29.714 11.7554 29.0508 11.0921C28.3875 10.4288 27.6001 9.90269 26.7335 9.54371C25.8668 9.18474 24.938 9 24 9H11.1429C9.64368 9 8.18254 9.47169 6.96634 10.3483C5.75017 11.2249 4.84062 12.4619 4.36655 13.8841C3.89247 15.3063 3.8779 16.8417 4.3249 18.2726C4.77191 19.7036 5.65781 20.9576 6.85714 21.8571V36.1428C6.85714 36.9006 7.15817 37.6274 7.69397 38.1631C8.2298 38.6988 8.95651 39 9.71428 39H25.4286C26.1863 39 26.9131 38.6988 27.4489 38.1631C27.9847 37.6274 28.2857 36.9006 28.2857 36.1428V21.8571C29.1745 21.1933 29.8957 20.3309 30.3918 19.3387C30.8879 18.3466 31.1451 17.2521 31.1429 16.1429Z" fill="#FFC56D"/>
</svg>
