<svg width="24" height="24" viewBox="0 0 24 24" fill="none" xmlns="http://www.w3.org/2000/svg">
<path fill-rule="evenodd" clip-rule="evenodd" d="M13.1666 3.66834C13.1666 3.35869 13.0436 3.06173 12.8246 2.84277C12.6057 2.62382 12.3087 2.50081 11.9991 2.50081C11.6894 2.50081 11.3925 2.62382 11.1735 2.84277C10.9545 3.06173 10.8315 3.35869 10.8315 3.66834V5.71698C11.6095 5.68341 12.3886 5.68393 13.1666 5.71853V3.66834Z" fill="#FF840A"/>
<path d="M7.60647 6.13104C9.01218 5.83683 10.1984 5.69361 11.9793 5.69361C13.7663 5.69361 14.9012 5.83838 16.3614 6.12949C16.9887 6.25714 17.5663 6.64632 17.8838 7.25032C18.3193 8.06653 18.6319 8.94254 18.8116 9.85003C18.8739 10.1754 19.1136 10.4416 19.4343 10.5132L20.0072 10.6455C20.8836 10.8479 21.5467 11.5313 21.7756 12.3657L21.7958 12.4357L21.8067 12.4762C22.0262 13.2764 22.2862 14.2182 22.2862 15.2005C22.288 16.0668 22.122 16.9253 21.7974 17.7286C21.2323 19.1467 19.6989 19.8504 18.1718 19.8504H5.84896C4.27046 19.8504 2.69352 19.0938 2.15023 17.6102C1.86237 16.8394 1.71475 16.0233 1.71436 15.2005C1.71436 14.2182 1.97432 13.2764 2.19382 12.4762L2.20472 12.4357L2.22962 12.3454C2.33987 11.9332 2.55789 11.5577 2.8613 11.2575C3.16471 10.9574 3.54255 10.7435 3.95601 10.6377L4.57402 10.4883C4.72957 10.4491 4.8705 10.3658 4.97986 10.2484C5.08922 10.1311 5.16235 9.98461 5.19047 9.82668C5.36327 8.92379 5.68239 8.0458 6.12449 7.22074C6.43895 6.63386 6.9978 6.25714 7.60647 6.13104Z" fill="#FFC56D"/>
<path d="M6.81886 21.4997C8.34443 21.4997 9.20217 20.642 9.20217 19.1164C9.20217 17.5908 8.34443 16.7331 6.81886 16.7331C5.29329 16.7331 4.43555 17.5892 4.43555 19.1148C4.43555 20.6404 5.29329 21.4997 6.81886 21.4997Z" fill="#FF840A"/>
<path d="M17.2051 21.4997C18.7307 21.4997 19.5884 20.642 19.5884 19.1164C19.5884 17.5908 18.7307 16.7331 17.2051 16.7331C15.6795 16.7331 14.8218 17.5892 14.8218 19.1148C14.8218 20.6404 15.6795 21.4997 17.2051 21.4997Z" fill="#FF840A"/>
</svg>
