<svg width="32" height="32" viewBox="0 0 32 32" fill="none" xmlns="http://www.w3.org/2000/svg">
<path fill-rule="evenodd" clip-rule="evenodd" d="M19.2579 7.11069C19.2579 4.67917 17.4314 2.66604 14.8132 2.66604C14.5775 2.66604 14.3514 2.75969 14.1847 2.9264C14.018 3.09311 13.9243 3.31921 13.9243 3.55497C13.9243 3.79073 14.018 4.01683 14.1847 4.18354C14.3514 4.35025 14.5775 4.4439 14.8132 4.4439C16.4032 4.4439 17.48 5.61433 17.48 7.11069C17.48 7.34645 17.5737 7.57255 17.7404 7.73926C17.9071 7.90597 18.1332 7.99962 18.369 7.99962C18.6047 7.99962 18.8308 7.90597 18.9975 7.73926C19.1642 7.57255 19.2579 7.34645 19.2579 7.11069Z" fill="#FF840A"/>
<path d="M25.6383 8.45295C25.2895 8.10643 24.8631 7.84805 24.3945 7.69923C23.9258 7.55041 23.4285 7.51543 22.9437 7.59721C20.6212 7.98122 16.6417 9.27254 12.8341 10.9129C10.9218 11.7367 9.02952 12.6594 7.38974 13.6153C5.7624 14.5635 4.33182 15.5751 3.38362 16.5902C2.85501 17.1568 2.663 17.8827 2.66655 18.5429C2.68729 22.5164 2.86923 24.9865 3.02924 26.4105C3.1845 27.7884 4.26781 28.7893 5.60891 28.9209C7.42055 29.0975 10.8086 29.3339 15.9916 29.3339C21.1771 29.3339 24.5722 29.0969 26.3868 28.9203C27.7285 28.7899 28.8124 27.7884 28.9676 26.4093C29.1383 24.8958 29.3327 22.2017 29.3327 17.7778C29.3327 12.8247 26.9918 9.78931 25.6383 8.45295Z" fill="#FFC56D"/>
<path d="M29.3325 17.7779H2.75523C2.693 18.0345 2.66633 18.2935 2.66752 18.5429C2.68826 22.5165 2.87019 24.9865 3.0302 26.4106C3.18547 27.7884 4.26878 28.7894 5.60988 28.9209C7.42152 29.0975 10.8095 29.334 15.9926 29.334C21.178 29.334 24.5731 29.0969 26.3877 28.9203C27.7294 28.7899 28.8133 27.7884 28.9686 26.4094C29.1393 24.8964 29.3337 22.2018 29.3337 17.7779H29.3325Z" fill="#FF840A"/>
<path d="M21.9244 10.0738C21.9244 10.5407 21.8325 11.0031 21.6538 11.4345C21.4751 11.8659 21.2132 12.2579 20.883 12.5881C20.5528 12.9182 20.1608 13.1802 19.7294 13.3588C19.298 13.5375 18.8357 13.6295 18.3687 13.6295C17.9018 13.6295 17.4394 13.5375 17.008 13.3588C16.5766 13.1802 16.1846 12.9182 15.8544 12.5881C15.5243 12.2579 15.2623 11.8659 15.0837 11.4345C14.905 11.0031 14.813 10.5407 14.813 10.0738C14.813 9.13075 15.1876 8.22634 15.8544 7.55951C16.5213 6.89269 17.4257 6.51807 18.3687 6.51807C19.3117 6.51807 20.2162 6.89269 20.883 7.55951C21.5498 8.22634 21.9244 9.13075 21.9244 10.0738Z" fill="#FF840A"/>
<path d="M29.2447 22.5188H2.75342C2.78068 23.1796 2.81268 23.7704 2.84705 24.2967H29.1511C29.1855 23.7704 29.2175 23.1796 29.2447 22.5188Z" fill="#FFC56D"/>
</svg>
