<svg width="24" height="24" viewBox="0 0 24 24" fill="none" xmlns="http://www.w3.org/2000/svg">
<path d="M12.0008 22C17.3865 22 21.2322 20.0914 21.2322 15.8458C21.2322 11.2287 18.9251 8.89012 14.308 6.58157L16.3051 3.4616C16.3838 3.31115 16.4229 3.1431 16.4187 2.97333C16.4144 2.80357 16.3669 2.6377 16.2807 2.49141C16.1944 2.34512 16.0723 2.22323 15.9259 2.13727C15.7794 2.05132 15.6134 2.00413 15.4437 2.00018H8.91944C8.73848 1.99675 8.55999 2.04249 8.40298 2.13253C8.24598 2.22258 8.11636 2.35354 8.02794 2.51147C7.93952 2.66939 7.89562 2.84835 7.90091 3.02926C7.90621 3.21018 7.96051 3.38626 8.05802 3.53874L9.69229 6.58157C5.07662 8.92155 2.76807 11.2601 2.76807 15.8758C2.76807 20.0914 6.61518 22 12.0008 22Z" fill="#FFC56D"/>
<path fill-rule="evenodd" clip-rule="evenodd" d="M7.9209 7.55156C9.08204 8.47479 10.522 8.97692 12.0054 8.97588C13.4889 8.97484 14.9281 8.4707 16.088 7.54585C15.5104 7.206 14.921 6.88676 14.3208 6.58871C13.611 6.98324 12.8123 7.19028 12.0001 7.19028C11.188 7.19028 10.3893 6.98324 9.67945 6.58871C9.05089 6.90728 8.46375 7.22728 7.9209 7.55156Z" fill="#FF840A"/>
</svg>
