<svg width="16" height="16" viewBox="0 0 16 16" fill="none" xmlns="http://www.w3.org/2000/svg">
<g clip-path="url(#clip0_15637_33456)">
<path fill-rule="evenodd" clip-rule="evenodd" d="M9.95488 2.66667C9.95488 1.20782 8.85906 0 7.28822 0C7.14677 0 7.01111 0.0561903 6.91109 0.15621C6.81107 0.256229 6.75488 0.391885 6.75488 0.533333C6.75488 0.674782 6.81107 0.810438 6.91109 0.910457C7.01111 1.01048 7.14677 1.06667 7.28822 1.06667C8.24217 1.06667 8.88822 1.76889 8.88822 2.66667C8.88822 2.80812 8.94441 2.94377 9.04443 3.04379C9.14445 3.14381 9.2801 3.2 9.42155 3.2C9.563 3.2 9.69865 3.14381 9.79867 3.04379C9.89869 2.94377 9.95488 2.80812 9.95488 2.66667Z" fill="#FF840A"/>
<path d="M13.7829 3.47199C13.5736 3.26408 13.3178 3.10906 13.0366 3.01977C12.7555 2.93049 12.4571 2.9095 12.1662 2.95856C10.7728 3.18896 8.38523 3.96372 6.10078 4.9479C4.95341 5.44212 3.81812 5.99572 2.8343 6.56923C1.85794 7.13812 0.999629 7.74505 0.43074 8.35412C0.113584 8.69403 -0.00161602 9.12959 0.000517309 9.52568C0.0129618 11.9097 0.122117 13.3916 0.218117 14.246C0.311273 15.0727 0.961229 15.6732 1.76585 15.7522C2.85278 15.8581 4.8855 16 7.99519 16C11.1063 16 13.1433 15.8578 14.232 15.7518C15.037 15.6736 15.6873 15.0727 15.7804 14.2453C15.8828 13.3372 15.9995 11.7209 15.9995 9.06665C15.9995 6.09492 14.595 4.27376 13.7829 3.47199Z" fill="#FFC56D"/>
<path d="M15.9992 9.06665H0.0536214C0.0162881 9.22061 0.000288102 9.37598 0.000999213 9.52567C0.0134437 11.9097 0.122599 13.3916 0.218599 14.246C0.311755 15.0727 0.96171 15.6732 1.76633 15.7522C2.85327 15.8581 4.88598 16 7.99567 16C11.1068 16 13.1438 15.8578 14.2325 15.7518C15.0374 15.6736 15.6878 15.0727 15.7809 14.2453C15.8833 13.3376 15.9999 11.7209 15.9999 9.06665H15.9992Z" fill="#FF840A"/>
<path d="M11.5548 4.44447C11.5548 4.72462 11.4996 5.00203 11.3924 5.26086C11.2852 5.51969 11.128 5.75486 10.9299 5.95296C10.7318 6.15106 10.4966 6.3082 10.2378 6.41541C9.97898 6.52262 9.70157 6.5778 9.42142 6.5778C9.14127 6.5778 8.86386 6.52262 8.60503 6.41541C8.3462 6.3082 8.11102 6.15106 7.91292 5.95296C7.71483 5.75486 7.55769 5.51969 7.45048 5.26086C7.34327 5.00203 7.28809 4.72462 7.28809 4.44447C7.28809 3.87867 7.51285 3.33605 7.91292 2.93597C8.313 2.53589 8.85562 2.31113 9.42142 2.31113C9.98722 2.31113 10.5298 2.53589 10.9299 2.93597C11.33 3.33605 11.5548 3.87867 11.5548 4.44447Z" fill="#FF840A"/>
<path d="M15.9463 11.9111H0.0522461C0.0686017 12.3076 0.0878017 12.6621 0.108424 12.9778H15.8901C15.9107 12.6621 15.9299 12.3076 15.9463 11.9111Z" fill="#FFC56D"/>
</g>
<defs>
<clipPath id="clip0_15637_33456">
<rect width="16" height="16" fill="white"/>
</clipPath>
</defs>
</svg>
