<svg width="24" height="24" viewBox="0 0 24 24" fill="none" xmlns="http://www.w3.org/2000/svg">
<path fill-rule="evenodd" clip-rule="evenodd" d="M19.4809 2.0477H4.51953V15.1393H19.4809V2.0477Z" fill="#FF840A"/>
<path fill-rule="evenodd" clip-rule="evenodd" d="M5.49393 16.7405L4.09131 21.4161L5.88293 21.9528L7.28556 17.2772L5.49393 16.7405ZM18.5066 16.7405L19.9092 21.4161L18.1176 21.9528L16.7149 17.2772L18.5066 16.7405Z" fill="#FF840A"/>
<path d="M1.71436 17.945V10.9316C1.71436 10.3116 1.96065 9.71699 2.39905 9.27857C2.83746 8.84015 3.43207 8.59385 4.05207 8.59385C4.67206 8.59385 5.26667 8.84015 5.70508 9.27857C6.14348 9.71699 6.38978 10.3116 6.38978 10.9316V14.2045H17.6108V10.9316C17.6108 10.3116 17.8571 9.71699 18.2955 9.27857C18.7339 8.84015 19.3285 8.59385 19.9485 8.59385C20.5685 8.59385 21.1631 8.84015 21.6015 9.27857C22.0399 9.71699 22.2862 10.3116 22.2862 10.9316V17.945H1.71436Z" fill="#FFC56D"/>
</svg>
