<svg width="16" height="16" viewBox="0 0 16 16" fill="none" xmlns="http://www.w3.org/2000/svg">
<path fill-rule="evenodd" clip-rule="evenodd" d="M13.7275 14C10.4138 14 7.72748 11.3136 7.72748 8C7.72748 4.68636 10.4138 2 13.7275 2V14ZM2.27295 2.54545V5.54545C2.273 6.07757 2.44589 6.59528 2.7656 7.02065C3.08531 7.44601 3.53454 7.75602 4.04567 7.904V13.4545H5.40931V7.904C5.92043 7.75602 6.36966 7.44601 6.68938 7.02065C7.00909 6.59528 7.18198 6.07757 7.18203 5.54545V2.54545H6.09112V5H5.27294V2.54545H4.18204V5H3.36386V2.54545H2.27295Z" fill="#FFC56D"/>
<path fill-rule="evenodd" clip-rule="evenodd" d="M13.7272 5.13637C12.9677 5.13637 12.2394 5.43807 11.7023 5.97511C11.1653 6.51215 10.8636 7.24052 10.8636 8.00001C10.8636 8.75949 11.1653 9.48787 11.7023 10.0249C12.2394 10.5619 12.9677 10.8636 13.7272 10.8636V11.6818C12.7507 11.6818 11.8143 11.2939 11.1238 10.6034C10.4333 9.91297 10.0454 8.97649 10.0454 8.00001C10.0454 7.02353 10.4333 6.08704 11.1238 5.39657C11.8143 4.70609 12.7507 4.31819 13.7272 4.31819V5.13637Z" fill="#FF840A"/>
</svg>
