<svg width="24" height="24" viewBox="0 0 24 24" fill="none" xmlns="http://www.w3.org/2000/svg">
<path d="M12 22C8.68311 22 6.36889 21.916 4.924 21.8369C3.50711 21.7596 2.324 20.7302 2.18 19.2698C2.08356 18.292 2 16.9213 2 15.1111C2 13.3009 2.08356 11.9302 2.18 10.9524C2.324 9.49155 3.50711 8.46267 4.924 8.38533C6.36844 8.30622 8.68311 8.22222 12 8.22222C15.3169 8.22222 17.6311 8.30622 19.076 8.38533C20.4929 8.46267 21.676 9.492 21.82 10.9524C21.9164 11.9302 22 13.3009 22 15.1111C22 16.9213 21.9164 18.292 21.82 19.2698C21.676 20.7307 20.4929 21.7596 19.076 21.8369C17.6316 21.916 15.3169 22 12 22Z" fill="#FFC56D"/>
<path fill-rule="evenodd" clip-rule="evenodd" d="M11.7776 6.44444C12.0133 6.44444 12.2394 6.35079 12.4061 6.18409C12.5728 6.0174 12.6664 5.7913 12.6664 5.55556V2.88889C12.6664 2.65314 12.5728 2.42705 12.4061 2.26035C12.2394 2.09365 12.0133 2 11.7776 2C11.5418 2 11.3157 2.09365 11.149 2.26035C10.9823 2.42705 10.8887 2.65314 10.8887 2.88889V5.55556C10.8887 5.7913 10.9823 6.0174 11.149 6.18409C11.3157 6.35079 11.5418 6.44444 11.7776 6.44444Z" fill="#FF840A"/>
<path fill-rule="evenodd" clip-rule="evenodd" d="M15.3332 7.33333C15.569 7.33333 15.7951 7.23968 15.9618 7.07298C16.1285 6.90628 16.2221 6.68019 16.2221 6.44444V4.22222C16.2221 3.98647 16.1285 3.76038 15.9618 3.59368C15.7951 3.42698 15.569 3.33333 15.3332 3.33333C15.0975 3.33333 14.8714 3.42698 14.7047 3.59368C14.538 3.76038 14.4443 3.98647 14.4443 4.22222V6.44444C14.4443 6.68019 14.538 6.90628 14.7047 7.07298C14.8714 7.23968 15.0975 7.33333 15.3332 7.33333Z" fill="#FF840A"/>
<path fill-rule="evenodd" clip-rule="evenodd" d="M8.22238 7.33333C7.98664 7.33333 7.76054 7.23968 7.59385 7.07298C7.42715 6.90628 7.3335 6.68019 7.3335 6.44444V4.22222C7.3335 3.98647 7.42715 3.76038 7.59385 3.59368C7.76054 3.42698 7.98664 3.33333 8.22238 3.33333C8.45813 3.33333 8.68423 3.42698 8.85092 3.59368C9.01762 3.76038 9.11127 3.98647 9.11127 4.22222V6.44444C9.11127 6.68019 9.01762 6.90628 8.85092 7.07298C8.68423 7.23968 8.45813 7.33333 8.22238 7.33333Z" fill="#FF840A"/>
<path fill-rule="evenodd" clip-rule="evenodd" d="M12.4444 11.3333C12.4444 11.1565 12.3741 10.987 12.2491 10.8619C12.1241 10.7369 11.9545 10.6667 11.7777 10.6667C11.6009 10.6667 11.4313 10.7369 11.3063 10.8619C11.1813 10.987 11.111 11.1565 11.111 11.3333V11.8182C10.6688 11.8938 10.2204 12.0484 9.8546 12.3276C9.40704 12.6689 9.11104 13.1791 9.11104 13.8333C9.11104 14.2102 9.20082 14.5507 9.38526 14.844C9.56704 15.1338 9.81548 15.3373 10.0719 15.4836C10.5386 15.7502 11.1253 15.8756 11.5879 15.9747L11.6382 15.9853C12.1688 16.0987 12.5555 16.1884 12.8222 16.3409C12.9404 16.4084 13.0044 16.4729 13.0413 16.532C13.0755 16.5862 13.111 16.6742 13.111 16.8333C13.111 17.0404 13.0346 17.1702 12.8919 17.2791C12.7244 17.4071 12.4493 17.5107 12.0835 17.5533C11.7138 17.5933 11.3401 17.5732 10.9768 17.4938C10.6119 17.4138 10.3426 17.2893 10.1955 17.1707C10.0576 17.0599 9.88141 17.0084 9.70558 17.0275C9.52976 17.0466 9.36873 17.1348 9.25793 17.2727C9.14713 17.4105 9.09563 17.5867 9.11475 17.7626C9.13388 17.9384 9.22207 18.0994 9.35993 18.2102C9.72393 18.5022 10.2097 18.6907 10.691 18.7964C10.8275 18.8262 10.9679 18.8502 11.111 18.8684V19.3333C11.111 19.5101 11.1813 19.6797 11.3063 19.8047C11.4313 19.9298 11.6009 20 11.7777 20C11.9545 20 12.1241 19.9298 12.2491 19.8047C12.3741 19.6797 12.4444 19.5101 12.4444 19.3333V18.8484C12.8866 18.7733 13.335 18.6182 13.7008 18.3391C14.1484 17.9978 14.4444 17.4876 14.4444 16.8333C14.4444 16.4564 14.355 16.116 14.1706 15.8222C13.9884 15.5329 13.7395 15.3293 13.4835 15.1831C13.0168 14.9164 12.4302 14.7911 11.9675 14.692L11.9173 14.6813C11.387 14.5676 10.9999 14.4782 10.7337 14.3258C10.615 14.2582 10.551 14.1938 10.5142 14.1347C10.4799 14.0804 10.4444 13.9924 10.4444 13.8333C10.4444 13.6262 10.5208 13.4964 10.6635 13.3876C10.831 13.2596 11.1062 13.156 11.4719 13.1133C11.8418 13.0734 12.2156 13.0935 12.579 13.1729C12.9435 13.2529 13.2128 13.3773 13.3604 13.496C13.4982 13.6067 13.6744 13.6582 13.8502 13.639C13.9372 13.6295 14.0216 13.603 14.0983 13.5609C14.1751 13.5188 14.2429 13.462 14.2977 13.3938C14.3525 13.3255 14.3934 13.2471 14.4179 13.1631C14.4425 13.079 14.4502 12.991 14.4407 12.9039C14.4312 12.8169 14.4047 12.7326 14.3626 12.6558C14.3205 12.579 14.2637 12.5113 14.1955 12.4564C13.8315 12.1644 13.3457 11.976 12.8644 11.8702C12.7255 11.84 12.5854 11.8159 12.4444 11.7982V11.3333Z" fill="#FF840A"/>
</svg>
