<svg width="32" height="32" viewBox="0 0 32 32" fill="none" xmlns="http://www.w3.org/2000/svg">
<path fill-rule="evenodd" clip-rule="evenodd" d="M5.36621 14.1639C5.36621 13.6229 5.8048 13.1843 6.34581 13.1843H21.6324C22.0779 13.1843 22.4539 13.4817 22.5728 13.8889C22.5777 13.8888 22.5826 13.8888 22.5877 13.8888H25.704C27.5976 13.8888 29.1326 15.4239 29.1326 17.3175V21.998C29.1326 23.8917 27.5976 25.4268 25.704 25.4268H22.5877H22.5742C22.2737 27.8438 20.2123 29.7143 17.714 29.7143H10.2642C7.55912 29.7143 5.36621 27.5213 5.36621 24.8161V14.1639ZM22.612 22.4878H25.704C25.9746 22.4878 26.1938 22.2686 26.1938 21.998V17.3175C26.1938 17.047 25.9746 16.8277 25.704 16.8277H22.612V22.4878Z" fill="#FFC56D"/>
<path fill-rule="evenodd" clip-rule="evenodd" d="M5.36955 14.589C3.8892 13.8781 2.86719 12.3647 2.86719 10.6127C2.86719 8.17799 4.8408 6.20427 7.27538 6.20427C7.80977 6.20427 8.32194 6.29936 8.79591 6.47356C9.13998 4.10498 11.1789 2.28568 13.6428 2.28568C16.1066 2.28568 18.1455 4.10498 18.4896 6.47356C18.9636 6.29938 19.4758 6.20427 20.0102 6.20427C22.4447 6.20427 24.4183 8.17799 24.4183 10.6127C24.4183 13.0474 22.4447 15.0211 20.0102 15.0211C20.0065 15.0211 20.0029 15.0211 19.9993 15.0211H10.704V19.2113C10.704 20.6844 9.50984 21.8786 8.03676 21.8786C6.5637 21.8786 5.36955 20.6844 5.36955 19.2113V14.589Z" fill="#FF840A"/>
</svg>
