<svg width="24" height="24" viewBox="0 0 24 24" fill="none" xmlns="http://www.w3.org/2000/svg">
<path fill-rule="evenodd" clip-rule="evenodd" d="M21.5455 22C16.0228 22 11.5455 17.5227 11.5455 12C11.5455 6.47727 16.0228 2 21.5455 2V22ZM2.45459 2.90909V7.90909C2.45467 8.79596 2.74282 9.6588 3.27568 10.3677C3.80853 11.0767 4.55725 11.5934 5.40914 11.84V21.0909H7.68186V11.84C8.53375 11.5934 9.28246 11.0767 9.81532 10.3677C10.3482 9.6588 10.6363 8.79596 10.6364 7.90909V2.90909H8.81823V7H7.45459V2.90909H5.63641V7H4.27277V2.90909H2.45459Z" fill="#FFC56D"/>
<path fill-rule="evenodd" clip-rule="evenodd" d="M21.5455 7.22727C20.2797 7.22727 19.0658 7.73011 18.1707 8.62517C17.2757 9.52023 16.7728 10.7342 16.7728 12C16.7728 13.2658 17.2757 14.4798 18.1707 15.3748C19.0658 16.2699 20.2797 16.7727 21.5455 16.7727V18.1364C19.9181 18.1364 18.3573 17.4899 17.2065 16.3391C16.0557 15.1883 15.4092 13.6275 15.4092 12C15.4092 10.3725 16.0557 8.81173 17.2065 7.66094C18.3573 6.51014 19.9181 5.86364 21.5455 5.86364V7.22727Z" fill="#FF840A"/>
</svg>
