<svg width="48" height="48" viewBox="0 0 48 48" fill="none" xmlns="http://www.w3.org/2000/svg">
<path d="M12.4461 5.25474C10.6067 5.74819 9.10866 6.19389 7.92102 6.57415C5.11064 7.4735 3.50825 10.2485 4.13524 13.1323C4.39965 14.3509 4.76134 15.8701 5.25479 17.7104C5.65862 19.2287 6.09855 20.7372 6.57419 22.2346C7.47266 25.045 10.2485 26.6474 13.1323 26.0213C14.3509 25.756 15.8702 25.3943 17.7105 24.9008C19.2288 24.4973 20.7373 24.0577 22.2346 23.5823C25.045 22.6829 26.6474 19.9079 26.0213 17.0242C25.756 15.8056 25.3934 14.2854 24.9009 12.446C24.4973 10.9274 24.0577 9.41866 23.5823 7.92097C22.683 5.11148 19.9071 3.5082 17.0242 4.13519C15.8056 4.40048 14.2855 4.76217 12.4461 5.25474Z" fill="#FFC56D"/>
<path fill-rule="evenodd" clip-rule="evenodd" d="M34.5564 43.8651C33.3379 43.5998 31.8177 43.2372 29.9783 42.7446C28.4597 42.3408 26.9509 41.9009 25.4532 41.4252C22.6429 40.5267 21.0405 37.7509 21.6675 34.868C21.9328 33.6494 22.2944 32.1292 22.787 30.2898C23.2805 28.4505 23.7262 26.9524 24.1064 25.7648C25.0058 22.9544 27.7808 21.352 30.6645 21.9781C31.8831 22.2434 33.4024 22.606 35.2427 23.0985C37.0821 23.5911 38.5792 24.0377 39.7669 24.4179C42.5772 25.3164 44.1796 28.0923 43.5535 30.9752C43.2882 32.1947 42.9257 33.7139 42.4331 35.5542C42.0296 37.0725 41.59 38.581 41.1146 40.0784C40.2152 42.8888 37.4393 44.4912 34.5564 43.8651Z" fill="#FFC56D"/>
<path fill-rule="evenodd" clip-rule="evenodd" d="M15.8154 17.3965C16.1198 17.2997 16.4022 17.1439 16.6463 16.938C16.8905 16.7321 17.0917 16.4801 17.2385 16.1964C17.3853 15.9127 17.4748 15.6029 17.5018 15.2847C17.5289 14.9664 17.493 14.646 17.3962 14.3416C17.2994 14.0372 17.1436 13.7549 16.9377 13.5107C16.7318 13.2665 16.4798 13.0653 16.1961 12.9185C15.9124 12.7718 15.6026 12.6823 15.2844 12.6552C14.9661 12.6282 14.6457 12.6641 14.3413 12.7609C13.7266 12.9565 13.2147 13.3883 12.9184 13.9612C12.622 14.5342 12.5654 15.2015 12.761 15.8162C12.9566 16.4309 13.3884 16.9428 13.9614 17.2391C14.5344 17.5355 15.2016 17.5921 15.8163 17.3965H15.8154Z" fill="#FF840A"/>
<path fill-rule="evenodd" clip-rule="evenodd" d="M28.4601 37.3007C29.0833 37.4677 29.7473 37.3803 30.306 37.0578C30.8647 36.7352 31.2724 36.2039 31.4394 35.5807C31.6064 34.9576 31.519 34.2936 31.1964 33.7349C30.8739 33.1762 30.3426 32.7685 29.7194 32.6015C29.0962 32.4345 28.4323 32.5219 27.8735 32.8444C27.3148 33.167 26.9071 33.6983 26.7401 34.3215C26.5731 34.9446 26.6605 35.6086 26.9831 36.1673C27.3057 36.7261 27.837 37.1338 28.4601 37.3007Z" fill="#FF840A"/>
<path d="M33.7802 30.258C33.8629 29.9495 34.0055 29.6603 34.2 29.407C34.3944 29.1536 34.6369 28.941 34.9135 28.7813C35.1901 28.6216 35.4954 28.518 35.8121 28.4764C36.1288 28.4347 36.4505 28.4558 36.759 28.5385C37.0675 28.6212 37.3567 28.7638 37.6101 28.9583C37.8635 29.1527 38.0761 29.3952 38.2357 29.6718C38.3954 29.9484 38.499 30.2537 38.5407 30.5704C38.5824 30.887 38.5613 31.2088 38.4786 31.5173C38.3116 32.1404 37.9039 32.6716 37.3453 32.994C36.7867 33.3165 36.1228 33.4039 35.4998 33.2369C34.8767 33.0699 34.3455 32.6622 34.023 32.1036C33.7005 31.545 33.6132 30.8811 33.7802 30.258Z" fill="#FF840A"/>
</svg>
