<svg width="32" height="32" viewBox="0 0 32 32" fill="none" xmlns="http://www.w3.org/2000/svg">
<path d="M12.3549 16.6024C11.9666 16.2142 11.3227 16.2673 11.0033 16.714L6.7747 22.6295C6.67754 22.7654 6.42808 22.824 6.17556 22.6994C5.85099 22.5394 5.48575 22.4496 5.10039 22.4496C3.75619 22.4496 2.6665 23.5394 2.6665 24.8837C2.6665 25.9744 3.38352 26.8968 4.37111 27.2066C4.5668 27.268 4.73091 27.4322 4.79224 27.6279C5.10186 28.6159 6.02432 29.3333 7.1151 29.3333C8.4593 29.3333 9.54897 28.2435 9.54897 26.8992C9.54897 26.515 9.45974 26.1507 9.30064 25.8269C9.17674 25.5747 9.23523 25.3259 9.37086 25.2289L15.2857 20.9964C15.7321 20.6769 15.7852 20.0331 15.397 19.6449L12.3549 16.6024Z" fill="#FFC56D"/>
<path fill-rule="evenodd" clip-rule="evenodd" d="M20.1785 2.67237C22.4966 2.76118 24.6417 3.88068 26.3807 5.61985C28.1197 7.35903 29.2391 9.50432 29.3279 11.8227C29.4173 14.1574 28.4562 16.5337 26.289 18.7011C24.1416 20.8488 21.1561 22.4497 18.264 23.0945C15.405 23.7319 12.3938 23.477 10.4596 21.5426C8.52539 19.6082 8.27043 16.5966 8.90781 13.7373C9.55255 10.8449 11.1533 7.85916 13.3007 5.71152C15.468 3.54408 17.8439 2.58294 20.1785 2.67237Z" fill="#FF840A"/>
<path fill-rule="evenodd" clip-rule="evenodd" d="M22.6797 17.8138C23.0268 17.4667 23.0268 16.9038 22.6797 16.5567C22.3326 16.2096 21.7698 16.2096 21.4227 16.5567C20.5642 17.4153 19.4148 18.1165 18.2327 18.531C17.0393 18.9494 15.904 19.045 15.0507 18.8117C14.5772 18.6822 14.0884 18.9612 13.9589 19.4347C13.8295 19.9083 14.1084 20.3971 14.5819 20.5266C15.8971 20.8862 17.4189 20.7002 18.8208 20.2087C20.2338 19.7132 21.6176 18.8759 22.6797 17.8138Z" fill="#FFC56D"/>
</svg>
