<svg width="16" height="16" viewBox="0 0 16 16" fill="none" xmlns="http://www.w3.org/2000/svg">
<path d="M8 15C5.67818 15 4.05822 14.9412 3.0468 14.8858C2.05498 14.8317 1.2268 14.1111 1.126 13.0888C1.05849 12.4044 1 11.4449 1 10.1778C1 8.91061 1.05849 7.95114 1.126 7.2667C1.2268 6.24408 2.05498 5.52386 3.0468 5.46972C4.05791 5.41434 5.67818 5.35554 8 5.35554C10.3218 5.35554 11.9418 5.41434 12.9532 5.46972C13.945 5.52386 14.7732 6.24439 14.874 7.2667C14.9415 7.95114 15 8.91061 15 10.1778C15 11.4449 14.9415 12.4044 14.874 13.0888C14.7732 14.1115 13.945 14.8317 12.9532 14.8858C11.9421 14.9412 10.3218 15 8 15Z" fill="#FFC56D"/>
<path fill-rule="evenodd" clip-rule="evenodd" d="M7.84439 4.11111C8.00941 4.11111 8.16768 4.04556 8.28437 3.92887C8.40106 3.81218 8.46661 3.65391 8.46661 3.48889V1.62222C8.46661 1.4572 8.40106 1.29893 8.28437 1.18224C8.16768 1.06556 8.00941 1 7.84439 1C7.67937 1 7.5211 1.06556 7.40441 1.18224C7.28772 1.29893 7.22217 1.4572 7.22217 1.62222V3.48889C7.22217 3.65391 7.28772 3.81218 7.40441 3.92887C7.5211 4.04556 7.67937 4.11111 7.84439 4.11111Z" fill="#FF840A"/>
<path fill-rule="evenodd" clip-rule="evenodd" d="M10.3332 4.7333C10.4982 4.7333 10.6564 4.66775 10.7731 4.55106C10.8898 4.43437 10.9554 4.2761 10.9554 4.11108V2.55552C10.9554 2.3905 10.8898 2.23224 10.7731 2.11555C10.6564 1.99886 10.4982 1.9333 10.3332 1.9333C10.1681 1.9333 10.0099 1.99886 9.89318 2.11555C9.77649 2.23224 9.71094 2.3905 9.71094 2.55552V4.11108C9.71094 4.2761 9.77649 4.43437 9.89318 4.55106C10.0099 4.66775 10.1681 4.7333 10.3332 4.7333Z" fill="#FF840A"/>
<path fill-rule="evenodd" clip-rule="evenodd" d="M5.35562 4.7333C5.1906 4.7333 5.03233 4.66775 4.91564 4.55106C4.79895 4.43437 4.7334 4.2761 4.7334 4.11108V2.55553C4.7334 2.3905 4.79895 2.23224 4.91564 2.11555C5.03233 1.99886 5.1906 1.9333 5.35562 1.9333C5.52064 1.9333 5.67891 1.99886 5.7956 2.11555C5.91229 2.23224 5.97784 2.3905 5.97784 2.55553V4.11108C5.97784 4.2761 5.91229 4.43437 5.7956 4.55106C5.67891 4.66775 5.52064 4.7333 5.35562 4.7333Z" fill="#FF840A"/>
<path fill-rule="evenodd" clip-rule="evenodd" d="M8.31101 7.53336C8.31101 7.4096 8.26185 7.2909 8.17433 7.20338C8.08681 7.11586 7.96811 7.0667 7.84435 7.0667C7.72058 7.0667 7.60188 7.11586 7.51436 7.20338C7.42685 7.2909 7.37768 7.4096 7.37768 7.53336V7.87279C7.06812 7.92567 6.75421 8.03394 6.49817 8.22932C6.18488 8.46825 5.97768 8.82541 5.97768 9.28336C5.97768 9.54719 6.04052 9.7855 6.16963 9.99083C6.29688 10.1937 6.47079 10.3362 6.6503 10.4385C6.97697 10.6252 7.38763 10.7129 7.7115 10.7823L7.74666 10.7898C8.11812 10.8691 8.38879 10.9319 8.57546 11.0387C8.65821 11.0859 8.70301 11.1311 8.72883 11.1724C8.75279 11.2104 8.77768 11.272 8.77768 11.3834C8.77768 11.5283 8.72417 11.6192 8.6243 11.6954C8.50701 11.785 8.31443 11.8575 8.05839 11.8874C7.79961 11.9153 7.53801 11.9012 7.28372 11.8457C7.0283 11.7897 6.83977 11.7026 6.73679 11.6195C6.64029 11.5419 6.51694 11.5059 6.39386 11.5193C6.27078 11.5327 6.15806 11.5944 6.0805 11.6909C6.00294 11.7874 5.96689 11.9108 5.98028 12.0338C5.99367 12.1569 6.0554 12.2696 6.1519 12.3472C6.4067 12.5516 6.74675 12.6835 7.08368 12.7575C7.17919 12.7784 7.2775 12.7952 7.37768 12.8079V13.1334C7.37768 13.2571 7.42685 13.3758 7.51436 13.4633C7.60188 13.5509 7.72058 13.6 7.84435 13.6C7.96811 13.6 8.08681 13.5509 8.17433 13.4633C8.26185 13.3758 8.31101 13.2571 8.31101 13.1334V12.7939C8.62057 12.7414 8.93448 12.6328 9.19052 12.4374C9.50381 12.1985 9.71101 11.8413 9.71101 11.3834C9.71101 11.1195 9.64848 10.8812 9.51937 10.6756C9.39181 10.4731 9.21759 10.3306 9.03839 10.2282C8.71172 10.0415 8.30106 9.95381 7.97719 9.88443L7.94203 9.87696C7.57088 9.79732 7.2999 9.73479 7.11355 9.62807C7.03048 9.58079 6.98568 9.53567 6.95986 9.4943C6.9359 9.45634 6.91101 9.39474 6.91101 9.28336C6.91101 9.13839 6.96452 9.04754 7.06439 8.97132C7.18168 8.88172 7.37426 8.80923 7.6303 8.77936C7.88919 8.75139 8.15089 8.76547 8.40528 8.82105C8.66039 8.87705 8.84892 8.96416 8.95221 9.04723C9.04871 9.12475 9.17205 9.16076 9.2951 9.14734C9.35603 9.1407 9.41505 9.12212 9.46879 9.09266C9.52254 9.06321 9.56996 9.02346 9.60835 8.97567C9.64673 8.92789 9.67533 8.87302 9.6925 8.81419C9.70968 8.75536 9.7151 8.69372 9.70846 8.63279C9.70181 8.57186 9.68323 8.51284 9.65378 8.45909C9.62432 8.40534 9.58457 8.35793 9.53679 8.31954C9.28199 8.11514 8.94195 7.98323 8.60501 7.90919C8.50781 7.88801 8.40972 7.87119 8.31101 7.85879V7.53336Z" fill="#FF840A"/>
</svg>
