<svg width="16" height="16" viewBox="0 0 16 16" fill="none" xmlns="http://www.w3.org/2000/svg">
<g clip-path="url(#clip0_15637_33493)">
<path d="M8.00048 16C12.309 16 15.3856 14.4732 15.3856 11.0766C15.3856 7.38294 13.5399 5.5121 9.84618 3.66525L11.4439 1.16928C11.5069 1.04892 11.5382 0.914478 11.5347 0.778668C11.5313 0.642857 11.4933 0.510162 11.4243 0.393127C11.3553 0.276092 11.2577 0.178583 11.1405 0.109819C11.0233 0.041055 10.8906 0.00330712 10.7547 0.000143898H5.53536C5.39059 -0.00260191 5.24779 0.0339934 5.12219 0.106028C4.99659 0.178062 4.89289 0.282834 4.82215 0.409173C4.75142 0.535512 4.7163 0.678679 4.72054 0.82341C4.72477 0.96814 4.76821 1.10901 4.84622 1.23099L6.15364 3.66525C2.4611 5.53724 0.614258 7.40808 0.614258 11.1006C0.614258 14.4732 3.69195 16 8.00048 16Z" fill="#FFC56D"/>
<path fill-rule="evenodd" clip-rule="evenodd" d="M4.73682 4.44123C5.66573 5.17981 6.81769 5.58151 8.00444 5.58068C9.1912 5.57985 10.3426 5.17654 11.2705 4.43666C10.8084 4.16478 10.3369 3.90938 9.85677 3.67095C9.28889 3.98657 8.64991 4.1522 8.00022 4.1522C7.35052 4.1522 6.71154 3.98657 6.14366 3.67095C5.64081 3.9258 5.1711 4.1818 4.73682 4.44123Z" fill="#FF840A"/>
</g>
<defs>
<clipPath id="clip0_15637_33493">
<rect width="16" height="16" fill="white"/>
</clipPath>
</defs>
</svg>
