<svg width="32" height="32" viewBox="0 0 32 32" fill="none" xmlns="http://www.w3.org/2000/svg">
<path d="M28.9706 8.9396C29.2098 9.51735 29.333 10.1366 29.333 10.7619C29.3346 11.5014 29.1631 12.231 28.8323 12.8925C28.5016 13.554 28.0209 14.1289 27.4283 14.5714V24.0952C27.4283 24.6004 27.2275 25.0849 26.8704 25.4421C26.5132 25.7992 26.0287 26 25.5235 26H13.1426V6H24.5711C25.1965 6 25.8157 6.12316 26.3934 6.36248C26.9711 6.60179 27.4961 6.95255 27.9384 7.39472C28.3805 7.83691 28.7313 8.36186 28.9706 8.9396Z" fill="#FF840A"/>
<path d="M20.7617 10.7619C20.7617 10.1366 20.6386 9.51735 20.3993 8.9396C20.1599 8.36186 19.8092 7.83691 19.367 7.39472C18.9248 6.95255 18.3999 6.60179 17.8221 6.36248C17.2444 6.12316 16.6252 6 15.9998 6H7.42841C6.42896 6 5.45487 6.31446 4.64407 6.89884C3.83329 7.48324 3.22692 8.3079 2.91087 9.25605C2.59482 10.2042 2.58511 11.2278 2.88311 12.1817C3.18111 13.1357 3.77171 13.9718 4.57127 14.5714V24.0952C4.57127 24.6004 4.77195 25.0849 5.12915 25.4421C5.48637 25.7992 5.97085 26 6.47603 26H16.9522C17.4574 26 17.9419 25.7992 18.2991 25.4421C18.6563 25.0849 18.857 24.6004 18.857 24.0952V14.5714C19.4495 14.1289 19.9303 13.554 20.261 12.8925C20.5918 12.231 20.7632 11.5014 20.7617 10.7619Z" fill="#FFC56D"/>
</svg>
