<svg width="24" height="24" viewBox="0 0 24 24" fill="none" xmlns="http://www.w3.org/2000/svg">
<path d="M12.0003 5.02794C8.12912 5.02794 5.70941 5.27207 4.30092 5.497C2.99301 5.70547 2.10659 6.76337 1.98042 8.02379C1.85379 9.28878 1.71436 11.2455 1.71436 13.7142C1.71436 16.1834 1.85379 18.1396 1.98042 19.4046C2.10613 20.6646 2.99301 21.7225 4.30092 21.9314C5.70895 22.1563 8.12912 22.4005 12.0003 22.4005C15.8714 22.4005 18.2912 22.1563 19.6996 21.9314C21.0075 21.7229 21.894 20.665 22.0201 19.4046C22.1468 18.1392 22.2862 16.1834 22.2862 13.7142C22.2862 11.245 22.1468 9.28878 22.0201 8.02379C21.8944 6.76382 21.0075 5.70593 19.6996 5.497C18.2916 5.27207 15.8714 5.02794 12.0003 5.02794Z" fill="#FFC56D"/>
<path fill-rule="evenodd" clip-rule="evenodd" d="M10.7477 3.52197C11.0595 3.47306 11.4837 3.42871 12.0003 3.42871C12.5174 3.42871 12.9416 3.4726 13.2529 3.52197C13.385 3.54255 13.5263 3.63764 13.6104 3.83148C13.7613 4.18076 13.9341 4.61415 14.0776 5.05395C14.7789 5.07224 15.4198 5.0983 16.0041 5.13076C15.8107 4.37597 15.5103 3.61798 15.2891 3.1064C14.9883 2.40967 14.3633 1.84507 13.5373 1.71523C13.0287 1.63706 12.5148 1.59854 12.0003 1.60002C11.3795 1.60002 10.8602 1.65306 10.4638 1.71523C9.63776 1.84507 9.01283 2.41013 8.71203 3.1064C8.49122 3.61844 8.19041 4.37597 7.99658 5.13076C8.58082 5.0983 9.22175 5.07178 9.92348 5.05395C10.067 4.61415 10.2398 4.18076 10.3907 3.83148C10.4743 3.63764 10.6161 3.54255 10.7477 3.52197Z" fill="#FF840A"/>
<path fill-rule="evenodd" clip-rule="evenodd" d="M10.9485 18.2226C10.5188 18.1645 10.2422 17.7961 10.2262 17.3622C10.2111 16.9485 10.1942 16.345 10.1832 15.5322C9.57307 15.5248 8.96303 15.5104 8.35322 15.4892C7.91939 15.4732 7.55092 15.1966 7.49286 14.7669C7.44807 14.418 7.42668 14.0666 7.42886 13.7149C7.42886 13.2769 7.45675 12.929 7.49286 12.6629C7.55092 12.2332 7.91939 11.9566 8.35322 11.9406C8.76695 11.9255 9.37039 11.9086 10.1832 11.8976C10.1942 11.0848 10.2111 10.4813 10.2262 10.0676C10.2422 9.63373 10.5188 9.26525 10.9485 9.20719C11.2145 9.17108 11.5624 9.14319 12.0004 9.14319C12.4383 9.14319 12.7862 9.17108 13.0523 9.20719C13.482 9.26525 13.7586 9.63373 13.7746 10.0676C13.7897 10.4813 13.8066 11.0848 13.8176 11.8976C14.6304 11.9086 15.2338 11.9255 15.6475 11.9406C16.0814 11.9566 16.4498 12.2332 16.5079 12.6629C16.544 12.929 16.5719 13.2769 16.5719 13.7149C16.5719 14.1529 16.544 14.5008 16.5079 14.7669C16.4498 15.1966 16.0814 15.4732 15.6475 15.4892C15.2338 15.5043 14.6304 15.5212 13.8176 15.5322C13.8102 16.1423 13.7959 16.7524 13.7746 17.3622C13.7586 17.7961 13.482 18.1645 13.0523 18.2226C12.7862 18.2587 12.4383 18.2866 12.0004 18.2866C11.5624 18.2866 11.2145 18.2587 10.9485 18.2226Z" fill="#FF840A"/>
</svg>
