<svg width="48" height="48" viewBox="0 0 48 48" fill="none" xmlns="http://www.w3.org/2000/svg">
<path fill-rule="evenodd" clip-rule="evenodd" d="M8.0498 21.2459C8.0498 20.4344 8.70768 19.7765 9.5192 19.7765H32.4491C33.1174 19.7765 33.6813 20.2226 33.8597 20.8333C33.8671 20.8332 33.8744 20.8332 33.8821 20.8332H38.5565C41.3969 20.8332 43.6994 23.1359 43.6994 25.9764V32.9971C43.6994 35.8376 41.3969 38.1402 38.5565 38.1402H33.8821H33.8618C33.411 41.7657 30.3189 44.5715 26.5715 44.5715H15.3968C11.3392 44.5715 8.0498 41.282 8.0498 37.2242V21.2459ZM33.9185 33.7318H38.5565C38.9624 33.7318 39.2912 33.4029 39.2912 32.9971V25.9764C39.2912 25.5706 38.9624 25.2416 38.5565 25.2416H33.9185V33.7318Z" fill="#FFC56D"/>
<path fill-rule="evenodd" clip-rule="evenodd" d="M8.05482 21.8834C5.83429 20.8171 4.30127 18.5471 4.30127 15.919C4.30127 12.267 7.26169 9.30641 10.9136 9.30641C11.7151 9.30641 12.4834 9.44904 13.1944 9.71034C13.7105 6.15746 16.7689 3.42851 20.4646 3.42851C24.1604 3.42851 27.2188 6.15747 27.7349 9.71034C28.4459 9.44907 29.2141 9.30641 30.0157 9.30641C33.6675 9.30641 36.628 12.267 36.628 15.919C36.628 19.5711 33.6675 22.5317 30.0157 22.5317C30.0103 22.5317 30.0049 22.5317 29.9994 22.5316H16.0565V28.8169C16.0565 31.0266 14.2653 32.818 12.0556 32.818C9.84604 32.818 8.05482 31.0266 8.05482 28.8169V21.8834Z" fill="#FF840A"/>
</svg>
