<svg width="48" height="48" viewBox="0 0 48 48" fill="none" xmlns="http://www.w3.org/2000/svg">
<path fill-rule="evenodd" clip-rule="evenodd" d="M26.3331 7.33652C26.3331 6.71723 26.0871 6.12331 25.6492 5.68541C25.2113 5.24751 24.6174 5.0015 23.9981 5.0015C23.3788 5.0015 22.7849 5.24751 22.347 5.68541C21.9091 6.12331 21.6631 6.71723 21.6631 7.33652V11.4337C23.2191 11.3666 24.7772 11.3676 26.3331 11.4368V7.33652Z" fill="#FF840A"/>
<path d="M15.2127 12.2619C18.0241 11.6734 20.3964 11.387 23.9581 11.387C27.5322 11.387 29.8018 11.6766 32.7221 12.2588C33.9768 12.514 35.1319 13.2924 35.767 14.5004C36.6379 16.1328 37.2632 17.8847 37.6225 19.6997C37.7471 20.3504 38.2265 20.8828 38.8679 21.026L40.0136 21.2906C41.7664 21.6954 43.0927 23.0621 43.5504 24.7309L43.5908 24.871L43.6126 24.9519C44.0516 26.5522 44.5715 28.4358 44.5715 30.4003C44.5752 32.133 44.2432 33.85 43.5939 35.4564C42.4638 38.2927 39.3972 39.6999 36.343 39.6999H11.6977C8.54082 39.6999 5.387 38.1868 4.30045 35.2198C3.72474 33.6782 3.42951 32.0459 3.42871 30.4003C3.42871 28.4358 3.94864 26.5522 4.38762 24.9519L4.40941 24.871L4.45923 24.6904C4.67971 23.8659 5.11575 23.1149 5.72255 22.5146C6.32935 21.9144 7.08503 21.4865 7.91192 21.275L9.14792 20.9762C9.45903 20.8978 9.74087 20.7312 9.95959 20.4965C10.1783 20.2617 10.3246 19.9688 10.3808 19.653C10.7264 17.8472 11.3646 16.0913 12.2488 14.4412C12.8777 13.2675 13.9954 12.514 15.2127 12.2619Z" fill="#FFC56D"/>
<path d="M13.6381 42.9986C16.6892 42.9986 18.4046 41.2831 18.4046 38.232C18.4046 35.1809 16.6892 33.4654 13.6381 33.4654C10.587 33.4654 8.87158 35.1778 8.87158 38.2289C8.87158 41.28 10.587 42.9986 13.6381 42.9986Z" fill="#FF840A"/>
<path d="M34.4101 42.9986C37.4612 42.9986 39.1766 41.2831 39.1766 38.232C39.1766 35.1809 37.4612 33.4654 34.4101 33.4654C31.359 33.4654 29.6436 35.1778 29.6436 38.2289C29.6436 41.28 31.359 42.9986 34.4101 42.9986Z" fill="#FF840A"/>
</svg>
