<svg width="16" height="16" viewBox="0 0 16 16" fill="none" xmlns="http://www.w3.org/2000/svg">
<path fill-rule="evenodd" clip-rule="evenodd" d="M5.74233 2.07776C5.20299 2.07776 4.68907 2.3522 4.41059 2.83492C4.07201 3.42222 3.52949 4.42666 3.07104 5.57121C3.32525 5.56804 3.6384 5.56428 4.01279 5.56081C4.34994 4.77456 4.73348 4.00902 5.16139 3.26824C5.27608 3.06891 5.49447 2.94441 5.74204 2.94441H6.55525C6.67017 2.94441 6.78039 2.89875 6.86166 2.81749C6.94292 2.73623 6.98857 2.62601 6.98857 2.51108C6.98857 2.39616 6.94292 2.28594 6.86166 2.20468C6.78039 2.12341 6.67017 2.07776 6.55525 2.07776H5.74233ZM11.5882 2.83492C11.927 3.42222 12.4695 4.42666 12.9277 5.57121C12.6735 5.56804 12.3606 5.56428 11.986 5.56081C11.6489 4.77457 11.2655 4.00903 10.8376 3.26824C10.7227 3.06891 10.5043 2.94441 10.2567 2.94441H9.44379C9.32886 2.94441 9.21864 2.89875 9.13738 2.81749C9.05612 2.73623 9.01046 2.62601 9.01046 2.51108C9.01046 2.39616 9.05612 2.28594 9.13738 2.20468C9.21864 2.12341 9.32886 2.07776 9.44379 2.07776H10.2567C10.796 2.07776 11.3094 2.3522 11.5882 2.83492ZM7.99937 8.14458C5.20357 8.14458 3.51014 8.12465 2.72929 8.11251C2.63877 8.11095 2.54853 8.10197 2.45947 8.08565C2.48749 8.33524 2.52245 8.62759 2.5652 8.95229C2.70473 10.0128 2.92717 11.4243 3.2591 12.8161C3.35332 13.2173 3.56991 13.5793 3.87888 13.852C4.18786 14.1247 4.57394 14.2946 4.98373 14.3382C5.98549 14.4452 6.9922 14.4992 7.99966 14.5C9.21788 14.5 10.2775 14.4174 11.0156 14.3382C11.4254 14.2946 11.8115 14.1246 12.1205 13.8518C12.4295 13.5791 12.6461 13.217 12.7402 12.8158C13.0719 11.4243 13.2946 10.0128 13.4341 8.952C13.4766 8.62759 13.5118 8.33524 13.5399 8.08536C13.4507 8.1018 13.3604 8.11088 13.2697 8.11251C12.4886 8.12465 10.7952 8.14458 7.99937 8.14458Z" fill="#FFC56D"/>
<path d="M7.99988 8.14468C5.20408 8.14468 3.51065 8.12504 2.7298 8.11291C2.34154 8.10684 1.72362 7.94998 1.56098 7.3335C1.51965 7.17389 1.49916 7.00959 1.50003 6.84471C1.50003 6.66069 1.52343 6.49805 1.56069 6.35592C1.72362 5.73945 2.34154 5.58287 2.7298 5.57681C3.51065 5.56439 5.20408 5.54474 7.99988 5.54474C10.7957 5.54474 12.4891 5.56439 13.27 5.57652C13.6582 5.58287 14.2761 5.73945 14.4388 6.35592C14.4763 6.49776 14.4997 6.66069 14.4997 6.84471C14.4997 7.02873 14.4763 7.19137 14.4391 7.3335C14.2761 7.94998 13.6582 8.10684 13.27 8.11291C12.4888 8.12504 10.7957 8.14468 7.99988 8.14468Z" fill="#FF840A"/>
<path d="M8.0001 3.52218C8.46405 3.52218 8.80262 3.51582 9.03112 3.50918C9.41909 3.49762 9.83537 3.23098 9.87004 2.74075C9.88083 2.58783 9.88083 2.43434 9.87004 2.28143C9.83537 1.79119 9.41909 1.52455 9.03112 1.513C8.80291 1.50636 8.46405 1.5 8.0001 1.5C7.53616 1.5 7.19759 1.50636 6.96908 1.513C6.58111 1.52455 6.16483 1.79119 6.13017 2.28143C6.11937 2.43434 6.11937 2.58783 6.13017 2.74075C6.16483 3.23098 6.58111 3.49762 6.96908 3.50918C7.1973 3.51582 7.53616 3.52218 8.0001 3.52218Z" fill="#FF840A"/>
<path fill-rule="evenodd" clip-rule="evenodd" d="M5.63629 9.59267C5.69276 9.58559 5.75007 9.5897 5.80495 9.60477C5.85983 9.61984 5.91121 9.64557 5.95614 9.6805C6.00107 9.71543 6.03869 9.75887 6.06683 9.80833C6.09498 9.8578 6.1131 9.91232 6.12017 9.96879L6.40905 12.2799C6.41611 12.3363 6.41198 12.3936 6.39689 12.4485C6.38179 12.5034 6.35604 12.5547 6.3211 12.5996C6.28616 12.6446 6.24272 12.6822 6.19325 12.7103C6.14378 12.7384 6.08925 12.7565 6.03279 12.7636C5.91874 12.7778 5.80371 12.7462 5.71299 12.6756C5.62227 12.6051 5.5633 12.5014 5.54905 12.3873L5.26017 10.0763C5.24595 9.96226 5.27759 9.84728 5.34812 9.75659C5.41865 9.66591 5.5223 9.60695 5.63629 9.59267Z" fill="#FF840A"/>
<path fill-rule="evenodd" clip-rule="evenodd" d="M10.364 9.59267C10.3075 9.58559 10.2502 9.5897 10.1953 9.60477C10.1405 9.61984 10.0891 9.64557 10.0441 9.6805C9.99922 9.71543 9.9616 9.75887 9.93346 9.80833C9.90531 9.8578 9.88719 9.91232 9.88012 9.96879L9.59124 12.2799C9.57699 12.3939 9.60862 12.5089 9.67919 12.5996C9.74975 12.6904 9.85346 12.7493 9.96751 12.7636C10.0815 12.7778 10.1966 12.7462 10.2873 12.6756C10.378 12.6051 10.437 12.5014 10.4512 12.3873L10.7401 10.0763C10.7543 9.96226 10.7227 9.84728 10.6522 9.75659C10.5816 9.66591 10.478 9.60695 10.364 9.59267Z" fill="#FF840A"/>
<path fill-rule="evenodd" clip-rule="evenodd" d="M8.00071 9.5893C8.11563 9.5893 8.22585 9.63495 8.30711 9.71622C8.38838 9.79748 8.43403 9.9077 8.43403 10.0226V12.3337C8.43403 12.4486 8.38838 12.5588 8.30711 12.6401C8.22585 12.7214 8.11563 12.767 8.00071 12.767C7.88578 12.767 7.77556 12.7214 7.6943 12.6401C7.61304 12.5588 7.56738 12.4486 7.56738 12.3337V10.0226C7.56738 9.9077 7.61304 9.79748 7.6943 9.71622C7.77556 9.63495 7.88578 9.5893 8.00071 9.5893Z" fill="#FF840A"/>
</svg>
