<svg width="48" height="48" viewBox="0 0 48 48" fill="none" xmlns="http://www.w3.org/2000/svg">
<path fill-rule="evenodd" clip-rule="evenodd" d="M33.3838 20.9541V35.3941H40.9952V20.9512L40.8866 20.9541H33.3838Z" fill="#FF840A"/>
<path fill-rule="evenodd" clip-rule="evenodd" d="M20.1943 20.9541V35.3941H27.8058V20.9541H20.1943Z" fill="#FF840A"/>
<path fill-rule="evenodd" clip-rule="evenodd" d="M7.00488 20.9512V35.3941H14.6163V20.9541H7.11345L7.00488 20.9512Z" fill="#FF840A"/>
<path fill-rule="evenodd" clip-rule="evenodd" d="M22.2457 4.66554C22.7873 4.34715 23.4055 4.18236 24.0337 4.18891C24.662 4.19545 25.2766 4.37307 25.8114 4.70269L42.7 15.7598C43.9 16.5513 44.2629 17.9141 43.8 19.077C43.3543 20.197 42.2286 20.9541 40.8857 20.9541H7.11429C5.77143 20.9541 4.64571 20.197 4.2 19.077C3.73714 17.9141 4.10286 16.5513 5.3 15.7627L5.30286 15.7598L22.1886 4.70269C22.2073 4.68985 22.2264 4.67746 22.2457 4.66554ZM4 37.9341C4 36.2198 5.63429 35.3941 6.85714 35.3941H41.1429C42.3657 35.3941 44 36.2198 44 37.937V41.2713C44 42.9855 42.3657 43.8113 41.1429 43.8113H6.85714C5.63429 43.8113 4 42.9855 4 41.2684V37.9341Z" fill="#FFC56D"/>
</svg>
