<svg width="24" height="24" viewBox="0 0 24 24" fill="none" xmlns="http://www.w3.org/2000/svg">
<path d="M9.26627 12.4518C8.97505 12.1606 8.49212 12.2005 8.25263 12.5355L5.08115 16.9722C5.00827 17.0741 4.82118 17.118 4.63179 17.0246C4.38837 16.9045 4.11444 16.8372 3.82542 16.8372C2.81727 16.8372 2 17.6545 2 18.6628C2 19.4808 2.53776 20.1726 3.27845 20.405C3.42522 20.451 3.5483 20.5741 3.59431 20.7209C3.82652 21.4619 4.51836 22 5.33645 22C6.3446 22 7.16185 21.1826 7.16185 20.1744C7.16185 19.8862 7.09493 19.613 6.9756 19.3702C6.88268 19.181 6.92654 18.9944 7.02827 18.9216L11.4644 15.7473C11.7992 15.5077 11.839 15.0248 11.5479 14.7337L9.26627 12.4518Z" fill="#FFC56D"/>
<path fill-rule="evenodd" clip-rule="evenodd" d="M15.1339 2.00428C16.8725 2.07089 18.4813 2.91052 19.7855 4.21489C21.0898 5.51928 21.9293 7.12825 21.9959 8.86705C22.0629 10.6181 21.3422 12.4003 19.7168 14.0258C18.1062 15.6366 15.8671 16.8373 13.698 17.3209C11.5538 17.799 9.29532 17.6078 7.8447 16.1569C6.39404 14.7061 6.20282 12.4475 6.68086 10.303C7.16441 8.13372 8.36501 5.89438 9.97556 4.28364C11.601 2.65806 13.383 1.93721 15.1339 2.00428Z" fill="#FF840A"/>
<path fill-rule="evenodd" clip-rule="evenodd" d="M17.0096 13.3604C17.27 13.1 17.27 12.6779 17.0096 12.4175C16.7493 12.1572 16.3272 12.1572 16.0669 12.4175C15.423 13.0615 14.561 13.5874 13.6744 13.8983C12.7794 14.2121 11.9279 14.2838 11.2879 14.1088C10.9328 14.0117 10.5662 14.2209 10.4691 14.5761C10.372 14.9312 10.5812 15.2978 10.9363 15.3949C11.9227 15.6646 13.0641 15.5252 14.1155 15.1565C15.1752 14.7849 16.2131 14.1569 17.0096 13.3604Z" fill="#FFC56D"/>
</svg>
