<svg width="48" height="48" viewBox="0 0 48 48" fill="none" xmlns="http://www.w3.org/2000/svg">
<path fill-rule="evenodd" clip-rule="evenodd" d="M43.091 44C32.0455 44 23.091 35.0455 23.091 24C23.091 12.9545 32.0455 3.99998 43.091 3.99998V44ZM4.90918 5.81817V15.8182C4.90934 17.5919 5.48565 19.3176 6.55136 20.7355C7.61706 22.1534 9.1145 23.1867 10.8183 23.68V42.1818H15.3637V23.68C17.0675 23.1867 18.5649 22.1534 19.6306 20.7355C20.6963 19.3176 21.2726 17.5919 21.2728 15.8182V5.81817H17.6364V14H14.9092V5.81817H11.2728V14H8.54554V5.81817H4.90918Z" fill="#FFC56D"/>
<path fill-rule="evenodd" clip-rule="evenodd" d="M43.0911 14.4546C40.5595 14.4546 38.1315 15.4603 36.3414 17.2504C34.5513 19.0405 33.5456 21.4684 33.5456 24.0001C33.5456 26.5317 34.5513 28.9596 36.3414 30.7497C38.1315 32.5398 40.5595 33.5455 43.0911 33.5455V36.2728C39.8361 36.2728 36.7145 34.9798 34.413 32.6782C32.1114 30.3766 30.8184 27.255 30.8184 24.0001C30.8184 20.7451 32.1114 17.6235 34.413 15.3219C36.7145 13.0203 39.8361 11.7273 43.0911 11.7273V14.4546Z" fill="#FF840A"/>
</svg>
