<svg width="24" height="24" viewBox="0 0 24 24" fill="none" xmlns="http://www.w3.org/2000/svg">
<path fill-rule="evenodd" clip-rule="evenodd" d="M14.4434 5.33333C14.4434 3.50977 13.0736 1.99999 11.11 1.99999C10.9332 1.99999 10.7636 2.07023 10.6386 2.19525C10.5136 2.32028 10.4434 2.48985 10.4434 2.66666C10.4434 2.84347 10.5136 3.01304 10.6386 3.13806C10.7636 3.26309 10.9332 3.33333 11.11 3.33333C12.3025 3.33333 13.11 4.2111 13.11 5.33333C13.11 5.51014 13.1803 5.67971 13.3053 5.80473C13.4303 5.92975 13.5999 5.99999 13.7767 5.99999C13.9535 5.99999 14.1231 5.92975 14.2481 5.80473C14.3731 5.67971 14.4434 5.51014 14.4434 5.33333Z" fill="#FF840A"/>
<path d="M19.2285 6.33999C18.9669 6.08011 18.6471 5.88633 18.2957 5.77472C17.9442 5.66311 17.5712 5.63688 17.2076 5.69821C15.4659 5.98621 12.4814 6.95466 9.62586 8.18488C8.19164 8.80266 6.77252 9.49466 5.54275 10.2115C4.3223 10.9227 3.24941 11.6813 2.5383 12.4427C2.14186 12.8675 1.99786 13.412 2.00052 13.9071C2.01608 16.8871 2.15252 18.7395 2.27252 19.8075C2.38897 20.8409 3.20141 21.5915 4.20719 21.6902C5.56586 21.8227 8.10675 22 11.9939 22C15.8827 22 18.429 21.8222 19.7899 21.6898C20.7961 21.592 21.609 20.8409 21.7254 19.8067C21.8534 18.6715 21.9992 16.6511 21.9992 13.3333C21.9992 9.61866 20.2436 7.34221 19.2285 6.33999Z" fill="#FFC56D"/>
<path d="M21.9988 13.3333H2.06678C2.02012 13.5258 2.00012 13.72 2.001 13.9071C2.01656 16.8871 2.153 18.7395 2.273 19.8075C2.38945 20.8409 3.20189 21.5915 4.20767 21.6902C5.56634 21.8227 8.10723 22 11.9943 22C15.8832 22 18.4294 21.8222 19.7903 21.6898C20.7966 21.592 21.6095 20.8409 21.7259 19.8067C21.8539 18.672 21.9997 16.6511 21.9997 13.3333H21.9988Z" fill="#FF840A"/>
<path d="M16.4432 7.55555C16.4432 7.90574 16.3742 8.2525 16.2402 8.57604C16.1062 8.89957 15.9098 9.19354 15.6621 9.44117C15.4145 9.68879 15.1206 9.88521 14.797 10.0192C14.4735 10.1532 14.1267 10.2222 13.7765 10.2222C13.4263 10.2222 13.0796 10.1532 12.756 10.0192C12.4325 9.88521 12.1385 9.68879 11.8909 9.44117C11.6433 9.19354 11.4469 8.89957 11.3129 8.57604C11.1788 8.2525 11.1099 7.90574 11.1099 7.55555C11.1099 6.8483 11.3908 6.17003 11.8909 5.66993C12.391 5.16983 13.0693 4.88888 13.7765 4.88888C14.4838 4.88888 15.1621 5.16983 15.6621 5.66993C16.1622 6.17003 16.4432 6.8483 16.4432 7.55555Z" fill="#FF840A"/>
<path d="M21.933 16.8889H2.06543C2.08587 17.3844 2.10987 17.8275 2.13565 18.2222H21.8628C21.8885 17.8275 21.9125 17.3844 21.933 16.8889Z" fill="#FFC56D"/>
</svg>
