<svg width="32" height="32" viewBox="0 0 32 32" fill="none" xmlns="http://www.w3.org/2000/svg">
<path d="M15.9998 29.3333C11.5773 29.3333 8.49169 29.2213 6.56517 29.1158C4.67599 29.0127 3.0985 27.6403 2.9065 25.693C2.77791 24.3893 2.6665 22.5618 2.6665 20.1481C2.6665 17.7345 2.77791 15.907 2.9065 14.6033C3.0985 12.6554 4.67599 11.2836 6.56517 11.1804C8.4911 11.075 11.5773 10.963 15.9998 10.963C20.4224 10.963 23.508 11.075 25.4345 11.1804C27.3237 11.2836 28.9012 12.656 29.0932 14.6033C29.2218 15.907 29.3332 17.7345 29.3332 20.1481C29.3332 22.5618 29.2218 24.3893 29.0932 25.693C28.9012 27.6409 27.3237 29.0127 25.4345 29.1158C23.5086 29.2213 20.4224 29.3333 15.9998 29.3333Z" fill="#FFC56D"/>
<path fill-rule="evenodd" clip-rule="evenodd" d="M15.7033 8.59258C16.0176 8.59258 16.319 8.46772 16.5413 8.24545C16.7636 8.02318 16.8884 7.72173 16.8884 7.4074V3.85184C16.8884 3.53751 16.7636 3.23605 16.5413 3.01379C16.319 2.79152 16.0176 2.66666 15.7033 2.66666C15.3889 2.66666 15.0875 2.79152 14.8652 3.01379C14.6429 3.23605 14.5181 3.53751 14.5181 3.85184V7.4074C14.5181 7.72173 14.6429 8.02318 14.8652 8.24545C15.0875 8.46772 15.3889 8.59258 15.7033 8.59258Z" fill="#FF840A"/>
<path fill-rule="evenodd" clip-rule="evenodd" d="M20.4445 9.77781C20.7588 9.77781 21.0603 9.65294 21.2825 9.43067C21.5048 9.20841 21.6296 8.90695 21.6296 8.59262V5.62966C21.6296 5.31533 21.5048 5.01387 21.2825 4.79161C21.0603 4.56934 20.7588 4.44447 20.4445 4.44447C20.1301 4.44447 19.8287 4.56934 19.6064 4.79161C19.3841 5.01387 19.2593 5.31533 19.2593 5.62966V8.59262C19.2593 8.90695 19.3841 9.20841 19.6064 9.43067C19.8287 9.65294 20.1301 9.77781 20.4445 9.77781Z" fill="#FF840A"/>
<path fill-rule="evenodd" clip-rule="evenodd" d="M10.9635 9.77781C10.6492 9.77781 10.3477 9.65294 10.1255 9.43067C9.90319 9.20841 9.77832 8.90695 9.77832 8.59262V5.62966C9.77832 5.31533 9.90319 5.01387 10.1255 4.79161C10.3477 4.56934 10.6492 4.44447 10.9635 4.44447C11.2778 4.44447 11.5793 4.56934 11.8016 4.79161C12.0238 5.01387 12.1487 5.31533 12.1487 5.62966V8.59262C12.1487 8.90695 12.0238 9.20841 11.8016 9.43067C11.5793 9.65294 11.2778 9.77781 10.9635 9.77781Z" fill="#FF840A"/>
<path fill-rule="evenodd" clip-rule="evenodd" d="M16.5922 15.1111C16.5922 14.8754 16.4985 14.6493 16.3318 14.4826C16.1651 14.3159 15.939 14.2222 15.7033 14.2222C15.4675 14.2222 15.2414 14.3159 15.0747 14.4826C14.908 14.6493 14.8144 14.8754 14.8144 15.1111V15.7576C14.2248 15.8584 13.6268 16.0646 13.1391 16.4367C12.5424 16.8919 12.1477 17.5721 12.1477 18.4444C12.1477 18.947 12.2674 19.4009 12.5134 19.792C12.7557 20.1784 13.087 20.4498 13.4289 20.6447C14.0511 21.0003 14.8334 21.1674 15.4502 21.2996L15.5172 21.3138C16.2248 21.4649 16.7403 21.5846 17.0959 21.7878C17.2535 21.8779 17.3388 21.9639 17.388 22.0427C17.4337 22.115 17.4811 22.2323 17.4811 22.4444C17.4811 22.7206 17.3791 22.8936 17.1889 23.0388C16.9655 23.2095 16.5987 23.3476 16.111 23.4044C15.6181 23.4577 15.1198 23.4309 14.6354 23.325C14.1489 23.2184 13.7898 23.0524 13.5937 22.8942C13.4098 22.7465 13.1749 22.6778 12.9404 22.7033C12.706 22.7288 12.4913 22.8464 12.3436 23.0302C12.1958 23.214 12.1272 23.449 12.1527 23.6834C12.1782 23.9179 12.2958 24.1326 12.4796 24.2803C12.9649 24.6696 13.6126 24.9209 14.2544 25.0619C14.4363 25.1016 14.6236 25.1336 14.8144 25.1579V25.7778C14.8144 26.0135 14.908 26.2396 15.0747 26.4063C15.2414 26.573 15.4675 26.6667 15.7033 26.6667C15.939 26.6667 16.1651 26.573 16.3318 26.4063C16.4985 26.2396 16.5922 26.0135 16.5922 25.7778V25.1313C17.1818 25.0311 17.7797 24.8243 18.2674 24.4521C18.8642 23.997 19.2588 23.3167 19.2588 22.4444C19.2588 21.9419 19.1397 21.488 18.8938 21.0963C18.6508 20.7105 18.319 20.4391 17.9777 20.2441C17.3554 19.8886 16.5732 19.7215 15.9563 19.5893L15.8894 19.5751C15.1824 19.4234 14.6662 19.3043 14.3113 19.101C14.1531 19.011 14.0677 18.925 14.0185 18.8462C13.9729 18.7739 13.9255 18.6566 13.9255 18.4444C13.9255 18.1683 14.0274 17.9953 14.2177 17.8501C14.4411 17.6794 14.8079 17.5413 15.2956 17.4844C15.7887 17.4312 16.2872 17.458 16.7717 17.5639C17.2577 17.6705 17.6168 17.8364 17.8135 17.9947C17.9973 18.1423 18.2322 18.2109 18.4666 18.1854C18.5827 18.1727 18.6951 18.1373 18.7975 18.0812C18.8998 18.0251 18.9902 17.9494 19.0633 17.8584C19.1364 17.7674 19.1909 17.6628 19.2236 17.5508C19.2563 17.4387 19.2666 17.3213 19.254 17.2053C19.2413 17.0892 19.2059 16.9768 19.1498 16.8744C19.0937 16.772 19.018 16.6817 18.927 16.6086C18.4417 16.2193 17.7939 15.968 17.1522 15.827C16.967 15.7866 16.7802 15.7546 16.5922 15.731V15.1111Z" fill="#FF840A"/>
</svg>
