<svg width="32" height="32" viewBox="0 0 32 32" fill="none" xmlns="http://www.w3.org/2000/svg">
<path d="M2.6665 12.1905V23.1428C2.6665 23.9006 2.96752 24.6273 3.50334 25.1632C4.03916 25.699 4.76589 26 5.52365 26H26.476C27.2338 26 27.9605 25.699 28.4963 25.1632C29.0322 24.6273 29.3332 23.9006 29.3332 23.1428V12.1905H2.6665Z" fill="#FFC56D"/>
<path fill-rule="evenodd" clip-rule="evenodd" d="M5.52365 6C4.76589 6 4.03916 6.30102 3.50334 6.83684C2.96752 7.37266 2.6665 8.09938 2.6665 8.85714L2.6665 12.1905H29.3332V8.85714C29.3332 8.09938 29.0322 7.37266 28.4963 6.83684C27.9605 6.30102 27.2338 6 26.476 6H5.52365ZM20.7617 19.0952C20.446 19.0952 20.1432 19.2207 19.9199 19.4439C19.6967 19.6672 19.5713 19.97 19.5713 20.2857C19.5713 20.6014 19.6967 20.9043 19.9199 21.1275C20.1432 21.3508 20.446 21.4762 20.7617 21.4762H23.6189C23.9346 21.4762 24.2374 21.3508 24.4607 21.1275C24.6839 20.9043 24.8094 20.6014 24.8094 20.2857C24.8094 19.97 24.6839 19.6672 24.4607 19.4439C24.2374 19.2207 23.9346 19.0952 23.6189 19.0952H20.7617Z" fill="#FF840A"/>
</svg>
