<svg width="24" height="24" viewBox="0 0 24 24" fill="none" xmlns="http://www.w3.org/2000/svg">
<path fill-rule="evenodd" clip-rule="evenodd" d="M7.37592 2.73676C7.84451 2.26535 8.48015 2.00034 9.14307 2H14.8574C15.5204 2 16.1563 2.2648 16.6251 2.73613C17.094 3.20746 17.3574 3.84673 17.3574 4.51329V7.38562C17.3574 7.67129 17.2445 7.94526 17.0435 8.14726C16.8426 8.34926 16.5701 8.46274 16.2859 8.46274C16.0018 8.46274 15.7292 8.34926 15.5283 8.14726C15.3274 7.94526 15.2145 7.67129 15.2145 7.38562V4.51329C15.2145 4.41807 15.1769 4.32674 15.1099 4.25941C15.0429 4.19208 14.9521 4.15425 14.8574 4.15425H9.14307C9.04835 4.15425 8.95751 4.19208 8.89053 4.25941C8.82355 4.32674 8.78592 4.41807 8.78592 4.51329V7.38562C8.78592 7.67129 8.67304 7.94526 8.47211 8.14726C8.27118 8.34926 7.99866 8.46274 7.71449 8.46274C7.43033 8.46274 7.15781 8.34926 6.95688 8.14726C6.75595 7.94526 6.64307 7.67129 6.64307 7.38562V4.51329C6.64307 3.84691 6.90592 3.20638 7.37592 2.73676Z" fill="#FF840A"/>
<path d="M4.14286 6.20221C3.57454 6.20221 3.02949 6.42918 2.62763 6.83318C2.22576 7.23718 2 7.78512 2 8.35646L2 19.8458C2 20.4171 2.22576 20.9651 2.62763 21.3691C3.02949 21.7731 3.57454 22 4.14286 22H19.8571C20.4255 22 20.9705 21.7731 21.3724 21.3691C21.7742 20.9651 22 20.4171 22 19.8458V8.35646C22 7.78512 21.7742 7.23718 21.3724 6.83318C20.9705 6.42918 20.4255 6.20221 19.8571 6.20221H4.14286Z" fill="#FFC56D"/>
<path fill-rule="evenodd" clip-rule="evenodd" d="M11.9998 7.63838C12.284 7.63838 12.5565 7.75186 12.7574 7.95386C12.9584 8.15586 13.0713 8.42983 13.0713 8.7155V9.4738C13.5739 9.55892 14.0447 9.77776 14.4349 10.1076C14.825 10.4374 15.1202 10.8662 15.2898 11.3494C15.3846 11.6189 15.3689 11.9152 15.2463 12.1731C15.1238 12.431 14.9043 12.6293 14.6363 12.7246C14.3682 12.8198 14.0735 12.804 13.817 12.6808C13.5604 12.5576 13.3631 12.337 13.2684 12.0675C13.2194 11.9274 13.1283 11.8061 13.0078 11.7202C12.8873 11.6343 12.7433 11.588 12.5955 11.5878H11.2127C11.0844 11.5888 10.9609 11.6371 10.8657 11.7236C10.7706 11.8101 10.7104 11.9288 10.6966 12.0571C10.6828 12.1853 10.7165 12.3142 10.7911 12.4191C10.8657 12.5241 10.9761 12.5978 11.1013 12.6262L13.2055 13.0886C13.8546 13.2303 14.4343 13.5949 14.845 14.1197C15.2556 14.6445 15.4716 15.2968 15.4557 15.9643C15.4398 16.6318 15.1931 17.273 14.7579 17.7774C14.3227 18.2819 13.7263 18.6182 13.0713 18.7284V19.4867C13.0713 19.7724 12.9584 20.0464 12.7574 20.2484C12.5565 20.4504 12.284 20.5639 11.9998 20.5639C11.7157 20.5639 11.4431 20.4504 11.2422 20.2484C11.0413 20.0464 10.9284 19.7724 10.9284 19.4867V18.7284C10.4261 18.6429 9.95568 18.424 9.56567 18.0946C9.17565 17.7651 8.8802 17.3369 8.70983 16.8542C8.61511 16.5848 8.63076 16.2885 8.75332 16.0306C8.87589 15.7727 9.09534 15.5743 9.3634 15.4791C9.63146 15.3839 9.92617 15.3996 10.1827 15.5228C10.4392 15.6461 10.6365 15.8667 10.7313 16.1362C10.7805 16.276 10.8717 16.397 10.9922 16.4827C11.1127 16.5683 11.2566 16.6143 11.4041 16.6144H12.5955C12.7736 16.6172 12.9463 16.553 13.0797 16.4345C13.2131 16.3159 13.2977 16.1516 13.3168 15.9736C13.336 15.7956 13.2883 15.6168 13.1831 15.4724C13.078 15.3279 12.9229 15.2281 12.7484 15.1926L10.6427 14.733C10.0247 14.5968 9.47501 14.2441 9.09196 13.7378C8.7089 13.2316 8.51743 12.6049 8.55179 11.9698C8.58614 11.3347 8.84407 10.7326 9.27947 10.2711C9.71487 9.80961 10.2993 9.51886 10.9284 9.45082V8.71837C10.928 8.57668 10.9555 8.43631 11.0091 8.30529C11.0628 8.17428 11.1417 8.0552 11.2412 7.95488C11.3407 7.85455 11.459 7.77495 11.5892 7.72064C11.7193 7.66633 11.8589 7.63838 11.9998 7.63838Z" fill="#FF840A"/>
</svg>
