<svg width="48" height="48" viewBox="0 0 48 48" fill="none" xmlns="http://www.w3.org/2000/svg">
<path d="M7.82578 4.3131C15.5507 5.22961 22.3484 8.2715 23.9992 9.92233C25.6501 8.2715 32.4478 5.23003 40.1727 4.31352C42.5901 4.02669 44.5702 6.01889 44.5702 8.45341V31.9631C44.5702 34.3976 42.5807 36.3378 40.1854 36.7727C34.7755 37.7548 30.2762 40.3491 27.4058 42.3997C25.4249 43.8147 22.5716 43.813 20.5906 42.398C17.7201 40.3476 13.2216 37.7542 7.81317 36.7721C5.41781 36.3372 3.42822 34.3973 3.42822 31.9627V8.45297C3.42822 6.01847 5.40822 4.02628 7.82578 4.3131Z" fill="#FFC56D"/>
<path d="M22.2852 43.436V9.42836C23.2945 10.0248 24.7043 10.0249 25.7137 9.42842V43.4366C24.6079 43.8059 23.391 43.8056 22.2852 43.436Z" fill="#FF840A"/>
</svg>
