<svg width="48" height="48" viewBox="0 0 48 48" fill="none" xmlns="http://www.w3.org/2000/svg">
<path fill-rule="evenodd" clip-rule="evenodd" d="M38.9621 4.09534H9.04004V30.278H38.9621V4.09534Z" fill="#FF840A"/>
<path fill-rule="evenodd" clip-rule="evenodd" d="M10.9888 33.4803L8.18359 42.8312L11.7668 43.9047L14.572 34.5538L10.9888 33.4803ZM37.0135 33.4803L39.8187 42.8312L36.2355 43.9047L33.4304 34.5538L37.0135 33.4803Z" fill="#FF840A"/>
<path d="M3.42871 35.8892V21.8628C3.42871 20.6228 3.92129 19.4336 4.79808 18.5568C5.67488 17.6799 6.86406 17.1873 8.10404 17.1873C9.34401 17.1873 10.5332 17.6799 11.41 18.5568C12.2868 19.4336 12.7794 20.6228 12.7794 21.8628V28.4085H35.2209V21.8628C35.2209 20.6228 35.7135 19.4336 36.5903 18.5568C37.4671 17.6799 38.6563 17.1873 39.8962 17.1873C41.1362 17.1873 42.3254 17.6799 43.2022 18.5568C44.079 19.4336 44.5716 20.6228 44.5716 21.8628V35.8892H3.42871Z" fill="#FFC56D"/>
</svg>
