<svg width="32" height="32" viewBox="0 0 32 32" fill="none" xmlns="http://www.w3.org/2000/svg">
<path fill-rule="evenodd" clip-rule="evenodd" d="M17.5552 4.89099C17.5552 4.47813 17.3912 4.08218 17.0993 3.79025C16.8074 3.49831 16.4114 3.3343 15.9986 3.3343C15.5857 3.3343 15.1898 3.49831 14.8978 3.79025C14.6059 4.08218 14.4419 4.47813 14.4419 4.89099V7.62244C15.4792 7.57768 16.518 7.57837 17.5552 7.62452V4.89099Z" fill="#FF840A"/>
<path d="M10.1416 8.17454C12.0159 7.78225 13.5975 7.5913 15.9719 7.5913C18.3546 7.5913 19.8677 7.78433 21.8146 8.17246C22.6511 8.34266 23.4211 8.86155 23.8445 9.66688C24.4251 10.7551 24.842 11.9231 25.0815 13.1331C25.1646 13.5669 25.4842 13.9218 25.9118 14.0173L26.6756 14.1937C27.8441 14.4635 28.7283 15.3747 29.0334 16.4872L29.0604 16.5806L29.0749 16.6346C29.3676 17.7014 29.7142 18.9571 29.7142 20.2668C29.7166 21.422 29.4953 22.5666 29.0625 23.6376C28.309 25.5284 26.2646 26.4666 24.2285 26.4666H7.79834C5.69372 26.4666 3.59117 25.4578 2.8668 23.4798C2.483 22.4521 2.28618 21.3639 2.28564 20.2668C2.28564 18.9571 2.63226 17.7014 2.92492 16.6346L2.93945 16.5806L2.97266 16.4602C3.11964 15.9105 3.41034 15.4099 3.81487 15.0097C4.21941 14.6096 4.72319 14.3243 5.27445 14.1833L6.09845 13.9841C6.30586 13.9318 6.49375 13.8208 6.63956 13.6643C6.78537 13.5078 6.88288 13.3125 6.92037 13.102C7.15076 11.8981 7.57625 10.7275 8.16571 9.62744C8.58497 8.84495 9.3301 8.34266 10.1416 8.17454Z" fill="#FFC56D"/>
<path d="M9.09223 28.6657C11.1263 28.6657 12.2699 27.522 12.2699 25.4879C12.2699 23.4539 11.1263 22.3102 9.09223 22.3102C7.05818 22.3102 5.91455 23.4518 5.91455 25.4859C5.91455 27.5199 7.05818 28.6657 9.09223 28.6657Z" fill="#FF840A"/>
<path d="M22.9399 28.6657C24.9739 28.6657 26.1176 27.522 26.1176 25.4879C26.1176 23.4539 24.9739 22.3102 22.9399 22.3102C20.9058 22.3102 19.7622 23.4518 19.7622 25.4859C19.7622 27.5199 20.9058 28.6657 22.9399 28.6657Z" fill="#FF840A"/>
</svg>
