<svg width="32" height="32" viewBox="0 0 32 32" fill="none" xmlns="http://www.w3.org/2000/svg">
<path fill-rule="evenodd" clip-rule="evenodd" d="M25.9744 2.73024H6.02637V20.1853H25.9744V2.73024Z" fill="#FF840A"/>
<path fill-rule="evenodd" clip-rule="evenodd" d="M7.32472 22.3202L5.45459 28.5542L7.84337 29.2698L9.7135 23.0359L7.32472 22.3202ZM24.6745 22.3202L26.5447 28.5542L24.1559 29.2698L22.2858 23.0359L24.6745 22.3202Z" fill="#FF840A"/>
<path d="M2.28564 23.9262V14.5752C2.28564 13.7486 2.61403 12.9557 3.19856 12.3712C3.78309 11.7866 4.57588 11.4583 5.40253 11.4583C6.22918 11.4583 7.02197 11.7866 7.6065 12.3712C8.19103 12.9557 8.51941 13.7486 8.51941 14.5752V18.939H23.4804V14.5752C23.4804 13.7486 23.8088 12.9557 24.3934 12.3712C24.9779 11.7866 25.7707 11.4583 26.5973 11.4583C27.424 11.4583 28.2168 11.7866 28.8013 12.3712C29.3858 12.9557 29.7142 13.7486 29.7142 14.5752V23.9262H2.28564Z" fill="#FFC56D"/>
</svg>
