<svg width="16" height="16" viewBox="0 0 16 16" fill="none" xmlns="http://www.w3.org/2000/svg">
<path fill-rule="evenodd" clip-rule="evenodd" d="M10.2483 2.0304C10.4114 2.08238 10.5472 2.19702 10.6259 2.34911C10.7045 2.50121 10.7195 2.6783 10.6676 2.84146L10.1235 4.5514C10.0977 4.63224 10.0563 4.70723 10.0016 4.77208C9.94693 4.83692 9.87999 4.89036 9.80464 4.92933C9.65245 5.00805 9.47523 5.02309 9.31196 4.97114C9.23112 4.94541 9.15614 4.90402 9.09129 4.84932C9.02644 4.79462 8.97301 4.72768 8.93403 4.65232C8.85532 4.50014 8.84028 4.32292 8.89223 4.15965L9.43724 2.4497C9.48922 2.28657 9.60386 2.15075 9.75595 2.07212C9.90805 1.99349 10.0851 1.97849 10.2483 2.0304Z" fill="#FF840A"/>
<path fill-rule="evenodd" clip-rule="evenodd" d="M7.9993 3.44671C7.04655 3.44694 6.13289 3.82559 5.45927 4.49937C4.78565 5.17315 4.40723 6.0869 4.40723 7.03966V7.46069C4.40723 7.47533 4.40723 7.49082 4.40895 7.50632L4.77229 12.6C4.7993 12.9802 4.96942 13.3361 5.24838 13.5959C5.52734 13.8557 5.8944 14.0001 6.27559 14H9.72388C10.5143 14 11.1704 13.3887 11.2272 12.6L11.5905 7.50632C11.5916 7.49114 11.5922 7.47592 11.5922 7.46069V7.0388C11.592 6.08619 11.2135 5.17266 10.5399 4.49906C9.8663 3.82547 8.95191 3.44694 7.9993 3.44671Z" fill="#FFC56D"/>
<path fill-rule="evenodd" clip-rule="evenodd" d="M3.78979 6.81497C3.70499 6.81497 3.62102 6.83168 3.54267 6.86413C3.46433 6.89658 3.39314 6.94415 3.33318 7.00411C3.27321 7.06407 3.22565 7.13526 3.1932 7.2136C3.16075 7.29195 3.14404 7.37592 3.14404 7.46072C3.14404 7.54552 3.16075 7.62949 3.1932 7.70784C3.22565 7.78619 3.27321 7.85737 3.33318 7.91734C3.39314 7.9773 3.46433 8.02486 3.54267 8.05732C3.62102 8.08977 3.70499 8.10647 3.78979 8.10647H12.2103C12.3816 8.10647 12.5458 8.03844 12.6669 7.91734C12.788 7.79623 12.8561 7.63199 12.8561 7.46072C12.8561 7.28946 12.788 7.12521 12.6669 7.00411C12.5458 6.88301 12.3816 6.81497 12.2103 6.81497H3.78979ZM5.85015 9.565H10.1491L9.93817 12.5079C9.93446 12.5623 9.91027 12.6132 9.87049 12.6504C9.8307 12.6877 9.77827 12.7084 9.72378 12.7085H6.27549C6.22099 12.7086 6.16846 12.6881 6.12851 12.651C6.08856 12.614 6.06416 12.5631 6.06024 12.5088L5.85015 9.565Z" fill="#FF840A"/>
</svg>
