<svg width="32" height="32" viewBox="0 0 32 32" fill="none" xmlns="http://www.w3.org/2000/svg">
<path fill-rule="evenodd" clip-rule="evenodd" d="M22.2559 13.9694V23.5961H27.3301V13.9675L27.2578 13.9694H22.2559Z" fill="#FF840A"/>
<path fill-rule="evenodd" clip-rule="evenodd" d="M13.4629 13.9694V23.5961H18.5372V13.9694H13.4629Z" fill="#FF840A"/>
<path fill-rule="evenodd" clip-rule="evenodd" d="M4.66992 13.9675V23.5961H9.74421V13.9694H4.7423L4.66992 13.9675Z" fill="#FF840A"/>
<path fill-rule="evenodd" clip-rule="evenodd" d="M14.8303 3.11036C15.1914 2.8981 15.6035 2.78824 16.0223 2.79261C16.4412 2.79697 16.8509 2.91538 17.2075 3.13512L28.4665 10.5066C29.2665 11.0342 29.5084 11.9427 29.1998 12.718C28.9027 13.4646 28.1522 13.9694 27.257 13.9694H4.74269C3.84746 13.9694 3.09698 13.4646 2.79984 12.718C2.49127 11.9427 2.73508 11.0342 3.53317 10.5085L3.53508 10.5066L14.7922 3.13512C14.8047 3.12657 14.8174 3.11831 14.8303 3.11036ZM2.6665 25.2894C2.6665 24.1466 3.75603 23.5961 4.57127 23.5961H27.4284C28.2436 23.5961 29.3332 24.1466 29.3332 25.2913V27.5142C29.3332 28.657 28.2436 29.2075 27.4284 29.2075H4.57127C3.75603 29.2075 2.6665 28.657 2.6665 27.5123V25.2894Z" fill="#FFC56D"/>
</svg>
