<svg width="32" height="32" viewBox="0 0 32 32" fill="none" xmlns="http://www.w3.org/2000/svg">
<path d="M16.2858 28.2852C13.2898 28.2852 11.063 28.2326 9.4699 28.1697C7.18537 28.0794 4.85742 26.4303 4.85742 23.8567V23.8087C4.86885 22.8241 5.37913 22.0601 6.06083 21.5716C6.7271 21.0933 7.57394 20.8567 8.39221 20.8567H24.1793C24.9976 20.8567 25.8439 21.0927 26.5107 21.571C27.1924 22.0607 27.7027 22.8241 27.7135 23.8087L27.7141 23.8567C27.7141 26.4303 25.3861 28.0794 23.1016 28.1697C21.5085 28.2326 19.2817 28.2852 16.2858 28.2852Z" fill="#FFC56D"/>
<path fill-rule="evenodd" clip-rule="evenodd" d="M7.89231 23.5458C7.07804 23.003 5.77693 23.1493 4.93523 23.3287C4.41467 23.4401 3.82839 23.3876 3.54326 22.9379C3.18555 22.3722 3.00784 21.6133 2.92441 20.8962C2.7667 19.5374 3.5244 18.1745 4.85409 17.8528C6.27806 17.5088 7.71517 17.8037 9.11686 18.7391C10.3997 19.5945 11.6071 19.5945 12.8894 18.7391C14.9379 17.3723 17.0618 17.3723 19.1109 18.7391C20.3932 19.5945 21.6006 19.5945 22.8829 18.7391C24.2845 17.8037 25.7217 17.5088 27.1456 17.8534C28.4753 18.1745 29.2336 19.5374 29.0753 20.8962C28.9919 21.6133 28.8142 22.3727 28.4565 22.9373C28.1719 23.3876 27.5856 23.4401 27.0645 23.3287C26.2234 23.1493 24.9217 23.003 24.108 23.5458C22.0589 24.9127 19.9349 24.9127 17.8858 23.5458C16.6036 22.6904 15.3962 22.6904 14.1145 23.5458C12.0648 24.9127 9.94141 24.9127 7.89231 23.5458Z" fill="#FF840A"/>
<path d="M28.5136 15.6145C28.3747 14.514 27.365 13.9391 26.2565 13.8866C24.5765 13.8066 21.452 13.714 15.9995 13.714C10.3271 13.714 7.17458 13.814 5.54604 13.8957C4.55863 13.9454 3.65637 14.4346 3.5078 15.4123C3.45253 15.796 3.42599 16.1834 3.42837 16.5711C3.42837 17.0282 3.4598 17.4111 3.50837 17.7299C3.65694 18.707 4.55863 19.1968 5.54604 19.2465C7.17458 19.3282 10.3271 19.4282 15.9995 19.4282C21.452 19.4282 24.5765 19.3356 26.2565 19.2556C27.365 19.203 28.3742 18.6282 28.5136 17.5276C28.549 17.2511 28.5707 16.9334 28.5707 16.5711C28.5707 16.2088 28.549 15.8911 28.5136 15.6145Z" fill="#CC4C02"/>
<path d="M16.2858 3.71419C14.7904 3.71419 13.4847 3.73876 12.3533 3.77876C8.20535 3.92447 4.85742 7.14612 4.85742 11.3569C4.85742 12.3437 4.96828 13.1957 5.08942 13.8346C5.2997 14.9408 6.18082 15.7259 7.26537 15.8688C8.65963 16.0534 11.3853 16.2854 16.2858 16.2854C21.1862 16.2854 23.9119 16.0534 25.3061 15.8694C26.3901 15.7259 27.2718 14.9408 27.4821 13.8346C27.6032 13.1957 27.7141 12.3432 27.7141 11.3569C27.7141 7.14612 24.3656 3.92447 20.2183 3.77876C19.0868 3.73876 17.7812 3.71419 16.2858 3.71419Z" fill="#FFC56D"/>
<path fill-rule="evenodd" clip-rule="evenodd" d="M23.4283 9.99979C23.201 9.99979 22.983 10.0901 22.8223 10.2508C22.6615 10.4116 22.5712 10.6296 22.5712 10.8569C22.5712 11.0842 22.6615 11.3023 22.8223 11.463C22.983 11.6237 23.201 11.714 23.4283 11.714H23.714C23.9414 11.714 24.1594 11.6237 24.3201 11.463C24.4809 11.3023 24.5712 11.0842 24.5712 10.8569C24.5712 10.6296 24.4809 10.4116 24.3201 10.2508C24.1594 10.0901 23.9414 9.99979 23.714 9.99979H23.4283ZM19.1427 8.57125C19.1427 8.34393 19.233 8.12591 19.3938 7.96517C19.5545 7.80443 19.7725 7.71413 19.9998 7.71413H20.2855C20.5129 7.71413 20.7309 7.80443 20.8916 7.96517C21.0524 8.12591 21.1427 8.34393 21.1427 8.57125C21.1427 8.79858 21.0524 9.01659 20.8916 9.17733C20.7309 9.33807 20.5129 9.42838 20.2855 9.42838H19.9998C19.7725 9.42838 19.5545 9.33807 19.3938 9.17733C19.233 9.01659 19.1427 8.79858 19.1427 8.57125ZM19.7141 11.714C19.9414 11.714 20.1595 11.8043 20.3202 11.9651C20.4809 12.1258 20.5712 12.3438 20.5712 12.5712C20.5712 12.7985 20.4809 13.0165 20.3202 13.1772C20.1595 13.338 19.9414 13.4283 19.7141 13.4283H19.4284C19.2011 13.4283 18.9831 13.338 18.8223 13.1772C18.6616 13.0165 18.5713 12.7985 18.5713 12.5712C18.5713 12.3438 18.6616 12.1258 18.8223 11.9651C18.9831 11.8043 19.2011 11.714 19.4284 11.714H19.7141Z" fill="#FF840A"/>
</svg>
