<svg width="32" height="32" viewBox="0 0 32 32" fill="none" xmlns="http://www.w3.org/2000/svg">
<path d="M16.0013 29.3333C23.1822 29.3333 28.3097 26.7886 28.3097 21.1277C28.3097 14.9716 25.2336 11.8535 19.0774 8.77542L21.7403 4.61546C21.8453 4.41486 21.8974 4.19079 21.8917 3.96444C21.886 3.73809 21.8227 3.51693 21.7077 3.32188C21.5927 3.12682 21.4299 2.9643 21.2346 2.8497C21.0394 2.73509 20.8181 2.67218 20.5917 2.6669H11.8927C11.6515 2.66233 11.4135 2.72332 11.2041 2.84338C10.9948 2.96343 10.822 3.13805 10.7041 3.34862C10.5862 3.55918 10.5277 3.7978 10.5347 4.03901C10.5418 4.28023 10.6142 4.51501 10.7442 4.71831L12.9232 8.77542C6.76899 11.8954 3.69092 15.0135 3.69092 21.1677C3.69092 26.7886 8.8204 29.3333 16.0013 29.3333Z" fill="#FFC56D"/>
<path fill-rule="evenodd" clip-rule="evenodd" d="M10.561 10.0688C12.1092 11.2997 14.0292 11.9692 16.0071 11.9678C17.985 11.9665 19.904 11.2943 21.4505 10.0611C20.6804 9.60801 19.8945 9.18235 19.0943 8.78496C18.1478 9.31099 17.0829 9.58705 16 9.58705C14.9172 9.58705 13.8522 9.31099 12.9058 8.78496C12.0677 9.20972 11.2848 9.63638 10.561 10.0688Z" fill="#FF840A"/>
</svg>
