<svg width="48" height="48" viewBox="0 0 48 48" fill="none" xmlns="http://www.w3.org/2000/svg">
<path d="M24.0012 44C34.7725 44 42.4639 40.1829 42.4639 31.6915C42.4639 22.4573 37.8496 17.7802 28.6154 13.1631L32.6097 6.92318C32.7672 6.62228 32.8454 6.28618 32.8368 5.94665C32.8283 5.60713 32.7333 5.27539 32.5608 4.9828C32.3884 4.69021 32.1441 4.44644 31.8512 4.27453C31.5583 4.10262 31.2264 4.00825 30.8869 4.00034H17.8384C17.4765 3.99348 17.1195 4.08497 16.8055 4.26505C16.4915 4.44514 16.2322 4.70707 16.0554 5.02292C15.8785 5.33876 15.7907 5.69668 15.8013 6.05851C15.8119 6.42034 15.9205 6.7725 16.1156 7.07746L19.3841 13.1631C10.1527 17.8431 5.53564 22.5202 5.53564 31.7515C5.53564 40.1829 13.2299 44 24.0012 44Z" fill="#FFC56D"/>
<path fill-rule="evenodd" clip-rule="evenodd" d="M15.8413 15.1031C18.1636 16.9496 21.0435 17.9538 24.0104 17.9518C26.9773 17.9497 29.8557 16.9414 32.1755 15.0917C31.0204 14.412 29.8416 13.7735 28.6412 13.1774C27.2215 13.9665 25.6241 14.3806 23.9998 14.3806C22.3756 14.3806 20.7781 13.9665 19.3584 13.1774C18.1013 13.8146 16.927 14.4546 15.8413 15.1031Z" fill="#FF840A"/>
</svg>
