<svg width="48" height="48" viewBox="0 0 48 48" fill="none" xmlns="http://www.w3.org/2000/svg">
<path d="M24 44C17.3662 44 12.7378 43.832 9.848 43.6738C7.01422 43.5191 4.648 41.4605 4.36 38.5396C4.16711 36.584 4 33.8427 4 30.2222C4 26.6018 4.16711 23.8605 4.36 21.9049C4.648 18.9831 7.01422 16.9253 9.848 16.7707C12.7369 16.6125 17.3662 16.4445 24 16.4445C30.6338 16.4445 35.2622 16.6125 38.152 16.7707C40.9858 16.9253 43.352 18.984 43.64 21.9049C43.8329 23.8605 44 26.6018 44 30.2222C44 33.8427 43.8329 36.584 43.64 38.5396C43.352 41.4613 40.9858 43.5191 38.152 43.6738C35.2631 43.832 30.6338 44 24 44Z" fill="#FFC56D"/>
<path fill-rule="evenodd" clip-rule="evenodd" d="M23.5551 12.8889C24.0266 12.8889 24.4788 12.7016 24.8122 12.3682C25.1456 12.0348 25.3329 11.5826 25.3329 11.1111V5.77778C25.3329 5.30628 25.1456 4.8541 24.8122 4.5207C24.4788 4.1873 24.0266 4 23.5551 4C23.0836 4 22.6314 4.1873 22.298 4.5207C21.9646 4.8541 21.7773 5.30628 21.7773 5.77778V11.1111C21.7773 11.5826 21.9646 12.0348 22.298 12.3682C22.6314 12.7016 23.0836 12.8889 23.5551 12.8889Z" fill="#FF840A"/>
<path fill-rule="evenodd" clip-rule="evenodd" d="M30.6664 14.6667C31.1379 14.6667 31.5901 14.4794 31.9235 14.146C32.2569 13.8126 32.4442 13.3604 32.4442 12.8889V8.44446C32.4442 7.97297 32.2569 7.52078 31.9235 7.18739C31.5901 6.85399 31.1379 6.66669 30.6664 6.66669C30.195 6.66669 29.7428 6.85399 29.4094 7.18739C29.076 7.52078 28.8887 7.97297 28.8887 8.44446V12.8889C28.8887 13.3604 29.076 13.8126 29.4094 14.146C29.7428 14.4794 30.195 14.6667 30.6664 14.6667Z" fill="#FF840A"/>
<path fill-rule="evenodd" clip-rule="evenodd" d="M16.4448 14.6667C15.9733 14.6667 15.5211 14.4794 15.1877 14.146C14.8543 13.8126 14.667 13.3604 14.667 12.8889V8.44446C14.667 7.97297 14.8543 7.52078 15.1877 7.18739C15.5211 6.85399 15.9733 6.66669 16.4448 6.66669C16.9163 6.66669 17.3685 6.85399 17.7018 7.18739C18.0352 7.52078 18.2225 7.97297 18.2225 8.44446V12.8889C18.2225 13.3604 18.0352 13.8126 17.7018 14.146C17.3685 14.4794 16.9163 14.6667 16.4448 14.6667Z" fill="#FF840A"/>
<path fill-rule="evenodd" clip-rule="evenodd" d="M24.8887 22.6666C24.8887 22.313 24.7483 21.9739 24.4982 21.7238C24.2482 21.4738 23.909 21.3333 23.5554 21.3333C23.2018 21.3333 22.8627 21.4738 22.6126 21.7238C22.3626 21.9739 22.2221 22.313 22.2221 22.6666V23.6364C21.3376 23.7875 20.4407 24.0969 19.7092 24.6551C18.8141 25.3378 18.2221 26.3582 18.2221 27.6666C18.2221 28.4204 18.4016 29.1013 18.7705 29.688C19.1341 30.2675 19.631 30.6746 20.1439 30.9671C21.0772 31.5004 22.2505 31.7511 23.1759 31.9493L23.2763 31.9706C24.3376 32.1973 25.111 32.3769 25.6443 32.6818C25.8807 32.8169 26.0087 32.9458 26.0825 33.064C26.151 33.1724 26.2221 33.3484 26.2221 33.6666C26.2221 34.0809 26.0692 34.3404 25.7839 34.5582C25.4487 34.8142 24.8985 35.0213 24.167 35.1066C23.4276 35.1865 22.6802 35.1463 21.9536 34.9875C21.2239 34.8275 20.6852 34.5786 20.391 34.3413C20.1153 34.1197 19.7628 34.0167 19.4112 34.055C19.0595 34.0932 18.7375 34.2696 18.5159 34.5453C18.2943 34.821 18.1913 35.1735 18.2295 35.5251C18.2678 35.8768 18.4441 36.1988 18.7199 36.4204C19.4479 37.0044 20.4194 37.3813 21.3821 37.5929C21.655 37.6524 21.9359 37.7004 22.2221 37.7369V38.6666C22.2221 39.0203 22.3626 39.3594 22.6126 39.6095C22.8627 39.8595 23.2018 40 23.5554 40C23.909 40 24.2482 39.8595 24.4982 39.6095C24.7483 39.3594 24.8887 39.0203 24.8887 38.6666V37.6969C25.7732 37.5466 26.6701 37.2364 27.4016 36.6782C28.2967 35.9955 28.8887 34.9751 28.8887 33.6666C28.8887 32.9129 28.7101 32.232 28.3412 31.6444C27.9767 31.0658 27.479 30.6586 26.967 30.3662C26.0336 29.8329 24.8603 29.5822 23.935 29.384L23.8345 29.3626C22.7741 29.1351 21.9999 28.9564 21.4674 28.6515C21.2301 28.5164 21.1021 28.3875 21.0283 28.2693C20.9599 28.1609 20.8887 27.9849 20.8887 27.6666C20.8887 27.2524 21.0416 26.9929 21.327 26.7751C21.6621 26.5191 22.2123 26.312 22.9439 26.2266C23.6835 26.1467 24.4313 26.1869 25.1581 26.3458C25.887 26.5058 26.4256 26.7546 26.7207 26.992C26.9965 27.2135 27.3489 27.3164 27.7004 27.278C27.8745 27.259 28.0431 27.2059 28.1967 27.1218C28.3503 27.0376 28.4857 26.9241 28.5954 26.7875C28.7051 26.651 28.7868 26.4942 28.8359 26.3261C28.8849 26.1581 28.9004 25.9819 28.8814 25.8079C28.8625 25.6338 28.8094 25.4651 28.7252 25.3116C28.6411 25.158 28.5275 25.0225 28.391 24.9129C27.663 24.3289 26.6914 23.952 25.7287 23.7404C25.451 23.6799 25.1708 23.6319 24.8887 23.5964V22.6666Z" fill="#FF840A"/>
</svg>
