<svg width="48" height="48" viewBox="0 0 48 48" fill="none" xmlns="http://www.w3.org/2000/svg">
<path d="M4 18.2857V34.7143C4 35.8509 4.45153 36.941 5.25526 37.7447C6.05898 38.5485 7.14907 39 8.28571 39H39.7143C40.8509 39 41.941 38.5485 42.7447 37.7447C43.5485 36.941 44 35.8509 44 34.7143V18.2857H4Z" fill="#FFC56D"/>
<path fill-rule="evenodd" clip-rule="evenodd" d="M8.28571 9C7.14907 9 6.05898 9.45153 5.25526 10.2553C4.45153 11.059 4 12.1491 4 13.2857L4 18.2857H44V13.2857C44 12.1491 43.5485 11.059 42.7447 10.2553C41.941 9.45153 40.8509 9 39.7143 9H8.28571ZM31.1429 28.6429C30.6693 28.6429 30.2151 28.831 29.8802 29.1659C29.5453 29.5008 29.3571 29.955 29.3571 30.4286C29.3571 30.9022 29.5453 31.3564 29.8802 31.6913C30.2151 32.0261 30.6693 32.2143 31.1429 32.2143H35.4286C35.9022 32.2143 36.3564 32.0261 36.6913 31.6913C37.0261 31.3564 37.2143 30.9022 37.2143 30.4286C37.2143 29.955 37.0261 29.5008 36.6913 29.1659C36.3564 28.831 35.9022 28.6429 35.4286 28.6429H31.1429Z" fill="#FF840A"/>
</svg>
