<svg width="24" height="24" viewBox="0 0 24 24" fill="none" xmlns="http://www.w3.org/2000/svg">
<path d="M2 9.14286V17.3571C2 17.9255 2.22576 18.4705 2.62763 18.8724C3.02949 19.2742 3.57454 19.5 4.14286 19.5H19.8571C20.4255 19.5 20.9705 19.2742 21.3724 18.8724C21.7742 18.4705 22 17.9255 22 17.3571V9.14286H2Z" fill="#FFC56D"/>
<path fill-rule="evenodd" clip-rule="evenodd" d="M4.14286 4.5C3.57454 4.5 3.02949 4.72576 2.62763 5.12763C2.22576 5.52949 2 6.07454 2 6.64286L2 9.14286H22V6.64286C22 6.07454 21.7742 5.52949 21.3724 5.12763C20.9705 4.72576 20.4255 4.5 19.8571 4.5H4.14286ZM15.5714 14.3214C15.3346 14.3214 15.1075 14.4155 14.9401 14.5829C14.7726 14.7504 14.6786 14.9775 14.6786 15.2143C14.6786 15.4511 14.7726 15.6782 14.9401 15.8456C15.1075 16.0131 15.3346 16.1071 15.5714 16.1071H17.7143C17.9511 16.1071 18.1782 16.0131 18.3456 15.8456C18.5131 15.6782 18.6071 15.4511 18.6071 15.2143C18.6071 14.9775 18.5131 14.7504 18.3456 14.5829C18.1782 14.4155 17.9511 14.3214 17.7143 14.3214H15.5714Z" fill="#FF840A"/>
</svg>
