<svg width="44" height="43" viewBox="0 0 44 43" fill="none" xmlns="http://www.w3.org/2000/svg">
<path d="M26.9108 9.83337C26.654 9.83337 26.4093 9.83601 26.1766 9.84074C23.8469 9.88705 22.0675 11.4095 21.5434 13.5173C20.7566 13.5183 20.0277 13.5288 19.3541 13.5472C17.1817 13.6067 15.2903 14.3703 13.8478 15.6223H13.8293C12.8073 15.6223 11.9121 14.7613 11.9121 13.7609C11.9121 12.7605 12.8073 11.8995 13.8293 11.8995H13.8446C14.9203 11.9048 15.0698 12.4237 15.0698 12.5558C15.0698 12.7651 15.1529 12.9659 15.301 13.114C15.449 13.262 15.6498 13.3452 15.8592 13.3452C16.0685 13.3452 16.2693 13.262 16.4174 13.114C16.5654 12.9659 16.6486 12.7651 16.6486 12.5558C16.6486 11.2427 15.446 10.3207 13.8293 10.3207H13.8099C11.98 10.3312 10.3333 11.8406 10.3333 13.7609C10.3333 15.2429 11.3138 16.4796 12.6021 16.9722C11.5001 18.4673 10.8686 20.3561 10.8601 22.4401C10.8593 22.6313 10.8593 22.8225 10.8601 23.0138C10.8686 25.0678 11.4806 26.9408 12.5684 28.4364C12.3258 28.9762 12.0907 29.5194 11.8632 30.0658C11.4775 30.9909 11.7237 32.0914 12.56 32.7234C12.7884 32.896 13.0494 33.0813 13.2852 33.2165C13.5257 33.3544 13.8262 33.4886 14.0972 33.6002C15.0529 33.9949 16.1139 33.6633 16.7207 32.8813C16.9764 32.5513 17.2859 32.1461 17.6164 31.6993C18.1742 31.8203 18.7542 31.8903 19.3541 31.9066C20.0583 31.9261 20.8213 31.9366 21.6481 31.9366C22.4749 31.9366 23.238 31.9261 23.9421 31.9066C24.5265 31.8916 25.1083 31.8222 25.6798 31.6993C26.0103 32.1466 26.3198 32.5518 26.5756 32.8813C27.1823 33.6633 28.2433 33.9943 29.199 33.6002C29.4774 33.4887 29.7488 33.3604 30.0116 33.216C30.2473 33.0813 30.5078 32.896 30.7362 32.7234C31.573 32.0914 31.8188 30.9909 31.4335 30.0658C31.2441 29.6132 31.002 29.0458 30.7278 28.4364C31.2421 27.7269 31.6466 26.944 31.9277 26.114C32.0908 26.1261 32.2524 26.1351 32.4108 26.1408C33.5318 26.1808 34.3917 25.3251 34.4717 24.2652C34.5106 23.7542 34.5417 23.0722 34.5417 22.2007C34.5417 21.3292 34.5101 20.6471 34.4717 20.1361C34.3917 19.0757 33.5318 18.2205 32.4108 18.2605C32.1193 18.271 31.8172 18.2926 31.5104 18.3237C30.7825 16.8238 29.6537 15.5855 28.2265 14.7445C28.2212 13.171 28.0886 12.0926 27.9475 11.389C27.8957 11.1177 27.8271 10.8499 27.7423 10.587C27.7081 10.4848 27.6689 10.3843 27.6249 10.286L27.6207 10.277L27.6186 10.2733L27.6176 10.2712L27.617 10.2697C27.5515 10.1385 27.4506 10.0282 27.3259 9.95118C27.2012 9.87412 27.0574 9.83333 26.9108 9.83337Z" fill="#D1D1D1"/>
<path d="M26.3841 17.5961C26.8925 17.5961 27.305 18.0086 27.305 18.517V19.0433C27.3049 19.2875 27.2081 19.522 27.0355 19.6947C26.8628 19.8673 26.6283 19.9642 26.3841 19.9642C26.1399 19.9642 25.9054 19.8673 25.7327 19.6947C25.5601 19.522 25.4633 19.2875 25.4632 19.0433V18.517C25.4632 18.0086 25.8758 17.5961 26.3841 17.5961ZM20.2884 15.4906C20.392 15.4894 20.4949 15.5088 20.5911 15.5472C20.6874 15.5858 20.7757 15.6428 20.8499 15.7152C20.924 15.7876 20.983 15.874 21.0237 15.9691C21.0646 16.0644 21.086 16.1672 21.0872 16.2709C21.0897 16.48 21.0095 16.6817 20.8636 16.8314C20.7174 16.9812 20.5172 17.0671 20.3079 17.0697C20.0448 17.0729 19.7935 17.0771 19.553 17.0834C18.1922 17.1187 17.0694 17.6264 16.2874 18.4115C16.1389 18.5555 15.9396 18.6354 15.7327 18.6342C15.5257 18.6329 15.3277 18.5497 15.181 18.4037C15.0343 18.2577 14.9508 18.0599 14.9485 17.8529C14.9464 17.646 15.0249 17.4464 15.1683 17.2972C16.2534 16.2063 17.7712 15.55 19.512 15.5052C19.7598 15.4989 20.019 15.4938 20.2884 15.4906Z" fill="#B0B0B0"/>
</svg>