<svg width="375" height="50" viewBox="0 0 375 50" fill="none" xmlns="http://www.w3.org/2000/svg">
<path d="M37.7666 25.7231C38.4085 25.7231 39.0173 25.8421 39.5928 26.0801C40.1683 26.3125 40.6774 26.6777 41.1201 27.1758C41.5684 27.6683 41.9198 28.3019 42.1743 29.0767C42.4289 29.8459 42.5562 30.7728 42.5562 31.8574V31.874C42.5562 33.2188 42.3625 34.3698 41.9751 35.3271C41.5877 36.2845 41.0316 37.0205 40.3066 37.5352C39.5872 38.0443 38.7267 38.2988 37.7251 38.2988C36.9891 38.2988 36.325 38.166 35.7329 37.9004C35.1463 37.6292 34.6593 37.2585 34.272 36.7881C33.8901 36.3122 33.6328 35.7699 33.5 35.1611L33.4834 35.0698H35.5835L35.6167 35.1528C35.7218 35.4295 35.8713 35.673 36.0649 35.8833C36.2642 36.0936 36.5021 36.2568 36.7788 36.373C37.061 36.4837 37.3765 36.5391 37.7251 36.5391C38.356 36.5391 38.8706 36.3537 39.269 35.9829C39.673 35.6066 39.9746 35.1058 40.1738 34.4805C40.3786 33.8496 40.4948 33.1523 40.5225 32.3887C40.528 32.3057 40.5308 32.2254 40.5308 32.1479C40.5308 32.0649 40.5308 31.9847 40.5308 31.9072L40.1572 29.9067C40.1572 29.453 40.0521 29.0407 39.8418 28.6699C39.6315 28.2992 39.3465 28.0059 38.9868 27.79C38.6326 27.5742 38.2314 27.4663 37.7832 27.4663C37.3516 27.4663 36.9559 27.5715 36.5962 27.7817C36.2365 27.992 35.9487 28.2798 35.7329 28.645C35.5171 29.0047 35.4092 29.4087 35.4092 29.8569V29.8735C35.4092 30.3384 35.5116 30.7507 35.7163 31.1104C35.9211 31.4645 36.2005 31.744 36.5547 31.9487C36.9089 32.1535 37.3128 32.2559 37.7666 32.2559C38.2204 32.2559 38.6271 32.1562 38.9868 31.957C39.3465 31.7578 39.6315 31.4811 39.8418 31.127C40.0521 30.7728 40.1572 30.3716 40.1572 29.9233V29.9067H40.6553V32.1147H40.3647C40.2209 32.4302 40.0078 32.7235 39.7256 32.9946C39.4434 33.2658 39.0947 33.4844 38.6797 33.6504C38.2702 33.8164 37.7887 33.8994 37.2354 33.8994C36.4717 33.8994 35.7965 33.7279 35.21 33.3848C34.6234 33.0417 34.1613 32.5713 33.8237 31.9736C33.4917 31.376 33.3257 30.7008 33.3257 29.9482V29.9316C33.3257 29.1182 33.5138 28.396 33.8901 27.7651C34.272 27.1287 34.7977 26.6307 35.4673 26.271C36.1424 25.9058 36.9089 25.7231 37.7666 25.7231ZM46.3247 36.3896C45.9484 36.3896 45.633 36.2651 45.3784 36.0161C45.1294 35.7616 45.0049 35.4517 45.0049 35.0864C45.0049 34.7157 45.1294 34.4058 45.3784 34.1567C45.633 33.9022 45.9484 33.7749 46.3247 33.7749C46.7065 33.7749 47.022 33.9022 47.271 34.1567C47.52 34.4058 47.6445 34.7157 47.6445 35.0864C47.6445 35.4517 47.52 35.7616 47.271 36.0161C47.022 36.2651 46.7065 36.3896 46.3247 36.3896ZM46.3247 30.2305C45.9484 30.2305 45.633 30.106 45.3784 29.8569C45.1294 29.6024 45.0049 29.2925 45.0049 28.9272C45.0049 28.5565 45.1294 28.2466 45.3784 27.9976C45.633 27.743 45.9484 27.6157 46.3247 27.6157C46.7065 27.6157 47.022 27.743 47.271 27.9976C47.52 28.2466 47.6445 28.5565 47.6445 28.9272C47.6445 29.2925 47.52 29.6024 47.271 29.8569C47.022 30.106 46.7065 30.2305 46.3247 30.2305ZM55.9038 38V35.7007H50.0435V33.9492C50.3589 33.4124 50.6743 32.8729 50.9897 32.3306C51.3107 31.7882 51.6344 31.2487 51.9609 30.7119C52.293 30.1696 52.6222 29.6356 52.9487 29.1099C53.2808 28.5786 53.61 28.0557 53.9365 27.541C54.2686 27.0208 54.6006 26.5145 54.9326 26.022H57.9458V33.9326H59.5645V35.7007H57.9458V38H55.9038ZM52.0356 33.9824H55.937V27.7319H55.8125C55.569 28.1082 55.3172 28.4956 55.0571 28.894C54.8026 29.2925 54.5452 29.6992 54.2852 30.1143C54.0251 30.5293 53.7677 30.9471 53.5132 31.3677C53.2586 31.7827 53.0068 32.2005 52.7578 32.6211C52.5088 33.0361 52.2681 33.4484 52.0356 33.8579V33.9824ZM64.52 38V28.1304H64.3706L61.3906 30.2305V28.2217L64.52 26.022H66.6533V38H64.52Z" fill="black"/>
<path fill-rule="evenodd" clip-rule="evenodd" d="M290.53 27.033C290.53 26.4 290.053 25.8868 289.464 25.8868H288.397C287.808 25.8868 287.33 26.4 287.33 27.033V36.967C287.33 37.6 287.808 38.1132 288.397 38.1132H289.464C290.053 38.1132 290.53 37.6 290.53 36.967V27.033ZM283.096 28.3321H284.163C284.752 28.3321 285.23 28.8576 285.23 29.5058V36.9395C285.23 37.5877 284.752 38.1132 284.163 38.1132H283.096C282.507 38.1132 282.03 37.5877 282.03 36.9395V29.5058C282.03 28.8576 282.507 28.3321 283.096 28.3321ZM278.764 30.9811H277.698C277.109 30.9811 276.631 31.5133 276.631 32.1698V36.9245C276.631 37.581 277.109 38.1132 277.698 38.1132H278.764C279.354 38.1132 279.831 37.581 279.831 36.9245V32.1698C279.831 31.5133 279.354 30.9811 278.764 30.9811ZM273.464 33.4264H272.397C271.808 33.4264 271.33 33.951 271.33 34.5981V36.9415C271.33 37.5886 271.808 38.1132 272.397 38.1132H273.464C274.053 38.1132 274.53 37.5886 274.53 36.9415V34.5981C274.53 33.951 274.053 33.4264 273.464 33.4264Z" fill="black"/>
<path fill-rule="evenodd" clip-rule="evenodd" d="M307.102 28.3022C309.589 28.3023 311.981 29.2243 313.783 30.8778C313.919 31.0055 314.136 31.0039 314.27 30.8742L315.567 29.6107C315.635 29.545 315.672 29.4559 315.672 29.3632C315.671 29.2705 315.633 29.1819 315.564 29.1169C310.833 24.7422 303.369 24.7422 298.638 29.1169C298.57 29.1819 298.531 29.2705 298.53 29.3632C298.53 29.4558 298.567 29.5449 298.635 29.6107L299.933 30.8742C300.066 31.0041 300.284 31.0057 300.419 30.8778C302.222 29.2242 304.614 28.3022 307.102 28.3022ZM307.098 32.5224C308.456 32.5223 309.764 33.0341 310.771 33.9582C310.907 34.0894 311.121 34.0865 311.254 33.9518L312.541 32.6325C312.609 32.5633 312.646 32.4694 312.645 32.3719C312.644 32.2743 312.605 32.1812 312.536 32.1134C309.472 29.2226 304.727 29.2226 301.663 32.1134C301.594 32.1812 301.555 32.2744 301.554 32.3719C301.553 32.4695 301.591 32.5634 301.658 32.6325L302.945 33.9518C303.078 34.0865 303.292 34.0894 303.429 33.9582C304.434 33.0347 305.742 32.523 307.098 32.5224ZM309.623 35.316C309.625 35.4213 309.588 35.5229 309.52 35.5967L307.344 38.0514C307.28 38.1236 307.193 38.1642 307.102 38.1642C307.011 38.1642 306.924 38.1236 306.86 38.0514L304.683 35.5967C304.616 35.5229 304.579 35.4212 304.581 35.3159C304.583 35.2105 304.624 35.1108 304.694 35.0402C306.084 33.7263 308.12 33.7263 309.51 35.0402C309.58 35.1108 309.621 35.2106 309.623 35.316Z" fill="black"/>
<rect opacity="0.35" x="324.172" y="26" width="24" height="12" rx="3.8" stroke="black"/>
<path opacity="0.4" d="M349.672 30.2811V34.3566C350.477 34.0114 351 33.2085 351 32.3189C351 31.4293 350.477 30.6263 349.672 30.2811Z" fill="black"/>
<rect x="325.672" y="27.5" width="21" height="9" rx="2.5" fill="black"/>
</svg>
