<svg width="24" height="24" viewBox="0 0 24 24" fill="none" xmlns="http://www.w3.org/2000/svg">
<path fill-rule="evenodd" clip-rule="evenodd" d="M10.9891 17.4495C11.718 17.4688 12.447 17.4674 13.1789 17.445C13.1927 17.5166 13.1997 17.5893 13.1998 17.6622V21.0571C13.1998 21.353 13.0822 21.6368 12.873 21.8461C12.6637 22.0553 12.3799 22.1728 12.084 22.1728C11.7881 22.1728 11.5043 22.0553 11.2951 21.8461C11.0858 21.6368 10.9683 21.353 10.9683 21.0571V17.6622C10.9683 17.5893 10.9742 17.5179 10.9876 17.4495H10.9891Z" fill="#379590"/>
<path fill-rule="evenodd" clip-rule="evenodd" d="M12.1661 1.86622C12.1146 1.84054 12.0578 1.82718 12.0002 1.82718C11.9427 1.82718 11.8859 1.84054 11.8344 1.86622C9.25474 3.15156 6.92059 5.47232 5.65458 8.1174C5.57601 8.2796 5.54586 8.46101 5.56776 8.6399C5.58966 8.8188 5.66268 8.98758 5.77806 9.12604C5.89183 9.26132 6.0343 9.36956 6.19513 9.4429C6.35596 9.51624 6.53111 9.55283 6.70785 9.55002H7.46954C7.67781 9.55002 7.81319 9.65416 7.87121 9.76425C7.92923 9.86838 7.92625 9.98888 7.82658 10.1005C6.41776 11.6625 5.43143 13.0788 4.14014 15.3043C3.74888 15.9782 4.2294 16.7072 4.93306 16.8307C9.73228 17.6742 14.2697 17.6742 19.0674 16.8307C19.7711 16.7072 20.2516 15.9782 19.8603 15.3043C18.569 13.0788 17.5842 11.6625 16.1754 10.1005C16.0757 9.98888 16.0712 9.86838 16.1278 9.76425C16.1873 9.65416 16.3212 9.55002 16.5309 9.55002H17.2926C17.4694 9.55283 17.6445 9.51624 17.8053 9.4429C17.9662 9.36956 18.1086 9.26132 18.2224 9.12604C18.338 8.98767 18.4111 8.81887 18.433 8.63994C18.4549 8.461 18.4246 8.27955 18.3459 8.1174C17.0799 5.47232 14.7472 3.15156 12.1661 1.86622Z" fill="#ADE2DC"/>
</svg>
