<svg width="16" height="16" viewBox="0 0 16 16" fill="none" xmlns="http://www.w3.org/2000/svg">
<path fill-rule="evenodd" clip-rule="evenodd" d="M8 3.59778C7.55022 3.59778 6.74044 3.6206 5.78044 3.68996V2.65842C5.78044 2.4838 5.71021 2.31633 5.58518 2.19285C5.46016 2.06937 5.29059 2 5.11378 2C4.93697 2 4.7674 2.06937 4.64237 2.19285C4.51735 2.31633 4.44711 2.4838 4.44711 2.65842V3.81901C3.83035 3.93324 3.26855 4.24413 2.84788 4.70401C2.4272 5.16388 2.17088 5.74734 2.11822 6.36491C2.04755 7.17461 2.00811 7.98667 2 8.79933C2 9.23476 2.02756 10.1864 2.11822 11.2329C2.17512 11.8935 2.4646 12.5135 2.93636 12.9852C3.40811 13.4569 4.0323 13.7504 4.70044 13.8148C6.11378 13.9579 7.38933 14 8 14C8.61067 14 9.88622 13.9579 11.2996 13.8156C11.9678 13.7513 12.5921 13.4576 13.0639 12.9858C13.5357 12.5139 13.8251 11.8936 13.8818 11.2329C13.9524 10.4235 13.9919 9.61169 14 8.79933C14 8.36389 13.9724 7.41137 13.8818 6.36404C13.829 5.74545 13.5718 5.16113 13.1499 4.70097C12.728 4.24082 12.1647 3.93032 11.5467 3.81725V2.65842C11.5467 2.4838 11.4764 2.31633 11.3514 2.19285C11.2264 2.06937 11.0568 2 10.88 2C10.7032 2 10.5336 2.06937 10.4086 2.19285C10.2836 2.31633 10.2133 2.4838 10.2133 2.65842V3.68908C9.4768 3.63415 8.73861 3.60369 8 3.59778Z" fill="#ADE2DC"/>
<path fill-rule="evenodd" clip-rule="evenodd" d="M4.3335 7.31041C4.3335 7.00753 4.58238 6.76172 4.88905 6.76172H5.3335C5.48084 6.76172 5.62215 6.81953 5.72633 6.92243C5.83052 7.02532 5.88905 7.16488 5.88905 7.31041C5.88905 7.45593 5.83052 7.59549 5.72633 7.69839C5.62215 7.80128 5.48084 7.85909 5.3335 7.85909H4.88905C4.74171 7.85909 4.6004 7.80128 4.49621 7.69839C4.39203 7.59549 4.3335 7.45593 4.3335 7.31041ZM4.3335 9.9441C4.3335 9.64123 4.58238 9.39542 4.88905 9.39542H5.3335C5.48084 9.39542 5.62215 9.45322 5.72633 9.55612C5.83052 9.65902 5.88905 9.79858 5.88905 9.9441C5.88905 10.0896 5.83052 10.2292 5.72633 10.3321C5.62215 10.435 5.48084 10.4928 5.3335 10.4928H4.88905C4.74171 10.4928 4.6004 10.435 4.49621 10.3321C4.39203 10.2292 4.3335 10.0896 4.3335 9.9441ZM7.77794 6.7626C7.6306 6.7626 7.48929 6.8204 7.3851 6.9233C7.28092 7.0262 7.22238 7.16576 7.22238 7.31128C7.22238 7.4568 7.28092 7.59636 7.3851 7.69926C7.48929 7.80216 7.6306 7.85997 7.77794 7.85997H8.22238C8.36973 7.85997 8.51103 7.80216 8.61522 7.69926C8.71941 7.59636 8.77794 7.4568 8.77794 7.31128C8.77794 7.16576 8.71941 7.0262 8.61522 6.9233C8.51103 6.8204 8.36973 6.7626 8.22238 6.7626H7.77794ZM10.1113 7.31128C10.1113 7.00841 10.3602 6.7626 10.6668 6.7626H11.1113C11.2586 6.7626 11.3999 6.8204 11.5041 6.9233C11.6083 7.0262 11.6668 7.16576 11.6668 7.31128C11.6668 7.4568 11.6083 7.59636 11.5041 7.69926C11.3999 7.80216 11.2586 7.85997 11.1113 7.85997H10.6668C10.5195 7.85997 10.3782 7.80216 10.274 7.69926C10.1698 7.59636 10.1113 7.4568 10.1113 7.31128ZM7.77794 9.39629C7.6306 9.39629 7.48929 9.4541 7.3851 9.557C7.28092 9.6599 7.22238 9.79946 7.22238 9.94498C7.22238 10.0905 7.28092 10.2301 7.3851 10.333C7.48929 10.4359 7.6306 10.4937 7.77794 10.4937H8.22238C8.36973 10.4937 8.51103 10.4359 8.61522 10.333C8.71941 10.2301 8.77794 10.0905 8.77794 9.94498C8.77794 9.79946 8.71941 9.6599 8.61522 9.557C8.51103 9.4541 8.36973 9.39629 8.22238 9.39629H7.77794Z" fill="#379590"/>
</svg>
