<svg width="16" height="16" viewBox="0 0 16 16" fill="none" xmlns="http://www.w3.org/2000/svg">
<path fill-rule="evenodd" clip-rule="evenodd" d="M8.01141 0.973027C8.79025 0.9305 9.49297 0.9305 10.2718 0.973027C10.6318 0.992684 10.9292 1.27006 10.9845 1.63776C11.0644 2.16965 11.0644 2.66072 10.9845 3.19261C10.9292 3.56031 10.6318 3.83769 10.2718 3.85734C9.74788 3.88595 9.2584 3.89531 8.75703 3.88543V5.49716C8.75703 5.91486 8.41842 6.25347 8.00072 6.25347C7.58302 6.25347 7.24441 5.91486 7.24441 5.49716V2.73798C7.24441 2.72037 7.24501 2.70291 7.2462 2.6856C7.22717 2.33816 7.2447 1.99728 7.29875 1.63776C7.35404 1.27006 7.65142 0.992684 8.01141 0.973027Z" fill="#379590"/>
<path fill-rule="evenodd" clip-rule="evenodd" d="M2.71634 8.62048C2.71003 8.62048 2.70373 8.62059 2.69743 8.62084C1.90428 8.65059 1.20782 9.22659 1.09631 10.043C0.995491 10.7811 0.940918 11.2797 0.940918 11.786C0.940918 12.2923 0.995491 12.7909 1.09631 13.529C1.20782 14.3454 1.90428 14.9214 2.69743 14.9512C6.52279 15.0948 9.47674 15.0948 13.3021 14.9512C14.0952 14.9214 14.7917 14.3454 14.9033 13.529C15.004 12.7909 15.0586 12.2923 15.0586 11.786C15.0586 11.2797 15.004 10.7811 14.9033 10.043C14.7917 9.22659 14.0952 8.65059 13.3021 8.62084C13.2958 8.62059 13.2895 8.62048 13.2832 8.62048H2.71634Z" fill="#379590"/>
<path fill-rule="evenodd" clip-rule="evenodd" d="M11.7926 9.03378C11.7773 8.72356 11.7582 8.40633 11.7353 8.07848C11.6257 5.83699 9.74947 4.75987 8.00261 4.75779C7.12178 4.75674 6.2218 5.02064 5.51969 5.57436C4.80828 6.13538 4.32191 6.97857 4.2683 8.07219C4.24524 8.40226 4.226 8.72158 4.21058 9.03379C4.21014 9.04275 4.20993 9.05173 4.20996 9.06071L4.23213 14.5215C4.23324 14.7955 4.45291 15.0184 4.72683 15.0236C7.28744 15.0718 8.71286 15.0685 11.2721 15.0236C11.546 15.0187 11.7661 14.7959 11.7674 14.5218L11.7932 9.06104C11.7933 9.05194 11.7931 9.04285 11.7926 9.03378Z" fill="#ADE2DC"/>
<path fill-rule="evenodd" clip-rule="evenodd" d="M9.00697 15.0542C9.00702 15.0501 9.00706 15.0459 9.00706 15.0417V12.9575C9.00706 12.4006 8.55558 11.9491 7.99864 11.9491C7.44172 11.9491 6.99023 12.4006 6.99023 12.9575V15.0417C6.99023 15.0462 6.99026 15.0506 6.99032 15.0549C7.67673 15.06 8.32082 15.0596 9.00697 15.0542Z" fill="#379590"/>
<path d="M7.99984 9.70037C8.71098 9.70037 9.11101 9.28747 9.11101 8.55346C9.11101 7.81944 8.71098 7.40656 7.99984 7.40656C7.28869 7.40656 6.88867 7.81944 6.88867 8.55346C6.88867 9.28747 7.28869 9.70037 7.99984 9.70037Z" fill="#379590"/>
</svg>
