<svg width="24" height="24" viewBox="0 0 24 24" fill="none" xmlns="http://www.w3.org/2000/svg">
<path fill-rule="evenodd" clip-rule="evenodd" d="M11.8764 4.66296C11.136 4.66296 9.80306 4.701 8.22284 4.81659V3.09737C8.22284 2.80633 8.10722 2.52721 7.90143 2.32141C7.69563 2.11562 7.41651 2 7.12547 2C6.83442 2 6.5553 2.11562 6.34951 2.32141C6.14371 2.52721 6.02809 2.80633 6.02809 3.09737V5.03168C5.01286 5.22207 4.08811 5.74022 3.39566 6.50668C2.70321 7.27313 2.28128 8.24557 2.1946 9.27486C2.07827 10.6243 2.01335 11.9778 2 13.3322C2 14.0579 2.04536 15.644 2.1946 17.3881C2.28826 18.4891 2.76477 19.5225 3.5413 20.3087C4.31783 21.0949 5.3453 21.5841 6.4451 21.6913C8.77153 21.9298 10.8712 22 11.8764 22C12.8816 22 14.9812 21.9298 17.3076 21.6927C18.4077 21.5855 19.4353 21.0961 20.2119 20.3096C20.9884 19.5232 21.4648 18.4894 21.5581 17.3881C21.6745 16.0391 21.7394 14.6862 21.7527 13.3322C21.7527 12.6065 21.7074 11.0189 21.5581 9.27339C21.4712 8.24241 21.0479 7.26854 20.3534 6.50162C19.659 5.7347 18.7317 5.2172 17.7144 5.02875V3.09737C17.7144 2.80633 17.5988 2.52721 17.393 2.32141C17.1872 2.11562 16.9081 2 16.617 2C16.326 2 16.0469 2.11562 15.8411 2.32141C15.6353 2.52721 15.5196 2.80633 15.5196 3.09737V4.81513C14.3073 4.72358 13.0922 4.67282 11.8764 4.66296Z" fill="#ADE2DC"/>
<path fill-rule="evenodd" clip-rule="evenodd" d="M5.84131 10.8507C5.84131 10.3459 6.25099 9.93622 6.75579 9.93622H7.48737C7.7299 9.93622 7.9625 10.0326 8.134 10.2041C8.3055 10.3756 8.40185 10.6082 8.40185 10.8507C8.40185 11.0932 8.3055 11.3258 8.134 11.4973C7.9625 11.6688 7.7299 11.7652 7.48737 11.7652H6.75579C6.51325 11.7652 6.28065 11.6688 6.10915 11.4973C5.93766 11.3258 5.84131 11.0932 5.84131 10.8507ZM5.84131 15.2402C5.84131 14.7354 6.25099 14.3257 6.75579 14.3257H7.48737C7.7299 14.3257 7.9625 14.4221 8.134 14.5936C8.3055 14.7651 8.40185 14.9977 8.40185 15.2402C8.40185 15.4827 8.3055 15.7153 8.134 15.8868C7.9625 16.0583 7.7299 16.1547 7.48737 16.1547H6.75579C6.51325 16.1547 6.28065 16.0583 6.10915 15.8868C5.93766 15.7153 5.84131 15.4827 5.84131 15.2402ZM11.5111 9.93768C11.2685 9.93768 11.0359 10.034 10.8644 10.2055C10.6929 10.377 10.5966 10.6096 10.5966 10.8522C10.5966 11.0947 10.6929 11.3273 10.8644 11.4988C11.0359 11.6703 11.2685 11.7666 11.5111 11.7666H12.2427C12.4852 11.7666 12.7178 11.6703 12.8893 11.4988C13.0608 11.3273 13.1571 11.0947 13.1571 10.8522C13.1571 10.6096 13.0608 10.377 12.8893 10.2055C12.7178 10.034 12.4852 9.93768 12.2427 9.93768H11.5111ZM15.3519 10.8522C15.3519 10.3474 15.7616 9.93768 16.2664 9.93768H16.9979C17.2405 9.93768 17.4731 10.034 17.6446 10.2055C17.8161 10.377 17.9124 10.6096 17.9124 10.8522C17.9124 11.0947 17.8161 11.3273 17.6446 11.4988C17.4731 11.6703 17.2405 11.7666 16.9979 11.7666H16.2664C16.0238 11.7666 15.7912 11.6703 15.6197 11.4988C15.4482 11.3273 15.3519 11.0947 15.3519 10.8522ZM11.5111 14.3272C11.2685 14.3272 11.0359 14.4235 10.8644 14.595C10.6929 14.7665 10.5966 14.9991 10.5966 15.2417C10.5966 15.4842 10.6929 15.7168 10.8644 15.8883C11.0359 16.0598 11.2685 16.1561 11.5111 16.1561H12.2427C12.4852 16.1561 12.7178 16.0598 12.8893 15.8883C13.0608 15.7168 13.1571 15.4842 13.1571 15.2417C13.1571 14.9991 13.0608 14.7665 12.8893 14.595C12.7178 14.4235 12.4852 14.3272 12.2427 14.3272H11.5111Z" fill="#379590"/>
</svg>
