<svg width="16" height="16" viewBox="0 0 16 16" fill="none" xmlns="http://www.w3.org/2000/svg">
<path fill-rule="evenodd" clip-rule="evenodd" d="M11.2105 2.01597C12.0042 1.94233 12.8008 2.12477 13.4766 2.53497C14.1524 2.94517 14.6695 3.56017 14.9478 4.2845C15.0394 4.57186 15.0096 4.88267 14.8652 5.14882C14.7207 5.41496 14.4733 5.61473 14.1771 5.70435L10.6607 6.81046L10.4398 6.88085L9.81535 8.95129C9.78353 9.06796 9.72132 9.17473 9.63467 9.26137C9.54803 9.348 9.43986 9.41159 9.32056 9.44603L7.73662 9.94478C7.60925 9.99559 7.46999 10.0118 7.33384 9.99154C7.1977 9.97132 7.06981 9.91549 6.96397 9.83005C6.85812 9.74461 6.77832 9.6328 6.73315 9.50666C6.68798 9.38052 6.67916 9.24483 6.70763 9.11419L6.95036 7.96786L3.7161 8.98045C3.57313 9.03101 3.42124 9.0536 3.26921 9.04689C3.11717 9.04019 2.96802 9.00434 2.83038 8.94141C2.69273 8.87848 2.56932 8.78971 2.46728 8.68026C2.36524 8.5708 2.28659 8.44282 2.23589 8.30371L2.23382 8.29768L1.03057 4.67768L1.02745 4.66963C0.976376 4.49604 0.997097 4.30999 1.08522 4.15097C1.17334 3.99195 1.32192 3.87248 1.49942 3.81792L2.9205 3.37548C3.07055 3.33013 3.23268 3.3325 3.38124 3.38226C3.5298 3.43201 3.65804 3.52654 3.74722 3.65201L4.59779 4.95722L9.73236 2.47852C10.1847 2.22248 10.6891 2.06466 11.2105 2.01597Z" fill="#ADE2DC"/>
<path fill-rule="evenodd" clip-rule="evenodd" d="M12 13C12 12.7348 11.9397 12.4804 11.8324 12.2929C11.7252 12.1054 11.5796 12 11.4279 12H4.57208C4.42036 12 4.27485 12.1054 4.16756 12.2929C4.06027 12.4804 4 12.7348 4 13C4 13.2652 4.06027 13.5196 4.16756 13.7071C4.27485 13.8946 4.42036 14 4.57208 14H11.4279C11.5796 14 11.7252 13.8946 11.8324 13.7071C11.9397 13.5196 12 13.2652 12 13Z" fill="#379590"/>
</svg>
