<svg width="70" height="70" viewBox="0 0 70 70" fill="none" xmlns="http://www.w3.org/2000/svg">
<path fill-rule="evenodd" clip-rule="evenodd" d="M47.911 11.3842C51.1029 11.0787 54.3063 11.8356 57.024 13.5373C59.7416 15.239 61.8215 17.7903 62.9407 20.7952C63.3087 21.9873 63.1891 23.2766 62.6081 24.3807C62.0272 25.4848 61.0322 26.3136 59.8413 26.6853L45.7001 31.274L44.8116 31.566L42.3004 40.1551C42.1725 40.6391 41.9223 41.0821 41.5738 41.4415C41.2254 41.8009 40.7904 42.0647 40.3106 42.2075L33.9408 44.2766C33.4286 44.4874 32.8686 44.5544 32.3211 44.4706C31.7736 44.3867 31.2593 44.1551 30.8336 43.8006C30.408 43.4462 30.087 42.9824 29.9054 42.4591C29.7238 41.9358 29.6883 41.3729 29.8028 40.8309L30.7789 36.0754L17.7724 40.2761C17.1974 40.4859 16.5866 40.5795 15.9752 40.5517C15.3638 40.5239 14.764 40.3752 14.2104 40.1141C13.6569 39.8531 13.1606 39.4848 12.7502 39.0308C12.3399 38.5767 12.0236 38.0458 11.8197 37.4687L11.8114 37.4437L6.97253 22.4262L6.96001 22.3928C6.75461 21.6727 6.83794 20.9009 7.19231 20.2412C7.54668 19.5815 8.1442 19.0859 8.85802 18.8596L14.5729 17.0241C15.1763 16.836 15.8283 16.8458 16.4257 17.0522C17.0232 17.2586 17.5389 17.6508 17.8975 18.1713L21.3181 23.5859L41.9667 13.3031C43.7859 12.2409 45.8141 11.5862 47.911 11.3842Z" fill="#ADE2DC"/>
<path fill-rule="evenodd" clip-rule="evenodd" d="M64.1668 54.5105C64.1668 53.4041 63.7273 52.3431 62.945 51.5608C62.1627 50.7785 61.1017 50.339 59.9954 50.339H10.0049C8.8986 50.339 7.83758 50.7785 7.05528 51.5608C6.27299 52.3431 5.8335 53.4041 5.8335 54.5105C5.8335 55.6169 6.27299 56.6779 7.05528 57.4602C7.83758 58.2425 8.8986 58.682 10.0049 58.682H59.9954C61.1017 58.682 62.1627 58.2425 62.945 57.4602C63.7273 56.6779 64.1668 55.6169 64.1668 54.5105Z" fill="#379590"/>
</svg>
