<svg width="34" height="34" viewBox="0 0 34 34" fill="none" xmlns="http://www.w3.org/2000/svg">
<path fill-rule="evenodd" clip-rule="evenodd" d="M14.8853 3.67445C15.4617 3.23688 16.1654 3 16.8891 3C17.6128 3 18.3165 3.23688 18.8929 3.67445L20.351 4.78129C24.6353 8.03518 28.3055 12.0264 31.1897 16.5677L31.6558 17.3034C31.8679 17.6374 31.9864 18.0223 31.9989 18.4177C32.0114 18.8132 31.9175 19.2047 31.727 19.5515C31.5364 19.8982 31.2563 20.1875 30.9157 20.3889C30.5752 20.5904 30.1869 20.6968 29.7912 20.6968H28.2646C28.353 22.7294 28.2425 24.7641 27.9332 26.7767C27.6239 28.7783 25.9007 30.2541 23.877 30.2541H9.90119C7.8753 30.2541 6.15428 28.7783 5.84719 26.779C5.53789 24.7641 5.42743 22.7272 5.5158 20.6968H3.98698C3.59133 20.6968 3.20296 20.5904 2.86245 20.3889C2.52194 20.1875 2.24178 19.8982 2.05125 19.5515C1.86071 19.2047 1.7668 18.8132 1.77931 18.4177C1.79182 18.0223 1.9103 17.6374 2.12237 17.3034L2.58852 16.5677C5.4727 12.0264 9.14294 8.03518 13.4272 4.78129L14.8853 3.67445Z" fill="#ADE2DC"/>
<path fill-rule="evenodd" clip-rule="evenodd" d="M14.1277 30.2541V22.9724C14.1277 22.24 14.4187 21.5376 14.9366 21.0197C15.4545 20.5018 16.1569 20.2108 16.8893 20.2108C17.6217 20.2108 18.3241 20.5018 18.842 21.0197C19.3599 21.5376 19.6509 22.24 19.6509 22.9724V30.2541H14.1277Z" fill="#379590"/>
</svg>
