<svg width="70" height="70" viewBox="0 0 70 70" fill="none" xmlns="http://www.w3.org/2000/svg">
<path fill-rule="evenodd" clip-rule="evenodd" d="M30.9585 13.9786C32.1072 13.0391 33.5329 12.5398 34.995 12.565C36.5984 12.565 38.0419 13.1215 39.0315 13.9786C39.9996 14.8178 40.3972 15.8095 40.3972 16.6846V18.7264C36.7964 18.6223 33.1936 18.6223 29.5928 18.7264V16.6846C29.5928 15.8095 29.9904 14.8178 30.9585 13.9786ZM23.1102 19.0046V16.6846C23.1102 13.5882 24.5364 10.7745 26.8053 8.80901C29.1193 6.85925 32.0151 5.80725 34.995 5.8338C37.977 5.8338 40.9288 6.85246 43.1847 8.80901C45.4537 10.7745 46.8798 13.5927 46.8798 16.6846V19.0225C49.3043 19.1751 51.7029 19.3726 54.0755 19.6059C58.6523 20.0502 62.503 23.5773 63.2074 28.4149C63.8211 32.6062 64.1668 36.9635 64.1668 41.4062C64.1668 45.8218 63.7865 50.0984 63.1901 54.2359C62.4814 59.1362 58.5875 62.7621 53.92 63.2109C47.822 63.7943 41.5165 64.1667 34.995 64.1667C28.91 64.1667 22.9805 63.6417 17.3493 63.1481L16.3121 63.0583C11.6057 62.6455 7.44818 59.1093 6.73077 54.0205C5.52009 45.4838 5.53466 36.808 6.77398 28.2758C7.46546 23.5011 11.2772 20.0412 15.7848 19.5925C18.2229 19.351 20.6652 19.1565 23.1102 19.0091V19.0046Z" fill="#ADE2DC"/>
<path fill-rule="evenodd" clip-rule="evenodd" d="M23.0672 19.009C21.2648 19.1182 19.4639 19.2529 17.665 19.4129V63.1749C19.437 63.332 21.2348 63.4891 23.0672 63.6327V19.009ZM52.2823 63.3634C50.4974 63.5205 48.6952 63.6641 46.8801 63.7807V19.0225C48.6952 19.1392 50.4974 19.2738 52.2823 19.4353V63.3634Z" fill="#379590"/>
</svg>
