<svg width="24" height="24" viewBox="0 0 24 24" fill="none" xmlns="http://www.w3.org/2000/svg">
<path fill-rule="evenodd" clip-rule="evenodd" d="M14.4139 1H9.58594L6.58594 4L11.2929 8.707H12.7069L17.4139 4L14.4139 1Z" fill="#379590"/>
<path fill-rule="evenodd" clip-rule="evenodd" d="M12 9C10.4087 9 8.88258 9.63214 7.75736 10.7574C6.63214 11.8826 6 13.4087 6 15C6 16.5913 6.63214 18.1174 7.75736 19.2426C8.88258 20.3679 10.4087 21 12 21C13.5913 21 15.1174 20.3679 16.2426 19.2426C17.3679 18.1174 18 16.5913 18 15C18 13.4087 17.3679 11.8826 16.2426 10.7574C15.1174 9.63214 13.5913 9 12 9ZM4 15C4 12.8783 4.84285 10.8434 6.34315 9.34315C7.84344 7.84285 9.87827 7 12 7C14.1217 7 16.1566 7.84285 17.6569 9.34315C19.1571 10.8434 20 12.8783 20 15C20 17.1217 19.1571 19.1566 17.6569 20.6569C16.1566 22.1571 14.1217 23 12 23C9.87827 23 7.84344 22.1571 6.34315 20.6569C4.84285 19.1566 4 17.1217 4 15Z" fill="#ADE2DC"/>
</svg>
