<svg width="16" height="16" viewBox="0 0 16 16" fill="none" xmlns="http://www.w3.org/2000/svg">
<path fill-rule="evenodd" clip-rule="evenodd" d="M7.92913 1.70561C7.92913 1.50287 7.84859 1.30844 7.70523 1.16508C7.56188 1.02173 7.36745 0.941193 7.16471 0.941193C6.96198 0.941193 6.76754 1.02173 6.62419 1.16508C6.48083 1.30844 6.4003 1.50287 6.4003 1.70561V3.00613C6.4003 3.20887 6.48083 3.4033 6.62419 3.54665C6.76754 3.69001 6.96198 3.77055 7.16471 3.77055C7.36745 3.77055 7.56188 3.69001 7.70523 3.54665C7.84859 3.4033 7.92913 3.20887 7.92913 3.00613V1.70561ZM6.4003 8.5354C6.4003 8.33266 6.48083 8.13823 6.62419 7.99487C6.76754 7.85152 6.96198 7.77098 7.16471 7.77098C7.36745 7.77098 7.56188 7.85152 7.70523 7.99487C7.84859 8.13823 7.92913 8.33266 7.92913 8.5354V12.7081C7.91608 13.3459 7.65355 13.9532 7.19786 14.3997C6.74216 14.8461 6.12962 15.0962 5.49166 15.0962C4.8537 15.0962 4.24116 14.8461 3.78547 14.3997C3.32978 13.9532 3.06724 13.3459 3.0542 12.7081C3.0542 12.5053 3.13474 12.3109 3.27809 12.1676C3.42145 12.0242 3.61588 11.9437 3.81861 11.9437C4.02135 11.9437 4.21578 12.0242 4.35914 12.1676C4.50249 12.3109 4.58303 12.5053 4.58303 12.7081C4.58303 12.9491 4.67876 13.1802 4.84916 13.3506C5.01956 13.521 5.25068 13.6167 5.49166 13.6167C5.73265 13.6167 5.96376 13.521 6.13416 13.3506C6.30457 13.1802 6.4003 12.9491 6.4003 12.7081V8.5354Z" fill="#379590"/>
<path fill-rule="evenodd" clip-rule="evenodd" d="M2.53946 4.38408C3.75335 3.17121 5.47176 2.49649 7.17487 2.49649C8.87697 2.49649 10.5954 3.17121 11.8093 4.3851C12.0457 4.62156 12.2587 4.87433 12.4493 5.14136C12.0213 5.21393 11.6276 5.4212 11.3255 5.73302C11.0234 6.04484 10.8286 6.44492 10.7697 6.87506C9.80649 7.44786 9.16133 8.42223 9.13891 9.62389C8.47336 9.63408 7.83125 9.63408 7.17487 9.62695C5.82302 9.64439 4.47095 9.62195 3.12042 9.55968C2.79767 9.54711 2.48083 9.46928 2.18899 9.3309C1.89715 9.19251 1.63637 8.99643 1.4224 8.7545C1.20337 8.50741 1.05202 8.20783 0.983081 7.88492C0.914141 7.562 0.929952 7.22674 1.02898 6.91175C1.31877 5.9592 1.83736 5.09209 2.53946 4.38612V4.38408Z" fill="#ADE2DC"/>
<path fill-rule="evenodd" clip-rule="evenodd" d="M13.5545 7.15129C13.5545 6.94855 13.4739 6.75412 13.3306 6.61076C13.1872 6.46741 12.9928 6.38687 12.79 6.38687C12.5873 6.38687 12.3929 6.46741 12.2495 6.61076C12.1062 6.75412 12.0256 6.94855 12.0256 7.15129V7.7088C11.0309 7.99418 10.4132 8.76879 10.4132 9.68812C10.4132 10.0265 10.4876 10.3455 10.6558 10.6258C10.823 10.9061 11.0533 11.0977 11.2877 11.2302C11.6903 11.4585 12.1887 11.5502 12.5363 11.6144L12.5954 11.6246C13.0204 11.7041 13.264 11.7592 13.4179 11.8489C13.475 11.8835 13.4903 11.9059 13.4964 11.9161C13.5015 11.9263 13.5239 11.9671 13.5269 12.0731C13.5073 12.1018 13.4832 12.1273 13.4556 12.1485C13.3043 12.2643 13.1281 12.3432 12.9409 12.3789C12.4578 12.4849 11.9043 12.3931 11.5109 12.0344C11.3608 11.9 11.1637 11.8304 10.9625 11.8406C10.7614 11.8508 10.5723 11.94 10.4366 12.0888C10.3008 12.2376 10.2292 12.434 10.2375 12.6353C10.2457 12.8365 10.333 13.0264 10.4805 13.1637C10.9442 13.5866 11.4875 13.816 12.0256 13.9046V14.3806C12.0256 14.481 12.0454 14.5804 12.0838 14.6731C12.1222 14.7659 12.1785 14.8501 12.2495 14.9211C12.3205 14.9921 12.4048 15.0484 12.4975 15.0868C12.5903 15.1253 12.6897 15.145 12.79 15.145C12.8904 15.145 12.9898 15.1253 13.0826 15.0868C13.1753 15.0484 13.2596 14.9921 13.3306 14.9211C13.4016 14.8501 13.4579 14.7659 13.4963 14.6731C13.5347 14.5804 13.5545 14.481 13.5545 14.3806V13.7946C13.8806 13.6896 14.1894 13.5306 14.4422 13.3165C14.7663 13.0434 15.0558 12.6255 15.0558 12.0935C15.0558 11.752 14.9824 11.431 14.8183 11.1487C14.6667 10.8917 14.4506 10.6789 14.1915 10.531C13.7787 10.2884 13.2701 10.1947 12.9174 10.1294L12.8736 10.1213C12.4435 10.0418 12.1979 9.98879 12.0409 9.90012C11.9828 9.86751 11.9696 9.8461 11.9675 9.84101C11.9645 9.83591 11.9421 9.79922 11.9421 9.68812C11.9421 9.58212 11.9828 9.47001 12.0817 9.37217C12.1806 9.27432 12.3762 9.15813 12.732 9.12755C13.0398 9.10003 13.2905 9.19176 13.4739 9.29674C13.5643 9.34919 13.6484 9.41177 13.7247 9.48326L13.7287 9.48734C13.8651 9.63736 14.0555 9.72707 14.258 9.73672C14.4605 9.74637 14.6586 9.67518 14.8086 9.53881C14.9586 9.40243 15.0483 9.21205 15.058 9.00954C15.0676 8.80702 14.9965 8.60897 14.8601 8.45894L14.858 8.45691L14.856 8.45487L14.8509 8.44977L14.8387 8.4355C14.7874 8.38209 14.7336 8.33107 14.6776 8.28262C14.3517 8.004 13.9682 7.80107 13.5545 7.68841V7.15129Z" fill="#379590"/>
</svg>
