<svg width="70" height="70" viewBox="0 0 70 70" fill="none" xmlns="http://www.w3.org/2000/svg">
<path fill-rule="evenodd" clip-rule="evenodd" d="M34.6901 7.46199C34.6901 6.57502 34.3378 5.72438 33.7106 5.0972C33.0834 4.47002 32.2328 4.11768 31.3458 4.11768C30.4588 4.11768 29.6082 4.47002 28.981 5.0972C28.3538 5.72438 28.0015 6.57502 28.0015 7.46199V13.1518C28.0015 14.0387 28.3538 14.8894 28.981 15.5166C29.6082 16.1437 30.4588 16.4961 31.3458 16.4961C32.2328 16.4961 33.0834 16.1437 33.7106 15.5166C34.3378 14.8894 34.6901 14.0387 34.6901 13.1518V7.46199ZM28.0015 37.3423C28.0015 36.4554 28.3538 35.6047 28.981 34.9775C29.6082 34.3504 30.4588 33.998 31.3458 33.998C32.2328 33.998 33.0834 34.3504 33.7106 34.9775C34.3378 35.6047 34.6901 36.4554 34.6901 37.3423V55.5978C34.633 58.3883 33.4845 61.0452 31.4908 62.9985C29.4971 64.9518 26.8173 66.0459 24.0262 66.0459C21.2351 66.0459 18.5553 64.9518 16.5616 62.9985C14.568 61.0452 13.4194 58.3883 13.3623 55.5978C13.3623 54.7108 13.7147 53.8602 14.3418 53.233C14.969 52.6058 15.8197 52.2535 16.7066 52.2535C17.5936 52.2535 18.4442 52.6058 19.0714 53.233C19.6986 53.8602 20.0509 54.7108 20.0509 55.5978C20.0509 56.6521 20.4698 57.6633 21.2153 58.4088C21.9608 59.1543 22.9719 59.5731 24.0262 59.5731C25.0805 59.5731 26.0916 59.1543 26.8371 58.4088C27.5827 57.6633 28.0015 56.6521 28.0015 55.5978V37.3423Z" fill="#379590"/>
<path fill-rule="evenodd" clip-rule="evenodd" d="M11.1113 19.1804C16.4221 13.8741 23.9401 10.9222 31.3912 10.9222C38.8379 10.9222 46.3559 13.8741 51.6667 19.1849C52.7012 20.2194 53.6331 21.3252 54.467 22.4935C52.5943 22.811 50.8717 23.7178 49.55 25.082C48.2283 26.4462 47.3765 28.1966 47.1184 30.0784C42.9046 32.5844 40.082 36.8473 39.9839 42.1046C37.0721 42.1491 34.2629 42.1492 31.3912 42.1179C25.4769 42.1942 19.5615 42.0961 13.653 41.8236C12.241 41.7686 10.8548 41.4282 9.57798 40.8227C8.30119 40.2173 7.1603 39.3594 6.22415 38.301C5.2659 37.2199 4.60376 35.9093 4.30214 34.4966C4.00052 33.0838 4.0697 31.617 4.50294 30.2389C5.77079 26.0715 8.03962 22.2779 11.1113 19.1893V19.1804Z" fill="#ADE2DC"/>
<path fill-rule="evenodd" clip-rule="evenodd" d="M59.3003 31.2868C59.3003 30.3999 58.948 29.5492 58.3208 28.922C57.6936 28.2949 56.843 27.9425 55.956 27.9425C55.0691 27.9425 54.2184 28.2949 53.5912 28.922C52.9641 29.5492 52.6117 30.3999 52.6117 31.2868V33.7259C48.2596 34.9745 45.5574 38.3634 45.5574 42.3855C45.5574 43.8659 45.883 45.2616 46.6187 46.4878C47.35 47.7141 48.3577 48.5524 49.3833 49.1321C51.1447 50.1309 53.3252 50.5322 54.8457 50.8132L55.1043 50.8577C56.9638 51.2055 58.0295 51.4463 58.7028 51.8387C58.9525 51.9904 59.0194 52.0885 59.0462 52.133C59.0685 52.1776 59.1666 52.356 59.1799 52.8197C59.0939 52.9455 58.9886 53.0568 58.8678 53.1497C58.2059 53.6564 57.4348 54.0015 56.616 54.1575C54.5024 54.6212 52.0811 54.2199 50.3599 52.6503C49.7031 52.0627 48.8409 51.758 47.9607 51.8026C47.0805 51.8472 46.2535 52.2375 45.6595 52.8885C45.0655 53.5395 44.7524 54.3987 44.7884 55.2793C44.8244 56.1598 45.2066 56.9906 45.8517 57.591C47.8806 59.4415 50.2573 60.4448 52.6117 60.8327V62.9151C52.6117 63.3543 52.6982 63.7892 52.8663 64.1949C53.0344 64.6007 53.2807 64.9693 53.5912 65.2799C53.9018 65.5904 54.2705 65.8368 54.6762 66.0049C55.082 66.1729 55.5168 66.2594 55.956 66.2594C56.3952 66.2594 56.8301 66.1729 57.2358 66.0049C57.6416 65.8368 58.0103 65.5904 58.3208 65.2799C58.6314 64.9693 58.8777 64.6007 59.0458 64.1949C59.2138 63.7892 59.3003 63.3543 59.3003 62.9151V60.3511C60.7272 59.8918 62.0784 59.1962 63.1842 58.2598C64.6022 57.0648 65.8686 55.2366 65.8686 52.9089C65.8686 51.4151 65.5475 50.0105 64.8296 48.7753C64.1662 47.6513 63.2209 46.7199 62.0873 46.0731C60.2813 45.0119 58.0563 44.6016 56.5134 44.3163L56.3217 44.2806C54.4399 43.9328 53.3653 43.7009 52.6786 43.313C52.4244 43.1703 52.3665 43.0766 52.3575 43.0543C52.3442 43.032 52.2461 42.8715 52.2461 42.3855C52.2461 41.9217 52.4244 41.4312 52.857 41.0032C53.2895 40.5751 54.1456 40.0668 55.7019 39.933C57.0485 39.8126 58.1454 40.2139 58.9481 40.6732C59.3435 40.9027 59.7115 41.1764 60.045 41.4892L60.0628 41.507C60.6595 42.1634 61.4924 42.5559 62.3784 42.5981C63.2644 42.6403 64.1309 42.3289 64.7872 41.7322C65.4436 41.1356 65.8361 40.3027 65.8783 39.4167C65.9205 38.5307 65.6091 37.6642 65.0124 37.0078L65.0035 36.9989L64.9946 36.99L64.9723 36.9677L64.9188 36.9053C64.6944 36.6716 64.4593 36.4484 64.2143 36.2364C62.7885 35.0175 61.1103 34.1296 59.3003 33.6368V31.2868Z" fill="#379590"/>
</svg>
