<svg width="24" height="24" viewBox="0 0 24 24" fill="none" xmlns="http://www.w3.org/2000/svg">
<path fill-rule="evenodd" clip-rule="evenodd" d="M11.8939 2.5584C11.8939 2.25429 11.7731 1.96264 11.5581 1.74761C11.3431 1.53258 11.0514 1.41177 10.7473 1.41177C10.4432 1.41177 10.1516 1.53258 9.93653 1.74761C9.72149 1.96264 9.60069 2.25429 9.60069 2.5584V4.50918C9.60069 4.81328 9.72149 5.10493 9.93653 5.31997C10.1516 5.535 10.4432 5.6558 10.7473 5.6558C11.0514 5.6558 11.3431 5.535 11.5581 5.31997C11.7731 5.10493 11.8939 4.81328 11.8939 4.50918V2.5584ZM9.60069 12.8031C9.60069 12.499 9.72149 12.2073 9.93653 11.9923C10.1516 11.7773 10.4432 11.6565 10.7473 11.6565C11.0514 11.6565 11.3431 11.7773 11.5581 11.9923C11.7731 12.2073 11.8939 12.499 11.8939 12.8031V19.0621C11.8744 20.0188 11.4806 20.9298 10.797 21.5995C10.1135 22.2692 9.19467 22.6443 8.23774 22.6443C7.2808 22.6443 6.36199 22.2692 5.67845 21.5995C4.99491 20.9298 4.60111 20.0188 4.58154 19.0621C4.58154 18.758 4.70235 18.4664 4.91738 18.2513C5.13241 18.0363 5.42406 17.9155 5.72816 17.9155C6.03227 17.9155 6.32392 18.0363 6.53895 18.2513C6.75398 18.4664 6.87479 18.758 6.87479 19.0621C6.87479 19.4236 7.01838 19.7703 7.27399 20.0259C7.52959 20.2815 7.87626 20.4251 8.23774 20.4251C8.59921 20.4251 8.94589 20.2815 9.20149 20.0259C9.45709 19.7703 9.60069 19.4236 9.60069 19.0621V12.8031Z" fill="#379590"/>
<path fill-rule="evenodd" clip-rule="evenodd" d="M3.80944 6.57614C5.63027 4.75684 8.20788 3.74475 10.7626 3.74475C13.3157 3.74475 15.8933 4.75684 17.7141 6.57767C18.0688 6.93236 18.3883 7.31151 18.6742 7.71206C18.0322 7.82091 17.4416 8.13182 16.9884 8.59954C16.5353 9.06727 16.2432 9.6674 16.1547 10.3126C14.71 11.1718 13.7422 12.6334 13.7086 14.4359C12.7103 14.4511 11.7471 14.4511 10.7626 14.4404C8.73477 14.4666 6.70666 14.4329 4.68087 14.3395C4.19676 14.3207 3.72148 14.2039 3.28373 13.9964C2.84597 13.7888 2.45481 13.4947 2.13384 13.1318C1.8053 12.7611 1.57828 12.3118 1.47487 11.8274C1.37145 11.343 1.39517 10.8401 1.54371 10.3676C1.9784 8.93882 2.75629 7.63814 3.80944 6.5792V6.57614Z" fill="#ADE2DC"/>
<path fill-rule="evenodd" clip-rule="evenodd" d="M20.3314 10.7269C20.3314 10.4228 20.2106 10.1312 19.9956 9.91613C19.7806 9.7011 19.4889 9.58029 19.1848 9.58029C18.8807 9.58029 18.5891 9.7011 18.374 9.91613C18.159 10.1312 18.0382 10.4228 18.0382 10.7269V11.5632C16.5461 11.9913 15.6196 13.1532 15.6196 14.5322C15.6196 15.0397 15.7312 15.5183 15.9835 15.9387C16.2342 16.3591 16.5797 16.6465 16.9313 16.8453C17.5352 17.1877 18.2828 17.3253 18.8041 17.4217L18.8928 17.4369C19.5303 17.5562 19.8957 17.6388 20.1266 17.7733C20.2122 17.8253 20.2351 17.8589 20.2443 17.8742C20.252 17.8895 20.2856 17.9506 20.2902 18.1096C20.2607 18.1527 20.2245 18.1909 20.1832 18.2228C19.9562 18.3965 19.6918 18.5148 19.4111 18.5683C18.6864 18.7273 17.8563 18.5897 17.2661 18.0515C17.041 17.8501 16.7453 17.7456 16.4436 17.7609C16.1418 17.7762 15.8583 17.91 15.6546 18.1332C15.4509 18.3564 15.3436 18.651 15.3559 18.9529C15.3683 19.2548 15.4993 19.5396 15.7205 19.7455C16.4161 20.3799 17.231 20.7239 18.0382 20.8569V21.5709C18.0382 21.7215 18.0679 21.8706 18.1255 22.0097C18.1831 22.1488 18.2676 22.2752 18.374 22.3817C18.4805 22.4882 18.6069 22.5726 18.746 22.6302C18.8851 22.6879 19.0343 22.7175 19.1848 22.7175C19.3354 22.7175 19.4845 22.6879 19.6236 22.6302C19.7627 22.5726 19.8891 22.4882 19.9956 22.3817C20.1021 22.2752 20.1865 22.1488 20.2442 22.0097C20.3018 21.8706 20.3314 21.7215 20.3314 21.5709V20.6918C20.8207 20.5344 21.2839 20.2959 21.6631 19.9748C22.1492 19.5651 22.5834 18.9383 22.5834 18.1402C22.5834 17.628 22.4733 17.1465 22.2272 16.723C21.9997 16.3376 21.6757 16.0183 21.287 15.7965C20.6678 15.4326 19.9049 15.292 19.3759 15.1942L19.3102 15.1819C18.665 15.0627 18.2966 14.9832 18.0611 14.8502C17.974 14.8012 17.9541 14.7691 17.9511 14.7615C17.9465 14.7538 17.9128 14.6988 17.9128 14.5322C17.9128 14.3732 17.974 14.205 18.1223 14.0582C18.2706 13.9115 18.5641 13.7372 19.0977 13.6913C19.5594 13.65 19.9355 13.7876 20.2107 13.9451C20.3463 14.0238 20.4724 14.1176 20.5868 14.2249L20.5929 14.231C20.7974 14.456 21.083 14.5906 21.3868 14.6051C21.6906 14.6195 21.9876 14.5128 22.2127 14.3082C22.4377 14.1036 22.5723 13.8181 22.5867 13.5143C22.6012 13.2105 22.4944 12.9134 22.2899 12.6884L22.2868 12.6853L22.2838 12.6823L22.2761 12.6746L22.2578 12.6532C22.1808 12.5731 22.1002 12.4966 22.0162 12.4239C21.5274 12.006 20.952 11.7016 20.3314 11.5326V10.7269Z" fill="#379590"/>
</svg>
