<svg width="70" height="70" viewBox="0 0 70 70" fill="none" xmlns="http://www.w3.org/2000/svg">
<path fill-rule="evenodd" clip-rule="evenodd" d="M34.0634 13.445C31.9472 13.445 28.1372 13.5537 23.6204 13.8841V8.97003C23.6204 8.13814 23.29 7.34032 22.7017 6.75208C22.1135 6.16384 21.3157 5.83337 20.4838 5.83337C19.6519 5.83337 18.8541 6.16384 18.2658 6.75208C17.6776 7.34032 17.3471 8.13814 17.3471 8.97003V14.4989C14.4453 15.0431 11.802 16.5242 9.82275 18.715C7.84349 20.9057 6.6375 23.6853 6.38973 26.6273C6.05721 30.4846 5.87166 34.3532 5.8335 38.2246C5.8335 40.299 5.96314 44.8325 6.38973 49.8177C6.65743 52.9648 8.01945 55.9187 10.239 58.1658C12.4586 60.4129 15.3955 61.8111 18.5391 62.1176C25.1888 62.7993 31.1902 63 34.0634 63C36.9366 63 42.9381 62.7993 49.5878 62.1218C52.732 61.8152 55.6694 60.4163 57.8891 58.1683C60.1087 55.9204 61.4704 52.9656 61.7371 49.8177C62.0696 45.9618 62.2552 42.0946 62.2934 38.2246C62.2934 36.1502 62.1637 31.6125 61.7371 26.6231C61.4887 23.6763 60.2788 20.8926 58.2938 18.7005C56.3087 16.5084 53.6583 15.0292 50.7505 14.4906V8.97003C50.7505 8.13814 50.42 7.34032 49.8317 6.75208C49.2435 6.16384 48.4457 5.83337 47.6138 5.83337C46.7819 5.83337 45.9841 6.16384 45.3958 6.75208C44.8076 7.34032 44.4771 8.13814 44.4771 8.97003V13.8799C41.0118 13.6183 37.5386 13.4732 34.0634 13.445Z" fill="#ADE2DC"/>
<path fill-rule="evenodd" clip-rule="evenodd" d="M16.812 31.1316C16.812 29.6887 17.983 28.5177 19.4259 28.5177H21.517C22.2102 28.5177 22.8751 28.7931 23.3653 29.2833C23.8555 29.7735 24.1309 30.4383 24.1309 31.1316C24.1309 31.8248 23.8555 32.4897 23.3653 32.9799C22.8751 33.4701 22.2102 33.7455 21.517 33.7455H19.4259C18.7326 33.7455 18.0678 33.4701 17.5776 32.9799C17.0874 32.4897 16.812 31.8248 16.812 31.1316ZM16.812 43.6782C16.812 42.2354 17.983 41.0643 19.4259 41.0643H21.517C22.2102 41.0643 22.8751 41.3397 23.3653 41.8299C23.8555 42.3201 24.1309 42.985 24.1309 43.6782C24.1309 44.3715 23.8555 45.0363 23.3653 45.5265C22.8751 46.0167 22.2102 46.2921 21.517 46.2921H19.4259C18.7326 46.2921 18.0678 46.0167 17.5776 45.5265C17.0874 45.0363 16.812 44.3715 16.812 43.6782ZM33.0181 28.5219C32.3248 28.5219 31.66 28.7973 31.1698 29.2875C30.6796 29.7777 30.4042 30.4425 30.4042 31.1358C30.4042 31.829 30.6796 32.4939 31.1698 32.9841C31.66 33.4743 32.3248 33.7496 33.0181 33.7496H35.1092C35.8024 33.7496 36.4673 33.4743 36.9575 32.9841C37.4477 32.4939 37.7231 31.829 37.7231 31.1358C37.7231 30.4425 37.4477 29.7777 36.9575 29.2875C36.4673 28.7973 35.8024 28.5219 35.1092 28.5219H33.0181ZM43.9964 31.1358C43.9964 29.6929 45.1674 28.5219 46.6103 28.5219H48.7014C49.3946 28.5219 50.0595 28.7973 50.5497 29.2875C51.0399 29.7777 51.3153 30.4425 51.3153 31.1358C51.3153 31.829 51.0399 32.4939 50.5497 32.9841C50.0595 33.4743 49.3946 33.7496 48.7014 33.7496H46.6103C45.917 33.7496 45.2522 33.4743 44.762 32.9841C44.2718 32.4939 43.9964 31.829 43.9964 31.1358ZM33.0181 41.0685C32.3248 41.0685 31.66 41.3439 31.1698 41.8341C30.6796 42.3243 30.4042 42.9892 30.4042 43.6824C30.4042 44.3756 30.6796 45.0405 31.1698 45.5307C31.66 46.0209 32.3248 46.2963 33.0181 46.2963H35.1092C35.8024 46.2963 36.4673 46.0209 36.9575 45.5307C37.4477 45.0405 37.7231 44.3756 37.7231 43.6824C37.7231 42.9892 37.4477 42.3243 36.9575 41.8341C36.4673 41.3439 35.8024 41.0685 35.1092 41.0685H33.0181Z" fill="#379590"/>
</svg>
