<svg width="34" height="34" viewBox="0 0 34 34" fill="none" xmlns="http://www.w3.org/2000/svg">
<path fill-rule="evenodd" clip-rule="evenodd" d="M15.0371 6.7896C15.595 6.33326 16.2875 6.09076 16.9977 6.10301C17.7764 6.10301 18.4776 6.37329 18.9583 6.7896C19.4285 7.19719 19.6216 7.67889 19.6216 8.10392V9.09565C17.8726 9.04511 16.1227 9.04511 14.3737 9.09565V8.10392C14.3737 7.67889 14.5669 7.19719 15.0371 6.7896ZM11.225 9.23079V8.10392C11.225 6.59997 11.9178 5.23333 13.0198 4.27865C14.1437 3.33162 15.5503 2.82065 16.9977 2.83355C18.4461 2.83355 19.8798 3.32833 20.9755 4.27865C22.0776 5.23333 22.7703 6.60215 22.7703 8.10392V9.23951C23.9479 9.31362 25.1129 9.40952 26.2653 9.52286C28.4883 9.73865 30.3587 11.4518 30.7008 13.8015C30.9989 15.8373 31.1668 17.9537 31.1668 20.1115C31.1668 22.2563 30.9821 24.3335 30.6924 26.3431C30.3482 28.7233 28.4568 30.4845 26.1898 30.7024C23.2279 30.9858 20.1653 31.1667 16.9977 31.1667C14.0421 31.1667 11.1621 30.9117 8.42689 30.6719L7.9231 30.6283C5.63714 30.4278 3.61777 28.7102 3.26931 26.2385C2.68127 22.0921 2.68834 17.8782 3.2903 13.7339C3.62617 11.4148 5.4776 9.73429 7.667 9.51632C8.85123 9.39906 10.0374 9.30459 11.225 9.23297V9.23079Z" fill="#ADE2DC"/>
<path fill-rule="evenodd" clip-rule="evenodd" d="M11.204 9.23291C10.3285 9.28594 9.45382 9.35134 8.58008 9.42908V30.6849C9.44072 30.7612 10.314 30.8375 11.204 30.9072V9.23291ZM25.3942 30.7765C24.5272 30.8528 23.6519 30.9225 22.7702 30.9792V9.23945C23.6519 9.29612 24.5272 9.36151 25.3942 9.43998V30.7765Z" fill="#379590"/>
</svg>
