<svg width="24" height="24" viewBox="0 0 24 24" fill="none" xmlns="http://www.w3.org/2000/svg">
<path fill-rule="evenodd" clip-rule="evenodd" d="M10.6143 4.79267C11.0081 4.47055 11.497 4.29937 11.9982 4.30802C12.548 4.30802 13.0429 4.4988 13.3822 4.79267C13.7141 5.08038 13.8504 5.42041 13.8504 5.72043V6.42048C12.6159 6.3848 11.3806 6.3848 10.1461 6.42048V5.72043C10.1461 5.42041 10.2824 5.08038 10.6143 4.79267ZM7.92344 6.51587V5.72043C7.92344 4.65882 8.41242 3.69413 9.19033 3.02024C9.98371 2.35175 10.9765 1.99106 11.9982 2.00017C13.0206 2.00017 14.0327 2.34942 14.8061 3.02024C15.5841 3.69413 16.073 4.66035 16.073 5.72043V6.52202C16.9043 6.57433 17.7267 6.64203 18.5401 6.72204C20.1093 6.87435 21.4295 8.08367 21.6711 9.74225C21.8815 11.1793 22 12.6732 22 14.1964C22 15.7104 21.8696 17.1766 21.6651 18.5952C21.4221 20.2753 20.0871 21.5185 18.4868 21.6723C16.396 21.8723 14.2342 22 11.9982 22C9.91194 22 7.87899 21.82 5.94828 21.6508L5.59266 21.62C3.97904 21.4785 2.55361 20.2661 2.30764 18.5213C1.89255 15.5945 1.89754 12.6199 2.32245 9.69455C2.55953 8.05751 3.86643 6.87128 5.41189 6.71742C6.24781 6.63464 7.08514 6.56796 7.92344 6.51741V6.51587Z" fill="#ADE2DC"/>
<path fill-rule="evenodd" clip-rule="evenodd" d="M7.90882 6.5174C7.29085 6.55483 6.6734 6.60099 6.05664 6.65587V21.66C6.66416 21.7138 7.28056 21.7677 7.90882 21.8169V6.5174ZM17.9254 21.7246C17.3134 21.7785 16.6956 21.8277 16.0732 21.8677V6.52201C16.6956 6.56201 17.3134 6.60817 17.9254 6.66356V21.7246Z" fill="#379590"/>
</svg>
