<svg width="16" height="16" viewBox="0 0 16 16" fill="none" xmlns="http://www.w3.org/2000/svg">
<path fill-rule="evenodd" clip-rule="evenodd" d="M8.00043 1.88235C7.28688 1.88235 6.38257 1.98558 5.50753 2.19927C4.63956 2.41025 3.75241 2.74256 3.10748 3.22608C2.68763 3.54119 2.25869 4.03468 1.89939 4.58611C1.52131 5.15849 1.23971 5.77791 1.06371 6.42423C0.902227 7.05173 0.871948 7.72722 1.15051 8.29948C1.44521 8.90615 2.04674 9.31814 2.94701 9.45306L2.9894 9.4594L3.4799 9.45759C3.44963 9.76364 3.43146 10.0688 3.43146 10.3649C3.43146 11.7892 3.83012 12.759 4.71122 13.3339C5.54891 13.8808 6.71159 13.9859 7.97318 13.9859C9.23477 13.9859 10.3964 13.8808 11.2341 13.3339C12.1162 12.759 12.5149 11.7892 12.5149 10.364C12.5149 10.0688 12.4967 9.76364 12.4665 9.45849H13.0115L13.0538 9.45306C13.9531 9.31814 14.5556 8.90615 14.8504 8.29948C15.1289 7.72722 15.0976 7.05173 14.9371 6.42423C14.7612 5.77791 14.4795 5.15849 14.1015 4.58611C13.7422 4.03468 13.3132 3.54119 12.8934 3.22608C12.2474 2.74256 11.3593 2.41115 10.4913 2.19927C9.67934 1.99935 8.84234 1.89285 8.00043 1.88235Z" fill="#ADE2DC"/>
<path fill-rule="evenodd" clip-rule="evenodd" d="M6.58532 7.19568C6.58532 7.04559 6.51886 6.90165 6.40056 6.79552C6.28227 6.68938 6.12182 6.62976 5.95452 6.62976C5.78723 6.62976 5.62678 6.68938 5.50849 6.79552C5.39019 6.90165 5.32373 7.04559 5.32373 7.19568V7.64842C5.32373 7.79852 5.39019 7.94246 5.50849 8.04859C5.62678 8.15472 5.78723 8.21435 5.95452 8.21435C6.12182 8.21435 6.28227 8.15472 6.40056 8.04859C6.51886 7.94246 6.58532 7.79852 6.58532 7.64842V7.19568ZM10.6224 7.19568C10.6224 7.04559 10.5559 6.90165 10.4376 6.79552C10.3194 6.68938 10.1589 6.62976 9.99161 6.62976C9.82431 6.62976 9.66387 6.68938 9.54557 6.79552C9.42727 6.90165 9.36081 7.04559 9.36081 7.19568V7.64842C9.36081 7.79852 9.42727 7.94246 9.54557 8.04859C9.66387 8.15472 9.82431 8.21435 9.99161 8.21435C10.1589 8.21435 10.3194 8.15472 10.4376 8.04859C10.5559 7.94246 10.6224 7.79852 10.6224 7.64842V7.19568ZM7.24639 9.85779C7.17224 9.8245 7.0915 9.80463 7.00878 9.79933C6.92607 9.79403 6.843 9.8034 6.76433 9.8269C6.68565 9.8504 6.6129 9.88757 6.55024 9.9363C6.48757 9.98502 6.43622 10.0443 6.39911 10.1109C6.362 10.1774 6.33986 10.2498 6.33395 10.324C6.32804 10.3983 6.33848 10.4728 6.36468 10.5434C6.39087 10.6139 6.43231 10.6792 6.48661 10.7354C6.54092 10.7917 6.60704 10.8377 6.6812 10.871L7.69047 11.3238C7.77819 11.3632 7.87495 11.3837 7.97307 11.3837C8.07118 11.3837 8.16794 11.3632 8.25566 11.3238L9.26493 10.871C9.33902 10.8377 9.40508 10.7917 9.45933 10.7355C9.51357 10.6793 9.55495 10.614 9.5811 10.5435C9.60725 10.473 9.61765 10.3985 9.61172 10.3243C9.60579 10.2502 9.58363 10.1778 9.54652 10.1113C9.50941 10.0449 9.45807 9.98559 9.39543 9.93692C9.33279 9.88826 9.26008 9.85113 9.18145 9.82767C9.10282 9.80421 9.01981 9.79488 8.93716 9.8002C8.85451 9.80553 8.77383 9.8254 8.69974 9.8587L7.97307 10.1847L7.24639 9.8587V9.85779Z" fill="#379590"/>
<path fill-rule="evenodd" clip-rule="evenodd" d="M13.6401 8.93964L13.6805 9.29821C13.4784 9.36975 13.2683 9.42136 13.0538 9.45214L13.0114 9.45939L12.4664 9.45758L12.424 9.06822C12.3029 8.2216 12.0626 7.3786 11.8759 6.72665L11.8537 6.64878C11.7561 6.30777 11.6501 5.96874 11.5358 5.63193L11.5156 5.57579L11.5106 5.5613V5.55859C11.471 5.41893 11.4922 5.27099 11.5699 5.14487C11.6476 5.01874 11.7759 4.92389 11.9288 4.87961C12.0816 4.83532 12.2475 4.84492 12.3927 4.90646C12.538 4.968 12.6516 5.07685 12.7106 5.21088L12.7126 5.21722L12.7187 5.23443L12.7409 5.29781C12.8614 5.65231 12.9731 6.00915 13.076 6.36809C13.2728 7.05625 13.5049 7.98617 13.6391 8.9324V8.93874L13.6401 8.93964ZM3.52623 9.07546L3.47981 9.45758L2.9893 9.45939L2.94691 9.45305C2.71788 9.41992 2.49397 9.36278 2.27979 9.28282L2.32823 8.9324C2.46246 7.98617 2.6946 7.05625 2.8914 6.36718C2.99426 6.00854 3.10598 5.652 3.22648 5.29781L3.24869 5.23443L3.25474 5.21722L3.25575 5.21269V5.21088C3.31361 5.07555 3.42706 4.96524 3.57278 4.90264C3.7185 4.84003 3.88542 4.8299 4.03922 4.8743C4.19301 4.91871 4.322 5.01429 4.39967 5.1414C4.47733 5.2685 4.49777 5.41747 4.45678 5.55768V5.5613L4.45174 5.57579L4.43155 5.63193L4.35787 5.85196C4.24335 6.19987 4.13768 6.55008 4.04096 6.90232C3.85929 7.5271 3.63524 8.29947 3.52623 9.07365V9.07456V9.07546Z" fill="#379590"/>
</svg>
