<svg width="70" height="70" viewBox="0 0 70 70" fill="none" xmlns="http://www.w3.org/2000/svg">
<path fill-rule="evenodd" clip-rule="evenodd" d="M42.0406 2.91669H27.959L19.209 11.6667L32.9377 25.3954H37.0619L50.7906 11.6667L42.0406 2.91669Z" fill="#379590"/>
<path fill-rule="evenodd" clip-rule="evenodd" d="M34.9998 26.25C30.3585 26.25 25.9074 28.0938 22.6255 31.3757C19.3436 34.6575 17.4998 39.1087 17.4998 43.75C17.4998 48.3913 19.3436 52.8425 22.6255 56.1244C25.9074 59.4063 30.3585 61.25 34.9998 61.25C39.6411 61.25 44.0923 59.4063 47.3742 56.1244C50.6561 52.8425 52.4998 48.3913 52.4998 43.75C52.4998 39.1087 50.6561 34.6575 47.3742 31.3757C44.0923 28.0938 39.6411 26.25 34.9998 26.25ZM11.6665 43.75C11.6665 37.5616 14.1248 31.6267 18.5007 27.2509C22.8765 22.875 28.8115 20.4167 34.9998 20.4167C41.1882 20.4167 47.1231 22.875 51.499 27.2509C55.8748 31.6267 58.3332 37.5616 58.3332 43.75C58.3332 49.9384 55.8748 55.8733 51.499 60.2492C47.1231 64.625 41.1882 67.0834 34.9998 67.0834C28.8115 67.0834 22.8765 64.625 18.5007 60.2492C14.1248 55.8733 11.6665 49.9384 11.6665 43.75Z" fill="#ADE2DC"/>
</svg>
