<svg width="16" height="16" viewBox="0 0 16 16" fill="none" xmlns="http://www.w3.org/2000/svg">
<path fill-rule="evenodd" clip-rule="evenodd" d="M7.4034 11.2141C7.83334 11.2256 8.26328 11.2247 8.69498 11.2115C8.70311 11.2537 8.70722 11.2966 8.70727 11.3396V13.3419C8.70727 13.5165 8.63793 13.6838 8.51452 13.8073C8.39111 13.9307 8.22372 14 8.04919 14C7.87466 14 7.70727 13.9307 7.58386 13.8073C7.46045 13.6838 7.39111 13.5165 7.39111 13.3419V11.3396C7.39111 11.2966 7.39462 11.2545 7.40252 11.2141H7.4034Z" fill="#379590"/>
<path fill-rule="evenodd" clip-rule="evenodd" d="M8.09767 2.02303C8.06728 2.00788 8.03379 2 7.99983 2C7.96588 2 7.93239 2.00788 7.902 2.02303C6.38053 2.78113 5.00383 4.14993 4.25713 5.71001C4.21079 5.80567 4.19301 5.91267 4.20592 6.01819C4.21884 6.1237 4.26191 6.22325 4.32996 6.30491C4.39706 6.3847 4.48109 6.44854 4.57595 6.4918C4.67081 6.53505 4.77411 6.55664 4.87836 6.55498H5.3276C5.45044 6.55498 5.53029 6.6164 5.56451 6.68133C5.59873 6.74275 5.59698 6.81382 5.53819 6.87963C4.70726 7.80094 4.12552 8.63626 3.3639 9.9489C3.13314 10.3464 3.41655 10.7763 3.83158 10.8491C6.66218 11.3467 9.33836 11.3467 12.1681 10.8491C12.5831 10.7763 12.8665 10.3464 12.6358 9.9489C11.8741 8.63626 11.2933 7.80094 10.4624 6.87963C10.4036 6.81382 10.4009 6.74275 10.4343 6.68133C10.4694 6.6164 10.5483 6.55498 10.6721 6.55498H11.1213C11.2256 6.55664 11.3289 6.53505 11.4237 6.4918C11.5186 6.44854 11.6026 6.3847 11.6697 6.30491C11.7379 6.2233 11.781 6.12374 11.7939 6.01821C11.8068 5.91267 11.789 5.80565 11.7425 5.71001C10.9958 4.14993 9.62002 2.78113 8.09767 2.02303Z" fill="#ADE2DC"/>
</svg>
