<svg width="24" height="24" viewBox="0 0 24 24" fill="none" xmlns="http://www.w3.org/2000/svg">
<path fill-rule="evenodd" clip-rule="evenodd" d="M16.4268 3.90317C17.5212 3.79844 18.6195 4.05793 19.5513 4.64137C20.483 5.2248 21.1961 6.09954 21.5798 7.12978C21.706 7.5385 21.665 7.98057 21.4658 8.35912C21.2667 8.73766 20.9255 9.0218 20.5172 9.14927L15.6688 10.7225L15.3642 10.8226L14.5032 13.7675C14.4593 13.9334 14.3735 14.0853 14.2541 14.2085C14.1346 14.3317 13.9855 14.4222 13.821 14.4712L11.6371 15.1806C11.4614 15.2528 11.2694 15.2758 11.0817 15.2471C10.894 15.2183 10.7177 15.1389 10.5717 15.0174C10.4258 14.8958 10.3158 14.7368 10.2535 14.5574C10.1912 14.378 10.179 14.185 10.2183 13.9992L10.553 12.3687L6.09358 13.809C5.89645 13.8809 5.68702 13.913 5.4774 13.9035C5.26778 13.8939 5.06213 13.8429 4.87235 13.7534C4.68256 13.6639 4.5124 13.5377 4.37171 13.382C4.23101 13.2263 4.12258 13.0443 4.05268 12.8464L4.04982 12.8378L2.39078 7.689L2.38649 7.67756C2.31606 7.43065 2.34463 7.16603 2.46613 6.93985C2.58763 6.71367 2.79249 6.54374 3.03723 6.46615L4.99661 5.83685C5.2035 5.77234 5.42704 5.77572 5.63187 5.84648C5.83671 5.91725 6.01353 6.0517 6.13649 6.23016L7.30925 8.0866L14.3888 4.56108C15.0125 4.1969 15.7079 3.97243 16.4268 3.90317Z" fill="#ADE2DC"/>
<path fill-rule="evenodd" clip-rule="evenodd" d="M22 18.6893C22 18.31 21.8493 17.9462 21.5811 17.678C21.3129 17.4098 20.9491 17.2591 20.5698 17.2591H3.43021C3.05089 17.2591 2.68711 17.4098 2.4189 17.678C2.15068 17.9462 2 18.31 2 18.6893C2 19.0686 2.15068 19.4324 2.4189 19.7007C2.68711 19.9689 3.05089 20.1196 3.43021 20.1196H20.5698C20.9491 20.1196 21.3129 19.9689 21.5811 19.7007C21.8493 19.4324 22 19.0686 22 18.6893Z" fill="#379590"/>
</svg>
