<svg width="16" height="16" viewBox="0 0 16 16" fill="none" xmlns="http://www.w3.org/2000/svg">
<path fill-rule="evenodd" clip-rule="evenodd" d="M9.31669 2H6.68324L5.04688 3.63636L7.61433 6.20382H8.3856L10.9531 3.63636L9.31669 2Z" fill="#379590"/>
<path fill-rule="evenodd" clip-rule="evenodd" d="M7.99987 6.36364C7.13189 6.36364 6.29945 6.70845 5.6857 7.3222C5.07194 7.93596 4.72714 8.76839 4.72714 9.63637C4.72714 10.5044 5.07194 11.3368 5.6857 11.9505C6.29945 12.5643 7.13189 12.9091 7.99987 12.9091C8.86785 12.9091 9.70028 12.5643 10.314 11.9505C10.9278 11.3368 11.2726 10.5044 11.2726 9.63637C11.2726 8.76839 10.9278 7.93596 10.314 7.3222C9.70028 6.70845 8.86785 6.36364 7.99987 6.36364ZM3.63623 9.63637C3.63623 8.47906 4.09597 7.36916 4.91431 6.55081C5.73265 5.73247 6.84256 5.27274 7.99987 5.27274C9.15717 5.27274 10.2671 5.73247 11.0854 6.55081C11.9038 7.36916 12.3635 8.47906 12.3635 9.63637C12.3635 10.7937 11.9038 11.9036 11.0854 12.7219C10.2671 13.5403 9.15717 14 7.99987 14C6.84256 14 5.73265 13.5403 4.91431 12.7219C4.09597 11.9036 3.63623 10.7937 3.63623 9.63637Z" fill="#ADE2DC"/>
</svg>
