<svg width="34" height="34" viewBox="0 0 34 34" fill="none" xmlns="http://www.w3.org/2000/svg">
<path fill-rule="evenodd" clip-rule="evenodd" d="M17.0247 2.06766C18.6797 1.97729 20.173 1.97729 21.828 2.06766C22.593 2.10943 23.2249 2.69886 23.3424 3.4802C23.5123 4.61048 23.5123 5.65401 23.3424 6.78427C23.2249 7.56562 22.593 8.15506 21.828 8.19683C20.7147 8.25762 19.6745 8.27751 18.6091 8.25651V11.6814C18.6091 12.5691 17.8896 13.2886 17.002 13.2886C16.1143 13.2886 15.3948 12.5691 15.3948 11.6814V5.81818C15.3948 5.78076 15.3961 5.74365 15.3986 5.70688C15.3582 4.96857 15.3954 4.24419 15.5103 3.4802C15.6278 2.69886 16.2597 2.10943 17.0247 2.06766Z" fill="#379590"/>
<path fill-rule="evenodd" clip-rule="evenodd" d="M5.77276 18.3185C5.75937 18.3185 5.74598 18.3188 5.73258 18.3193C4.04715 18.3825 2.56717 19.6065 2.3302 21.3414C2.11597 22.9098 2 23.9694 2 25.0452C2 26.1211 2.11597 27.1808 2.3302 28.7491C2.56717 30.484 4.04715 31.708 5.73258 31.7712C13.8615 32.0764 20.1386 32.0764 28.2675 31.7712C29.9529 31.708 31.433 30.484 31.67 28.7491C31.8841 27.1808 32 26.1211 32 25.0452C32 23.9694 31.8841 22.9098 31.67 21.3414C31.433 19.6065 29.9529 18.3825 28.2675 18.3193C28.254 18.3188 28.2408 18.3185 28.2273 18.3185H5.77276Z" fill="#379590"/>
<path fill-rule="evenodd" clip-rule="evenodd" d="M25.0594 19.1967C25.0268 18.5375 24.9863 17.8634 24.9377 17.1667C24.7048 12.4035 20.7177 10.1147 17.0057 10.1102C15.1339 10.108 13.2215 10.6688 11.7295 11.8454C10.2177 13.0376 9.18418 14.8294 9.07026 17.1533C9.02125 17.8547 8.98037 18.5333 8.9476 19.1967C8.94666 19.2158 8.94623 19.2349 8.9463 19.254L8.9934 30.8581C8.99575 31.4403 9.46256 31.9141 10.0446 31.9251C15.4859 32.0275 18.5149 32.0204 23.9533 31.9251C24.5355 31.9148 25.0031 31.4412 25.0058 30.8588L25.0607 19.2546C25.0609 19.2353 25.0605 19.216 25.0594 19.1967Z" fill="#ADE2DC"/>
<path fill-rule="evenodd" clip-rule="evenodd" d="M19.1406 31.9902C19.1407 31.9815 19.1407 31.9725 19.1407 31.9637V27.5348C19.1407 26.3513 18.1813 25.3919 16.9979 25.3919C15.8144 25.3919 14.855 26.3513 14.855 27.5348V31.9637C14.855 31.9731 14.855 31.9825 14.8552 31.9917C16.3138 32.0025 17.6825 32.0016 19.1406 31.9902Z" fill="#379590"/>
<path d="M16.9999 20.6132C18.5111 20.6132 19.3611 19.7358 19.3611 18.1761C19.3611 16.6163 18.5111 15.7389 16.9999 15.7389C15.4887 15.7389 14.6387 16.6163 14.6387 18.1761C14.6387 19.7358 15.4887 20.6132 16.9999 20.6132Z" fill="#379590"/>
</svg>
