<svg width="16" height="16" viewBox="0 0 16 16" fill="none" xmlns="http://www.w3.org/2000/svg">
<path fill-rule="evenodd" clip-rule="evenodd" d="M7.00462 1.72916C7.27585 1.52325 7.60704 1.41177 7.94758 1.41177C8.28813 1.41177 8.61931 1.52325 8.89055 1.72916L9.57672 2.25003C11.5928 3.78127 13.32 5.65947 14.6773 7.79659L14.8966 8.14279C14.9964 8.29998 15.0522 8.48108 15.0581 8.66717C15.064 8.85327 15.0198 9.03753 14.9301 9.20071C14.8404 9.36389 14.7086 9.49999 14.5484 9.59481C14.3881 9.68962 14.2054 9.73966 14.0192 9.7397H13.3008C13.3424 10.6962 13.2904 11.6537 13.1448 12.6008C12.9993 13.5428 12.1883 14.2372 11.236 14.2372H4.65916C3.70579 14.2372 2.8959 13.5428 2.75139 12.6019C2.60584 11.6537 2.55386 10.6951 2.59544 9.7397H1.876C1.68981 9.73966 1.50705 9.68962 1.34681 9.59481C1.18657 9.49999 1.05473 9.36389 0.965065 9.20071C0.875402 9.03753 0.831205 8.85327 0.837092 8.66717C0.84298 8.48108 0.898734 8.29998 0.998532 8.14279L1.2179 7.79659C2.57516 5.65947 4.30233 3.78127 6.31844 2.25003L7.00462 1.72916Z" fill="#ADE2DC"/>
<path fill-rule="evenodd" clip-rule="evenodd" d="M6.64793 14.2373V10.8106C6.64793 10.4659 6.78485 10.1353 7.02857 9.89162C7.27229 9.6479 7.60284 9.51099 7.9475 9.51099C8.29217 9.51099 8.62272 9.6479 8.86644 9.89162C9.11015 10.1353 9.24707 10.4659 9.24707 10.8106V14.2373H6.64793Z" fill="#379590"/>
</svg>
