<svg width="70" height="70" viewBox="0 0 70 70" fill="none" xmlns="http://www.w3.org/2000/svg">
<path fill-rule="evenodd" clip-rule="evenodd" d="M35.0507 4.25691C38.4581 4.07086 41.5325 4.07086 44.9399 4.25691C46.5149 4.34291 47.8159 5.55645 48.0578 7.1651C48.4075 9.49213 48.4075 11.6406 48.0578 13.9676C47.8159 15.5763 46.5149 16.7898 44.9399 16.8758C42.6478 17.001 40.5063 17.0419 38.3128 16.9987V24.05C38.3128 25.8775 36.8314 27.3588 35.004 27.3588C33.1765 27.3588 31.6951 25.8775 31.6951 24.05V11.9786C31.6951 11.9015 31.6977 11.8251 31.7029 11.7494C31.6197 10.2294 31.6963 8.73802 31.9328 7.1651C32.1747 5.55645 33.4758 4.34291 35.0507 4.25691Z" fill="#379590"/>
<path fill-rule="evenodd" clip-rule="evenodd" d="M11.8851 37.7147C11.8576 37.7147 11.83 37.7151 11.8024 37.7162C8.33239 37.8464 5.28537 40.3664 4.79751 43.9381C4.35643 47.1673 4.11768 49.3489 4.11768 51.5636C4.11768 53.7788 4.35643 55.9604 4.79751 59.1894C5.28538 62.7612 8.33239 65.2812 11.8024 65.4113C28.5384 66.0396 41.4619 66.0396 58.1979 65.4113C61.6678 65.2812 64.715 62.7612 65.203 59.1894C65.6437 55.9604 65.8824 53.7788 65.8824 51.5636C65.8824 49.3489 65.6437 47.1673 65.203 43.9381C64.715 40.3664 61.6678 37.8464 58.1979 37.7162C58.1701 37.7151 58.1428 37.7147 58.115 37.7147H11.8851Z" fill="#379590"/>
<path fill-rule="evenodd" clip-rule="evenodd" d="M51.593 39.5227C51.526 38.1655 51.4426 36.7776 51.3424 35.3432C50.8629 25.5367 42.6543 20.8243 35.0118 20.8152C31.1582 20.8106 27.2208 21.9652 24.149 24.3877C21.0366 26.8422 18.9087 30.5311 18.6742 35.3157C18.5733 36.7598 18.4891 38.1568 18.4216 39.5227C18.4197 39.5619 18.4188 39.6012 18.419 39.6405L18.5159 63.5314C18.5208 64.7301 19.4818 65.7056 20.6803 65.7281C31.8829 65.939 38.1191 65.9244 49.3156 65.7281C50.5143 65.7069 51.477 64.7319 51.4827 63.5328L51.5957 39.6419C51.5961 39.6021 51.5952 39.5624 51.593 39.5227Z" fill="#ADE2DC"/>
<path fill-rule="evenodd" clip-rule="evenodd" d="M39.4072 65.8623C39.4074 65.8442 39.4076 65.8257 39.4076 65.8076V56.6893C39.4076 54.2526 37.4324 52.2775 34.9958 52.2775C32.5592 52.2775 30.584 54.2526 30.584 56.6893V65.8076C30.584 65.827 30.5841 65.8464 30.5844 65.8654C33.5874 65.8874 36.4053 65.8856 39.4072 65.8623Z" fill="#379590"/>
<path d="M35 42.4391C38.1113 42.4391 39.8614 40.6326 39.8614 37.4213C39.8614 34.21 38.1113 32.4036 35 32.4036C31.8887 32.4036 30.1387 34.21 30.1387 37.4213C30.1387 40.6326 31.8887 42.4391 35 42.4391Z" fill="#379590"/>
</svg>
