<svg width="16" height="16" viewBox="0 0 16 16" fill="none" xmlns="http://www.w3.org/2000/svg">
<path fill-rule="evenodd" clip-rule="evenodd" d="M7.50105 3.6756C7.64283 3.48233 7.8188 3.37963 7.99927 3.38481C8.19717 3.38481 8.37533 3.49928 8.49749 3.6756C8.61698 3.84823 8.66605 4.05224 8.66605 4.23226V4.65229C8.22161 4.63088 7.77692 4.63088 7.33248 4.65229V4.23226C7.33248 4.05224 7.38156 3.84823 7.50105 3.6756ZM6.53234 4.70952V4.23226C6.53234 3.59529 6.70837 3.01648 6.98842 2.61214C7.27404 2.21105 7.63146 1.99464 7.99927 2.0001C8.36733 2.0001 8.73166 2.20965 9.01011 2.61214C9.29016 3.01648 9.46619 3.59621 9.46619 4.23226V4.71321C9.76545 4.7446 10.0615 4.78522 10.3543 4.83322C10.9192 4.92461 11.3945 5.6502 11.4815 6.64535C11.5572 7.50756 11.5999 8.40393 11.5999 9.31784C11.5999 10.2262 11.553 11.106 11.4793 11.9571C11.3919 12.9652 10.9112 13.7111 10.3351 13.8034C9.58248 13.9234 8.80421 14 7.99927 14C7.2482 14 6.51634 13.892 5.82128 13.7905L5.69326 13.772C5.11236 13.6871 4.5992 12.9596 4.51065 11.9128C4.36122 10.1567 4.36302 8.37193 4.51599 6.61673C4.60133 5.63451 5.07182 4.92277 5.62818 4.83045C5.92911 4.78079 6.23055 4.74078 6.53234 4.71044V4.70952Z" fill="#ADE2DC"/>
<path fill-rule="evenodd" clip-rule="evenodd" d="M6.52714 4.71042C6.30467 4.73288 6.08239 4.76058 5.86035 4.7935V13.796C6.07906 13.8283 6.30096 13.8606 6.52714 13.8901V4.71042ZM10.1331 13.8347C9.9128 13.8671 9.69036 13.8966 9.46632 13.9206V4.71319C9.69036 4.73719 9.9128 4.76488 10.1331 4.79812V13.8347Z" fill="#379590"/>
</svg>
