<svg width="34" height="34" viewBox="0 0 34 34" fill="none" xmlns="http://www.w3.org/2000/svg">
<path fill-rule="evenodd" clip-rule="evenodd" d="M16.8495 3.62438C16.8495 3.19357 16.6783 2.7804 16.3737 2.47577C16.0691 2.17114 15.6559 2 15.2251 2C14.7943 2 14.3811 2.17114 14.0765 2.47577C13.7718 2.7804 13.6007 3.19357 13.6007 3.62438V6.38799C13.6007 6.81881 13.7718 7.23197 14.0765 7.5366C14.3811 7.84124 14.7943 8.01237 15.2251 8.01237C15.6559 8.01237 16.0691 7.84124 16.3737 7.5366C16.6783 7.23197 16.8495 6.81881 16.8495 6.38799V3.62438ZM13.6007 18.1377C13.6007 17.7069 13.7718 17.2937 14.0765 16.9891C14.3811 16.6844 14.7943 16.5133 15.2251 16.5133C15.6559 16.5133 16.0691 16.6844 16.3737 16.9891C16.6783 17.2937 16.8495 17.7069 16.8495 18.1377V27.0046C16.8217 28.36 16.2639 29.6505 15.2955 30.5993C14.3272 31.548 13.0255 32.0794 11.6698 32.0794C10.3142 32.0794 9.01253 31.548 8.04418 30.5993C7.07584 29.6505 6.51795 28.36 6.49023 27.0046C6.49023 26.5738 6.66137 26.1607 6.966 25.856C7.27063 25.5514 7.6838 25.3803 8.11462 25.3803C8.54543 25.3803 8.9586 25.5514 9.26323 25.856C9.56786 26.1607 9.739 26.5738 9.739 27.0046C9.739 27.5167 9.94242 28.0078 10.3045 28.37C10.6666 28.7321 11.1578 28.9355 11.6698 28.9355C12.1819 28.9355 12.6731 28.7321 13.0352 28.37C13.3973 28.0078 13.6007 27.5167 13.6007 27.0046V18.1377Z" fill="#379590"/>
<path fill-rule="evenodd" clip-rule="evenodd" d="M5.3969 9.31619C7.97642 6.73884 11.628 5.30505 15.2471 5.30505C18.8641 5.30505 22.5157 6.73884 25.0952 9.31836C25.5977 9.82083 26.0504 10.358 26.4554 10.9254C25.5458 11.0796 24.7091 11.5201 24.0671 12.1827C23.4252 12.8453 23.0114 13.6955 22.8861 14.6095C20.8393 15.8267 19.4684 17.8973 19.4207 20.4508C18.0064 20.4724 16.642 20.4724 15.2471 20.4573C12.3745 20.4943 9.50131 20.4467 6.63143 20.3143C5.94561 20.2876 5.2723 20.1222 4.65215 19.8282C4.03199 19.5341 3.47785 19.1174 3.02314 18.6033C2.55771 18.0783 2.2361 17.4417 2.0896 16.7555C1.9431 16.0693 1.9767 15.3568 2.18713 14.6875C2.80294 12.6633 3.90494 10.8207 5.3969 9.32052V9.31619Z" fill="#ADE2DC"/>
<path fill-rule="evenodd" clip-rule="evenodd" d="M28.8029 15.1965C28.8029 14.7657 28.6318 14.3525 28.3272 14.0479C28.0225 13.7432 27.6094 13.5721 27.1785 13.5721C26.7477 13.5721 26.3346 13.7432 26.0299 14.0479C25.7253 14.3525 25.5542 14.7657 25.5542 15.1965V16.3812C23.4403 16.9876 22.1278 18.6337 22.1278 20.5872C22.1278 21.3063 22.2859 21.9842 22.6433 22.5798C22.9985 23.1754 23.488 23.5826 23.9861 23.8642C24.8416 24.3493 25.9007 24.5442 26.6393 24.6807L26.7649 24.7023C27.668 24.8713 28.1857 24.9882 28.5127 25.1788C28.634 25.2525 28.6665 25.3001 28.6795 25.3218C28.6903 25.3434 28.738 25.4301 28.7444 25.6553C28.7027 25.7164 28.6515 25.7705 28.5928 25.8156C28.2714 26.0617 27.8968 26.2293 27.4991 26.3051C26.4725 26.5303 25.2964 26.3354 24.4604 25.573C24.1414 25.2876 23.7226 25.1396 23.2951 25.1613C22.8676 25.183 22.4659 25.3725 22.1774 25.6887C21.8888 26.0049 21.7368 26.4222 21.7543 26.8499C21.7718 27.2776 21.9574 27.6812 22.2707 27.9728C23.2562 28.8716 24.4106 29.3589 25.5542 29.5473V30.5588C25.5542 30.7721 25.5962 30.9833 25.6778 31.1804C25.7594 31.3775 25.8791 31.5565 26.0299 31.7074C26.1808 31.8582 26.3598 31.9779 26.5569 32.0595C26.754 32.1411 26.9652 32.1832 27.1785 32.1832C27.3919 32.1832 27.6031 32.1411 27.8002 32.0595C27.9972 31.9779 28.1763 31.8582 28.3272 31.7074C28.478 31.5565 28.5976 31.3775 28.6793 31.1804C28.7609 30.9833 28.8029 30.7721 28.8029 30.5588V29.3134C29.496 29.0903 30.1522 28.7525 30.6894 28.2976C31.3781 27.7172 31.9932 26.8292 31.9932 25.6986C31.9932 24.9731 31.8373 24.2908 31.4886 23.6909C31.1663 23.1449 30.7072 22.6925 30.1566 22.3784C29.2794 21.8629 28.1987 21.6637 27.4493 21.5251L27.3561 21.5077C26.4422 21.3388 25.9202 21.2262 25.5867 21.0377C25.4632 20.9684 25.435 20.9229 25.4307 20.9121C25.4242 20.9013 25.3766 20.8233 25.3766 20.5872C25.3766 20.362 25.4632 20.1238 25.6733 19.9158C25.8834 19.7079 26.2992 19.461 27.0551 19.396C27.7092 19.3376 28.242 19.5325 28.6318 19.7556C28.8239 19.867 29.0026 20 29.1646 20.1519L29.1733 20.1606C29.4631 20.4794 29.8676 20.67 30.298 20.6905C30.7283 20.711 31.1492 20.5597 31.468 20.2699C31.7868 19.9802 31.9774 19.5756 31.9979 19.1452C32.0184 18.7149 31.8672 18.294 31.5774 17.9752L31.573 17.9709L31.5687 17.9666L31.5579 17.9557L31.5319 17.9254C31.4229 17.8119 31.3087 17.7035 31.1897 17.6005C30.4972 17.0085 29.682 16.5773 28.8029 16.3379V15.1965Z" fill="#379590"/>
</svg>
