<svg width="34" height="34" viewBox="0 0 34 34" fill="none" xmlns="http://www.w3.org/2000/svg">
<path fill-rule="evenodd" clip-rule="evenodd" d="M15.5681 24.7201C16.6008 24.7475 17.6335 24.7454 18.6704 24.7138C18.6899 24.8152 18.6998 24.9182 18.6999 25.0215V29.8309C18.6999 30.2501 18.5333 30.6521 18.2369 30.9486C17.9405 31.245 17.5384 31.4115 17.1192 31.4115C16.7 31.4115 16.298 31.245 16.0015 30.9486C15.7051 30.6521 15.5386 30.2501 15.5386 29.8309V25.0215C15.5386 24.9182 15.547 24.8171 15.566 24.7201H15.5681Z" fill="#379590"/>
<path fill-rule="evenodd" clip-rule="evenodd" d="M17.2352 2.64381C17.1622 2.60743 17.0817 2.5885 17.0002 2.5885C16.9186 2.5885 16.8382 2.60743 16.7652 2.64381C13.1107 4.46471 9.804 7.75246 8.0105 11.4996C7.89918 11.7294 7.85647 11.9864 7.8875 12.2399C7.91852 12.4933 8.02196 12.7324 8.18542 12.9285C8.34659 13.1202 8.54843 13.2735 8.77628 13.3774C9.00412 13.4813 9.25225 13.5332 9.50263 13.5292H10.5817C10.8767 13.5292 11.0685 13.6767 11.1507 13.8327C11.2329 13.9802 11.2287 14.1509 11.0875 14.309C9.09166 16.5219 7.69437 18.5283 5.86503 21.6811C5.31075 22.6358 5.99148 23.6685 6.98835 23.8434C13.7872 25.0384 20.2152 25.0384 27.012 23.8434C28.0088 23.6685 28.6896 22.6358 28.1353 21.6811C26.306 18.5283 24.9108 16.5219 22.9149 14.309C22.7737 14.1509 22.7674 13.9802 22.8475 13.8327C22.9318 13.6767 23.1215 13.5292 23.4186 13.5292H24.4977C24.7481 13.5332 24.9962 13.4813 25.2241 13.3774C25.4519 13.2735 25.6537 13.1202 25.8149 12.9285C25.9786 12.7325 26.0822 12.4934 26.1132 12.2399C26.1443 11.9864 26.1014 11.7294 25.9898 11.4996C24.1963 7.75246 20.8917 4.46471 17.2352 2.64381Z" fill="#ADE2DC"/>
</svg>
