<svg width="24" height="24" viewBox="0 0 24 24" fill="none" xmlns="http://www.w3.org/2000/svg">
<path fill-rule="evenodd" clip-rule="evenodd" d="M12.0174 1.45956C13.1856 1.39577 14.2397 1.39577 15.408 1.45956C15.9479 1.48904 16.394 1.90511 16.4769 2.45665C16.5968 3.25449 16.5968 3.9911 16.4769 4.78893C16.394 5.34048 15.9479 5.75655 15.408 5.78603C14.6221 5.82894 13.8878 5.84298 13.1358 5.82816V8.24576C13.1358 8.87231 12.6279 9.38022 12.0013 9.38022C11.3748 9.38022 10.8669 8.87231 10.8669 8.24576V4.10698C10.8669 4.08057 10.8678 4.05437 10.8695 4.02842C10.841 3.50726 10.8673 2.99594 10.9484 2.45665C11.0313 1.90511 11.4774 1.48904 12.0174 1.45956Z" fill="#379590"/>
<path fill-rule="evenodd" clip-rule="evenodd" d="M4.07475 12.9308C4.06529 12.9308 4.05584 12.9309 4.04639 12.9313C2.85667 12.9759 1.81197 13.8399 1.64471 15.0645C1.49348 16.1717 1.41162 16.9196 1.41162 17.679C1.41162 18.4384 1.49348 19.1864 1.64471 20.2935C1.81198 21.5181 2.85667 22.3821 4.04639 22.4268C9.78443 22.6422 14.2154 22.6422 19.9534 22.4268C21.1431 22.3821 22.1879 21.5181 22.3551 20.2935C22.5063 19.1864 22.5881 18.4384 22.5881 17.679C22.5881 16.9196 22.5063 16.1717 22.3551 15.0645C22.1879 13.8399 21.1431 12.9759 19.9534 12.9313C19.9439 12.9309 19.9345 12.9308 19.925 12.9308H4.07475Z" fill="#379590"/>
<path fill-rule="evenodd" clip-rule="evenodd" d="M17.6889 13.5507C17.6659 13.0854 17.6373 12.6095 17.603 12.1177C17.4386 8.75549 14.6242 7.13982 12.0039 7.13669C10.6827 7.13512 9.33271 7.53097 8.27953 8.36155C7.21243 9.20309 6.48286 10.4679 6.40245 12.1083C6.36786 12.6034 6.339 13.0824 6.31587 13.5507C6.3152 13.5641 6.3149 13.5776 6.31495 13.5911L6.34819 21.7823C6.34986 22.1932 6.67937 22.5277 7.09025 22.5354C10.9312 22.6077 13.0693 22.6027 16.9081 22.5354C17.3191 22.5281 17.6491 22.1938 17.6511 21.7827L17.6898 13.5916C17.69 13.5779 17.6897 13.5643 17.6889 13.5507Z" fill="#ADE2DC"/>
<path fill-rule="evenodd" clip-rule="evenodd" d="M13.511 22.5814C13.511 22.5752 13.5111 22.5688 13.5111 22.5626V19.4363C13.5111 18.6009 12.8339 17.9237 11.9985 17.9237C11.1631 17.9237 10.4858 18.6009 10.4858 19.4363V22.5626C10.4858 22.5693 10.4859 22.5759 10.486 22.5824C11.5156 22.59 12.4817 22.5894 13.511 22.5814Z" fill="#379590"/>
<path d="M11.9998 14.5506C13.0665 14.5506 13.6665 13.9312 13.6665 12.8302C13.6665 11.7292 13.0665 11.1098 11.9998 11.1098C10.933 11.1098 10.333 11.7292 10.333 12.8302C10.333 13.9312 10.933 14.5506 11.9998 14.5506Z" fill="#379590"/>
</svg>
