<svg width="24" height="24" viewBox="0 0 24 24" fill="none" xmlns="http://www.w3.org/2000/svg">
<path fill-rule="evenodd" clip-rule="evenodd" d="M10.5074 2.59373C10.9143 2.28485 11.411 2.11765 11.9219 2.11765C12.4327 2.11765 12.9295 2.28485 13.3363 2.59373L14.3656 3.37503C17.3897 5.67189 19.9805 8.48919 22.0164 11.6949L22.3454 12.2142C22.4951 12.4499 22.5788 12.7216 22.5876 13.0007C22.5964 13.2799 22.5301 13.5563 22.3956 13.8011C22.2611 14.0458 22.0634 14.25 21.823 14.3922C21.5827 14.5344 21.3085 14.6095 21.0292 14.6095H19.9516C20.014 16.0443 19.936 17.4805 19.7177 18.9012C19.4994 20.3141 18.283 21.3559 16.8545 21.3559H6.98922C5.55918 21.3559 4.34434 20.3141 4.12757 18.9028C3.90924 17.4805 3.83127 16.0427 3.89365 14.6095H2.81449C2.5352 14.6095 2.26106 14.5344 2.0207 14.3922C1.78033 14.25 1.58258 14.0458 1.44808 13.8011C1.31359 13.5563 1.24729 13.2799 1.25612 13.0007C1.26496 12.7216 1.34859 12.4499 1.49828 12.2142L1.82733 11.6949C3.86323 8.48919 6.45398 5.67189 9.47815 3.37503L10.5074 2.59373Z" fill="#ADE2DC"/>
<path fill-rule="evenodd" clip-rule="evenodd" d="M9.97239 21.3559V16.2158C9.97239 15.6988 10.1778 15.203 10.5433 14.8374C10.9089 14.4718 11.4047 14.2664 11.9217 14.2664C12.4387 14.2664 12.9346 14.4718 13.3001 14.8374C13.6657 15.203 13.8711 15.6988 13.8711 16.2158V21.3559H9.97239Z" fill="#379590"/>
</svg>
