<svg width="24" height="24" viewBox="0 0 24 24" fill="none" xmlns="http://www.w3.org/2000/svg">
<path fill-rule="evenodd" clip-rule="evenodd" d="M12.0002 2.82352C10.9298 2.82352 9.57337 2.97835 8.26081 3.29889C6.95885 3.61536 5.62812 4.11382 4.66074 4.83911C4.03095 5.31177 3.38754 6.052 2.84859 6.87915C2.28148 7.73773 1.85907 8.66685 1.59508 9.63634C1.35285 10.5776 1.30743 11.5908 1.72527 12.4492C2.16733 13.3592 3.06962 13.9772 4.42003 14.1796L4.48361 14.1891L5.21937 14.1864C5.17395 14.6454 5.1467 15.1032 5.1467 15.5473C5.1467 17.6838 5.7447 19.1384 7.06634 20.0009C8.32288 20.8213 10.0669 20.9788 11.9593 20.9788C13.8517 20.9788 15.5942 20.8213 16.8507 20.0009C18.1739 19.1384 18.7719 17.6838 18.7719 15.5459C18.7719 15.1032 18.7446 14.6454 18.6992 14.1877H19.5167L19.5803 14.1796C20.9292 13.9772 21.833 13.3592 22.275 12.4492C22.6929 11.5908 22.646 10.5776 22.4052 9.63634C22.1412 8.66685 21.7188 7.73773 21.1517 6.87915C20.6128 6.052 19.9694 5.31177 19.3396 4.83911C18.3707 4.11382 17.0384 3.61672 15.7365 3.29889C14.5185 2.99901 13.263 2.83927 12.0002 2.82352Z" fill="#ADE2DC"/>
<path fill-rule="evenodd" clip-rule="evenodd" d="M9.87822 10.7935C9.87822 10.5684 9.77854 10.3525 9.60109 10.1933C9.42364 10.0341 9.18298 9.94464 8.93203 9.94464C8.68109 9.94464 8.44042 10.0341 8.26297 10.1933C8.08553 10.3525 7.98584 10.5684 7.98584 10.7935V11.4726C7.98584 11.6978 8.08553 11.9137 8.26297 12.0729C8.44042 12.2321 8.68109 12.3215 8.93203 12.3215C9.18298 12.3215 9.42364 12.2321 9.60109 12.0729C9.77854 11.9137 9.87822 11.6978 9.87822 11.4726V10.7935ZM15.9338 10.7935C15.9338 10.5684 15.8342 10.3525 15.6567 10.1933C15.4793 10.0341 15.2386 9.94464 14.9877 9.94464C14.7367 9.94464 14.496 10.0341 14.3186 10.1933C14.1412 10.3525 14.0415 10.5684 14.0415 10.7935V11.4726C14.0415 11.6978 14.1412 11.9137 14.3186 12.0729C14.496 12.2321 14.7367 12.3215 14.9877 12.3215C15.2386 12.3215 15.4793 12.2321 15.6567 12.0729C15.8342 11.9137 15.9338 11.6978 15.9338 11.4726V10.7935ZM10.8698 14.7867C10.7586 14.7367 10.6375 14.7069 10.5134 14.699C10.3894 14.691 10.2648 14.7051 10.1467 14.7404C10.0287 14.7756 9.9196 14.8314 9.8256 14.9044C9.7316 14.9775 9.65457 15.0665 9.59891 15.1663C9.54324 15.2661 9.51003 15.3748 9.50117 15.4861C9.4923 15.5974 9.50797 15.7092 9.54726 15.815C9.58655 15.9209 9.6487 16.0188 9.73017 16.1032C9.81163 16.1875 9.91081 16.2566 10.022 16.3065L11.536 16.9856C11.6675 17.0448 11.8127 17.0756 11.9598 17.0756C12.107 17.0756 12.2522 17.0448 12.3837 16.9856L13.8976 16.3065C14.0088 16.2566 14.1079 16.1875 14.1892 16.1032C14.2706 16.0189 14.3327 15.9211 14.3719 15.8152C14.4111 15.7094 14.4267 15.5977 14.4178 15.4865C14.4089 15.3753 14.3757 15.2667 14.32 15.167C14.2644 15.0673 14.1873 14.9784 14.0934 14.9054C13.9994 14.8324 13.8904 14.7767 13.7724 14.7415C13.6545 14.7063 13.53 14.6923 13.406 14.7003C13.282 14.7083 13.161 14.7381 13.0499 14.788L11.9598 15.277L10.8698 14.788V14.7867Z" fill="#379590"/>
<path fill-rule="evenodd" clip-rule="evenodd" d="M20.46 13.4095L20.5205 13.9474C20.2174 14.0547 19.9022 14.1321 19.5804 14.1782L19.5168 14.1891L18.6993 14.1864L18.6357 13.6024C18.454 12.3324 18.0937 11.0679 17.8137 10.09L17.7804 9.97321C17.634 9.46169 17.475 8.95313 17.3035 8.44793L17.2732 8.36372L17.2656 8.34199V8.33791C17.2063 8.12842 17.2381 7.90652 17.3546 7.71733C17.4712 7.52814 17.6636 7.38587 17.8929 7.31944C18.1222 7.25301 18.371 7.26742 18.5889 7.35972C18.8067 7.45203 18.9772 7.61531 19.0657 7.81636L19.0687 7.82586L19.0778 7.85167L19.1111 7.94675C19.2918 8.47849 19.4594 9.01376 19.6137 9.55216C19.9089 10.5844 20.2571 11.9793 20.4585 13.3986V13.4081L20.46 13.4095ZM5.28911 13.6132L5.21947 14.1864L4.48371 14.1891L4.42013 14.1796C4.07658 14.1299 3.74072 14.0442 3.41943 13.9243L3.4921 13.3986C3.69345 11.9793 4.04165 10.5844 4.33686 9.5508C4.49114 9.01284 4.65872 8.47803 4.83948 7.94675L4.87278 7.85167L4.88187 7.82586L4.88338 7.81907V7.81636C4.97017 7.61335 5.14035 7.44789 5.35893 7.35398C5.57751 7.26008 5.82789 7.24487 6.05858 7.31149C6.28928 7.3781 6.48276 7.52147 6.59926 7.71213C6.71576 7.90279 6.74641 8.12624 6.68493 8.33655V8.34199L6.67736 8.36372L6.64708 8.44793L6.53657 8.77797C6.36478 9.29984 6.20628 9.82515 6.0612 10.3535C5.7887 11.2907 5.45261 12.4492 5.28911 13.6105V13.6119V13.6132Z" fill="#379590"/>
</svg>
