<svg width="34" height="34" viewBox="0 0 34 34" fill="none" xmlns="http://www.w3.org/2000/svg">
<path fill-rule="evenodd" clip-rule="evenodd" d="M17.0004 4C15.4841 4 13.5625 4.21935 11.703 4.67345C9.85857 5.12177 7.97338 5.82793 6.60292 6.85543C5.71072 7.52503 4.79922 8.57368 4.03571 9.74549C3.23231 10.9618 2.63389 12.278 2.2599 13.6515C1.91674 14.9849 1.8524 16.4203 2.44434 17.6364C3.07059 18.9256 4.34883 19.8011 6.26191 20.0877L6.35198 20.1012L7.39431 20.0974C7.32997 20.7477 7.29136 21.3962 7.29136 22.0254C7.29136 25.052 8.13852 27.1128 10.0108 28.3346C11.7909 29.4968 14.2616 29.72 16.9425 29.72C19.6234 29.72 22.0919 29.4968 23.872 28.3346C25.7465 27.1128 26.5937 25.052 26.5937 22.0234C26.5937 21.3962 26.5551 20.7477 26.4907 20.0993H27.6489L27.7389 20.0877C29.6499 19.8011 30.9303 18.9256 31.5565 17.6364C32.1484 16.4203 32.082 14.9849 31.741 13.6515C31.367 12.278 30.7685 10.9618 29.9651 9.74549C29.2016 8.57368 28.2901 7.52503 27.3979 6.85543C26.0253 5.82793 24.138 5.1237 22.2935 4.67345C20.5681 4.24861 18.7895 4.02231 17.0004 4Z" fill="#ADE2DC"/>
<path fill-rule="evenodd" clip-rule="evenodd" d="M13.9939 15.2908C13.9939 14.9719 13.8526 14.666 13.6013 14.4405C13.3499 14.215 13.0089 14.0883 12.6534 14.0883C12.2979 14.0883 11.957 14.215 11.7056 14.4405C11.4542 14.666 11.313 14.9719 11.313 15.2908V16.2529C11.313 16.5719 11.4542 16.8777 11.7056 17.1033C11.957 17.3288 12.2979 17.4555 12.6534 17.4555C13.0089 17.4555 13.3499 17.3288 13.6013 17.1033C13.8526 16.8777 13.9939 16.5719 13.9939 16.2529V15.2908ZM22.5727 15.2908C22.5727 14.9719 22.4314 14.666 22.1801 14.4405C21.9287 14.215 21.5877 14.0883 21.2322 14.0883C20.8767 14.0883 20.5358 14.215 20.2844 14.4405C20.033 14.666 19.8918 14.9719 19.8918 15.2908V16.2529C19.8918 16.5719 20.033 16.8777 20.2844 17.1033C20.5358 17.3288 20.8767 17.4555 21.2322 17.4555C21.5877 17.4555 21.9287 17.3288 22.1801 17.1033C22.4314 16.8777 22.5727 16.5719 22.5727 16.2529V15.2908ZM15.3986 20.9478C15.2411 20.8771 15.0695 20.8349 14.8937 20.8236C14.718 20.8123 14.5414 20.8322 14.3743 20.8822C14.2071 20.9321 14.0525 21.0111 13.9193 21.1146C13.7862 21.2182 13.677 21.3442 13.5982 21.4856C13.5193 21.627 13.4723 21.7809 13.4597 21.9386C13.4471 22.0963 13.4693 22.2547 13.525 22.4047C13.5807 22.5547 13.6687 22.6933 13.7841 22.8128C13.8995 22.9323 14.04 23.0302 14.1976 23.1009L16.3423 24.063C16.5287 24.1468 16.7343 24.1904 16.9428 24.1904C17.1513 24.1904 17.3569 24.1468 17.5433 24.063L19.688 23.1009C19.8455 23.0302 19.9859 22.9323 20.1011 22.8129C20.2164 22.6935 20.3043 22.5548 20.3599 22.4049C20.4155 22.255 20.4376 22.0968 20.425 21.9392C20.4124 21.7816 20.3653 21.6278 20.2864 21.4866C20.2076 21.3453 20.0985 21.2194 19.9654 21.116C19.8322 21.0126 19.6777 20.9337 19.5106 20.8838C19.3436 20.834 19.1672 20.8141 18.9915 20.8254C18.8159 20.8368 18.6445 20.879 18.487 20.9497L16.9428 21.6424L15.3986 20.9497V20.9478Z" fill="#379590"/>
<path fill-rule="evenodd" clip-rule="evenodd" d="M28.985 18.9968L29.0708 19.7587C28.6414 19.9107 28.1948 20.0204 27.7389 20.0858L27.6488 20.1012L26.4907 20.0974L26.4006 19.27C26.1433 17.4709 25.6328 15.6795 25.2361 14.2942L25.1889 14.1287C24.9815 13.404 24.7562 12.6836 24.5133 11.9679L24.4704 11.8486L24.4597 11.8178V11.812C24.3756 11.5152 24.4207 11.2009 24.5858 10.9329C24.7509 10.6648 25.0235 10.4633 25.3483 10.3692C25.6731 10.2751 26.0256 10.2955 26.3343 10.4262C26.6429 10.557 26.8844 10.7883 27.0097 11.0731L27.014 11.0866L27.0269 11.1232L27.0741 11.2579C27.3301 12.0112 27.5675 12.7695 27.7861 13.5322C28.2043 14.9945 28.6976 16.9706 28.9829 18.9814V18.9948L28.985 18.9968ZM7.49294 19.2854L7.39429 20.0974L6.35196 20.1012L6.26189 20.0877C5.77519 20.0173 5.29939 19.8959 4.84424 19.726L4.94718 18.9814C5.23243 16.9706 5.72571 14.9945 6.14393 13.5303C6.36249 12.7682 6.59989 12.0105 6.85597 11.2579L6.90315 11.1232L6.91602 11.0866L6.91816 11.077V11.0731C7.04112 10.7856 7.2822 10.5511 7.59186 10.4181C7.90152 10.2851 8.25621 10.2635 8.58303 10.3579C8.90985 10.4523 9.18395 10.6554 9.34899 10.9255C9.51403 11.1956 9.55746 11.5121 9.47036 11.8101V11.8178L9.45964 11.8486L9.41674 11.9679L9.26018 12.4354C9.01681 13.1747 8.79227 13.9189 8.58674 14.6674C8.2007 15.9951 7.72457 17.6364 7.49294 19.2815V19.2835V19.2854Z" fill="#379590"/>
</svg>
