<svg width="34" height="34" viewBox="0 0 34 34" fill="none" xmlns="http://www.w3.org/2000/svg">
<path fill-rule="evenodd" clip-rule="evenodd" d="M17.1542 6.6946C16.0807 6.6946 14.1479 6.74977 11.8566 6.91737V4.4245C11.8566 4.00249 11.689 3.59777 11.3906 3.29936C11.0922 3.00096 10.6874 2.83331 10.2654 2.83331C9.84341 2.83331 9.43869 3.00096 9.14028 3.29936C8.84187 3.59777 8.67423 4.00249 8.67423 4.4245V7.22925C7.20215 7.50531 5.86126 8.25664 4.8572 9.368C3.85314 10.4794 3.24136 11.8894 3.11567 13.3819C2.94698 15.3386 2.85286 17.3011 2.8335 19.265C2.8335 20.3173 2.89927 22.6171 3.11567 25.1461C3.25147 26.7426 3.94241 28.241 5.06838 29.3809C6.19436 30.5209 7.68418 31.2302 9.27888 31.3857C12.6522 31.7315 15.6967 31.8333 17.1542 31.8333C18.6118 31.8333 21.6562 31.7315 25.0296 31.3878C26.6246 31.2323 28.1147 30.5226 29.2407 29.3822C30.3667 28.2419 31.0574 26.7429 31.1928 25.1461C31.3615 23.19 31.4556 21.2282 31.4749 19.265C31.4749 18.2127 31.4092 15.9108 31.1928 13.3797C31.0667 11.8848 30.453 10.4727 29.446 9.36066C28.439 8.24863 27.0945 7.49826 25.6194 7.225V4.4245C25.6194 4.00249 25.4517 3.59777 25.1533 3.29936C24.8549 3.00096 24.4502 2.83331 24.0282 2.83331C23.6062 2.83331 23.2014 3.00096 22.903 3.29936C22.6046 3.59777 22.437 4.00249 22.437 4.4245V6.91525C20.679 6.7825 18.9171 6.70891 17.1542 6.6946Z" fill="#ADE2DC"/>
<path fill-rule="evenodd" clip-rule="evenodd" d="M8.40283 15.6668C8.40283 14.9349 8.99688 14.3408 9.72883 14.3408H10.7896C11.1413 14.3408 11.4786 14.4805 11.7272 14.7292C11.9759 14.9779 12.1156 15.3151 12.1156 15.6668C12.1156 16.0185 11.9759 16.3558 11.7272 16.6044C11.4786 16.8531 11.1413 16.9928 10.7896 16.9928H9.72883C9.37715 16.9928 9.03988 16.8531 8.79121 16.6044C8.54253 16.3558 8.40283 16.0185 8.40283 15.6668ZM8.40283 22.0316C8.40283 21.2996 8.99688 20.7056 9.72883 20.7056H10.7896C11.1413 20.7056 11.4786 20.8453 11.7272 21.094C11.9759 21.3426 12.1156 21.6799 12.1156 22.0316C12.1156 22.3833 11.9759 22.7205 11.7272 22.9692C11.4786 23.2179 11.1413 23.3576 10.7896 23.3576H9.72883C9.37715 23.3576 9.03988 23.2179 8.79121 22.9692C8.54253 22.7205 8.40283 22.3833 8.40283 22.0316ZM16.624 14.3429C16.2723 14.3429 15.935 14.4826 15.6864 14.7313C15.4377 14.98 15.298 15.3173 15.298 15.6689C15.298 16.0206 15.4377 16.3579 15.6864 16.6066C15.935 16.8552 16.2723 16.9949 16.624 16.9949H17.6848C18.0365 16.9949 18.3737 16.8552 18.6224 16.6066C18.8711 16.3579 19.0108 16.0206 19.0108 15.6689C19.0108 15.3173 18.8711 14.98 18.6224 14.7313C18.3737 14.4826 18.0365 14.3429 17.6848 14.3429H16.624ZM22.1932 15.6689C22.1932 14.937 22.7872 14.3429 23.5192 14.3429H24.5799C24.9316 14.3429 25.2689 14.4826 25.5176 14.7313C25.7662 14.98 25.9059 15.3173 25.9059 15.6689C25.9059 16.0206 25.7662 16.3579 25.5176 16.6066C25.2689 16.8552 24.9316 16.9949 24.5799 16.9949H23.5192C23.1675 16.9949 22.8302 16.8552 22.5815 16.6066C22.3329 16.3579 22.1932 16.0206 22.1932 15.6689ZM16.624 20.7077C16.2723 20.7077 15.935 20.8474 15.6864 21.0961C15.4377 21.3448 15.298 21.682 15.298 22.0337C15.298 22.3854 15.4377 22.7226 15.6864 22.9713C15.935 23.22 16.2723 23.3597 16.624 23.3597H17.6848C18.0365 23.3597 18.3737 23.22 18.6224 22.9713C18.8711 22.7226 19.0108 22.3854 19.0108 22.0337C19.0108 21.682 18.8711 21.3448 18.6224 21.0961C18.3737 20.8474 18.0365 20.7077 17.6848 20.7077H16.624Z" fill="#379590"/>
</svg>
