<svg width="70" height="70" viewBox="0 0 70 70" fill="none" xmlns="http://www.w3.org/2000/svg">
<path fill-rule="evenodd" clip-rule="evenodd" d="M30.6462 7.56502C31.8328 6.66414 33.2818 6.17645 34.7716 6.17645C36.2615 6.17645 37.7105 6.66414 38.8971 7.56502L41.8991 9.84382C50.7196 16.543 58.276 24.7601 64.214 34.11L65.1738 35.6247C65.6104 36.3123 65.8543 37.1047 65.88 37.9188C65.9058 38.733 65.7124 39.5391 65.3202 40.2531C64.9279 40.967 64.3511 41.5624 63.65 41.9772C62.949 42.392 62.1494 42.611 61.3348 42.6111H58.1918C58.3738 46.7957 58.1463 50.9849 57.5095 55.1286C56.8728 59.2495 53.3249 62.2879 49.1585 62.2879H20.3848C16.2138 62.2879 12.6705 59.2495 12.0383 55.1331C11.4015 50.9849 11.1741 46.7912 11.356 42.6111H8.20847C7.39389 42.611 6.5943 42.392 5.89324 41.9772C5.19219 41.5624 4.6154 40.967 4.22313 40.2531C3.83085 39.5391 3.63749 38.733 3.66325 37.9188C3.689 37.1047 3.93293 36.3123 4.36954 35.6247L5.32928 34.11C11.2673 24.7601 18.8237 16.543 27.6442 9.84382L30.6462 7.56502Z" fill="#ADE2DC"/>
<path fill-rule="evenodd" clip-rule="evenodd" d="M29.0863 62.2879V47.2961C29.0863 45.7882 29.6853 44.342 30.7516 43.2758C31.8178 42.2095 33.264 41.6105 34.7719 41.6105C36.2798 41.6105 37.726 42.2095 38.7922 43.2758C39.8585 44.342 40.4575 45.7882 40.4575 47.2961V62.2879H29.0863Z" fill="#379590"/>
</svg>
