<svg width="34" height="34" viewBox="0 0 34 34" fill="none" xmlns="http://www.w3.org/2000/svg">
<path fill-rule="evenodd" clip-rule="evenodd" d="M23.2712 5.52949C24.8216 5.38111 26.3775 5.74873 27.6975 6.57526C29.0176 7.40179 30.0278 8.64101 30.5714 10.1005C30.7501 10.6795 30.692 11.3058 30.4099 11.8421C30.1277 12.3783 29.6444 12.7809 29.066 12.9615L22.1974 15.1902L21.7658 15.3321L20.5461 19.5039C20.484 19.739 20.3624 19.9541 20.1932 20.1287C20.024 20.3033 19.8127 20.4314 19.5796 20.5008L16.4858 21.5058C16.2369 21.6082 15.9649 21.6407 15.699 21.6C15.4331 21.5592 15.1833 21.4467 14.9765 21.2746C14.7698 21.1024 14.6139 20.8771 14.5257 20.623C14.4374 20.3688 14.4202 20.0954 14.4758 19.8322L14.9499 17.5223L8.63249 19.5627C8.35322 19.6646 8.05653 19.7101 7.75957 19.6966C7.46261 19.6831 7.17128 19.6108 6.90241 19.484C6.63354 19.3572 6.39248 19.1784 6.19317 18.9578C5.99385 18.7373 5.84024 18.4794 5.74121 18.1991L5.73716 18.1869L3.38685 10.8927L3.38077 10.8765C3.281 10.5268 3.32148 10.1519 3.4936 9.83144C3.66573 9.51102 3.95595 9.2703 4.30266 9.16037L7.07845 8.26886C7.37155 8.17747 7.68822 8.18226 7.97841 8.28251C8.26859 8.38277 8.51909 8.57323 8.69327 8.82605L10.3547 11.456L20.384 6.46152C21.2677 5.9456 22.2527 5.62761 23.2712 5.52949Z" fill="#ADE2DC"/>
<path fill-rule="evenodd" clip-rule="evenodd" d="M31.1668 26.4765C31.1668 25.9392 30.9534 25.4238 30.5734 25.0438C30.1934 24.6638 29.6781 24.4504 29.1407 24.4504H4.85962C4.32226 24.4504 3.80691 24.6638 3.42693 25.0438C3.04696 25.4238 2.8335 25.9392 2.8335 26.4765C2.8335 27.0139 3.04696 27.5293 3.42693 27.9093C3.80691 28.2892 4.32226 28.5027 4.85962 28.5027H29.1407C29.6781 28.5027 30.1934 28.2892 30.5734 27.9093C30.9534 27.5293 31.1668 27.0139 31.1668 26.4765Z" fill="#379590"/>
</svg>
