<svg width="70" height="70" viewBox="0 0 70 70" fill="none" xmlns="http://www.w3.org/2000/svg">
<path fill-rule="evenodd" clip-rule="evenodd" d="M32.0515 50.8943C34.1776 50.9507 36.3037 50.9464 38.4385 50.8813C38.4787 51.0901 38.499 51.3022 38.4993 51.5148V61.4165C38.4993 62.2795 38.1564 63.1073 37.5461 63.7176C36.9358 64.3279 36.1081 64.6707 35.245 64.6707C34.3819 64.6707 33.5542 64.3279 32.9439 63.7176C32.3336 63.1073 31.9907 62.2795 31.9907 61.4165V51.5148C31.9907 51.3022 32.0081 51.0939 32.0471 50.8943H32.0515Z" fill="#379590"/>
<path fill-rule="evenodd" clip-rule="evenodd" d="M35.4838 5.44309C35.3335 5.3682 35.1679 5.32922 35 5.32922C34.8321 5.32922 34.6665 5.3682 34.5162 5.44309C26.9923 9.19201 20.1844 15.9609 16.4919 23.6757C16.2627 24.1488 16.1748 24.6779 16.2387 25.1997C16.3025 25.7214 16.5155 26.2137 16.852 26.6176C17.1838 27.0121 17.5994 27.3278 18.0685 27.5417C18.5376 27.7557 19.0484 27.8624 19.5639 27.8542H21.7855C22.393 27.8542 22.7878 28.1579 22.957 28.479C23.1263 28.7827 23.1176 29.1342 22.8269 29.4596C18.7178 34.0156 15.841 38.1464 12.0747 44.6376C10.9336 46.6031 12.3351 48.7293 14.3875 49.0894C28.3852 51.5496 41.6192 51.5496 55.6126 49.0894C57.665 48.7293 59.0665 46.6031 57.9253 44.6376C54.159 38.1464 51.2866 34.0156 47.1775 29.4596C46.8868 29.1342 46.8738 28.7827 47.0387 28.479C47.2122 28.1579 47.6027 27.8542 48.2145 27.8542H50.4361C50.9516 27.8624 51.4625 27.7557 51.9316 27.5417C52.4006 27.3278 52.8162 27.0121 53.148 26.6176C53.485 26.214 53.6983 25.7217 53.7622 25.1998C53.8261 24.6779 53.7379 24.1486 53.5082 23.6757C49.8156 15.9609 43.012 9.19201 35.4838 5.44309Z" fill="#ADE2DC"/>
</svg>
