<svg width="34" height="34" viewBox="0 0 34 34" fill="none" xmlns="http://www.w3.org/2000/svg">
<path fill-rule="evenodd" clip-rule="evenodd" d="M20.4197 1.41669H13.5801L9.33008 5.66669L15.9983 12.3349H18.0015L24.6697 5.66669L20.4197 1.41669Z" fill="#379590"/>
<path fill-rule="evenodd" clip-rule="evenodd" d="M16.9998 12.75C14.7455 12.75 12.5835 13.6456 10.9894 15.2396C9.39537 16.8337 8.49984 18.9957 8.49984 21.25C8.49984 23.5044 9.39537 25.6664 10.9894 27.2604C12.5835 28.8545 14.7455 29.75 16.9998 29.75C19.2542 29.75 21.4162 28.8545 23.0102 27.2604C24.6043 25.6664 25.4998 23.5044 25.4998 21.25C25.4998 18.9957 24.6043 16.8337 23.0102 15.2396C21.4162 13.6456 19.2542 12.75 16.9998 12.75ZM5.6665 21.25C5.6665 18.2442 6.86055 15.3616 8.98596 13.2361C11.1114 11.1107 13.9941 9.91669 16.9998 9.91669C20.0056 9.91669 22.8883 11.1107 25.0137 13.2361C27.1391 15.3616 28.3332 18.2442 28.3332 21.25C28.3332 24.2558 27.1391 27.1385 25.0137 29.2639C22.8883 31.3893 20.0056 32.5834 16.9998 32.5834C13.9941 32.5834 11.1114 31.3893 8.98596 29.2639C6.86055 27.1385 5.6665 24.2558 5.6665 21.25Z" fill="#ADE2DC"/>
</svg>
