<svg width="70" height="70" viewBox="0 0 70 70" fill="none" xmlns="http://www.w3.org/2000/svg">
<path fill-rule="evenodd" clip-rule="evenodd" d="M35.0009 8.23529C31.8791 8.23529 27.9228 8.6869 24.0945 9.6218C20.2971 10.5448 16.4158 11.9987 13.5943 14.1141C11.7574 15.4927 9.88078 17.6517 8.30884 20.0642C6.65478 22.5684 5.42274 25.2783 4.65275 28.106C3.94626 30.8513 3.8138 33.8066 5.03249 36.3102C6.32184 38.9644 8.95351 40.7669 12.8922 41.3571L13.0776 41.3849L15.2236 41.3769C15.0911 42.7159 15.0117 44.0509 15.0117 45.3463C15.0117 51.5777 16.7558 55.8204 20.6106 58.336C24.2755 60.7287 29.3622 61.1882 34.8817 61.1882C40.4011 61.1882 45.4835 60.7287 49.1484 58.336C53.0076 55.8204 54.7517 51.5777 54.7517 45.3424C54.7517 44.0509 54.6722 42.7159 54.5398 41.3809H56.9242L57.1096 41.3571C61.0439 40.7669 63.68 38.9644 64.9693 36.3102C66.188 33.8066 66.0511 30.8513 65.3491 28.106C64.5791 25.2783 63.347 22.5684 61.693 20.0642C60.121 17.6517 58.2444 15.4927 56.4075 14.1141C53.5816 11.9987 49.6959 10.5488 45.8985 9.6218C42.3462 8.74713 38.6843 8.28122 35.0009 8.23529Z" fill="#ADE2DC"/>
<path fill-rule="evenodd" clip-rule="evenodd" d="M28.811 31.4812C28.811 30.8245 28.5202 30.1948 28.0027 29.7304C27.4851 29.2661 26.7832 29.0052 26.0512 29.0052C25.3193 29.0052 24.6174 29.2661 24.0998 29.7304C23.5823 30.1948 23.2915 30.8245 23.2915 31.4812V33.4619C23.2915 34.1186 23.5823 34.7483 24.0998 35.2126C24.6174 35.677 25.3193 35.9378 26.0512 35.9378C26.7832 35.9378 27.4851 35.677 28.0027 35.2126C28.5202 34.7483 28.811 34.1186 28.811 33.4619V31.4812ZM46.4732 31.4812C46.4732 30.8245 46.1824 30.1948 45.6649 29.7304C45.1473 29.2661 44.4454 29.0052 43.7135 29.0052C42.9815 29.0052 42.2796 29.2661 41.7621 29.7304C41.2445 30.1948 40.9537 30.8245 40.9537 31.4812V33.4619C40.9537 34.1186 41.2445 34.7483 41.7621 35.2126C42.2796 35.677 42.9815 35.9378 43.7135 35.9378C44.4454 35.9378 45.1473 35.677 45.6649 35.2126C46.1824 34.7483 46.4732 34.1186 46.4732 33.4619V31.4812ZM31.7031 43.1279C31.3787 42.9822 31.0255 42.8953 30.6636 42.8721C30.3017 42.8489 29.9383 42.8899 29.5941 42.9927C29.2499 43.0955 28.9316 43.2582 28.6575 43.4714C28.3833 43.6845 28.1586 43.944 27.9963 44.2351C27.8339 44.5262 27.7371 44.8431 27.7112 45.1677C27.6854 45.4924 27.731 45.8184 27.8456 46.1273C27.9602 46.4361 28.1415 46.7216 28.3791 46.9676C28.6167 47.2135 28.906 47.4151 29.2304 47.5608L33.646 49.5415C34.0298 49.714 34.4531 49.8039 34.8823 49.8039C35.3116 49.8039 35.7349 49.714 36.1187 49.5415L40.5343 47.5608C40.8584 47.4151 41.1474 47.2136 41.3847 46.9677C41.6221 46.7219 41.8031 46.4365 41.9175 46.1278C42.0319 45.8192 42.0774 45.4934 42.0515 45.169C42.0255 44.8446 41.9286 44.5279 41.7662 44.2371C41.6038 43.9463 41.3792 43.687 41.1052 43.4741C40.8311 43.2612 40.513 43.0987 40.169 42.9961C39.825 42.8935 39.4618 42.8526 39.1002 42.8759C38.7386 42.8992 38.3857 42.9862 38.0616 43.1318L34.8823 44.558L31.7031 43.1318V43.1279Z" fill="#379590"/>
<path fill-rule="evenodd" clip-rule="evenodd" d="M59.6752 39.111L59.8518 40.6797C58.9677 40.9927 58.0483 41.2185 57.1097 41.3532L56.9243 41.3849L54.5399 41.3769L54.3544 39.6735C53.8246 35.9695 52.7737 32.2814 51.9568 29.4292L51.8596 29.0885C51.4327 27.5965 50.9689 26.1133 50.4687 24.6397L50.3804 24.3941L50.3584 24.3308V24.3189C50.1853 23.7078 50.2782 23.0606 50.618 22.5088C50.9579 21.957 51.5192 21.5421 52.1879 21.3483C52.8566 21.1546 53.5824 21.1966 54.2178 21.4658C54.8532 21.735 55.3504 22.2113 55.6085 22.7977L55.6173 22.8254L55.6438 22.9007L55.7409 23.178C56.268 24.7289 56.7568 26.2901 57.2069 27.8604C58.0679 30.8711 59.0835 34.9396 59.6708 39.0793V39.107L59.6752 39.111ZM15.4269 39.7052L15.2237 41.3769L13.0778 41.3849L12.8923 41.3571C11.8903 41.2122 10.9107 40.9622 9.97363 40.6124L10.1856 39.0793C10.7728 34.9396 11.7884 30.8711 12.6495 27.8565C13.0994 26.2874 13.5882 24.7275 14.1154 23.178L14.2126 22.9007L14.2391 22.8254L14.2435 22.8056V22.7977C14.4966 22.2056 14.993 21.723 15.6305 21.4491C16.268 21.1752 16.9983 21.1308 17.6711 21.3251C18.344 21.5194 18.9083 21.9376 19.2481 22.4937C19.5879 23.0498 19.6773 23.7015 19.498 24.3149V24.3308L19.4759 24.3941L19.3876 24.6397L19.0653 25.6024C18.5642 27.1245 18.1019 28.6567 17.6788 30.1977C16.884 32.9311 15.9037 36.3102 15.4269 39.6973V39.7012V39.7052Z" fill="#379590"/>
</svg>
