<svg width="32" height="32" viewBox="0 0 32 32" fill="none" xmlns="http://www.w3.org/2000/svg">
<path fill-rule="evenodd" clip-rule="evenodd" d="M11.2375 3.50478C10.0995 3.50478 9.01522 4.08381 8.42766 5.1023C7.71331 6.34143 6.56865 8.46069 5.60136 10.8756C6.13773 10.8689 6.79844 10.8609 7.58836 10.8536C8.29969 9.19471 9.10892 7.57951 10.0118 6.01656C10.2537 5.596 10.7145 5.3333 11.2369 5.3333H12.9526C13.1951 5.3333 13.4277 5.23698 13.5991 5.06552C13.7706 4.89406 13.8669 4.66152 13.8669 4.41904C13.8669 4.17656 13.7706 3.94401 13.5991 3.77256C13.4277 3.6011 13.1951 3.50478 12.9526 3.50478H11.2375ZM23.5715 5.1023C24.2865 6.34143 25.4311 8.46069 26.3978 10.8756C25.8614 10.8689 25.2013 10.8609 24.4108 10.8536C23.6997 9.19473 22.8906 7.57953 21.988 6.01656C21.7454 5.596 21.2846 5.3333 20.7623 5.3333H19.0471C18.8046 5.3333 18.5721 5.23698 18.4006 5.06552C18.2292 4.89406 18.1329 4.66152 18.1329 4.41904C18.1329 4.17656 18.2292 3.94401 18.4006 3.77256C18.5721 3.6011 18.8046 3.50478 19.0471 3.50478H20.7623C21.9002 3.50478 22.9833 4.08381 23.5715 5.1023ZM15.9996 16.3051C10.1008 16.3051 6.52782 16.263 4.88032 16.2374C4.68932 16.2341 4.49893 16.2152 4.31104 16.1807C4.37016 16.7073 4.44391 17.3242 4.53412 18.0092C4.82851 20.2468 5.29783 23.2248 5.99815 26.1614C6.19696 27.0079 6.65392 27.7716 7.30582 28.347C7.95772 28.9223 8.77233 29.2808 9.63692 29.3729C11.7505 29.5987 13.8746 29.7127 16.0002 29.7142C18.5705 29.7142 20.8062 29.5399 22.3635 29.3729C23.2281 29.2808 24.0428 28.9222 24.6947 28.3467C25.3466 27.7712 25.8035 27.0074 26.0022 26.1608C26.7019 23.2248 27.1719 20.2467 27.4663 18.0086C27.5559 17.3242 27.6302 16.7073 27.6893 16.1801C27.5013 16.2148 27.3107 16.234 27.1195 16.2374C25.4713 16.263 21.8984 16.3051 15.9996 16.3051Z" fill="#FFC56D"/>
<path d="M15.9996 16.305C10.1008 16.305 6.52788 16.2636 4.88038 16.238C4.0612 16.2252 2.75746 15.8942 2.41431 14.5935C2.32709 14.2567 2.28387 13.9101 2.2857 13.5622C2.2857 13.174 2.33507 12.8308 2.4137 12.5309C2.75746 11.2303 4.0612 10.8999 4.88038 10.8871C6.52788 10.8609 10.1008 10.8194 15.9996 10.8194C21.8985 10.8194 25.4714 10.8609 27.1189 10.8865C27.9381 10.8999 29.2418 11.2303 29.585 12.5309C29.6642 12.8302 29.7136 13.174 29.7136 13.5622C29.7136 13.9505 29.6642 14.2936 29.5856 14.5935C29.2418 15.8942 27.9381 16.2252 27.1189 16.238C25.4708 16.2636 21.8985 16.305 15.9996 16.305Z" fill="#FF840A"/>
<path d="M15.9995 6.55229C16.9784 6.55229 17.6928 6.53889 18.1749 6.52487C18.9934 6.50049 19.8717 5.93791 19.9449 4.90357C19.9677 4.58094 19.9677 4.25709 19.9449 3.93446C19.8717 2.90012 18.9934 2.33754 18.1749 2.31316C17.6934 2.29915 16.9784 2.28574 15.9995 2.28574C15.0207 2.28574 14.3063 2.29915 13.8242 2.31316C13.0056 2.33754 12.1273 2.90012 12.0542 3.93446C12.0314 4.25709 12.0314 4.58094 12.0542 4.90357C12.1273 5.93791 13.0056 6.50049 13.8242 6.52487C14.3057 6.53889 15.0207 6.55229 15.9995 6.55229Z" fill="#FF840A"/>
<path fill-rule="evenodd" clip-rule="evenodd" d="M11.0106 19.3603C11.1297 19.3453 11.2506 19.354 11.3664 19.3858C11.4822 19.4176 11.5906 19.4719 11.6854 19.5456C11.7802 19.6193 11.8596 19.7109 11.919 19.8153C11.9783 19.9196 12.0166 20.0347 12.0315 20.1538L12.641 25.0299C12.6559 25.149 12.6472 25.2699 12.6153 25.3857C12.5835 25.5015 12.5292 25.6099 12.4554 25.7046C12.3817 25.7994 12.2901 25.8787 12.1857 25.9381C12.0813 25.9974 11.9663 26.0356 11.8471 26.0505C11.6065 26.0806 11.3638 26.0138 11.1724 25.865C10.981 25.7161 10.8566 25.4973 10.8265 25.2566L10.217 20.3806C10.187 20.14 10.2537 19.8975 10.4026 19.7061C10.5514 19.5148 10.7701 19.3904 11.0106 19.3603Z" fill="#FF840A"/>
<path fill-rule="evenodd" clip-rule="evenodd" d="M20.9895 19.3603C20.8704 19.3453 20.7495 19.354 20.6337 19.3858C20.5179 19.4176 20.4095 19.4719 20.3147 19.5456C20.2199 19.6193 20.1405 19.7109 20.0812 19.8153C20.0218 19.9196 19.9835 20.0347 19.9686 20.1538L19.3591 25.0299C19.329 25.2705 19.3958 25.5132 19.5447 25.7046C19.6936 25.896 19.9124 26.0205 20.153 26.0505C20.3936 26.0806 20.6363 26.0138 20.8277 25.865C21.0191 25.7161 21.1435 25.4973 21.1736 25.2566L21.7831 20.3806C21.8131 20.14 21.7464 19.8975 21.5976 19.7061C21.4488 19.5148 21.2301 19.3904 20.9895 19.3603Z" fill="#FF840A"/>
<path fill-rule="evenodd" clip-rule="evenodd" d="M15.9997 19.3531C16.2422 19.3531 16.4747 19.4495 16.6462 19.6209C16.8177 19.7924 16.914 20.0249 16.914 20.2674V25.1435C16.914 25.386 16.8177 25.6185 16.6462 25.79C16.4747 25.9614 16.2422 26.0577 15.9997 26.0577C15.7572 26.0577 15.5247 25.9614 15.3532 25.79C15.1818 25.6185 15.0854 25.386 15.0854 25.1435V20.2674C15.0854 20.0249 15.1818 19.7924 15.3532 19.6209C15.5247 19.4495 15.7572 19.3531 15.9997 19.3531Z" fill="#FF840A"/>
</svg>
