<svg width="32" height="32" viewBox="0 0 32 32" fill="none" xmlns="http://www.w3.org/2000/svg">
<path fill-rule="evenodd" clip-rule="evenodd" d="M28.7275 29.3334C21.3638 29.3334 15.3941 23.3637 15.3941 16C15.3941 8.63637 21.3638 2.66666 28.7275 2.66666V29.3334ZM3.27295 3.87879V10.5455C3.27306 11.728 3.65726 12.8784 4.36773 13.8237C5.07821 14.7689 6.0765 15.4578 7.21234 15.7867V28.1212H10.2426V15.7867C11.3785 15.4578 12.3768 14.7689 13.0872 13.8237C13.7977 12.8784 14.1819 11.728 14.182 10.5455V3.87879H11.7578V9.33334H9.93961V3.87879H7.51537V9.33334H5.69719V3.87879H3.27295Z" fill="#FFC56D"/>
<path fill-rule="evenodd" clip-rule="evenodd" d="M28.7272 9.63639C27.0395 9.63639 25.4209 10.3068 24.2275 11.5003C23.034 12.6937 22.3636 14.3123 22.3636 16C22.3636 17.6878 23.034 19.3064 24.2275 20.4998C25.4209 21.6932 27.0395 22.3637 28.7272 22.3637V24.1819C26.5573 24.1819 24.4762 23.3198 22.9418 21.7855C21.4074 20.2511 20.5454 18.17 20.5454 16C20.5454 13.8301 21.4074 11.749 22.9418 10.2146C24.4762 8.68022 26.5573 7.81821 28.7272 7.81821V9.63639Z" fill="#FF840A"/>
</svg>
